<svg width="66" height="106" viewBox="0 0 66 106" fill="none" xmlns="http://www.w3.org/2000/svg">
<mask id="path-1-outside-1_47_8113" maskUnits="userSpaceOnUse" x="0.544922" y="25.8912" width="60" height="62" fill="black">
<rect fill="white" x="0.544922" y="25.8912" width="60" height="62"/>
<path d="M10.9341 28.4775H32.5536C36.928 28.4775 40.1106 28.3934 42.1015 28.2252C44.1204 28.0289 46.0833 27.6503 47.9901 27.0895C48.5789 26.9213 49.0416 26.8372 49.3781 26.8372C50.8362 26.8372 52.1261 27.6223 53.2477 29.1926C55.0984 31.7443 56.0238 34.8288 56.0238 38.4461C56.0238 40.2687 55.6312 41.7128 54.8461 42.7784C54.089 43.8159 53.0374 44.3347 51.6915 44.3347C50.7661 44.3347 50.0371 44.1524 49.5043 43.7879C48.9996 43.3953 48.3125 42.54 47.4433 41.2221C46.2095 39.3434 44.6392 38.0956 42.7324 37.4787C40.8537 36.8337 37.7552 36.5113 33.4369 36.5113C30.2122 36.5113 28.2493 37.0861 27.5483 38.2358C27.1838 38.8527 26.9594 39.6799 26.8753 40.7174C26.8192 41.7549 26.7912 44.4048 26.7912 48.667C26.7912 50.3494 27.0716 51.401 27.6324 51.8216C28.1932 52.2141 29.6654 52.4104 32.0488 52.4104C33.2266 52.4104 34.0818 52.1721 34.6146 51.6954C35.1474 51.1907 35.4839 50.3074 35.6241 49.0455C35.8203 47.4192 36.0166 46.3115 36.2129 45.7227C36.4372 45.1058 36.8298 44.573 37.3906 44.1244C37.9795 43.6196 38.6665 43.3673 39.4516 43.3673C40.6013 43.3673 41.5827 43.914 42.3959 45.0076C42.9848 45.8208 43.4755 47.2649 43.8681 49.34C44.2887 51.3869 44.499 53.5321 44.499 55.7753C44.499 60.2058 43.812 63.8371 42.438 66.6692C41.6809 68.2115 40.5312 68.9826 38.989 68.9826C38.0356 68.9826 37.3766 68.7442 37.0121 68.2675C36.6475 67.7628 36.3671 66.7393 36.1709 65.1971C35.7502 62.0285 33.8995 60.4441 30.6188 60.4441C29.3569 60.4441 28.4877 60.8507 28.011 61.6639C27.5623 62.4491 27.338 63.9212 27.338 66.0804C27.338 67.3983 27.4221 69.1088 27.5903 71.2118C27.7866 73.2869 27.9829 74.6609 28.1792 75.3338C28.4035 76.1751 29.0905 76.7639 30.2402 77.1004C31.4179 77.4089 33.3668 77.5631 36.0867 77.5631C40.2929 77.5631 43.4615 77.0303 45.5926 75.9648C47.7237 74.8712 49.4622 72.9083 50.8082 70.0762C51.5933 68.4498 52.2944 67.3562 52.9113 66.7954C53.5562 66.2346 54.3834 65.9542 55.3929 65.9542C56.5706 65.9542 57.538 66.4729 58.2951 67.5104C59.0802 68.5199 59.4728 69.7958 59.4728 71.338C59.4728 73.0205 59.0382 75.1235 58.1689 77.6472C57.2996 80.1709 56.2341 82.4142 54.9723 84.377C54.3273 85.3304 53.7945 85.9613 53.3739 86.2698C52.9533 86.6063 52.4205 86.7745 51.7756 86.7745C51.2428 86.7745 50.4717 86.6904 49.4622 86.5222C47.6676 86.1857 45.2701 85.9754 42.2697 85.8912H6.60175C5.17167 85.8912 4.06405 85.5828 3.27891 84.9659C2.49376 84.3209 2.10119 83.4236 2.10119 82.274C2.10119 81.4608 2.26944 80.8719 2.60593 80.5074C2.94242 80.1429 3.71354 79.6802 4.9193 79.1194C5.76052 78.7548 6.37742 78.3062 6.77 77.7734C7.19061 77.2406 7.51308 76.4555 7.73741 75.418C8.66275 71.1838 9.12543 65.4775 9.12543 58.299C9.12543 47.4752 8.45245 40.6473 7.10649 37.8152C6.82608 37.2543 6.51763 36.8618 6.18114 36.6374C5.84465 36.4131 5.14363 36.1467 4.07807 35.8383C2.47974 35.3616 1.68058 34.296 1.68058 32.6416C1.68058 31.7443 1.94697 30.9451 2.47974 30.2441C3.01252 29.5431 3.71354 29.0804 4.58281 28.8561C5.6764 28.6037 7.79349 28.4775 10.9341 28.4775Z"/>
</mask>
<path d="M10.9341 28.4775H32.5536C36.928 28.4775 40.1106 28.3934 42.1015 28.2252C44.1204 28.0289 46.0833 27.6503 47.9901 27.0895C48.5789 26.9213 49.0416 26.8372 49.3781 26.8372C50.8362 26.8372 52.1261 27.6223 53.2477 29.1926C55.0984 31.7443 56.0238 34.8288 56.0238 38.4461C56.0238 40.2687 55.6312 41.7128 54.8461 42.7784C54.089 43.8159 53.0374 44.3347 51.6915 44.3347C50.7661 44.3347 50.0371 44.1524 49.5043 43.7879C48.9996 43.3953 48.3125 42.54 47.4433 41.2221C46.2095 39.3434 44.6392 38.0956 42.7324 37.4787C40.8537 36.8337 37.7552 36.5113 33.4369 36.5113C30.2122 36.5113 28.2493 37.0861 27.5483 38.2358C27.1838 38.8527 26.9594 39.6799 26.8753 40.7174C26.8192 41.7549 26.7912 44.4048 26.7912 48.667C26.7912 50.3494 27.0716 51.401 27.6324 51.8216C28.1932 52.2141 29.6654 52.4104 32.0488 52.4104C33.2266 52.4104 34.0818 52.1721 34.6146 51.6954C35.1474 51.1907 35.4839 50.3074 35.6241 49.0455C35.8203 47.4192 36.0166 46.3115 36.2129 45.7227C36.4372 45.1058 36.8298 44.573 37.3906 44.1244C37.9795 43.6196 38.6665 43.3673 39.4516 43.3673C40.6013 43.3673 41.5827 43.914 42.3959 45.0076C42.9848 45.8208 43.4755 47.2649 43.8681 49.34C44.2887 51.3869 44.499 53.5321 44.499 55.7753C44.499 60.2058 43.812 63.8371 42.438 66.6692C41.6809 68.2115 40.5312 68.9826 38.989 68.9826C38.0356 68.9826 37.3766 68.7442 37.0121 68.2675C36.6475 67.7628 36.3671 66.7393 36.1709 65.1971C35.7502 62.0285 33.8995 60.4441 30.6188 60.4441C29.3569 60.4441 28.4877 60.8507 28.011 61.6639C27.5623 62.4491 27.338 63.9212 27.338 66.0804C27.338 67.3983 27.4221 69.1088 27.5903 71.2118C27.7866 73.2869 27.9829 74.6609 28.1792 75.3338C28.4035 76.1751 29.0905 76.7639 30.2402 77.1004C31.4179 77.4089 33.3668 77.5631 36.0867 77.5631C40.2929 77.5631 43.4615 77.0303 45.5926 75.9648C47.7237 74.8712 49.4622 72.9083 50.8082 70.0762C51.5933 68.4498 52.2944 67.3562 52.9113 66.7954C53.5562 66.2346 54.3834 65.9542 55.3929 65.9542C56.5706 65.9542 57.538 66.4729 58.2951 67.5104C59.0802 68.5199 59.4728 69.7958 59.4728 71.338C59.4728 73.0205 59.0382 75.1235 58.1689 77.6472C57.2996 80.1709 56.2341 82.4142 54.9723 84.377C54.3273 85.3304 53.7945 85.9613 53.3739 86.2698C52.9533 86.6063 52.4205 86.7745 51.7756 86.7745C51.2428 86.7745 50.4717 86.6904 49.4622 86.5222C47.6676 86.1857 45.2701 85.9754 42.2697 85.8912H6.60175C5.17167 85.8912 4.06405 85.5828 3.27891 84.9659C2.49376 84.3209 2.10119 83.4236 2.10119 82.274C2.10119 81.4608 2.26944 80.8719 2.60593 80.5074C2.94242 80.1429 3.71354 79.6802 4.9193 79.1194C5.76052 78.7548 6.37742 78.3062 6.77 77.7734C7.19061 77.2406 7.51308 76.4555 7.73741 75.418C8.66275 71.1838 9.12543 65.4775 9.12543 58.299C9.12543 47.4752 8.45245 40.6473 7.10649 37.8152C6.82608 37.2543 6.51763 36.8618 6.18114 36.6374C5.84465 36.4131 5.14363 36.1467 4.07807 35.8383C2.47974 35.3616 1.68058 34.296 1.68058 32.6416C1.68058 31.7443 1.94697 30.9451 2.47974 30.2441C3.01252 29.5431 3.71354 29.0804 4.58281 28.8561C5.6764 28.6037 7.79349 28.4775 10.9341 28.4775Z" fill="#1E1E1E"/>
<path d="M42.1015 28.2252L42.116 28.3969L42.1182 28.3967L42.1015 28.2252ZM47.9901 27.0895L47.9427 26.9239L47.9415 26.9242L47.9901 27.0895ZM53.2477 29.1926L53.1075 29.2927L53.1083 29.2937L53.2477 29.1926ZM54.8461 42.7784L54.7074 42.6762L54.7069 42.6768L54.8461 42.7784ZM49.5043 43.7879L49.3983 43.9241L49.407 43.9301L49.5043 43.7879ZM47.4433 41.2221L47.2993 41.3167L47.2995 41.317L47.4433 41.2221ZM42.7324 37.4787L42.6765 37.6416L42.6794 37.6426L42.7324 37.4787ZM27.5483 38.2358L27.4012 38.1461L27.4 38.1481L27.5483 38.2358ZM26.8753 40.7174L26.7035 40.7035L26.7033 40.7081L26.8753 40.7174ZM27.6324 51.8216L27.529 51.9595L27.5336 51.9627L27.6324 51.8216ZM34.6146 51.6954L34.7295 51.8238L34.7331 51.8205L34.6146 51.6954ZM35.6241 49.0455L35.453 49.0249L35.4528 49.0265L35.6241 49.0455ZM36.2129 45.7227L36.0509 45.6638L36.0495 45.6682L36.2129 45.7227ZM37.3906 44.1244L37.4983 44.259L37.5028 44.2552L37.3906 44.1244ZM42.3959 45.0076L42.5355 44.9066L42.5342 44.9048L42.3959 45.0076ZM43.8681 49.34L43.6988 49.372L43.6993 49.3746L43.8681 49.34ZM42.438 66.6692L42.5926 66.7451L42.593 66.7444L42.438 66.6692ZM37.0121 68.2675L36.8724 68.3685L36.8752 68.3722L37.0121 68.2675ZM36.1709 65.1971L36.3418 65.1753L36.3416 65.1744L36.1709 65.1971ZM28.011 61.6639L27.8623 61.5768L27.8614 61.5784L28.011 61.6639ZM27.5903 71.2118L27.4186 71.2256L27.4188 71.2281L27.5903 71.2118ZM28.1792 75.3338L28.3457 75.2894L28.3446 75.2856L28.1792 75.3338ZM30.2402 77.1004L30.1918 77.2658L30.1966 77.2671L30.2402 77.1004ZM45.5926 75.9648L45.6696 76.1189L45.6712 76.118L45.5926 75.9648ZM50.8082 70.0762L50.653 70.0013L50.6526 70.0022L50.8082 70.0762ZM52.9113 66.7954L52.7982 66.6654L52.7954 66.6679L52.9113 66.7954ZM58.2951 67.5104L58.1559 67.612L58.1591 67.6162L58.2951 67.5104ZM54.9723 84.377L55.115 84.4736L55.1172 84.4702L54.9723 84.377ZM53.3739 86.2698L53.272 86.1307L53.2663 86.1353L53.3739 86.2698ZM49.4622 86.5222L49.4305 86.6915L49.4339 86.6921L49.4622 86.5222ZM42.2697 85.8912L42.2746 85.719H42.2697V85.8912ZM3.27891 84.9659L3.16953 85.099L3.17247 85.1014L3.27891 84.9659ZM2.60593 80.5074L2.47933 80.3905L2.60593 80.5074ZM4.9193 79.1194L4.85077 78.9612L4.84664 78.9632L4.9193 79.1194ZM6.77 77.7734L6.6347 77.6666L6.6313 77.6712L6.77 77.7734ZM7.73741 75.418L7.56909 75.3812L7.56901 75.3816L7.73741 75.418ZM7.10649 37.8152L7.26212 37.7412L7.26058 37.7381L7.10649 37.8152ZM4.07807 35.8383L4.02883 36.0034L4.03017 36.0038L4.07807 35.8383ZM4.58281 28.8561L4.54406 28.6882L4.53976 28.6893L4.58281 28.8561ZM10.9341 28.6498H32.5536V28.3053H10.9341V28.6498ZM32.5536 28.6498C36.9285 28.6498 40.1173 28.5658 42.116 28.3969L42.087 28.0535C40.1038 28.2211 36.9274 28.3053 32.5536 28.3053V28.6498ZM42.1182 28.3967C44.1477 28.1993 46.1213 27.8188 48.0387 27.2548L47.9415 26.9242C46.0453 27.4819 44.0932 27.8584 42.0848 28.0537L42.1182 28.3967ZM48.0374 27.2552C48.6213 27.0884 49.0657 27.0094 49.3781 27.0094V26.6649C49.0175 26.6649 48.5366 26.7542 47.9428 26.9239L48.0374 27.2552ZM49.3781 27.0094C50.7634 27.0094 52.0068 27.7516 53.1076 29.2927L53.3879 29.0925C52.2454 27.493 50.909 26.6649 49.3781 26.6649V27.0094ZM53.1083 29.2937C54.9346 31.8118 55.8515 34.8596 55.8515 38.4461H56.1961C56.1961 34.798 55.2623 31.6768 53.3872 29.0914L53.1083 29.2937ZM55.8515 38.4461C55.8515 40.2455 55.4638 41.6496 54.7074 42.6762L54.9848 42.8806C55.7986 41.7761 56.1961 40.2919 56.1961 38.4461H55.8515ZM54.7069 42.6768C53.984 43.6675 52.9855 44.1624 51.6915 44.1624V44.5069C53.0894 44.5069 54.1939 43.9644 54.9852 42.8799L54.7069 42.6768ZM51.6915 44.1624C50.7864 44.1624 50.0957 43.9838 49.6016 43.6457L49.407 43.9301C49.9784 44.321 50.7458 44.5069 51.6915 44.5069V44.1624ZM49.6101 43.6519C49.1303 43.2787 48.4568 42.4459 47.5871 41.1273L47.2995 41.317C48.1683 42.6342 48.8688 43.5119 49.3985 43.9239L49.6101 43.6519ZM47.5873 41.1276C46.3347 39.2202 44.7341 37.9452 42.7854 37.3147L42.6794 37.6426C44.5443 38.2459 46.0842 39.4665 47.2993 41.3167L47.5873 41.1276ZM42.7884 37.3157C40.8806 36.6608 37.7572 36.339 33.4369 36.339V36.6835C37.7531 36.6835 40.8268 37.0067 42.6765 37.6416L42.7884 37.3157ZM33.4369 36.339C31.8164 36.339 30.5013 36.4832 29.4978 36.777C28.4959 37.0705 27.7832 37.5196 27.4012 38.1461L27.6954 38.3255C28.0144 37.8022 28.6336 37.3892 29.5946 37.1077C30.554 36.8268 31.8326 36.6835 33.4369 36.6835V36.339ZM27.4 38.1481C27.0175 38.7953 26.7889 39.6508 26.7036 40.7035L27.047 40.7313C27.1299 39.7089 27.35 38.91 27.6966 38.3234L27.4 38.1481ZM26.7033 40.7081C26.6469 41.7513 26.6189 44.4066 26.6189 48.667H26.9635C26.9635 44.4029 26.9916 41.7585 27.0473 40.7267L26.7033 40.7081ZM26.6189 48.667C26.6189 49.516 26.6895 50.216 26.835 50.7619C26.98 51.3055 27.2047 51.7162 27.529 51.9594L27.7358 51.6837C27.4992 51.5064 27.3034 51.181 27.168 50.6731C27.0331 50.1674 26.9635 49.5004 26.9635 48.667H26.6189ZM27.5336 51.9627C27.8508 52.1847 28.3958 52.3355 29.1344 52.434C29.8811 52.5336 30.8535 52.5827 32.0488 52.5827V52.2381C30.8608 52.2381 29.9053 52.1892 29.1799 52.0924C28.4463 51.9946 27.9749 51.851 27.7312 51.6804L27.5336 51.9627ZM32.0488 52.5827C33.2433 52.5827 34.1501 52.3421 34.7295 51.8238L34.4997 51.567C34.0135 52.002 33.2098 52.2381 32.0488 52.2381V52.5827ZM34.7331 51.8205C35.3104 51.2735 35.6536 50.34 35.7953 49.0646L35.4528 49.0265C35.3141 50.2747 34.9843 51.1078 34.4961 51.5703L34.7331 51.8205ZM35.7951 49.0662C35.9915 47.4385 36.1863 46.3473 36.3764 45.7772L36.0495 45.6682C35.8469 46.2758 35.6491 47.3998 35.453 49.0249L35.7951 49.0662ZM36.3748 45.7816C36.5873 45.1971 36.9597 44.6897 37.4983 44.2589L37.283 43.9898C36.6999 44.4563 36.2871 45.0144 36.051 45.6638L36.3748 45.7816ZM37.5028 44.2552C38.06 43.7776 38.7071 43.5395 39.4516 43.5395V43.195C38.6259 43.195 37.899 43.4617 37.2785 43.9935L37.5028 44.2552ZM39.4516 43.5395C40.5363 43.5395 41.4702 44.0514 42.2577 45.1104L42.5342 44.9048C41.6953 43.7767 40.6663 43.195 39.4516 43.195V43.5395ZM42.2564 45.1087C42.8214 45.8889 43.3069 47.3003 43.6988 49.372L44.0374 49.3079C43.6441 47.2296 43.1482 45.7527 42.5355 44.9066L42.2564 45.1087ZM43.6993 49.3746C44.1174 51.4094 44.3267 53.5429 44.3267 55.7753H44.6713C44.6713 53.5213 44.46 51.3645 44.0368 49.3053L43.6993 49.3746ZM44.3267 55.7753C44.3267 60.1897 43.642 63.7929 42.283 66.594L42.593 66.7444C43.982 63.8813 44.6713 60.2219 44.6713 55.7753H44.3267ZM42.2833 66.5933C41.9149 67.3438 41.4563 67.8961 40.9119 68.2612C40.3687 68.6256 39.73 68.8103 38.989 68.8103V69.1549C39.7902 69.1549 40.4975 68.9541 41.1039 68.5473C41.7092 68.1413 42.2039 67.5369 42.5926 66.7451L42.2833 66.5933ZM38.989 68.8103C38.0574 68.8103 37.4655 68.5768 37.1489 68.1629L36.8752 68.3722C37.2878 68.9117 38.0138 69.1549 38.989 69.1549V68.8103ZM37.1517 68.1667C36.9871 67.9388 36.8326 67.5797 36.6945 67.0759C36.5572 66.5746 36.4393 65.9417 36.3418 65.1753L35.9999 65.2188C36.0987 65.9946 36.2191 66.6447 36.3622 67.1669C36.5046 67.6865 36.6725 68.0916 36.8724 68.3684L37.1517 68.1667ZM36.3416 65.1744C36.1275 63.5614 35.546 62.3289 34.5794 61.5015C33.6135 60.6746 32.2859 60.2719 30.6188 60.2719V60.6164C32.2324 60.6164 33.4706 61.0059 34.3553 61.7633C35.2395 62.5201 35.7936 63.6641 36.0001 65.2197L36.3416 65.1744ZM30.6188 60.2719C29.3192 60.2719 28.3802 60.6933 27.8623 61.5768L28.1596 61.751C28.5951 61.0081 29.3946 60.6164 30.6188 60.6164V60.2719ZM27.8614 61.5784C27.6219 61.9975 27.4495 62.5857 27.3359 63.3309C27.222 64.0785 27.1657 64.9956 27.1657 66.0804H27.5103C27.5103 65.006 27.5661 64.1074 27.6765 63.3828C27.7873 62.6559 27.9513 62.1155 28.1605 61.7494L27.8614 61.5784ZM27.1657 66.0804C27.1657 67.4047 27.2502 69.1203 27.4186 71.2256L27.7621 71.1981C27.594 69.0972 27.5103 67.3918 27.5103 66.0804H27.1657ZM27.4188 71.2281C27.6149 73.3004 27.8122 74.6908 28.0138 75.3821L28.3446 75.2856C28.1536 74.6309 27.9584 73.2733 27.7619 71.1956L27.4188 71.2281ZM28.0127 75.3782C28.2581 76.2985 29.0086 76.9195 30.1918 77.2658L30.2886 76.9351C29.1725 76.6084 28.5489 76.0517 28.3457 75.2895L28.0127 75.3782ZM30.1966 77.2671C31.3974 77.5816 33.3656 77.7354 36.0867 77.7354V77.3908C33.368 77.3908 31.4384 77.2361 30.2839 76.9338L30.1966 77.2671ZM36.0867 77.7354C40.3021 77.7354 43.5027 77.2023 45.6696 76.1189L45.5155 75.8107C43.4202 76.8583 40.2836 77.3908 36.0867 77.3908V77.7354ZM45.6712 76.118C47.8451 75.0025 49.6066 73.0059 50.9638 70.1501L50.6526 70.0022C49.3178 72.8108 47.6023 74.7398 45.5139 75.8115L45.6712 76.118ZM50.9633 70.1511C51.7475 68.5268 52.4366 67.4597 53.0271 66.9229L52.7954 66.6679C52.1521 67.2527 51.4392 68.3728 50.653 70.0013L50.9633 70.1511ZM53.0243 66.9254C53.6324 66.3966 54.417 66.1265 55.3929 66.1265V65.7819C54.3498 65.7819 53.48 66.0725 52.7982 66.6654L53.0243 66.9254ZM55.3929 66.1265C56.51 66.1265 57.4278 66.6143 58.1559 67.612L58.4343 67.4089C57.6481 66.3316 56.6312 65.7819 55.3929 65.7819V66.1265ZM58.1591 67.6162C58.9162 68.5896 59.3005 69.8259 59.3005 71.338H59.6451C59.6451 69.7656 59.2443 68.4502 58.4311 67.4047L58.1591 67.6162ZM59.3005 71.338C59.3005 72.9935 58.8723 75.0762 58.006 77.5911L58.3318 77.7033C59.2041 75.1709 59.6451 73.0474 59.6451 71.338H59.3005ZM58.006 77.5911C57.1406 80.1036 56.0807 82.3341 54.8273 84.2839L55.1172 84.4702C56.3874 82.4942 57.4587 80.2382 58.3318 77.7033L58.006 77.5911ZM54.8296 84.2805C54.1856 85.2325 53.6668 85.8414 53.272 86.1309L53.4758 86.4087C53.9223 86.0813 54.469 85.4284 55.115 84.4736L54.8296 84.2805ZM53.2663 86.1353C52.882 86.4427 52.3894 86.6022 51.7756 86.6022V86.9468C52.4516 86.9468 53.0247 86.7698 53.4816 86.4043L53.2663 86.1353ZM51.7756 86.6022C51.2574 86.6022 50.4975 86.52 49.4905 86.3522L49.4339 86.6921C50.4459 86.8608 51.2283 86.9468 51.7756 86.9468V86.6022ZM49.494 86.3528C47.6867 86.014 45.279 85.8033 42.2746 85.719L42.2649 86.0635C45.2612 86.1475 47.6486 86.3574 49.4305 86.6915L49.494 86.3528ZM42.2697 85.719H6.60175V86.0635H42.2697V85.719ZM6.60175 85.719C5.19403 85.719 4.12945 85.4151 3.38535 84.8304L3.17247 85.1014C3.99865 85.7505 5.1493 86.0635 6.60175 86.0635V85.719ZM3.38826 84.8328C2.6485 84.2251 2.27347 83.3797 2.27347 82.274H1.92891C1.92891 83.4676 2.33902 84.4168 3.16955 85.099L3.38826 84.8328ZM2.27347 82.274C2.27347 81.478 2.43927 80.9419 2.73252 80.6242L2.47933 80.3905C2.0996 80.8019 1.92891 81.4435 1.92891 82.274H2.27347ZM2.73252 80.6242C2.88407 80.4601 3.14434 80.2633 3.52528 80.0347C3.90385 79.8076 4.39223 79.5545 4.99196 79.2756L4.84664 78.9632C4.24061 79.245 3.74054 79.5037 3.348 79.7393C2.95781 79.9734 2.66427 80.1902 2.47933 80.3905L2.73252 80.6242ZM4.9878 79.2774C5.84668 78.9053 6.49242 78.4405 6.90869 77.8756L6.6313 77.6712C6.26243 78.1718 5.67437 78.6044 4.8508 78.9613L4.9878 79.2774ZM6.90522 77.8802C7.34872 77.3184 7.67873 76.5045 7.9058 75.4544L7.56901 75.3816C7.34742 76.4064 7.0325 77.1629 6.63477 77.6666L6.90522 77.8802ZM7.90572 75.4548C8.83486 71.2032 9.29771 65.4829 9.29771 58.299H8.95315C8.95315 65.472 8.49065 71.1644 7.5691 75.3812L7.90572 75.4548ZM9.29771 58.299C9.29771 52.8843 9.12941 48.4652 8.79215 45.0433C8.45546 41.6274 7.94889 39.1864 7.26209 37.7412L6.95088 37.8891C7.61004 39.2761 8.11294 41.6651 8.44924 45.0771C8.78496 48.4832 8.95315 52.89 8.95315 58.299H9.29771ZM7.26058 37.7381C6.9735 37.164 6.64824 36.7418 6.2767 36.4941L6.08557 36.7808C6.38702 36.9818 6.67865 37.3447 6.95239 37.8922L7.26058 37.7381ZM6.2767 36.4941C5.91491 36.2529 5.18873 35.9804 4.12598 35.6728L4.03017 36.0038C5.09852 36.313 5.77438 36.5733 6.08557 36.7808L6.2767 36.4941ZM4.12731 35.6732C3.35449 35.4427 2.79015 35.0747 2.41778 34.5782C2.0455 34.0819 1.85286 33.4407 1.85286 32.6416H1.50829C1.50829 33.4969 1.71523 34.2158 2.14212 34.785C2.56892 35.354 3.20333 35.7572 4.02883 36.0034L4.12731 35.6732ZM1.85286 32.6416C1.85286 31.7812 2.10738 31.0188 2.61691 30.3484L2.34258 30.1399C1.78655 30.8715 1.50829 31.7074 1.50829 32.6416H1.85286ZM2.61691 30.3484C3.12575 29.6788 3.79331 29.2378 4.62586 29.0229L4.53976 28.6893C3.63377 28.9231 2.89929 29.4074 2.34258 30.1399L2.61691 30.3484ZM4.62155 29.024C5.69318 28.7767 7.79113 28.6498 10.9341 28.6498V28.3053C7.79584 28.3053 5.65963 28.4308 4.54407 28.6882L4.62155 29.024Z" fill="#FDE0E3" mask="url(#path-1-outside-1_47_8113)"/>
<mask id="path-3-outside-2_47_8113" maskUnits="userSpaceOnUse" x="4.71484" y="18" width="62" height="64" fill="black">
<rect fill="white" x="4.71484" y="18" width="62" height="64"/>
<path d="M16.104 21.5863H37.7235C42.0979 21.5863 45.2805 21.5022 47.2714 21.3339C49.2904 21.1377 51.2532 20.7591 53.16 20.1983C53.7489 20.03 54.2115 19.9459 54.548 19.9459C56.0062 19.9459 57.296 20.7311 58.4177 22.3014C60.2684 24.8531 61.1937 27.9376 61.1937 31.5548C61.1937 33.3775 60.8011 34.8216 60.016 35.8872C59.2589 36.9247 58.2074 37.4434 56.8614 37.4434C55.936 37.4434 55.207 37.2612 54.6742 36.8966C54.1695 36.5041 53.4825 35.6488 52.6132 34.3309C51.3794 32.4521 49.8091 31.2043 47.9023 30.5874C46.0236 29.9425 42.9251 29.62 38.6068 29.62C35.3821 29.62 33.4192 30.1949 32.7182 31.3445C32.3537 31.9614 32.1293 32.7886 32.0452 33.8262C31.9891 34.8637 31.9611 37.5135 31.9611 41.7757C31.9611 43.4582 32.2415 44.5097 32.8023 44.9303C33.3631 45.3229 34.8353 45.5192 37.2188 45.5192C38.3965 45.5192 39.2517 45.2808 39.7845 44.8042C40.3173 44.2994 40.6538 43.4161 40.794 42.1543C40.9903 40.5279 41.1865 39.4203 41.3828 38.8314C41.6072 38.2145 41.9997 37.6818 42.5606 37.2331C43.1494 36.7284 43.8364 36.476 44.6216 36.476C45.7712 36.476 46.7527 37.0228 47.5658 38.1164C48.1547 38.9296 48.6454 40.3737 49.038 42.4487C49.4586 44.4957 49.6689 46.6408 49.6689 48.8841C49.6689 53.3146 48.9819 56.9459 47.6079 59.778C46.8508 61.3202 45.7011 62.0914 44.1589 62.0914C43.2055 62.0914 42.5465 61.853 42.182 61.3763C41.8175 60.8716 41.5371 59.8481 41.3408 58.3058C40.9202 55.1372 39.0695 53.5529 35.7887 53.5529C34.5268 53.5529 33.6576 53.9595 33.1809 54.7727C32.7322 55.5578 32.5079 57.03 32.5079 59.1891C32.5079 60.507 32.592 62.2175 32.7603 64.3206C32.9566 66.3956 33.1528 67.7696 33.3491 68.4426C33.5735 69.2838 34.2605 69.8727 35.4101 70.2092C36.5878 70.5176 38.5367 70.6719 41.2567 70.6719C45.4628 70.6719 48.6314 70.1391 50.7625 69.0735C52.8936 67.9799 54.6321 66.0171 55.9781 63.1849C56.7633 61.5586 57.4643 60.465 58.0812 59.9042C58.7261 59.3433 59.5533 59.0629 60.5628 59.0629C61.7405 59.0629 62.7079 59.5817 63.465 60.6192C64.2502 61.6287 64.6427 62.9045 64.6427 64.4468C64.6427 66.1292 64.2081 68.2323 63.3388 70.756C62.4696 73.2797 61.404 75.5229 60.1422 77.4858C59.4972 78.4392 58.9645 79.0701 58.5438 79.3786C58.1232 79.715 57.5905 79.8833 56.9455 79.8833C56.4127 79.8833 55.6416 79.7992 54.6321 79.6309C52.8375 79.2944 50.44 79.0841 47.4397 79H11.7717C10.3416 79 9.23397 78.6916 8.44883 78.0747C7.66368 77.4297 7.27111 76.5324 7.27111 75.3827C7.27111 74.5695 7.43936 73.9807 7.77585 73.6162C8.11234 73.2516 8.88346 72.7889 10.0892 72.2281C10.9304 71.8636 11.5473 71.4149 11.9399 70.8822C12.3605 70.3494 12.683 69.5642 12.9073 68.5267C13.8327 64.2926 14.2954 58.5862 14.2954 51.4078C14.2954 40.584 13.6224 33.7561 12.2764 30.9239C11.996 30.3631 11.6875 29.9705 11.3511 29.7462C11.0146 29.5219 10.3135 29.2555 9.24799 28.947C7.64966 28.4703 6.8505 27.4048 6.8505 25.7504C6.8505 24.8531 7.11689 24.0539 7.64966 23.3529C8.18244 22.6519 8.88346 22.1892 9.75273 21.9649C10.8463 21.7125 12.9634 21.5863 16.104 21.5863Z"/>
</mask>
<path d="M16.104 21.5863H37.7235C42.0979 21.5863 45.2805 21.5022 47.2714 21.3339C49.2904 21.1377 51.2532 20.7591 53.16 20.1983C53.7489 20.03 54.2115 19.9459 54.548 19.9459C56.0062 19.9459 57.296 20.7311 58.4177 22.3014C60.2684 24.8531 61.1937 27.9376 61.1937 31.5548C61.1937 33.3775 60.8011 34.8216 60.016 35.8872C59.2589 36.9247 58.2074 37.4434 56.8614 37.4434C55.936 37.4434 55.207 37.2612 54.6742 36.8966C54.1695 36.5041 53.4825 35.6488 52.6132 34.3309C51.3794 32.4521 49.8091 31.2043 47.9023 30.5874C46.0236 29.9425 42.9251 29.62 38.6068 29.62C35.3821 29.62 33.4192 30.1949 32.7182 31.3445C32.3537 31.9614 32.1293 32.7886 32.0452 33.8262C31.9891 34.8637 31.9611 37.5135 31.9611 41.7757C31.9611 43.4582 32.2415 44.5097 32.8023 44.9303C33.3631 45.3229 34.8353 45.5192 37.2188 45.5192C38.3965 45.5192 39.2517 45.2808 39.7845 44.8042C40.3173 44.2994 40.6538 43.4161 40.794 42.1543C40.9903 40.5279 41.1865 39.4203 41.3828 38.8314C41.6072 38.2145 41.9997 37.6818 42.5606 37.2331C43.1494 36.7284 43.8364 36.476 44.6216 36.476C45.7712 36.476 46.7527 37.0228 47.5658 38.1164C48.1547 38.9296 48.6454 40.3737 49.038 42.4487C49.4586 44.4957 49.6689 46.6408 49.6689 48.8841C49.6689 53.3146 48.9819 56.9459 47.6079 59.778C46.8508 61.3202 45.7011 62.0914 44.1589 62.0914C43.2055 62.0914 42.5465 61.853 42.182 61.3763C41.8175 60.8716 41.5371 59.8481 41.3408 58.3058C40.9202 55.1372 39.0695 53.5529 35.7887 53.5529C34.5268 53.5529 33.6576 53.9595 33.1809 54.7727C32.7322 55.5578 32.5079 57.03 32.5079 59.1891C32.5079 60.507 32.592 62.2175 32.7603 64.3206C32.9566 66.3956 33.1528 67.7696 33.3491 68.4426C33.5735 69.2838 34.2605 69.8727 35.4101 70.2092C36.5878 70.5176 38.5367 70.6719 41.2567 70.6719C45.4628 70.6719 48.6314 70.1391 50.7625 69.0735C52.8936 67.9799 54.6321 66.0171 55.9781 63.1849C56.7633 61.5586 57.4643 60.465 58.0812 59.9042C58.7261 59.3433 59.5533 59.0629 60.5628 59.0629C61.7405 59.0629 62.7079 59.5817 63.465 60.6192C64.2502 61.6287 64.6427 62.9045 64.6427 64.4468C64.6427 66.1292 64.2081 68.2323 63.3388 70.756C62.4696 73.2797 61.404 75.5229 60.1422 77.4858C59.4972 78.4392 58.9645 79.0701 58.5438 79.3786C58.1232 79.715 57.5905 79.8833 56.9455 79.8833C56.4127 79.8833 55.6416 79.7992 54.6321 79.6309C52.8375 79.2944 50.44 79.0841 47.4397 79H11.7717C10.3416 79 9.23397 78.6916 8.44883 78.0747C7.66368 77.4297 7.27111 76.5324 7.27111 75.3827C7.27111 74.5695 7.43936 73.9807 7.77585 73.6162C8.11234 73.2516 8.88346 72.7889 10.0892 72.2281C10.9304 71.8636 11.5473 71.4149 11.9399 70.8822C12.3605 70.3494 12.683 69.5642 12.9073 68.5267C13.8327 64.2926 14.2954 58.5862 14.2954 51.4078C14.2954 40.584 13.6224 33.7561 12.2764 30.9239C11.996 30.3631 11.6875 29.9705 11.3511 29.7462C11.0146 29.5219 10.3135 29.2555 9.24799 28.947C7.64966 28.4703 6.8505 27.4048 6.8505 25.7504C6.8505 24.8531 7.11689 24.0539 7.64966 23.3529C8.18244 22.6519 8.88346 22.1892 9.75273 21.9649C10.8463 21.7125 12.9634 21.5863 16.104 21.5863Z" fill="#FDE0E3"/>
<path d="M47.2714 21.3339L47.3788 22.605L47.3868 22.6043L47.3949 22.6036L47.2714 21.3339ZM53.16 20.1983L52.8096 18.9717L52.8001 18.9745L53.16 20.1983ZM58.4177 22.3014L57.3796 23.0428L57.3851 23.0503L58.4177 22.3014ZM60.016 35.8872L58.9891 35.1305L58.9856 35.1352L60.016 35.8872ZM54.6742 36.8966L53.8911 37.9035L53.9218 37.9274L53.9539 37.9494L54.6742 36.8966ZM52.6132 34.3309L51.547 35.0311L51.5484 35.0332L52.6132 34.3309ZM47.9023 30.5874L47.4882 31.7939L47.4989 31.7976L47.5097 31.8011L47.9023 30.5874ZM32.7182 31.3445L31.6291 30.6804L31.6245 30.688L31.62 30.6956L32.7182 31.3445ZM32.0452 33.8262L30.7738 33.7231L30.7724 33.7402L30.7715 33.7573L32.0452 33.8262ZM32.8023 44.9303L32.037 45.9508L32.0537 45.9634L32.0708 45.9754L32.8023 44.9303ZM39.7845 44.8042L40.6351 45.7548L40.6486 45.7427L40.6618 45.7302L39.7845 44.8042ZM40.794 42.1543L39.5275 42.0014L39.5262 42.0134L40.794 42.1543ZM41.3828 38.8314L40.184 38.3955L40.1781 38.4117L40.1727 38.4281L41.3828 38.8314ZM42.5606 37.2331L43.3574 38.2292L43.3743 38.2157L43.3907 38.2016L42.5606 37.2331ZM47.5658 38.1164L48.599 37.3683L48.5943 37.3617L48.5895 37.3552L47.5658 38.1164ZM49.038 42.4487L47.7846 42.6858L47.7865 42.6957L47.7885 42.7055L49.038 42.4487ZM47.6079 59.778L48.753 60.3401L48.7556 60.3348L47.6079 59.778ZM42.182 61.3763L41.1479 62.1232L41.1581 62.1373L41.1687 62.1512L42.182 61.3763ZM41.3408 58.3058L42.6062 58.1448L42.6053 58.138L41.3408 58.3058ZM33.1809 54.7727L32.0804 54.1275L32.0733 54.1398L33.1809 54.7727ZM32.7603 64.3206L31.4887 64.4223L31.4895 64.4315L31.4903 64.4407L32.7603 64.3206ZM33.3491 68.4426L34.5817 68.1139L34.5778 68.0996L34.5737 68.0854L33.3491 68.4426ZM35.4101 70.2092L35.0518 71.4334L35.0693 71.4386L35.0869 71.4432L35.4101 70.2092ZM50.7625 69.0735L51.333 70.2145L51.3449 70.2084L50.7625 69.0735ZM55.9781 63.1849L54.8293 62.6304L54.826 62.6374L55.9781 63.1849ZM58.0812 59.9042L57.2442 58.9416L57.2335 58.9508L57.2231 58.9603L58.0812 59.9042ZM63.465 60.6192L62.4346 61.3711L62.4461 61.3869L62.4581 61.4024L63.465 60.6192ZM60.1422 77.4858L61.1987 78.2005L61.2071 78.1882L61.2152 78.1756L60.1422 77.4858ZM58.5438 79.3786L57.7895 78.3499L57.7679 78.3657L57.747 78.3825L58.5438 79.3786ZM54.6321 79.6309L54.3971 80.8847L54.4097 80.8871L54.4224 80.8892L54.6321 79.6309ZM47.4397 79L47.4754 77.7249L47.4575 77.7244H47.4397V79ZM8.44883 78.0747L7.63915 79.0603L7.64985 79.0691L7.66073 79.0777L8.44883 78.0747ZM7.77585 73.6162L6.83853 72.7509L7.77585 73.6162ZM10.0892 72.2281L9.58203 71.0577L9.56655 71.0644L9.55126 71.0715L10.0892 72.2281ZM11.9399 70.8822L10.9387 70.0917L10.9256 70.1084L10.913 70.1255L11.9399 70.8822ZM12.9073 68.5267L11.6611 68.2544L11.6605 68.2572L12.9073 68.5267ZM12.2764 30.9239L13.4285 30.3764L13.423 30.3649L13.4173 30.3535L12.2764 30.9239ZM9.24799 28.947L8.88341 30.1695L8.8933 30.1723L9.24799 28.947ZM9.75273 21.9649L9.4659 20.7219L9.44989 20.7256L9.43398 20.7297L9.75273 21.9649ZM16.104 22.8619H37.7235V20.3107H16.104V22.8619ZM37.7235 22.8619C42.102 22.8619 45.3305 22.7781 47.3788 22.605L47.164 20.0629C45.2305 20.2263 42.0938 20.3107 37.7235 20.3107V22.8619ZM47.3949 22.6036C49.4922 22.3996 51.5344 22.006 53.5199 21.4221L52.8001 18.9745C50.9721 19.5122 49.0885 19.8757 47.148 20.0643L47.3949 22.6036ZM53.5104 21.4248C54.0623 21.2671 54.3898 21.2215 54.548 21.2215V18.6703C54.0333 18.6703 53.4354 18.7929 52.8096 18.9718L53.5104 21.4248ZM54.548 21.2215C55.467 21.2215 56.4125 21.6888 57.3797 23.0428L59.4557 21.5599C58.1796 19.7734 56.5453 18.6703 54.548 18.6703V21.2215ZM57.3851 23.0503C59.0552 25.3531 59.9181 28.1654 59.9181 31.5548H62.4693C62.4693 27.7098 61.4815 24.3531 59.4503 21.5524L57.3851 23.0503ZM59.9181 31.5548C59.9181 33.2058 59.5618 34.3532 58.9891 35.1305L61.0429 36.6438C62.0405 35.29 62.4693 33.5492 62.4693 31.5548H59.9181ZM58.9856 35.1352C58.4818 35.8255 57.8229 36.1678 56.8614 36.1678V38.719C58.5918 38.719 60.0359 38.0238 61.0464 36.6391L58.9856 35.1352ZM56.8614 36.1678C56.0865 36.1678 55.6415 36.0128 55.3945 35.8439L53.9539 37.9494C54.7725 38.5095 55.7856 38.719 56.8614 38.719V36.1678ZM55.4574 35.8897C55.1372 35.6407 54.5507 34.9516 53.678 33.6285L51.5484 35.0332C52.4142 36.346 53.2017 37.3674 53.8911 37.9035L55.4574 35.8897ZM53.6794 33.6307C52.3067 31.5403 50.5118 30.091 48.295 29.3738L47.5097 31.8011C49.1064 32.3177 50.4521 33.364 51.547 35.0311L53.6794 33.6307ZM48.3165 29.3809C46.2226 28.6621 42.9402 28.3444 38.6068 28.3444V30.8956C42.91 30.8956 45.8246 31.2229 47.4882 31.7939L48.3165 29.3809ZM38.6068 28.3444C36.9344 28.3444 35.5025 28.4917 34.3576 28.827C33.2248 29.1587 32.2126 29.7235 31.6291 30.6804L33.8073 32.0086C33.9248 31.8159 34.2446 31.5184 35.0746 31.2753C35.8926 31.0358 37.0545 30.8956 38.6068 30.8956V28.3444ZM31.62 30.6956C31.1229 31.5369 30.867 32.5735 30.7738 33.7231L33.3167 33.9292C33.3917 33.0037 33.5845 32.386 33.8164 31.9935L31.62 30.6956ZM30.7715 33.7573C30.7131 34.8372 30.6855 37.527 30.6855 41.7757H33.2367C33.2367 37.5001 33.2652 34.8902 33.319 33.895L30.7715 33.7573ZM30.6855 41.7757C30.6855 42.6746 30.759 43.4804 30.9389 44.1549C31.1144 44.8131 31.4317 45.4969 32.037 45.9508L33.5677 43.9099C33.6122 43.9432 33.5088 43.8909 33.4039 43.4976C33.3034 43.1206 33.2367 42.5594 33.2367 41.7757H30.6855ZM32.0708 45.9754C32.6234 46.3622 33.4039 46.5358 34.1585 46.6364C34.9734 46.7451 36 46.7948 37.2188 46.7948V44.2436C36.0541 44.2436 35.1528 44.1952 34.4956 44.1076C34.1676 44.0638 33.9229 44.0132 33.7487 43.9627C33.564 43.9092 33.5144 43.8717 33.5338 43.8853L32.0708 45.9754ZM37.2188 46.7948C38.5203 46.7948 39.7576 46.5399 40.6351 45.7548L38.9339 43.8535C38.7459 44.0218 38.2727 44.2436 37.2188 44.2436V46.7948ZM40.6618 45.7302C41.5244 44.913 41.9104 43.6579 42.0618 42.2952L39.5262 42.0134C39.3972 43.1743 39.1101 43.6859 38.9072 43.8781L40.6618 45.7302ZM42.0604 42.3071C42.2578 40.6713 42.4429 39.6851 42.593 39.2348L40.1727 38.4281C39.9302 39.1555 39.7227 40.3845 39.5276 42.0014L42.0604 42.3071ZM42.5816 39.2674C42.7185 38.891 42.9617 38.5458 43.3574 38.2292L41.7637 36.237C41.0378 36.8177 40.4958 37.5381 40.184 38.3955L42.5816 39.2674ZM43.3907 38.2016C43.7453 37.8977 44.1368 37.7516 44.6216 37.7516V35.2004C43.536 35.2004 42.5536 35.559 41.7304 36.2646L43.3907 38.2016ZM44.6216 37.7516C45.2902 37.7516 45.9193 38.0398 46.5422 38.8776L48.5895 37.3552C47.586 36.0058 46.2522 35.2004 44.6216 35.2004V37.7516ZM46.5327 38.8646C46.9448 39.4337 47.3967 40.6356 47.7846 42.6858L50.2914 42.2116C49.8941 40.1118 49.3646 38.4255 48.599 37.3683L46.5327 38.8646ZM47.7885 42.7055C48.1905 44.662 48.3933 46.7208 48.3933 48.8841H50.9445C50.9445 46.5609 50.7267 44.3294 50.2875 42.192L47.7885 42.7055ZM48.3933 48.8841C48.3933 53.1952 47.723 56.6185 46.4602 59.2212L48.7556 60.3348C50.2409 57.2733 50.9445 53.4339 50.9445 48.8841H48.3933ZM46.4628 59.2159C46.1594 59.834 45.8163 60.2196 45.4673 60.4536C45.1262 60.6824 44.7069 60.8157 44.1589 60.8157V63.367C45.1531 63.367 46.0798 63.1147 46.8884 62.5724C47.6891 62.0353 48.2993 61.2643 48.753 60.3401L46.4628 59.2159ZM44.1589 60.8157C43.3669 60.8157 43.2044 60.6133 43.1953 60.6014L41.1687 62.1512C41.8887 63.0927 43.0441 63.367 44.1589 63.367V60.8157ZM43.2161 60.6295C43.1647 60.5582 43.0527 60.3463 42.9286 59.8931C42.8096 59.4589 42.6999 58.8811 42.6062 58.1448L40.0754 58.4669C40.1779 59.2728 40.3066 59.9779 40.468 60.5672C40.6243 61.1375 40.8348 61.6896 41.1479 62.1232L43.2161 60.6295ZM42.6053 58.138C42.3668 56.3415 41.6974 54.8256 40.4668 53.7721C39.2408 52.7226 37.6272 52.2773 35.7887 52.2773V54.8285C37.231 54.8285 38.1831 55.1754 38.8077 55.7102C39.4278 56.241 39.8941 57.1015 40.0763 58.4737L42.6053 58.138ZM35.7887 52.2773C34.2479 52.2773 32.8621 52.7941 32.0804 54.1276L34.2813 55.4178C34.453 55.1249 34.8058 54.8285 35.7887 54.8285V52.2773ZM32.0733 54.1398C31.737 54.7285 31.5376 55.4695 31.4151 56.2735C31.29 57.0945 31.2323 58.0711 31.2323 59.1891H33.7835C33.7835 58.148 33.838 57.309 33.9372 56.6578C34.039 55.9897 34.1761 55.602 34.2884 55.4056L32.0733 54.1398ZM31.2323 59.1891C31.2323 60.5549 31.3192 62.3029 31.4887 64.4223L34.0318 64.2189C33.8649 62.1322 33.7835 60.4592 33.7835 59.1891H31.2323ZM31.4903 64.4407C31.6847 66.4959 31.8887 67.9913 32.1245 68.7998L34.5737 68.0854C34.4169 67.548 34.2284 66.2953 34.0302 64.2005L31.4903 64.4407ZM32.1166 68.7713C32.4969 70.1974 33.6536 71.0242 35.0518 71.4334L35.7684 68.9849C34.8673 68.7212 34.65 68.3703 34.5817 68.1139L32.1166 68.7713ZM35.0869 71.4432C36.4361 71.7965 38.5278 71.9475 41.2567 71.9475V69.3963C38.5455 69.3963 36.7396 69.2388 35.7333 68.9752L35.0869 71.4432ZM41.2567 71.9475C45.5311 71.9475 48.9369 71.4125 51.333 70.2145L50.192 67.9326C48.3259 68.8657 45.3944 69.3963 41.2567 69.3963V71.9475ZM51.3449 70.2084C53.7928 68.9523 55.7012 66.7393 57.1302 63.7325L54.826 62.6374C53.5631 65.2949 51.9945 67.0076 50.1801 67.9386L51.3449 70.2084ZM57.1269 63.7395C57.9045 62.1287 58.5178 61.2311 58.9392 60.848L57.2231 58.9603C56.4107 59.6988 55.622 60.9885 54.8294 62.6304L57.1269 63.7395ZM58.9182 60.8667C59.2902 60.5432 59.8022 60.3385 60.5628 60.3385V57.7873C59.3044 57.7873 58.162 58.1435 57.2442 58.9416L58.9182 60.8667ZM60.5628 60.3385C61.292 60.3385 61.8924 60.6281 62.4346 61.3711L64.4954 59.8673C63.5235 58.5353 62.189 57.7873 60.5628 57.7873V60.3385ZM62.4581 61.4024C63.0354 62.1446 63.3671 63.1279 63.3671 64.4468H65.9183C65.9183 62.6811 65.4649 61.1128 64.4719 59.8361L62.4581 61.4024ZM63.3671 64.4468C63.3671 65.9299 62.9797 67.8817 62.1328 70.3406L64.5449 71.1714C65.4365 68.5829 65.9183 66.3286 65.9183 64.4468H63.3671ZM62.1328 70.3406C61.2921 72.7813 60.2686 74.9302 59.0692 76.796L61.2152 78.1756C62.5394 76.1157 63.6471 73.778 64.5449 71.1714L62.1328 70.3406ZM59.0856 76.7711C58.4479 77.7138 58.0185 78.1819 57.7895 78.3499L59.2982 80.4072C59.9104 79.9583 60.5466 79.1645 61.1987 78.2005L59.0856 76.7711ZM57.747 78.3825C57.5949 78.5042 57.3601 78.6077 56.9455 78.6077V81.1589C57.8208 81.1589 58.6516 80.9259 59.3407 80.3746L57.747 78.3825ZM56.9455 78.6077C56.5205 78.6077 55.8329 78.5378 54.8419 78.3727L54.4224 80.8892C55.4504 81.0605 56.305 81.1589 56.9455 81.1589V78.6077ZM54.8672 78.3772C52.9786 78.023 50.506 77.8099 47.4754 77.7249L47.4039 80.2751C50.3741 80.3584 52.6965 80.5658 54.3971 80.8847L54.8672 78.3772ZM47.4397 77.7244H11.7717V80.2756H47.4397V77.7244ZM11.7717 77.7244C10.5072 77.7244 9.71822 77.4498 9.23692 77.0716L7.66073 79.0777C8.74973 79.9333 10.176 80.2756 11.7717 80.2756V77.7244ZM9.25851 77.089C8.8094 76.72 8.54672 76.2072 8.54672 75.3827H5.99551C5.99551 76.8576 6.51797 78.1394 7.63915 79.0603L9.25851 77.089ZM8.54672 75.3827C8.54672 74.6973 8.69684 74.4991 8.71317 74.4814L6.83853 72.7509C6.18187 73.4623 5.99551 74.4418 5.99551 75.3827H8.54672ZM8.71317 74.4814C8.75779 74.433 8.91153 74.3004 9.26285 74.0896C9.5967 73.8893 10.0476 73.6543 10.6272 73.3847L9.55126 71.0715C8.92506 71.3628 8.38754 71.6396 7.95027 71.9019C7.53046 72.1538 7.13039 72.4348 6.83853 72.7509L8.71317 74.4814ZM10.5964 73.3986C11.5683 72.9774 12.3988 72.4098 12.9669 71.6389L10.913 70.1255C10.6959 70.4201 10.2925 70.7498 9.58203 71.0577L10.5964 73.3986ZM12.9411 71.6726C13.5312 70.9251 13.9095 69.9275 14.1541 68.7963L11.6605 68.2572C11.4565 69.201 11.1898 69.7737 10.9387 70.0917L12.9411 71.6726ZM14.1535 68.7991C15.107 64.4364 15.571 58.6266 15.571 51.4078H13.0197C13.0197 58.5459 12.5584 64.1487 11.6611 68.2544L14.1535 68.7991ZM15.571 51.4078C15.571 45.975 15.4023 41.516 15.0601 38.0439C14.7222 34.6156 14.2038 32.0078 13.4285 30.3764L11.1243 31.4715C11.695 32.6722 12.1861 34.8944 12.5212 38.2941C12.8519 41.6499 13.0197 46.0168 13.0197 51.4078H15.571ZM13.4173 30.3535C13.0875 29.6939 12.6546 29.0821 12.0586 28.6848L10.6435 30.8076C10.7205 30.8589 10.9045 31.0324 11.1355 31.4944L13.4173 30.3535ZM12.0586 28.6848C11.5348 28.3356 10.6475 28.0242 9.60269 27.7217L8.8933 30.1723C9.97958 30.4868 10.4943 30.7081 10.6435 30.8076L12.0586 28.6848ZM9.61257 27.7246C9.00843 27.5445 8.66846 27.2891 8.47036 27.025C8.27298 26.7618 8.1261 26.3696 8.1261 25.7504H5.57489C5.57489 26.7856 5.8276 27.7533 6.42939 28.5557C7.03045 29.3571 7.88923 29.8729 8.88342 30.1694L9.61257 27.7246ZM8.1261 25.7504C8.1261 25.1261 8.3046 24.5993 8.66525 24.1247L6.63408 22.581C5.92917 23.5085 5.57489 24.58 5.57489 25.7504H8.1261ZM8.66525 24.1247C9.0208 23.6569 9.47408 23.3542 10.0715 23.2L9.43398 20.7297C8.29285 21.0242 7.34408 21.6468 6.63408 22.581L8.66525 24.1247ZM10.0396 23.2078C10.9705 22.993 12.946 22.8619 16.104 22.8619V20.3107C12.9808 20.3107 10.7221 20.432 9.4659 20.7219L10.0396 23.2078Z" fill="#1E1E1E" mask="url(#path-3-outside-2_47_8113)"/>
</svg>
