<svg width="49" height="135" viewBox="0 0 49 135" fill="none" xmlns="http://www.w3.org/2000/svg">
<mask id="path-1-outside-1_48_8162" maskUnits="userSpaceOnUse" x="0.738281" y="56.1023" width="35" height="61" fill="black">
<rect fill="white" x="0.738281" y="56.1023" width="35" height="61"/>
<path d="M20.423 56.8053C23.6196 56.8053 26.634 57.0857 29.4662 57.6465C33.2797 58.4036 35.1865 60.016 35.1865 62.4836C35.1865 63.2968 34.9902 63.9137 34.5976 64.3343C34.2331 64.7269 33.2797 65.3157 31.7375 66.1009C30.4476 66.7458 29.5923 68.1619 29.1717 70.3491C28.7792 72.5362 28.5829 76.7985 28.5829 83.1357C28.5829 93.8473 28.8493 100.479 29.382 103.031C29.5783 103.844 29.8727 104.475 30.2653 104.923C30.6859 105.344 31.401 105.807 32.4104 106.311C34.2611 107.153 35.1865 108.372 35.1865 109.971C35.1865 112.214 33.476 113.756 30.055 114.598C26.3536 115.495 21.825 115.944 16.4692 115.944C7.32789 115.944 2.75722 114.205 2.75722 110.728C2.75722 109.466 3.65453 108.288 5.44915 107.195C6.82315 106.354 7.63634 105.204 7.8887 103.746C8.42148 100.549 8.68787 93.7632 8.68787 83.3881C8.68787 76.2096 8.32334 71.6109 7.59427 69.592C7.2017 68.4423 6.26233 67.4048 4.77617 66.4794C3.62649 65.7223 2.85537 65.0914 2.46279 64.5867C2.07022 64.0819 1.87394 63.437 1.87394 62.6518C1.87394 61.4461 2.44877 60.4927 3.59845 59.7917C4.77617 59.0626 6.83717 58.4177 9.78146 57.8569C13.2866 57.1558 16.8337 56.8053 20.423 56.8053Z"/>
</mask>
<path d="M20.423 56.8053C23.6196 56.8053 26.634 57.0857 29.4662 57.6465C33.2797 58.4036 35.1865 60.016 35.1865 62.4836C35.1865 63.2968 34.9902 63.9137 34.5976 64.3343C34.2331 64.7269 33.2797 65.3157 31.7375 66.1009C30.4476 66.7458 29.5923 68.1619 29.1717 70.3491C28.7792 72.5362 28.5829 76.7985 28.5829 83.1357C28.5829 93.8473 28.8493 100.479 29.382 103.031C29.5783 103.844 29.8727 104.475 30.2653 104.923C30.6859 105.344 31.401 105.807 32.4104 106.311C34.2611 107.153 35.1865 108.372 35.1865 109.971C35.1865 112.214 33.476 113.756 30.055 114.598C26.3536 115.495 21.825 115.944 16.4692 115.944C7.32789 115.944 2.75722 114.205 2.75722 110.728C2.75722 109.466 3.65453 108.288 5.44915 107.195C6.82315 106.354 7.63634 105.204 7.8887 103.746C8.42148 100.549 8.68787 93.7632 8.68787 83.3881C8.68787 76.2096 8.32334 71.6109 7.59427 69.592C7.2017 68.4423 6.26233 67.4048 4.77617 66.4794C3.62649 65.7223 2.85537 65.0914 2.46279 64.5867C2.07022 64.0819 1.87394 63.437 1.87394 62.6518C1.87394 61.4461 2.44877 60.4927 3.59845 59.7917C4.77617 59.0626 6.83717 58.4177 9.78146 57.8569C13.2866 57.1558 16.8337 56.8053 20.423 56.8053Z" fill="#1E1E1E"/>
<path d="M29.4662 57.6465L29.4997 57.4776L29.4996 57.4775L29.4662 57.6465ZM34.5976 64.3343L34.4717 64.2167L34.4714 64.2171L34.5976 64.3343ZM31.7375 66.1009L31.8145 66.255L31.8156 66.2544L31.7375 66.1009ZM29.1717 70.3491L29.0025 70.3165L29.0022 70.3186L29.1717 70.3491ZM29.382 103.031L29.2133 103.066L29.2146 103.071L29.382 103.031ZM30.2653 104.923L30.1354 105.037L30.1435 105.045L30.2653 104.923ZM32.4104 106.311L32.3333 106.466L32.3392 106.468L32.4104 106.311ZM30.055 114.598L30.0956 114.765L30.0962 114.765L30.055 114.598ZM5.44915 107.195L5.5388 107.342L5.53911 107.342L5.44915 107.195ZM7.8887 103.746L8.05847 103.775L8.05864 103.774L7.8887 103.746ZM7.59427 69.592L7.43121 69.6476L7.43223 69.6505L7.59427 69.592ZM4.77617 66.4794L4.68138 66.6234L4.68511 66.6257L4.77617 66.4794ZM2.46279 64.5867L2.3268 64.6924L2.46279 64.5867ZM3.59845 59.7917L3.68814 59.9388L3.68913 59.9382L3.59845 59.7917ZM9.78146 57.8569L9.8137 58.0261L9.81525 58.0258L9.78146 57.8569ZM20.423 56.9776C23.6096 56.9776 26.6127 57.2571 29.4327 57.8155L29.4996 57.4775C26.6554 56.9143 23.6297 56.633 20.423 56.633V56.9776ZM29.4326 57.8155C31.3252 58.1913 32.7232 58.7756 33.6452 59.5552C34.5604 60.3291 35.0142 61.3012 35.0142 62.4836H35.3588C35.3588 61.1984 34.8592 60.1305 33.8677 59.2921C32.8829 58.4594 31.4206 57.8589 29.4997 57.4776L29.4326 57.8155ZM35.0142 62.4836C35.0142 63.2712 34.8241 63.8391 34.4717 64.2167L34.7236 64.4518C35.1563 63.9882 35.3588 63.3224 35.3588 62.4836H35.0142ZM34.4714 64.2171C34.3059 64.3953 33.9933 64.6306 33.5187 64.9238C33.0475 65.2148 32.4282 65.5559 31.6593 65.9473L31.8156 66.2544C32.589 65.8607 33.2175 65.5148 33.6997 65.2169C34.1785 64.9212 34.5249 64.6658 34.7239 64.4515L34.4714 64.2171ZM31.6604 65.9468C30.3011 66.6264 29.4277 68.1059 29.0025 70.3165L29.3409 70.3816C29.757 68.2178 30.5941 66.8652 31.8145 66.255L31.6604 65.9468ZM29.0022 70.3186C28.6065 72.5232 28.4106 76.8005 28.4106 83.1357H28.7552C28.7552 76.7964 28.9519 72.5493 29.3413 70.3795L29.0022 70.3186ZM28.4106 83.1357C28.4106 88.4926 28.4772 92.831 28.6105 96.1501C28.7437 99.4653 28.9437 101.774 29.2134 103.066L29.5507 102.995C29.2876 101.735 29.088 99.4527 28.9548 96.1362C28.8217 92.8237 28.7552 88.4904 28.7552 83.1357H28.4106ZM29.2146 103.071C29.4149 103.901 29.7189 104.561 30.1357 105.037L30.395 104.81C30.0266 104.389 29.7417 103.787 29.5495 102.99L29.2146 103.071ZM30.1435 105.045C30.5842 105.486 31.3194 105.959 32.3334 106.466L32.4875 106.157C31.4825 105.655 30.7877 105.202 30.3871 104.802L30.1435 105.045ZM32.3392 106.468C33.2467 106.881 33.9146 107.38 34.3552 107.961C34.7941 108.54 35.0142 109.207 35.0142 109.971H35.3588C35.3588 109.136 35.1162 108.394 34.6297 107.753C34.1451 107.114 33.4249 106.583 32.4817 106.155L32.3392 106.468ZM35.0142 109.971C35.0142 111.042 34.6084 111.943 33.7883 112.682C32.9624 113.427 31.7101 114.013 30.0139 114.43L30.0962 114.765C31.8209 114.341 33.1343 113.736 34.019 112.938C34.9094 112.135 35.3588 111.143 35.3588 109.971H35.0142ZM30.0144 114.43C26.3305 115.323 21.8164 115.771 16.4692 115.771V116.116C21.8336 116.116 26.3768 115.667 30.0956 114.765L30.0144 114.43ZM16.4692 115.771C11.9045 115.771 8.50194 115.337 6.24647 114.479C5.11996 114.05 4.29053 113.52 3.74379 112.896C3.20008 112.276 2.92951 111.556 2.92951 110.728H2.58494C2.58494 111.639 2.8857 112.44 3.48465 113.123C4.08058 113.803 4.96515 114.36 6.12397 114.801C8.43916 115.681 11.8926 116.116 16.4692 116.116V115.771ZM2.92951 110.728C2.92951 109.558 3.76038 108.426 5.5388 107.342L5.3595 107.048C3.54869 108.151 2.58494 109.374 2.58494 110.728H2.92951ZM5.53911 107.342C6.95116 106.477 7.79683 105.287 8.05846 103.775L7.71894 103.716C7.47584 105.121 6.69514 106.23 5.35919 107.048L5.53911 107.342ZM8.05864 103.774C8.59419 100.561 8.86015 93.7601 8.86015 83.3881H8.51559C8.51559 93.7663 8.24877 100.537 7.71876 103.717L8.05864 103.774ZM8.86015 83.3881C8.86015 79.7965 8.76898 76.8472 8.58621 74.5416C8.4038 72.2403 8.12923 70.5661 7.75632 69.5334L7.43223 69.6505C7.78838 70.6367 8.06061 72.2714 8.24273 74.5688C8.42449 76.8619 8.51559 79.8012 8.51559 83.3881H8.86015ZM7.75731 69.5363C7.3473 68.3355 6.3726 67.2705 4.86723 66.3332L4.68511 66.6257C6.15206 67.5391 7.05611 68.549 7.43123 69.6476L7.75731 69.5363ZM4.87092 66.3355C3.72312 65.5797 2.97275 64.9617 2.59879 64.4809L2.3268 64.6924C2.73799 65.2211 3.52986 65.865 4.68141 66.6233L4.87092 66.3355ZM2.59879 64.4809C2.2347 64.0128 2.04622 63.4076 2.04622 62.6518H1.70165C1.70165 63.4663 1.90575 64.1511 2.3268 64.6924L2.59879 64.4809ZM2.04622 62.6518C2.04622 61.5141 2.58261 60.6129 3.68814 59.9388L3.50876 59.6446C2.31494 60.3725 1.70165 61.3781 1.70165 62.6518H2.04622ZM3.68913 59.9382C4.83791 59.227 6.87166 58.5865 9.8137 58.0261L9.74923 57.6876C6.80268 58.2489 4.71443 58.8982 3.50777 59.6452L3.68913 59.9382ZM9.81525 58.0258C13.3092 57.327 16.845 56.9776 20.423 56.9776V56.633C16.8224 56.633 13.264 56.9847 9.74768 57.6879L9.81525 58.0258Z" fill="#F8B2BC" mask="url(#path-1-outside-1_48_8162)"/>
<mask id="path-3-outside-2_48_8162" maskUnits="userSpaceOnUse" x="4.9082" y="48.2109" width="37" height="63" fill="black">
<rect fill="white" x="4.9082" y="48.2109" width="37" height="63"/>
<path d="M25.5929 49.914C28.7896 49.914 31.8039 50.1944 34.6361 50.7552C38.4496 51.5123 40.3564 53.1246 40.3564 55.5922C40.3564 56.4054 40.1601 57.0223 39.7676 57.4429C39.403 57.8355 38.4496 58.4244 36.9074 59.2095C35.6175 59.8545 34.7623 61.2705 34.3416 63.4577C33.9491 65.6449 33.7528 69.9071 33.7528 76.2443C33.7528 86.956 34.0192 93.5876 34.552 96.1393C34.7482 96.9525 35.0427 97.5834 35.4352 98.0321C35.8559 98.4527 36.5709 98.9154 37.5804 99.4201C39.4311 100.261 40.3564 101.481 40.3564 103.079C40.3564 105.323 38.6459 106.865 35.2249 107.706C31.5235 108.604 26.9949 109.052 21.6391 109.052C12.4978 109.052 7.92715 107.314 7.92715 103.837C7.92715 102.575 8.82445 101.397 10.6191 100.303C11.9931 99.4622 12.8063 98.3125 13.0586 96.8544C13.5914 93.6577 13.8578 86.8718 13.8578 76.4967C13.8578 69.3182 13.4933 64.7195 12.7642 62.7006C12.3716 61.5509 11.4323 60.5134 9.94609 59.5881C8.79641 58.831 8.02529 58.2 7.63272 57.6953C7.24014 57.1906 7.04386 56.5456 7.04386 55.7605C7.04386 54.5547 7.6187 53.6013 8.76837 52.9003C9.94609 52.1713 12.0071 51.5263 14.9514 50.9655C18.4565 50.2645 22.0037 49.914 25.5929 49.914Z"/>
</mask>
<path d="M25.5929 49.914C28.7896 49.914 31.8039 50.1944 34.6361 50.7552C38.4496 51.5123 40.3564 53.1246 40.3564 55.5922C40.3564 56.4054 40.1601 57.0223 39.7676 57.4429C39.403 57.8355 38.4496 58.4244 36.9074 59.2095C35.6175 59.8545 34.7623 61.2705 34.3416 63.4577C33.9491 65.6449 33.7528 69.9071 33.7528 76.2443C33.7528 86.956 34.0192 93.5876 34.552 96.1393C34.7482 96.9525 35.0427 97.5834 35.4352 98.0321C35.8559 98.4527 36.5709 98.9154 37.5804 99.4201C39.4311 100.261 40.3564 101.481 40.3564 103.079C40.3564 105.323 38.6459 106.865 35.2249 107.706C31.5235 108.604 26.9949 109.052 21.6391 109.052C12.4978 109.052 7.92715 107.314 7.92715 103.837C7.92715 102.575 8.82445 101.397 10.6191 100.303C11.9931 99.4622 12.8063 98.3125 13.0586 96.8544C13.5914 93.6577 13.8578 86.8718 13.8578 76.4967C13.8578 69.3182 13.4933 64.7195 12.7642 62.7006C12.3716 61.5509 11.4323 60.5134 9.94609 59.5881C8.79641 58.831 8.02529 58.2 7.63272 57.6953C7.24014 57.1906 7.04386 56.5456 7.04386 55.7605C7.04386 54.5547 7.6187 53.6013 8.76837 52.9003C9.94609 52.1713 12.0071 51.5263 14.9514 50.9655C18.4565 50.2645 22.0037 49.914 25.5929 49.914Z" fill="#F8B2BC"/>
<path d="M34.6361 50.7552L34.8845 49.504L34.8839 49.5039L34.6361 50.7552ZM39.7676 57.4429L38.835 56.5726L38.8328 56.5749L39.7676 57.4429ZM36.9074 59.2095L37.4779 60.3505L37.4861 60.3463L36.9074 59.2095ZM34.3416 63.4577L33.089 63.2168L33.0875 63.2246L33.0861 63.2323L34.3416 63.4577ZM34.552 96.1393L33.3033 96.4001L33.3073 96.4194L33.312 96.4386L34.552 96.1393ZM35.4352 98.0321L34.4753 98.8721L34.5032 98.9041L34.5333 98.9341L35.4352 98.0321ZM37.5804 99.4201L37.0099 100.561L37.031 100.572L37.0525 100.581L37.5804 99.4201ZM35.2249 107.706L35.5255 108.946L35.5295 108.945L35.2249 107.706ZM10.6191 100.303L11.2829 101.393L11.2851 101.391L10.6191 100.303ZM13.0586 96.8544L14.3156 97.0719L14.3169 97.0641L13.0586 96.8544ZM12.7642 62.7006L11.557 63.1128L11.5606 63.1234L11.5644 63.1339L12.7642 62.7006ZM9.94609 59.5881L9.24452 60.6534L9.25808 60.6623L9.27186 60.6709L9.94609 59.5881ZM7.63272 57.6953L6.62582 58.4784L7.63272 57.6953ZM8.76837 52.9003L9.43248 53.9894L9.43979 53.9849L8.76837 52.9003ZM14.9514 50.9655L15.1901 52.2186L15.2016 52.2163L14.9514 50.9655ZM25.5929 51.1896C28.7151 51.1896 31.6459 51.4635 34.3883 52.0065L34.8839 49.5039C31.962 48.9253 28.864 48.6384 25.5929 48.6384V51.1896ZM34.3877 52.0064C36.1897 52.3641 37.3817 52.8966 38.1027 53.5063C38.7734 54.0735 39.0808 54.739 39.0808 55.5922H41.632C41.632 53.9779 40.986 52.6034 39.75 51.5582C38.5642 50.5556 36.896 49.9033 34.8845 49.504L34.3877 52.0064ZM39.0808 55.5922C39.0808 56.216 38.9303 56.4705 38.835 56.5726L40.7001 58.3133C41.39 57.5742 41.632 56.5948 41.632 55.5922H39.0808ZM38.8328 56.5749C38.7744 56.6378 38.57 56.8089 38.1088 57.0937C37.6733 57.3627 37.0834 57.6885 36.3287 58.0727L37.4861 60.3463C38.2737 59.9454 38.9315 59.5842 39.4494 59.2643C39.9416 58.9603 40.3961 58.6406 40.7023 58.3109L38.8328 56.5749ZM36.3369 58.0686C34.5328 58.9706 33.5429 60.8563 33.089 63.2168L35.5943 63.6986C35.9816 61.6847 36.7022 60.7383 37.4779 60.3504L36.3369 58.0686ZM33.0861 63.2323C32.6704 65.5485 32.4772 69.9221 32.4772 76.2443H35.0284C35.0284 69.8921 35.2278 65.7413 35.5972 63.6831L33.0861 63.2323ZM32.4772 76.2443C32.4772 81.6083 32.5438 85.963 32.678 89.303C32.811 92.6141 33.0126 95.0079 33.3033 96.4001L35.8006 95.8786C35.5585 94.719 35.3605 92.5211 35.2272 89.2006C35.0949 85.9089 35.0284 81.592 35.0284 76.2443H32.4772ZM33.312 96.4386C33.5382 97.376 33.9035 98.2187 34.4753 98.8721L36.3952 97.1921C36.1818 96.9482 35.9583 96.5291 35.7919 95.84L33.312 96.4386ZM34.5333 98.9341C35.1025 99.5033 35.9671 100.04 37.0099 100.561L38.1508 98.2792C37.1747 97.7911 36.6092 97.4021 36.3372 97.1301L34.5333 98.9341ZM37.0525 100.581C37.846 100.942 38.3464 101.342 38.6461 101.737C38.9328 102.115 39.0808 102.546 39.0808 103.079H41.632C41.632 102.015 41.3174 101.037 40.6787 100.195C40.053 99.3702 39.1654 98.7394 38.1082 98.2589L37.0525 100.581ZM39.0808 103.079C39.0808 103.829 38.8145 104.435 38.2194 104.971C37.5818 105.546 36.5253 106.073 34.9203 106.467L35.5295 108.945C37.3456 108.498 38.8548 107.833 39.9277 106.866C41.0431 105.86 41.632 104.573 41.632 103.079H39.0808ZM34.9244 106.467C31.3521 107.333 26.9312 107.777 21.6391 107.777V110.328C27.0587 110.328 31.6949 109.875 35.5255 108.946L34.9244 106.467ZM21.6391 107.777C17.1128 107.777 13.8729 107.341 11.8086 106.556C10.7856 106.167 10.1327 105.722 9.7435 105.278C9.37665 104.859 9.20275 104.397 9.20275 103.837H6.65154C6.65154 105.014 7.04898 106.074 7.82479 106.959C8.57822 107.819 9.63939 108.46 10.9016 108.941C13.4081 109.894 17.0242 110.328 21.6391 110.328V107.777ZM9.20275 103.837C9.20275 103.257 9.60814 102.413 11.2829 101.393L9.95528 99.2141C8.04077 100.381 6.65154 101.893 6.65154 103.837H9.20275ZM11.2851 101.391C12.9409 100.378 13.9946 98.9263 14.3155 97.0719L11.8017 96.6368C11.6179 97.6988 11.0453 98.5468 9.95301 99.2155L11.2851 101.391ZM14.3169 97.0641C14.8702 93.7443 15.1334 86.8488 15.1334 76.4967H12.5822C12.5822 86.8949 12.3126 93.5712 11.8004 96.6447L14.3169 97.0641ZM15.1334 76.4967C15.1334 72.8901 15.042 69.9089 14.856 67.563C14.6726 65.2493 14.3905 63.4486 13.964 62.2673L11.5644 63.1339C11.8669 63.9715 12.1316 65.4796 12.3128 67.7646C12.4914 70.0174 12.5822 72.9249 12.5822 76.4967H15.1334ZM13.9714 62.2884C13.4496 60.7605 12.2487 59.5191 10.6203 58.5052L9.27186 60.6709C10.6158 61.5077 11.2936 62.3413 11.557 63.1128L13.9714 62.2884ZM10.6477 58.5227C9.51186 57.7747 8.89438 57.2397 8.63962 56.9122L6.62582 58.4784C7.1562 59.1604 8.08097 59.8872 9.24452 60.6534L10.6477 58.5227ZM8.63962 56.9122C8.45794 56.6786 8.31946 56.3283 8.31946 55.7605H5.76825C5.76825 56.763 6.02235 57.7026 6.62582 58.4784L8.63962 56.9122ZM8.31946 55.7605C8.31946 55.0583 8.6096 54.4912 9.43246 53.9894L8.10428 51.8112C6.62779 52.7115 5.76825 54.0512 5.76825 55.7605H8.31946ZM9.43979 53.9849C10.4032 53.3885 12.2625 52.7762 15.1901 52.2186L14.7127 49.7124C11.7517 50.2764 9.48895 50.954 8.09695 51.8157L9.43979 53.9849ZM15.2016 52.2163C18.624 51.5318 22.0873 51.1896 25.5929 51.1896V48.6384C21.92 48.6384 18.289 48.9971 14.7012 49.7147L15.2016 52.2163Z" fill="#1E1E1E" mask="url(#path-3-outside-2_48_8162)"/>
<mask id="path-5-inside-3_48_8162" fill="white">
<path fill-rule="evenodd" clip-rule="evenodd" d="M24.1068 23.6759C24.6889 21.6297 25.0872 19.0138 25.2947 15.9817C25.2879 9.43227 22.7293 5.18034 19.9637 5.21486C17.198 5.24938 15.0519 10.2165 15.0586 16.766C15.0615 19.474 15.4881 21.958 16.1832 23.9379C12.5294 25.0422 9.66286 27.5302 8.63393 30.9697C6.81676 37.044 11.4192 43.7858 18.9137 46.0278C26.4083 48.2698 33.9569 45.1631 35.7741 39.0887C36.85 35.4921 35.6754 31.6615 32.9823 28.6695C34.8743 27.7178 36.953 26.0793 38.838 23.9268C42.8973 19.2916 43.979 14.7907 41.9231 12.9326C39.8671 11.0745 35.4519 12.5627 31.3926 17.198C29.203 19.6983 27.7219 22.3817 27.1448 24.6148C26.6122 24.3958 26.0615 24.2003 25.4943 24.0306C25.0315 23.8922 24.5686 23.7741 24.1068 23.6759Z"/>
</mask>
<path fill-rule="evenodd" clip-rule="evenodd" d="M24.1068 23.6759C24.6889 21.6297 25.0872 19.0138 25.2947 15.9817C25.2879 9.43227 22.7293 5.18034 19.9637 5.21486C17.198 5.24938 15.0519 10.2165 15.0586 16.766C15.0615 19.474 15.4881 21.958 16.1832 23.9379C12.5294 25.0422 9.66286 27.5302 8.63393 30.9697C6.81676 37.044 11.4192 43.7858 18.9137 46.0278C26.4083 48.2698 33.9569 45.1631 35.7741 39.0887C36.85 35.4921 35.6754 31.6615 32.9823 28.6695C34.8743 27.7178 36.953 26.0793 38.838 23.9268C42.8973 19.2916 43.979 14.7907 41.9231 12.9326C39.8671 11.0745 35.4519 12.5627 31.3926 17.198C29.203 19.6983 27.7219 22.3817 27.1448 24.6148C26.6122 24.3958 26.0615 24.2003 25.4943 24.0306C25.0315 23.8922 24.5686 23.7741 24.1068 23.6759Z" fill="#1E1E1E"/>
<path d="M25.2947 15.9817L25.4665 15.9935L25.4664 15.9816L25.2947 15.9817ZM24.1068 23.6759L23.9416 23.6289L23.8913 23.8057L24.0711 23.8439L24.1068 23.6759ZM19.9637 5.21486L19.9615 5.04313L19.9637 5.21486ZM15.0586 16.766L15.2304 16.7658L15.2304 16.7658L15.0586 16.766ZM16.1832 23.9379L16.2329 24.1023L16.4047 24.0504L16.3452 23.881L16.1832 23.9379ZM32.9823 28.6695L32.9051 28.516L32.7041 28.6171L32.8547 28.7843L32.9823 28.6695ZM38.838 23.9268L38.9672 24.04L38.9672 24.04L38.838 23.9268ZM41.9231 12.9326L41.8079 13.06L41.8079 13.06L41.9231 12.9326ZM31.3926 17.198L31.2634 17.0848L31.2634 17.0848L31.3926 17.198ZM27.1448 24.6148L27.0795 24.7736L27.2617 24.8486L27.3111 24.6577L27.1448 24.6148ZM25.1234 15.97C24.9164 18.9952 24.5193 21.5982 23.9416 23.6289L24.272 23.7229C24.8585 21.6612 25.2581 19.0324 25.466 15.9935L25.1234 15.97ZM19.9658 5.38659C21.2528 5.37053 22.5376 6.35473 23.5117 8.20917C24.4819 10.056 25.1196 12.7274 25.123 15.9819L25.4664 15.9816C25.463 12.6866 24.818 9.9573 23.8158 8.04944C22.8176 6.14917 21.4402 5.02468 19.9615 5.04313L19.9658 5.38659ZM15.2304 16.7658C15.227 13.5075 15.7595 10.6526 16.6294 8.61474C17.5061 6.56105 18.6933 5.40248 19.9658 5.38659L19.9615 5.04313C18.4684 5.06177 17.1996 6.40402 16.3135 8.47989C15.4207 10.5716 14.8835 13.475 14.8869 16.7662L15.2304 16.7658ZM16.3452 23.881C15.6573 21.9215 15.2332 19.4569 15.2304 16.7658L14.8869 16.7662C14.8897 19.491 15.3189 21.9945 16.0211 23.9948L16.3452 23.881ZM16.1335 23.7735C12.4365 24.8908 9.51815 27.4147 8.46939 30.9204L8.79846 31.0189C9.80757 27.6457 12.6222 25.1935 16.2329 24.1023L16.1335 23.7735ZM8.46939 30.9204C6.61588 37.1163 11.3131 43.9333 18.8645 46.1923L18.963 45.8633C11.5253 43.6383 7.01764 36.9718 8.79846 31.0189L8.46939 30.9204ZM18.8645 46.1923C26.4159 48.4514 34.0851 45.3338 35.9386 39.138L35.6095 39.0395C33.8287 44.9924 26.4006 48.0883 18.963 45.8633L18.8645 46.1923ZM35.9386 39.138C37.0354 35.4718 35.8338 31.5808 33.11 28.5546L32.8547 28.7843C35.5169 31.7421 36.6647 35.5124 35.6095 39.0395L35.9386 39.138ZM33.0595 28.8229C34.9749 27.8595 37.0706 26.2057 38.9672 24.04L38.7088 23.8137C36.8354 25.9529 34.7736 27.5762 32.9051 28.516L33.0595 28.8229ZM38.9672 24.04C41.0083 21.7092 42.31 19.4025 42.8396 17.4329C43.3677 15.4689 43.1361 13.7975 42.0382 12.8052L41.8079 13.06C42.7659 13.9259 43.0215 15.4339 42.5079 17.3437C41.9958 19.2479 40.727 21.5091 38.7088 23.8137L38.9672 24.04ZM42.0382 12.8052C40.9407 11.8134 39.2432 11.7402 37.3474 12.47C35.4462 13.2019 33.3058 14.7527 31.2634 17.0848L31.5219 17.3111C33.5387 15.0081 35.6355 13.4971 37.4708 12.7906C39.3113 12.082 40.8494 12.1938 41.8079 13.06L42.0382 12.8052ZM31.2634 17.0848C29.0611 19.5997 27.564 22.3064 26.9785 24.5718L27.3111 24.6577C27.8798 22.457 29.345 19.7969 31.5219 17.3111L31.2634 17.0848ZM27.2101 24.4559C26.6722 24.2348 26.1162 24.0374 25.5435 23.866L25.4451 24.1951C26.0068 24.3632 26.5522 24.5568 27.0795 24.7736L27.2101 24.4559ZM25.5435 23.866C25.0763 23.7263 24.6088 23.6071 24.1425 23.5079L24.0711 23.8439C24.5283 23.9411 24.9868 24.058 25.4451 24.1951L25.5435 23.866Z" fill="#F8B2BC" mask="url(#path-5-inside-3_48_8162)"/>
<mask id="path-7-inside-4_48_8162" fill="white">
<path fill-rule="evenodd" clip-rule="evenodd" d="M27.5598 21.7059C28.1414 19.6595 28.5325 17.0413 28.7267 14.005C28.6827 7.4444 26.0516 3.17076 23.2337 3.18967C20.4159 3.20858 18.2572 8.17197 18.3013 14.7326C18.3195 17.4449 18.7682 19.9353 19.4875 21.9224C15.7697 23.0075 12.8621 25.4838 11.833 28.9239C10.0158 34.9983 14.7436 41.7775 22.3928 44.0658C30.042 46.3541 37.716 43.2849 39.5331 37.2105C40.6091 33.6138 39.3904 29.77 36.6294 26.7577C38.5517 25.8151 40.6605 24.1857 42.569 22.0402C46.6788 17.4201 47.7556 12.9178 45.6501 11.0449C43.5447 9.17199 39.0543 10.6377 34.9444 15.2578C32.7275 17.75 31.2336 20.4295 30.6581 22.663C30.1143 22.4407 29.5522 22.2418 28.9733 22.0686C28.5018 21.9275 28.0301 21.8068 27.5598 21.7059Z"/>
</mask>
<path fill-rule="evenodd" clip-rule="evenodd" d="M27.5598 21.7059C28.1414 19.6595 28.5325 17.0413 28.7267 14.005C28.6827 7.4444 26.0516 3.17076 23.2337 3.18967C20.4159 3.20858 18.2572 8.17197 18.3013 14.7326C18.3195 17.4449 18.7682 19.9353 19.4875 21.9224C15.7697 23.0075 12.8621 25.4838 11.833 28.9239C10.0158 34.9983 14.7436 41.7775 22.3928 44.0658C30.042 46.3541 37.716 43.2849 39.5331 37.2105C40.6091 33.6138 39.3904 29.77 36.6294 26.7577C38.5517 25.8151 40.6605 24.1857 42.569 22.0402C46.6788 17.4201 47.7556 12.9178 45.6501 11.0449C43.5447 9.17199 39.0543 10.6377 34.9444 15.2578C32.7275 17.75 31.2336 20.4295 30.6581 22.663C30.1143 22.4407 29.5522 22.2418 28.9733 22.0686C28.5018 21.9275 28.0301 21.8068 27.5598 21.7059Z" fill="#F8B2BC"/>
<path d="M28.7267 14.005L29.951 14.0833L29.9537 14.0401L29.9535 13.9968L28.7267 14.005ZM27.5598 21.7059L26.3798 21.3706L26.0217 22.6306L27.3025 22.9054L27.5598 21.7059ZM23.2337 3.18967L23.242 4.41638L23.2337 3.18967ZM18.3013 14.7326L19.528 14.7243L19.528 14.7243L18.3013 14.7326ZM19.4875 21.9224L19.8312 23.1L21.0859 22.7338L20.641 21.5048L19.4875 21.9224ZM36.6294 26.7577L36.0893 25.6562L34.6172 26.3779L35.725 27.5866L36.6294 26.7577ZM42.569 22.0402L43.4855 22.8556L43.4855 22.8556L42.569 22.0402ZM45.6501 11.0449L44.8348 11.9615L44.8348 11.9615L45.6501 11.0449ZM34.9444 15.2578L34.0279 14.4425L34.0279 14.4425L34.9444 15.2578ZM30.6581 22.663L30.1939 23.7985L31.4953 24.3306L31.8461 22.9691L30.6581 22.663ZM27.5025 13.9267C27.3115 16.9129 26.9292 19.4374 26.3798 21.3706L28.7398 22.0413C29.3536 19.8816 29.7536 17.1697 29.951 14.0833L27.5025 13.9267ZM23.242 4.41638C23.9821 4.41141 25.0146 4.99232 25.9403 6.71158C26.8387 8.38017 27.479 10.8804 27.5 14.0132L29.9535 13.9968C29.9305 10.569 29.2332 7.65211 28.1006 5.54846C26.9952 3.49548 25.3032 1.94902 23.2255 1.96297L23.242 4.41638ZM19.528 14.7243C19.5068 11.563 20.0192 8.85962 20.8214 6.9922C21.6688 5.01981 22.6164 4.42058 23.242 4.41638L23.2255 1.96297C21.0332 1.97768 19.4926 3.8696 18.5672 6.02378C17.5966 8.28294 17.0518 11.3415 17.0746 14.7408L19.528 14.7243ZM20.641 21.5048C19.9745 19.6637 19.5454 17.3136 19.528 14.7243L17.0746 14.7408C17.0936 17.5762 17.5619 20.2069 18.334 22.3399L20.641 21.5048ZM19.1438 20.7448C15.1215 21.9188 11.8318 24.6475 10.6577 28.5723L13.0082 29.2755C13.8924 26.3201 16.4179 24.0962 19.8312 23.1L19.1438 20.7448ZM10.6577 28.5723C8.57508 35.534 14.01 42.8385 22.0412 45.2411L22.7444 42.8906C15.4772 40.7165 11.4565 34.4626 13.0082 29.2755L10.6577 28.5723ZM22.0412 45.2411C30.0724 47.6437 38.6258 44.5238 40.7084 37.5621L38.3579 36.8589C36.8061 42.046 30.0116 45.0646 22.7444 42.8906L22.0412 45.2411ZM40.7084 37.5621C41.9364 33.4572 40.5132 29.1794 37.5337 25.9288L35.725 27.5866C38.2677 30.3606 39.2818 33.7705 38.3579 36.8589L40.7084 37.5621ZM37.1694 27.8591C39.2602 26.834 41.4921 25.0966 43.4855 22.8556L41.6524 21.2249C39.8289 23.2748 37.8432 24.7963 36.0893 25.6562L37.1694 27.8591ZM43.4855 22.8556C45.6241 20.4515 47.0414 18.0059 47.6251 15.8303C48.1998 13.6881 48.0198 11.511 46.4654 10.1283L44.8348 11.9615C45.3859 12.4517 45.7202 13.4623 45.2554 15.1945C44.7997 16.8932 43.6237 19.0089 41.6524 21.2249L43.4855 22.8556ZM46.4654 10.1283C44.9238 8.75693 42.718 8.78315 40.6195 9.56736C38.4845 10.3652 36.1764 12.0272 34.0279 14.4425L35.861 16.0732C37.8223 13.8684 39.8143 12.4874 41.4783 11.8656C43.1788 11.2301 44.271 11.46 44.8348 11.9615L46.4654 10.1283ZM34.0279 14.4425C31.718 17.0391 30.1064 19.8874 29.4702 22.357L31.8461 22.9691C32.3607 20.9716 33.737 18.4608 35.861 16.0732L34.0279 14.4425ZM31.1224 21.5275C30.5417 21.2901 29.9419 21.0779 29.3249 20.8933L28.6217 23.2439C29.1624 23.4056 29.687 23.5912 30.1939 23.7985L31.1224 21.5275ZM29.3249 20.8933C28.8223 20.743 28.3192 20.6142 27.8171 20.5065L27.3025 22.9054C27.7411 22.9995 28.1813 23.1121 28.6217 23.2439L29.3249 20.8933Z" fill="#1E1E1E" mask="url(#path-7-inside-4_48_8162)"/>
</svg>
