<svg width="42" height="106" viewBox="0 0 42 106" fill="none" xmlns="http://www.w3.org/2000/svg">
<mask id="path-1-outside-1_47_8104" maskUnits="userSpaceOnUse" x="0.785156" y="26.891" width="35" height="61" fill="black">
<rect fill="white" x="0.785156" y="26.891" width="35" height="61"/>
<path d="M20.4698 27.594C23.6665 27.594 26.6809 27.8744 29.513 28.4352C33.3266 29.1923 35.2334 30.8047 35.2334 33.2723C35.2334 34.0855 35.0371 34.7024 34.6445 35.123C34.28 35.5156 33.3266 36.1044 31.7843 36.8896C30.4945 37.5345 29.6392 38.9506 29.2186 41.1378C28.826 43.3249 28.6297 47.5872 28.6297 53.9244C28.6297 64.636 28.8961 71.2677 29.4289 73.8194C29.6252 74.6326 29.9196 75.2635 30.3122 75.7122C30.7328 76.1328 31.4479 76.5954 32.4573 77.1002C34.308 77.9414 35.2334 79.1612 35.2334 80.7595C35.2334 83.0028 33.5229 84.545 30.1019 85.3863C26.4005 86.2836 21.8719 86.7322 16.5161 86.7322C7.37476 86.7322 2.8041 84.9937 2.8041 81.5166C2.8041 80.2548 3.70141 79.0771 5.49602 77.9835C6.87003 77.1422 7.68321 75.9926 7.93558 74.5344C8.46836 71.3378 8.73474 64.5519 8.73474 54.1768C8.73474 46.9983 8.37021 42.3996 7.64115 40.3807C7.24858 39.231 6.30921 38.1935 4.82304 37.2681C3.67337 36.511 2.90224 35.8801 2.50967 35.3754C2.1171 34.8706 1.92081 34.2257 1.92081 33.4405C1.92081 32.2348 2.49565 31.2814 3.64533 30.5804C4.82304 29.8513 6.88405 29.2064 9.82834 28.6455C13.3334 27.9445 16.8806 27.594 20.4698 27.594Z"/>
</mask>
<path d="M20.4698 27.594C23.6665 27.594 26.6809 27.8744 29.513 28.4352C33.3266 29.1923 35.2334 30.8047 35.2334 33.2723C35.2334 34.0855 35.0371 34.7024 34.6445 35.123C34.28 35.5156 33.3266 36.1044 31.7843 36.8896C30.4945 37.5345 29.6392 38.9506 29.2186 41.1378C28.826 43.3249 28.6297 47.5872 28.6297 53.9244C28.6297 64.636 28.8961 71.2677 29.4289 73.8194C29.6252 74.6326 29.9196 75.2635 30.3122 75.7122C30.7328 76.1328 31.4479 76.5954 32.4573 77.1002C34.308 77.9414 35.2334 79.1612 35.2334 80.7595C35.2334 83.0028 33.5229 84.545 30.1019 85.3863C26.4005 86.2836 21.8719 86.7322 16.5161 86.7322C7.37476 86.7322 2.8041 84.9937 2.8041 81.5166C2.8041 80.2548 3.70141 79.0771 5.49602 77.9835C6.87003 77.1422 7.68321 75.9926 7.93558 74.5344C8.46836 71.3378 8.73474 64.5519 8.73474 54.1768C8.73474 46.9983 8.37021 42.3996 7.64115 40.3807C7.24858 39.231 6.30921 38.1935 4.82304 37.2681C3.67337 36.511 2.90224 35.8801 2.50967 35.3754C2.1171 34.8706 1.92081 34.2257 1.92081 33.4405C1.92081 32.2348 2.49565 31.2814 3.64533 30.5804C4.82304 29.8513 6.88405 29.2064 9.82834 28.6455C13.3334 27.9445 16.8806 27.594 20.4698 27.594Z" fill="#1E1E1E"/>
<path d="M29.513 28.4352L29.5466 28.2663L29.5465 28.2662L29.513 28.4352ZM34.6445 35.123L34.5186 35.0054L34.5183 35.0058L34.6445 35.123ZM31.7843 36.8896L31.8614 37.0437L31.8625 37.0431L31.7843 36.8896ZM29.2186 41.1378L29.0494 41.1052L29.049 41.1073L29.2186 41.1378ZM29.4289 73.8194L29.2602 73.8546L29.2614 73.8598L29.4289 73.8194ZM30.3122 75.7122L30.1823 75.8259L30.1904 75.834L30.3122 75.7122ZM32.4573 77.1002L32.3802 77.2544L32.386 77.257L32.4573 77.1002ZM30.1019 85.3863L30.1425 85.5537L30.143 85.5536L30.1019 85.3863ZM5.49602 77.9835L5.58567 78.1306L5.58598 78.1304L5.49602 77.9835ZM7.93558 74.5344L8.10534 74.5638L8.10552 74.5628L7.93558 74.5344ZM7.64115 40.3807L7.47808 40.4363L7.47911 40.4392L7.64115 40.3807ZM4.82304 37.2681L4.72826 37.412L4.73198 37.4144L4.82304 37.2681ZM2.50967 35.3754L2.37368 35.4811L2.50967 35.3754ZM3.64533 30.5804L3.73502 30.7275L3.73601 30.7269L3.64533 30.5804ZM9.82834 28.6455L9.86058 28.8148L9.86213 28.8145L9.82834 28.6455ZM20.4698 27.7663C23.6565 27.7663 26.6596 28.0458 29.4796 28.6042L29.5465 28.2662C26.7022 27.703 23.6766 27.4217 20.4698 27.4217V27.7663ZM29.4795 28.6042C31.3721 28.98 32.77 29.5642 33.692 30.3439C34.6073 31.1178 35.0611 32.0899 35.0611 33.2723H35.4057C35.4057 31.9871 34.9061 30.9192 33.9145 30.0808C32.9298 29.2481 31.4675 28.6476 29.5466 28.2663L29.4795 28.6042ZM35.0611 33.2723C35.0611 34.0599 34.871 34.6278 34.5186 35.0054L34.7705 35.2405C35.2032 34.7769 35.4057 34.1111 35.4057 33.2723H35.0611ZM34.5183 35.0058C34.3527 35.184 34.0401 35.4193 33.5655 35.7125C33.0944 36.0035 32.4751 36.3446 31.7062 36.736L31.8625 37.0431C32.6358 36.6494 33.2643 36.3035 33.7466 36.0056C34.2254 35.7099 34.5718 35.4545 34.7708 35.2402L34.5183 35.0058ZM31.7073 36.7355C30.348 37.4151 29.4745 38.8946 29.0494 41.1052L29.3878 41.1703C29.8039 39.0065 30.641 37.6539 31.8614 37.0437L31.7073 36.7355ZM29.049 41.1073C28.6533 43.3119 28.4575 47.5892 28.4575 53.9244H28.802C28.802 47.5851 28.9987 43.338 29.3882 41.1682L29.049 41.1073ZM28.4575 53.9244C28.4575 59.2813 28.5241 63.6197 28.6574 66.9388C28.7906 70.254 28.9906 72.563 29.2603 73.8546L29.5976 73.7842C29.3344 72.524 29.1349 70.2414 29.0017 66.9249C28.8686 63.6124 28.802 59.2791 28.802 53.9244H28.4575ZM29.2614 73.8598C29.4618 74.6898 29.7658 75.3493 30.1825 75.8256L30.4419 75.5987C30.0735 75.1777 29.7886 74.5754 29.5964 73.779L29.2614 73.8598ZM30.1904 75.834C30.6311 76.2747 31.3663 76.7473 32.3803 77.2543L32.5344 76.9461C31.5294 76.4436 30.8346 75.9909 30.434 75.5903L30.1904 75.834ZM32.386 77.257C33.2936 77.6695 33.9614 78.1692 34.4021 78.7501C34.841 79.3286 35.0611 79.9962 35.0611 80.7595H35.4057C35.4057 79.9245 35.1631 79.183 34.6766 78.5418C34.1919 77.9029 33.4718 77.372 32.5286 76.9433L32.386 77.257ZM35.0611 80.7595C35.0611 81.8309 34.6552 82.7312 33.8351 83.4707C33.0093 84.2153 31.757 84.8018 30.0608 85.219L30.143 85.5536C31.8678 85.1294 33.1812 84.5242 34.0659 83.7266C34.9562 82.9238 35.4057 81.9314 35.4057 80.7595H35.0611ZM30.0613 85.2188C26.3773 86.1119 21.8633 86.5599 16.5161 86.5599V86.9045C21.8805 86.9045 26.4236 86.4552 30.1425 85.5537L30.0613 85.2188ZM16.5161 86.5599C11.9514 86.5599 8.54882 86.1252 6.29335 85.2673C5.16683 84.8388 4.33741 84.3088 3.79067 83.6849C3.24695 83.0645 2.97638 82.3442 2.97638 81.5166H2.63182C2.63182 82.4275 2.93258 83.2285 3.53153 83.912C4.12745 84.592 5.01203 85.1486 6.17085 85.5893C8.48604 86.47 11.9394 86.9045 16.5161 86.9045V86.5599ZM2.97638 81.5166C2.97638 80.3469 3.80725 79.2143 5.58567 78.1306L5.40637 77.8363C3.59556 78.9398 2.63182 80.1626 2.63182 81.5166H2.97638ZM5.58598 78.1304C6.99803 77.2659 7.84371 76.0755 8.10534 74.5638L7.76582 74.5051C7.52271 75.9097 6.74202 77.0186 5.40606 77.8365L5.58598 78.1304ZM8.10552 74.5628C8.64107 71.3495 8.90703 64.5488 8.90703 54.1768H8.56246C8.56246 64.555 8.29564 71.3261 7.76564 74.5061L8.10552 74.5628ZM8.90703 54.1768C8.90703 50.5852 8.81585 47.6359 8.63309 45.3303C8.45067 43.029 8.1761 41.3548 7.80319 40.3221L7.47911 40.4392C7.83526 41.4254 8.10749 43.0601 8.2896 45.3575C8.47137 47.6506 8.56246 50.5899 8.56246 54.1768H8.90703ZM7.80419 40.325C7.39417 39.1242 6.41948 38.0592 4.9141 37.1219L4.73198 37.4144C6.19894 38.3278 7.10298 39.3377 7.47811 40.4363L7.80419 40.325ZM4.9178 37.1242C3.76999 36.3684 3.01962 35.7504 2.64566 35.2696L2.37368 35.4811C2.78486 36.0098 3.57674 36.6537 4.72829 37.412L4.9178 37.1242ZM2.64566 35.2696C2.28157 34.8015 2.09309 34.1963 2.09309 33.4405H1.74853C1.74853 34.255 1.95262 34.9398 2.37368 35.4811L2.64566 35.2696ZM2.09309 33.4405C2.09309 32.3028 2.62948 31.4016 3.73502 30.7275L3.55563 30.4333C2.36182 31.1612 1.74853 32.1668 1.74853 33.4405H2.09309ZM3.73601 30.7269C4.88478 30.0157 6.91854 29.3752 9.86057 28.8148L9.7961 28.4763C6.84956 29.0376 4.7613 29.6869 3.55464 30.4339L3.73601 30.7269ZM9.86213 28.8145C13.3561 28.1157 16.8919 27.7663 20.4698 27.7663V27.4217C16.8693 27.4217 13.3108 27.7734 9.79455 28.4766L9.86213 28.8145Z" fill="#FFF9B8" mask="url(#path-1-outside-1_47_8104)"/>
<mask id="path-3-outside-2_47_8104" maskUnits="userSpaceOnUse" x="4.95312" y="18.9996" width="37" height="63" fill="black">
<rect fill="white" x="4.95312" y="18.9996" width="37" height="63"/>
<path d="M25.6378 20.7027C28.8345 20.7027 31.8489 20.9831 34.681 21.5439C38.4946 22.301 40.4013 23.9133 40.4013 26.3809C40.4013 27.1941 40.2051 27.811 39.8125 28.2316C39.4479 28.6242 38.4946 29.2131 36.9523 29.9982C35.6624 30.6431 34.8072 32.0592 34.3866 34.2464C33.994 36.4336 33.7977 40.6958 33.7977 47.033C33.7977 57.7447 34.0641 64.3763 34.5969 66.928C34.7932 67.7412 35.0876 68.3721 35.4802 68.8208C35.9008 69.2414 36.6158 69.7041 37.6253 70.2088C39.476 71.05 40.4013 72.2698 40.4013 73.8682C40.4013 76.1114 38.6908 77.6537 35.2699 78.4949C31.5685 79.3922 27.0399 79.8409 21.6841 79.8409C12.5427 79.8409 7.97207 78.1023 7.97207 74.6253C7.97207 73.3634 8.86938 72.1857 10.664 71.0921C12.038 70.2509 12.8512 69.1012 13.1035 67.6431C13.6363 64.4464 13.9027 57.6605 13.9027 47.2854C13.9027 40.1069 13.5382 35.5082 12.8091 33.4893C12.4165 32.3396 11.4772 31.3021 9.99101 30.3768C8.84133 29.6197 8.07021 28.9887 7.67764 28.484C7.28507 27.9793 7.08878 27.3343 7.08878 26.5492C7.08878 25.3434 7.66362 24.39 8.81329 23.689C9.99101 22.9599 12.052 22.315 14.9963 21.7542C18.5014 21.0532 22.0486 20.7027 25.6378 20.7027Z"/>
</mask>
<path d="M25.6378 20.7027C28.8345 20.7027 31.8489 20.9831 34.681 21.5439C38.4946 22.301 40.4013 23.9133 40.4013 26.3809C40.4013 27.1941 40.2051 27.811 39.8125 28.2316C39.4479 28.6242 38.4946 29.2131 36.9523 29.9982C35.6624 30.6431 34.8072 32.0592 34.3866 34.2464C33.994 36.4336 33.7977 40.6958 33.7977 47.033C33.7977 57.7447 34.0641 64.3763 34.5969 66.928C34.7932 67.7412 35.0876 68.3721 35.4802 68.8208C35.9008 69.2414 36.6158 69.7041 37.6253 70.2088C39.476 71.05 40.4013 72.2698 40.4013 73.8682C40.4013 76.1114 38.6908 77.6537 35.2699 78.4949C31.5685 79.3922 27.0399 79.8409 21.6841 79.8409C12.5427 79.8409 7.97207 78.1023 7.97207 74.6253C7.97207 73.3634 8.86938 72.1857 10.664 71.0921C12.038 70.2509 12.8512 69.1012 13.1035 67.6431C13.6363 64.4464 13.9027 57.6605 13.9027 47.2854C13.9027 40.1069 13.5382 35.5082 12.8091 33.4893C12.4165 32.3396 11.4772 31.3021 9.99101 30.3768C8.84133 29.6197 8.07021 28.9887 7.67764 28.484C7.28507 27.9793 7.08878 27.3343 7.08878 26.5492C7.08878 25.3434 7.66362 24.39 8.81329 23.689C9.99101 22.9599 12.052 22.315 14.9963 21.7542C18.5014 21.0532 22.0486 20.7027 25.6378 20.7027Z" fill="#FFF9B8"/>
<path d="M34.681 21.5439L34.9294 20.2927L34.9288 20.2926L34.681 21.5439ZM39.8125 28.2316L38.8799 27.3613L38.8777 27.3636L39.8125 28.2316ZM36.9523 29.9982L37.5228 31.1392L37.531 31.135L36.9523 29.9982ZM34.3866 34.2464L33.1339 34.0055L33.1324 34.0133L33.131 34.021L34.3866 34.2464ZM34.5969 66.928L33.3482 67.1888L33.3522 67.2081L33.3569 67.2273L34.5969 66.928ZM35.4802 68.8208L34.5202 69.6608L34.5481 69.6928L34.5782 69.7228L35.4802 68.8208ZM37.6253 70.2088L37.0548 71.3498L37.0759 71.3603L37.0974 71.3701L37.6253 70.2088ZM35.2699 78.4949L35.5704 79.7346L35.5745 79.7336L35.2699 78.4949ZM10.664 71.0921L11.3278 72.1814L11.3301 72.18L10.664 71.0921ZM13.1035 67.6431L14.3605 67.8606L14.3618 67.8528L13.1035 67.6431ZM12.8091 33.4893L11.602 33.9015L11.6056 33.9121L11.6093 33.9225L12.8091 33.4893ZM9.99101 30.3768L9.28944 31.4421L9.303 31.451L9.31678 31.4596L9.99101 30.3768ZM7.67764 28.484L6.67074 29.2671L7.67764 28.484ZM8.81329 23.689L9.4774 24.7781L9.48471 24.7736L8.81329 23.689ZM14.9963 21.7542L15.235 23.0073L15.2465 23.005L14.9963 21.7542ZM25.6378 21.9783C28.76 21.9783 31.6908 22.2521 34.4332 22.7952L34.9288 20.2926C32.0069 19.714 28.9089 19.4271 25.6378 19.4271V21.9783ZM34.4326 22.7951C36.2347 23.1528 37.4266 23.6853 38.1476 24.295C38.8183 24.8622 39.1257 25.5277 39.1257 26.3809H41.6769C41.6769 24.7666 41.031 23.3921 39.7949 22.3469C38.6091 21.3443 36.9409 20.692 34.9294 20.2927L34.4326 22.7951ZM39.1257 26.3809C39.1257 27.0047 38.9752 27.2592 38.8799 27.3613L40.745 29.102C41.4349 28.3629 41.6769 27.3835 41.6769 26.3809H39.1257ZM38.8777 27.3636C38.8194 27.4265 38.6149 27.5976 38.1537 27.8824C37.7182 28.1514 37.1283 28.4772 36.3736 28.8614L37.531 31.135C38.3186 30.734 38.9764 30.3729 39.4944 30.053C39.9865 29.749 40.4411 29.4293 40.7472 29.0996L38.8777 27.3636ZM36.3818 28.8573C34.5777 29.7593 33.5879 31.645 33.1339 34.0055L35.6392 34.4873C36.0265 32.4734 36.7472 31.527 37.5228 31.1391L36.3818 28.8573ZM33.131 34.021C32.7153 36.3372 32.5221 40.7108 32.5221 47.033H35.0733C35.0733 40.6808 35.2727 36.53 35.6421 34.4718L33.131 34.021ZM32.5221 47.033C32.5221 52.397 32.5888 56.7517 32.7229 60.0917C32.8559 63.4028 33.0575 65.7966 33.3482 67.1888L35.8456 66.6673C35.6034 65.5077 35.4055 63.3098 35.2721 59.9893C35.1399 56.6976 35.0733 52.3807 35.0733 47.033H32.5221ZM33.3569 67.2273C33.5831 68.1647 33.9485 69.0074 34.5202 69.6608L36.4402 67.9808C36.2267 67.7369 36.0032 67.3178 35.8369 66.6287L33.3569 67.2273ZM34.5782 69.7228C35.1474 70.292 36.0121 70.8284 37.0548 71.3498L38.1958 69.0679C37.2196 68.5798 36.6541 68.1908 36.3822 67.9188L34.5782 69.7228ZM37.0974 71.3701C37.8909 71.7308 38.3914 72.1305 38.6911 72.5255C38.9777 72.9034 39.1257 73.3343 39.1257 73.8682H41.6769C41.6769 72.8037 41.3623 71.8255 40.7236 70.9836C40.0979 70.1589 39.2103 69.5281 38.1531 69.0476L37.0974 71.3701ZM39.1257 73.8682C39.1257 74.6177 38.8594 75.2233 38.2643 75.7599C37.6267 76.3348 36.5702 76.8615 34.9653 77.2562L35.5745 79.7336C37.3905 79.287 38.8998 78.622 39.9727 77.6547C41.088 76.649 41.6769 75.3618 41.6769 73.8682H39.1257ZM34.9693 77.2552C31.3971 78.1212 26.9761 78.5653 21.6841 78.5653V81.1165C27.1036 81.1165 31.7399 80.6632 35.5704 79.7346L34.9693 77.2552ZM21.6841 78.5653C17.1577 78.5653 13.9178 78.1299 11.8536 77.3447C10.8305 76.9555 10.1777 76.5105 9.78842 76.0664C9.42157 75.6477 9.24767 75.1862 9.24767 74.6253H6.69646C6.69646 75.8029 7.0939 76.8625 7.86972 77.7478C8.62314 78.6075 9.68431 79.2491 10.9466 79.7292C13.453 80.6826 17.0691 81.1165 21.6841 81.1165V78.5653ZM9.24767 74.6253C9.24767 74.0456 9.65306 73.2019 11.3278 72.1814L10.0002 70.0028C8.08569 71.1695 6.69646 72.6812 6.69646 74.6253H9.24767ZM11.3301 72.18C12.9858 71.1663 14.0395 69.715 14.3605 67.8606L11.8466 67.4255C11.6628 68.4875 11.0902 69.3355 9.99793 70.0042L11.3301 72.18ZM14.3618 67.8528C14.9151 64.533 15.1783 57.6375 15.1783 47.2854H12.6271C12.6271 57.6836 12.3576 64.3599 11.8453 67.4334L14.3618 67.8528ZM15.1783 47.2854C15.1783 43.6788 15.0869 40.6976 14.9009 38.3517C14.7175 36.038 14.4355 34.2373 14.0089 33.056L11.6093 33.9225C11.9118 34.7602 12.1766 36.2683 12.3577 38.5533C12.5363 40.8061 12.6271 43.7136 12.6271 47.2854H15.1783ZM14.0163 33.0771C13.4946 31.5492 12.2936 30.3078 10.6652 29.2939L9.31678 31.4596C10.6607 32.2964 11.3385 33.13 11.602 33.9015L14.0163 33.0771ZM10.6926 29.3114C9.55678 28.5634 8.9393 28.0284 8.68454 27.7009L6.67074 29.2671C7.20112 29.9491 8.12589 30.6759 9.28944 31.4421L10.6926 29.3114ZM8.68454 27.7009C8.50286 27.4673 8.36438 27.117 8.36438 26.5492H5.81318C5.81318 27.5517 6.06727 28.4913 6.67074 29.2671L8.68454 27.7009ZM8.36438 26.5492C8.36438 25.847 8.65452 25.2799 9.47738 24.7781L8.1492 22.5999C6.67272 23.5002 5.81318 24.8399 5.81318 26.5492H8.36438ZM9.48471 24.7736C10.4481 24.1772 12.3074 23.5649 15.235 23.0073L14.7576 20.5011C11.7966 21.0651 9.53388 21.7427 8.14187 22.6044L9.48471 24.7736ZM15.2465 23.005C18.6689 22.3205 22.1322 21.9783 25.6378 21.9783V19.4271C21.9649 19.4271 18.334 19.7858 14.7461 20.5034L15.2465 23.005Z" fill="#1E1E1E" mask="url(#path-3-outside-2_47_8104)"/>
</svg>
