<svg width="61" height="107" viewBox="0 0 61 107" fill="none" xmlns="http://www.w3.org/2000/svg">
<mask id="path-1-outside-1_47_8110" maskUnits="userSpaceOnUse" x="0.333984" y="27.8201" width="56" height="61" fill="black">
<rect fill="white" x="0.333984" y="27.8201" width="56" height="61"/>
<path d="M29.0619 47.7872V67.0933C29.0619 71.4396 29.4404 74.2437 30.1975 75.5056C31.1229 76.9917 33.0717 77.7348 36.044 77.7348C39.2407 77.7348 41.7644 77.0338 43.6151 75.6318C45.4658 74.2297 46.7557 72.0425 47.4847 69.0702C47.9053 67.2475 48.8587 66.3362 50.3449 66.3362C51.831 66.3362 53.0368 67.0092 53.9622 68.3552C54.9155 69.6731 55.3922 71.3976 55.3922 73.5287C55.3922 77.0058 54.1024 80.7212 51.5226 84.6749C50.7094 85.9368 49.9944 86.792 49.3775 87.2407C48.7606 87.7174 48.0175 87.9557 47.1482 87.9557L37.8106 86.8201H8.40976C6.47494 86.8201 5.11495 86.5957 4.32981 86.1471C3.18013 85.5021 2.6053 84.5347 2.6053 83.2449C2.6053 82.4597 2.78756 81.8849 3.15209 81.5203C3.54466 81.1278 4.47001 80.581 5.92814 79.88C7.52647 79.1228 8.54996 78.0573 8.99861 76.6833C9.36315 75.5336 9.54541 72.1827 9.54541 66.6306C9.54541 64.0509 9.47531 60.3355 9.3351 55.4844C9.1949 50.8296 9.11078 47.3245 9.08274 44.9691C9.08274 42.7258 8.90047 41.1976 8.53594 40.3844C8.19945 39.5432 7.47039 38.9403 6.34875 38.5757C4.49805 37.9308 3.32034 37.412 2.8156 37.0195C1.91829 36.3185 1.46964 35.5193 1.46964 34.622C1.46964 32.575 3.16611 31.0187 6.55906 29.9532C9.44727 29.0278 13.3169 28.5652 18.168 28.5652C23.6079 28.5652 27.6738 28.8456 30.3658 29.4064C33.8428 30.1635 35.5814 31.6777 35.5814 33.949C35.5814 34.8744 35.343 35.5614 34.8663 36.01C34.4177 36.4587 33.296 37.0615 31.5014 37.8186C30.4359 38.2953 29.7629 39.1085 29.4825 40.2582C29.2021 41.4079 29.0619 43.9175 29.0619 47.7872Z"/>
</mask>
<path d="M29.0619 47.7872V67.0933C29.0619 71.4396 29.4404 74.2437 30.1975 75.5056C31.1229 76.9917 33.0717 77.7348 36.044 77.7348C39.2407 77.7348 41.7644 77.0338 43.6151 75.6318C45.4658 74.2297 46.7557 72.0425 47.4847 69.0702C47.9053 67.2475 48.8587 66.3362 50.3449 66.3362C51.831 66.3362 53.0368 67.0092 53.9622 68.3552C54.9155 69.6731 55.3922 71.3976 55.3922 73.5287C55.3922 77.0058 54.1024 80.7212 51.5226 84.6749C50.7094 85.9368 49.9944 86.792 49.3775 87.2407C48.7606 87.7174 48.0175 87.9557 47.1482 87.9557L37.8106 86.8201H8.40976C6.47494 86.8201 5.11495 86.5957 4.32981 86.1471C3.18013 85.5021 2.6053 84.5347 2.6053 83.2449C2.6053 82.4597 2.78756 81.8849 3.15209 81.5203C3.54466 81.1278 4.47001 80.581 5.92814 79.88C7.52647 79.1228 8.54996 78.0573 8.99861 76.6833C9.36315 75.5336 9.54541 72.1827 9.54541 66.6306C9.54541 64.0509 9.47531 60.3355 9.3351 55.4844C9.1949 50.8296 9.11078 47.3245 9.08274 44.9691C9.08274 42.7258 8.90047 41.1976 8.53594 40.3844C8.19945 39.5432 7.47039 38.9403 6.34875 38.5757C4.49805 37.9308 3.32034 37.412 2.8156 37.0195C1.91829 36.3185 1.46964 35.5193 1.46964 34.622C1.46964 32.575 3.16611 31.0187 6.55906 29.9532C9.44727 29.0278 13.3169 28.5652 18.168 28.5652C23.6079 28.5652 27.6738 28.8456 30.3658 29.4064C33.8428 30.1635 35.5814 31.6777 35.5814 33.949C35.5814 34.8744 35.343 35.5614 34.8663 36.01C34.4177 36.4587 33.296 37.0615 31.5014 37.8186C30.4359 38.2953 29.7629 39.1085 29.4825 40.2582C29.2021 41.4079 29.0619 43.9175 29.0619 47.7872Z" fill="#1E1E1E"/>
<path d="M30.1975 75.5056L30.0498 75.5942L30.0513 75.5966L30.1975 75.5056ZM43.6151 75.6318L43.511 75.4944L43.6151 75.6318ZM47.4847 69.0702L47.6521 69.1112L47.6526 69.1089L47.4847 69.0702ZM53.9622 68.3552L53.8201 68.4528L53.8226 68.4561L53.9622 68.3552ZM51.5226 84.6749L51.3783 84.5808L51.3778 84.5816L51.5226 84.6749ZM49.3775 87.2407L49.2761 87.1013L49.2721 87.1044L49.3775 87.2407ZM47.1482 87.9557L47.1274 88.1267L47.1378 88.128H47.1482V87.9557ZM37.8106 86.8201L37.8314 86.649L37.8211 86.6478H37.8106V86.8201ZM4.32981 86.1471L4.41529 85.9975L4.4141 85.9968L4.32981 86.1471ZM5.92814 79.88L5.85439 79.7243L5.85349 79.7247L5.92814 79.88ZM8.99861 76.6833L9.16239 76.7368L9.16284 76.7354L8.99861 76.6833ZM9.3351 55.4844L9.50732 55.4794L9.50731 55.4792L9.3351 55.4844ZM9.08274 44.9691H8.91044L8.91047 44.9711L9.08274 44.9691ZM8.53594 40.3844L8.37585 40.4484L8.37873 40.4549L8.53594 40.3844ZM6.34875 38.5757L6.29204 38.7385L6.2955 38.7396L6.34875 38.5757ZM2.8156 37.0195L2.70954 37.1552L2.70983 37.1555L2.8156 37.0195ZM6.55906 29.9532L6.61068 30.1175L6.61162 30.1172L6.55906 29.9532ZM30.3658 29.4064L30.4024 29.238L30.4009 29.2377L30.3658 29.4064ZM34.8663 36.01L34.7482 35.8845L34.7445 35.8882L34.8663 36.01ZM31.5014 37.8186L31.4344 37.6599L31.4311 37.6614L31.5014 37.8186ZM28.8896 47.7872V67.0933H29.2341V47.7872H28.8896ZM28.8896 67.0933C28.8896 69.2706 28.9843 71.0666 29.175 72.4792C29.3651 73.887 29.6526 74.9322 30.0498 75.5942L30.3452 75.4169C29.9853 74.8171 29.705 73.8294 29.5165 72.4331C29.3287 71.0416 29.2341 69.2624 29.2341 67.0933H28.8896ZM30.0513 75.5966C31.0253 77.161 33.0544 77.9071 36.044 77.9071V77.5625C33.089 77.5625 31.2205 76.8225 30.3438 75.4145L30.0513 75.5966ZM36.044 77.9071C39.2643 77.9071 41.829 77.201 43.7191 75.7691L43.511 75.4944C41.6997 76.8666 39.217 77.5625 36.044 77.5625V77.9071ZM43.7191 75.7691C45.6101 74.3365 46.9166 72.1097 47.652 69.1112L47.3174 69.0292C46.5947 71.9754 45.3214 74.1229 43.511 75.4944L43.7191 75.7691ZM47.6526 69.1089C47.8584 68.2172 48.19 67.5689 48.6343 67.1442C49.0747 66.7232 49.6401 66.5085 50.3449 66.5085V66.1639C49.5635 66.1639 48.9091 66.4049 48.3962 66.8952C47.887 67.3819 47.5317 68.1005 47.3168 69.0315L47.6526 69.1089ZM50.3449 66.5085C51.768 66.5085 52.9232 67.1481 53.8202 68.4528L54.1041 68.2575C53.1504 66.8703 51.8941 66.1639 50.3449 66.1639V66.5085ZM53.8226 68.4561C54.749 69.7367 55.22 71.4227 55.22 73.5287H55.5645C55.5645 71.3725 55.0821 69.6094 54.1017 68.2542L53.8226 68.4561ZM55.22 73.5287C55.22 76.9623 53.9462 80.6453 51.3783 84.5808L51.6669 84.7691C54.2586 80.7971 55.5645 77.0492 55.5645 73.5287H55.22ZM51.3778 84.5816C50.5672 85.8395 49.8662 86.6722 49.2761 87.1013L49.4788 87.38C50.1225 86.9118 50.8517 86.0341 51.6674 84.7683L51.3778 84.5816ZM49.2721 87.1044C48.6889 87.5551 47.984 87.7834 47.1482 87.7834V88.128C48.051 88.128 48.8323 87.8797 49.4828 87.377L49.2721 87.1044ZM47.169 87.7847L37.8314 86.649L37.7898 86.9911L47.1274 88.1267L47.169 87.7847ZM37.8106 86.6478H8.40976V86.9924H37.8106V86.6478ZM8.40976 86.6478C6.47798 86.6478 5.15818 86.422 4.41529 85.9975L4.24433 86.2967C5.07172 86.7695 6.47189 86.9924 8.40976 86.9924V86.6478ZM4.4141 85.9968C3.86107 85.6866 3.45404 85.3034 3.18453 84.8498C2.91514 84.3964 2.77758 83.8634 2.77758 83.2449H2.43301C2.43301 83.9162 2.58287 84.5118 2.88831 85.0258C3.19364 85.5397 3.64887 85.9626 4.24552 86.2973L4.4141 85.9968ZM2.77758 83.2449C2.77758 82.4819 2.95518 81.9609 3.27391 81.6422L3.03027 81.3985C2.61994 81.8088 2.43301 82.4375 2.43301 83.2449H2.77758ZM3.27391 81.6422C3.45442 81.4617 3.76865 81.2357 4.22818 80.9641C4.68509 80.6941 5.27619 80.3846 6.00279 80.0352L5.85349 79.7247C5.12197 80.0764 4.52133 80.3907 4.05289 80.6675C3.58707 80.9428 3.24234 81.1865 3.03027 81.3985L3.27391 81.6422ZM6.00189 80.0357C7.63273 79.2631 8.69585 78.1655 9.16239 76.7368L8.83484 76.6298C8.40407 77.9491 7.4202 78.9826 5.85439 79.7243L6.00189 80.0357ZM9.16284 76.7354C9.3527 76.1366 9.48975 74.9901 9.58074 73.3172C9.67212 71.6373 9.71769 69.4081 9.71769 66.6306H9.37313C9.37313 69.4053 9.32757 71.6275 9.23668 73.2985C9.14541 74.9765 9.00906 76.0803 8.83439 76.6312L9.16284 76.7354ZM9.71769 66.6306C9.71769 64.0484 9.64753 60.331 9.50732 55.4794L9.16289 55.4894C9.30308 60.34 9.37313 64.0534 9.37313 66.6306H9.71769ZM9.50731 55.4792C9.36711 50.8247 9.28303 47.3208 9.25501 44.967L8.91047 44.9711C8.93853 47.3282 9.02269 50.8345 9.1629 55.4896L9.50731 55.4792ZM9.25502 44.9691C9.25502 43.8434 9.20932 42.8932 9.11711 42.12C9.02518 41.3493 8.88589 40.7439 8.69315 40.3139L8.37873 40.4549C8.55052 40.8381 8.68463 41.4034 8.77497 42.1608C8.86502 42.9159 8.91045 43.8515 8.91045 44.9691H9.25502ZM8.6959 40.3204C8.33503 39.4182 7.55651 38.7871 6.402 38.4119L6.2955 38.7396C7.38426 39.0934 8.06387 39.6681 8.37598 40.4484L8.6959 40.3204ZM6.40545 38.4131C5.48244 38.0914 4.73001 37.8022 4.14689 37.5453C3.56071 37.2871 3.15625 37.0662 2.92137 36.8835L2.70983 37.1555C2.97968 37.3654 3.41646 37.6001 4.00799 37.8606C4.60259 38.1225 5.36437 38.4151 6.29206 38.7384L6.40545 38.4131ZM2.92167 36.8837C2.05384 36.2057 1.64192 35.4524 1.64192 34.622H1.29736C1.29736 35.5862 1.78275 36.4312 2.70954 37.1552L2.92167 36.8837ZM1.64192 34.622C1.64192 32.6982 3.22976 31.1793 6.61068 30.1175L6.50744 29.7888C3.10246 30.8581 1.29736 32.4518 1.29736 34.622H1.64192ZM6.61162 30.1172C9.47579 29.1996 13.3254 28.7374 18.168 28.7374V28.3929C13.3084 28.3929 9.41875 28.8561 6.50649 29.7891L6.61162 30.1172ZM18.168 28.7374C23.6052 28.7374 27.6566 29.018 30.3306 29.575L30.4009 29.2377C27.691 28.6732 23.6106 28.3929 18.168 28.3929V28.7374ZM30.3291 29.5747C32.0533 29.9502 33.3256 30.5093 34.1643 31.2398C34.9967 31.9647 35.4091 32.864 35.4091 33.949H35.7536C35.7536 32.7627 35.2968 31.7692 34.3906 30.9799C33.4907 30.1962 32.1552 29.6197 30.4024 29.238L30.3291 29.5747ZM35.4091 33.949C35.4091 34.8469 35.178 35.48 34.7482 35.8845L34.9844 36.1355C35.508 35.6427 35.7536 34.9018 35.7536 33.949H35.4091ZM34.7445 35.8882C34.5388 36.0939 34.1648 36.3471 33.607 36.6469C33.0528 36.9448 32.3291 37.2825 31.4344 37.6599L31.5684 37.9774C32.4684 37.5977 33.2028 37.2554 33.7702 36.9504C34.334 36.6473 34.7452 36.3748 34.9881 36.1318L34.7445 35.8882ZM31.4311 37.6614C30.3161 38.1602 29.6079 39.0168 29.3151 40.2174L29.6498 40.299C29.9178 39.2002 30.5556 38.4305 31.5718 37.9759L31.4311 37.6614ZM29.3151 40.2174C29.0289 41.3909 28.8896 43.9224 28.8896 47.7872H29.2341C29.2341 43.9126 29.3753 41.4248 29.6498 40.299L29.3151 40.2174Z" fill="#F8B2BC" mask="url(#path-1-outside-1_47_8110)"/>
<mask id="path-3-outside-2_47_8110" maskUnits="userSpaceOnUse" x="4.50391" y="19.9287" width="58" height="63" fill="black">
<rect fill="white" x="4.50391" y="19.9287" width="58" height="63"/>
<path d="M34.2318 40.8958V60.202C34.2318 64.5483 34.6103 67.3524 35.3674 68.6142C36.2928 70.1004 38.2416 70.8435 41.214 70.8435C44.4106 70.8435 46.9343 70.1424 48.785 68.7404C50.6357 67.3384 51.9256 65.1512 52.6546 62.1788C53.0752 60.3562 54.0286 59.4449 55.5148 59.4449C57.001 59.4449 58.2067 60.1178 59.1321 61.4638C60.0855 62.7817 60.5622 64.5062 60.5622 66.6373C60.5622 70.1144 59.2723 73.8298 56.6925 77.7836C55.8793 79.0454 55.1643 79.9007 54.5474 80.3493C53.9305 80.826 53.1874 81.0644 52.3181 81.0644L42.9805 79.9287H13.5797C11.6449 79.9287 10.2849 79.7044 9.49973 79.2557C8.35005 78.6108 7.77522 77.6434 7.77522 76.3535C7.77522 75.5684 7.95748 74.9935 8.32201 74.629C8.71459 74.2364 9.63994 73.6896 11.0981 72.9886C12.6964 72.2315 13.7199 71.1659 14.1685 69.7919C14.5331 68.6423 14.7153 65.2914 14.7153 59.7393C14.7153 57.1595 14.6452 53.4441 14.505 48.593C14.3648 43.9382 14.2807 40.4331 14.2527 38.0777C14.2527 35.8344 14.0704 34.3062 13.7059 33.493C13.3694 32.6518 12.6403 32.0489 11.5187 31.6844C9.66798 31.0394 8.49026 30.5207 7.98552 30.1281C7.08822 29.4271 6.63956 28.6279 6.63956 27.7306C6.63956 25.6836 8.33603 24.1274 11.729 23.0618C14.6172 22.1365 18.4868 21.6738 23.3379 21.6738C28.7778 21.6738 32.8438 21.9542 35.5357 22.515C39.0128 23.2721 40.7513 24.7863 40.7513 27.0576C40.7513 27.983 40.5129 28.67 40.0362 29.1186C39.5876 29.5673 38.466 30.1702 36.6713 30.9273C35.6058 31.404 34.9328 32.2172 34.6524 33.3668C34.372 34.5165 34.2318 37.0262 34.2318 40.8958Z"/>
</mask>
<path d="M34.2318 40.8958V60.202C34.2318 64.5483 34.6103 67.3524 35.3674 68.6142C36.2928 70.1004 38.2416 70.8435 41.214 70.8435C44.4106 70.8435 46.9343 70.1424 48.785 68.7404C50.6357 67.3384 51.9256 65.1512 52.6546 62.1788C53.0752 60.3562 54.0286 59.4449 55.5148 59.4449C57.001 59.4449 58.2067 60.1178 59.1321 61.4638C60.0855 62.7817 60.5622 64.5062 60.5622 66.6373C60.5622 70.1144 59.2723 73.8298 56.6925 77.7836C55.8793 79.0454 55.1643 79.9007 54.5474 80.3493C53.9305 80.826 53.1874 81.0644 52.3181 81.0644L42.9805 79.9287H13.5797C11.6449 79.9287 10.2849 79.7044 9.49973 79.2557C8.35005 78.6108 7.77522 77.6434 7.77522 76.3535C7.77522 75.5684 7.95748 74.9935 8.32201 74.629C8.71459 74.2364 9.63994 73.6896 11.0981 72.9886C12.6964 72.2315 13.7199 71.1659 14.1685 69.7919C14.5331 68.6423 14.7153 65.2914 14.7153 59.7393C14.7153 57.1595 14.6452 53.4441 14.505 48.593C14.3648 43.9382 14.2807 40.4331 14.2527 38.0777C14.2527 35.8344 14.0704 34.3062 13.7059 33.493C13.3694 32.6518 12.6403 32.0489 11.5187 31.6844C9.66798 31.0394 8.49026 30.5207 7.98552 30.1281C7.08822 29.4271 6.63956 28.6279 6.63956 27.7306C6.63956 25.6836 8.33603 24.1274 11.729 23.0618C14.6172 22.1365 18.4868 21.6738 23.3379 21.6738C28.7778 21.6738 32.8438 21.9542 35.5357 22.515C39.0128 23.2721 40.7513 24.7863 40.7513 27.0576C40.7513 27.983 40.5129 28.67 40.0362 29.1186C39.5876 29.5673 38.466 30.1702 36.6713 30.9273C35.6058 31.404 34.9328 32.2172 34.6524 33.3668C34.372 34.5165 34.2318 37.0262 34.2318 40.8958Z" fill="#F8B2BC"/>
<path d="M35.3674 68.6142L34.2736 69.2705L34.279 69.2795L34.2846 69.2885L35.3674 68.6142ZM48.785 68.7404L48.0147 67.7236L48.785 68.7404ZM52.6546 62.1788L53.8935 62.4827L53.8956 62.4742L53.8976 62.4657L52.6546 62.1788ZM59.1321 61.4638L58.0809 62.1865L58.0896 62.1991L58.0986 62.2115L59.1321 61.4638ZM56.6925 77.7836L55.6242 77.0865L55.6203 77.0926L56.6925 77.7836ZM54.5474 80.3493L53.7971 79.3177L53.7821 79.3286L53.7674 79.34L54.5474 80.3493ZM52.3181 81.0644L52.1641 82.3306L52.2409 82.34H52.3181V81.0644ZM42.9805 79.9287L43.1345 78.6624L43.0578 78.6531H42.9805V79.9287ZM9.49973 79.2557L10.1326 78.1482L10.1238 78.1432L9.49973 79.2557ZM11.0981 72.9886L10.552 71.8358L10.5453 71.839L11.0981 72.9886ZM14.1685 69.7919L15.3812 70.1879L15.3845 70.1775L14.1685 69.7919ZM14.505 48.593L15.7801 48.5562L15.7801 48.5546L14.505 48.593ZM14.2527 38.0777H12.9771V38.0853L12.9771 38.0929L14.2527 38.0777ZM13.7059 33.493L12.5215 33.9668L12.5312 33.991L12.5419 34.0148L13.7059 33.493ZM11.5187 31.6844L11.0989 32.8889L11.1116 32.8934L11.1244 32.8975L11.5187 31.6844ZM7.98552 30.1281L7.2002 31.1333L7.20238 31.135L7.98552 30.1281ZM11.729 23.0618L12.1112 24.2788L12.1182 24.2766L11.729 23.0618ZM35.5357 22.515L35.8071 21.2686L35.7958 21.2662L35.5357 22.515ZM40.0362 29.1186L39.162 28.1898L39.1479 28.203L39.1343 28.2167L40.0362 29.1186ZM36.6713 30.9273L36.1755 29.752L36.1629 29.7573L36.1504 29.7629L36.6713 30.9273ZM32.9562 40.8958V60.202H35.5074V40.8958H32.9562ZM32.9562 60.202C32.9562 62.4054 33.0517 64.2554 33.2516 65.7354C33.4466 67.18 33.7571 68.4096 34.2736 69.2705L36.4613 67.9579C36.2207 67.557 35.9634 66.7537 35.7798 65.3941C35.6011 64.0701 35.5074 62.3448 35.5074 60.202H32.9562ZM34.2846 69.2885C35.5702 71.3532 38.1133 72.1191 41.214 72.1191V69.5679C38.37 69.5679 37.0154 68.8475 36.4503 67.94L34.2846 69.2885ZM41.214 72.1191C44.5857 72.1191 47.4128 71.3802 49.5553 69.7572L48.0147 67.7236C46.4557 68.9047 44.2355 69.5679 41.214 69.5679V72.1191ZM49.5553 69.7572C51.7045 68.129 53.117 65.6483 53.8935 62.4827L51.4158 61.875C50.7341 64.654 49.5669 66.5478 48.0147 67.7236L49.5553 69.7572ZM53.8976 62.4657C54.0743 61.6998 54.3303 61.2763 54.5666 61.0504C54.7752 60.851 55.055 60.7205 55.5148 60.7205V58.1692C54.4885 58.1692 53.5485 58.4943 52.8037 59.2062C52.0866 59.8918 51.6556 60.8353 51.4117 61.892L53.8976 62.4657ZM55.5148 60.7205C56.5344 60.7205 57.3659 61.1464 58.0809 62.1865L60.1832 60.7411C59.0476 59.0892 57.4676 58.1692 55.5148 58.1692V60.7205ZM58.0986 62.2115C58.8521 63.2532 59.2866 64.6919 59.2866 66.6373H61.8378C61.8378 64.3206 61.3188 62.3103 60.1656 60.7161L58.0986 62.2115ZM59.2866 66.6373C59.2866 69.7929 58.1157 73.268 55.6242 77.0865L57.7608 78.4806C60.4288 74.3916 61.8378 70.4359 61.8378 66.6373H59.2866ZM55.6203 77.0926C54.8261 78.3249 54.2153 79.0136 53.7971 79.3177L55.2977 81.381C56.1133 80.7878 56.9325 79.766 57.7648 78.4746L55.6203 77.0926ZM53.7674 79.34C53.3996 79.6242 52.9394 79.7888 52.3181 79.7888V82.34C53.4354 82.34 54.4614 82.0278 55.3274 81.3587L53.7674 79.34ZM52.4722 79.7981L43.1345 78.6624L42.8265 81.195L52.1641 82.3306L52.4722 79.7981ZM42.9805 78.6531H13.5797V81.2043H42.9805V78.6531ZM13.5797 78.6531C11.6674 78.6531 10.605 78.4181 10.1326 78.1482L8.86685 80.3633C9.96479 80.9907 11.6223 81.2043 13.5797 81.2043V78.6531ZM10.1238 78.1432C9.71046 77.9113 9.45777 77.6554 9.30296 77.3949C9.14899 77.1357 9.05082 76.8032 9.05082 76.3535H6.49961C6.49961 77.1937 6.68887 77.9898 7.10973 78.6981C7.52976 79.405 8.13933 79.9552 8.87564 80.3682L10.1238 78.1432ZM9.05082 76.3535C9.05082 75.7329 9.19853 75.5564 9.224 75.531L7.42003 73.727C6.71643 74.4306 6.49961 75.4038 6.49961 76.3535H9.05082ZM9.224 75.531C9.30345 75.4515 9.52002 75.2823 9.95939 75.0227C10.3794 74.7745 10.9399 74.48 11.6508 74.1382L10.5453 71.839C9.79807 72.1982 9.1669 72.5276 8.66152 72.8263C8.17554 73.1134 7.73315 73.4139 7.42003 73.727L9.224 75.531ZM11.6441 74.1414C13.4832 73.2703 14.8001 71.9673 15.3811 70.1879L12.9559 69.396C12.6397 70.3646 11.9096 71.1927 10.552 71.8358L11.6441 74.1414ZM15.3845 70.1775C15.6229 69.4254 15.7623 68.1423 15.8524 66.4858C15.9453 64.7773 15.9909 62.5256 15.9909 59.7393H13.4397C13.4397 62.505 13.3942 64.7048 13.3049 66.3472C13.2127 68.0416 13.0787 69.0088 12.9526 69.4064L15.3845 70.1775ZM15.9909 59.7393C15.9909 57.1409 15.9204 53.4109 15.7801 48.5562L13.23 48.6299C13.3701 53.4773 13.4397 57.1782 13.4397 59.7393H15.9909ZM15.7801 48.5546C15.6399 43.9017 15.5561 40.406 15.5282 38.0625L12.9771 38.0929C13.0053 40.4603 13.0897 43.9748 13.23 48.6314L15.7801 48.5546ZM15.5283 38.0777C15.5283 36.9262 15.4817 35.9292 15.3826 35.098C15.2856 34.2845 15.1297 33.5508 14.8699 32.9712L12.5419 34.0148C12.6466 34.2484 12.7641 34.6854 12.8493 35.4001C12.9325 36.0972 12.9771 36.986 12.9771 38.0777H15.5283ZM14.8902 33.0193C14.3732 31.7267 13.278 30.9149 11.9129 30.4712L11.1244 32.8975C12.0026 33.183 12.3655 33.5769 12.5215 33.9668L14.8902 33.0193ZM11.9384 30.4798C11.0304 30.1634 10.3079 29.8849 9.76156 29.6442C9.19251 29.3936 8.89157 29.2168 8.76867 29.1212L7.20238 31.135C7.58422 31.432 8.1245 31.7109 8.73316 31.979C9.36451 32.2571 10.1562 32.5604 11.0989 32.8889L11.9384 30.4798ZM8.77084 29.1229C8.09179 28.5924 7.91517 28.1325 7.91517 27.7306H5.36396C5.36396 29.1234 6.08464 30.2618 7.20021 31.1333L8.77084 29.1229ZM7.91517 27.7306C7.91517 26.5956 8.80732 25.3164 12.1112 24.2788L11.3468 21.8448C7.86475 22.9383 5.36396 24.7717 5.36396 27.7306H7.91517ZM12.1182 24.2766C14.8283 23.4083 18.5498 22.9494 23.3379 22.9494V20.3982C18.4239 20.3982 14.406 20.8646 11.3398 21.847L12.1182 24.2766ZM23.3379 22.9494C28.7578 22.9494 32.7165 23.2307 35.2755 23.7638L35.7958 21.2662C32.971 20.6777 28.7979 20.3982 23.3379 20.3982V22.9494ZM35.2643 23.7614C36.897 24.1169 37.9669 24.6207 38.6096 25.1804C39.2055 25.6995 39.4757 26.2972 39.4757 27.0576H42.0269C42.0269 25.5468 41.4278 24.2518 40.2852 23.2566C39.1893 22.3021 37.6514 21.6702 35.8071 21.2686L35.2643 23.7614ZM39.4757 27.0576C39.4757 27.7798 39.2915 28.0679 39.162 28.1898L40.9105 30.0475C41.7344 29.2721 42.0269 28.1862 42.0269 27.0576H39.4757ZM39.1343 28.2167C39.0478 28.3032 38.7928 28.4944 38.2546 28.7837C37.7422 29.0591 37.0531 29.3818 36.1755 29.752L37.1672 32.1026C38.0842 31.7157 38.8532 31.3583 39.4625 31.0309C40.0459 30.7173 40.5761 30.3828 40.9382 30.0206L39.1343 28.2167ZM36.1504 29.7629C34.7193 30.4031 33.7854 31.5382 33.4131 33.0646L35.8917 33.6691C36.0802 32.8962 36.4923 32.4048 37.1923 32.0917L36.1504 29.7629ZM33.4131 33.0646C33.0896 34.3911 32.9562 37.0626 32.9562 40.8958H35.5074C35.5074 36.9898 35.6544 34.6419 35.8917 33.6691L33.4131 33.0646Z" fill="#1E1E1E" mask="url(#path-3-outside-2_47_8110)"/>
</svg>
