<svg width="78" height="107" viewBox="0 0 78 107" fill="none" xmlns="http://www.w3.org/2000/svg">
<mask id="path-1-outside-1_47_8116" maskUnits="userSpaceOnUse" x="0.90625" y="27.7322" width="71" height="61" fill="black">
<rect fill="white" x="0.90625" y="27.7322" width="71" height="61"/>
<path d="M25.7224 31.3374L46.669 49.6762C48.6318 51.3867 50.0479 52.2419 50.9171 52.2419C52.3753 52.2419 53.1043 50.6856 53.1043 47.5731C53.1043 44.0399 52.894 41.6284 52.4734 40.3386C52.0528 39.0487 51.1695 38.0813 49.8236 37.4363C48.73 36.9035 47.9588 36.3427 47.5102 35.7539C47.0615 35.137 46.8372 34.3518 46.8372 33.3984C46.8372 31.043 48.4496 29.5288 51.6743 28.8558C52.9922 28.5754 55.2915 28.4352 58.5723 28.4352C62.8065 28.4352 65.7367 28.6876 67.3631 29.1923C69.9429 29.9774 71.2328 31.4636 71.2328 33.6508C71.2328 35.4735 70.1812 36.8475 68.0782 37.7728C67.2369 38.1373 66.6621 38.4598 66.3536 38.7402C66.0452 39.0206 65.7788 39.4412 65.5545 40.0021C64.7974 41.8528 64.4048 45.3579 64.3768 50.5174V64.2294C64.3768 66.3324 64.3908 69.2066 64.4188 72.8519C64.4469 77.7871 64.1524 81.3483 63.5355 83.5355C62.7784 86.2555 61.4044 87.6155 59.4135 87.6155C58.5443 87.6155 57.7872 87.4332 57.1422 87.0687C56.5253 86.7041 55.4878 85.8629 54.0297 84.545L29.0873 62.2104C27.3488 60.6401 25.9047 59.855 24.755 59.855C23.0445 59.855 22.1893 62.2245 22.1893 66.9634C22.1893 70.861 22.3996 73.5249 22.8202 74.955C23.2688 76.3851 24.1662 77.4366 25.5121 78.1096C27.3909 79.035 28.3302 80.2407 28.3302 81.7269C28.3302 85.6246 24.1381 87.5734 15.7539 87.5734C11.9684 87.5734 9.02408 87.0827 6.92102 86.1013C4.84599 85.0918 3.80848 83.6757 3.80848 81.8531C3.80848 80.8997 4.00477 80.1846 4.39734 79.7079C4.78991 79.2312 5.6732 78.5863 7.0472 77.7731C8.36512 76.988 9.16429 75.6 9.4447 73.609C9.92139 69.9918 10.1597 64.7902 10.1597 58.0043C10.1597 50.7698 9.73913 45.4981 8.8979 42.1893C8.58945 40.9835 8.19688 40.0862 7.72018 39.4973C7.24349 38.9085 6.45834 38.3477 5.36475 37.8149C4.10291 37.198 3.21962 36.5951 2.71489 36.0062C2.23819 35.4174 1.99984 34.7023 1.99984 33.8611C1.99984 31.1692 4.31322 29.4727 8.93996 28.7717C10.5102 28.5474 13.2583 28.4352 17.184 28.4352C19.4272 28.4352 21.0536 28.6175 22.0631 28.982C23.1006 29.3185 24.3204 30.1036 25.7224 31.3374Z"/>
</mask>
<path d="M25.7224 31.3374L46.669 49.6762C48.6318 51.3867 50.0479 52.2419 50.9171 52.2419C52.3753 52.2419 53.1043 50.6856 53.1043 47.5731C53.1043 44.0399 52.894 41.6284 52.4734 40.3386C52.0528 39.0487 51.1695 38.0813 49.8236 37.4363C48.73 36.9035 47.9588 36.3427 47.5102 35.7539C47.0615 35.137 46.8372 34.3518 46.8372 33.3984C46.8372 31.043 48.4496 29.5288 51.6743 28.8558C52.9922 28.5754 55.2915 28.4352 58.5723 28.4352C62.8065 28.4352 65.7367 28.6876 67.3631 29.1923C69.9429 29.9774 71.2328 31.4636 71.2328 33.6508C71.2328 35.4735 70.1812 36.8475 68.0782 37.7728C67.2369 38.1373 66.6621 38.4598 66.3536 38.7402C66.0452 39.0206 65.7788 39.4412 65.5545 40.0021C64.7974 41.8528 64.4048 45.3579 64.3768 50.5174V64.2294C64.3768 66.3324 64.3908 69.2066 64.4188 72.8519C64.4469 77.7871 64.1524 81.3483 63.5355 83.5355C62.7784 86.2555 61.4044 87.6155 59.4135 87.6155C58.5443 87.6155 57.7872 87.4332 57.1422 87.0687C56.5253 86.7041 55.4878 85.8629 54.0297 84.545L29.0873 62.2104C27.3488 60.6401 25.9047 59.855 24.755 59.855C23.0445 59.855 22.1893 62.2245 22.1893 66.9634C22.1893 70.861 22.3996 73.5249 22.8202 74.955C23.2688 76.3851 24.1662 77.4366 25.5121 78.1096C27.3909 79.035 28.3302 80.2407 28.3302 81.7269C28.3302 85.6246 24.1381 87.5734 15.7539 87.5734C11.9684 87.5734 9.02408 87.0827 6.92102 86.1013C4.84599 85.0918 3.80848 83.6757 3.80848 81.8531C3.80848 80.8997 4.00477 80.1846 4.39734 79.7079C4.78991 79.2312 5.6732 78.5863 7.0472 77.7731C8.36512 76.988 9.16429 75.6 9.4447 73.609C9.92139 69.9918 10.1597 64.7902 10.1597 58.0043C10.1597 50.7698 9.73913 45.4981 8.8979 42.1893C8.58945 40.9835 8.19688 40.0862 7.72018 39.4973C7.24349 38.9085 6.45834 38.3477 5.36475 37.8149C4.10291 37.198 3.21962 36.5951 2.71489 36.0062C2.23819 35.4174 1.99984 34.7023 1.99984 33.8611C1.99984 31.1692 4.31322 29.4727 8.93996 28.7717C10.5102 28.5474 13.2583 28.4352 17.184 28.4352C19.4272 28.4352 21.0536 28.6175 22.0631 28.982C23.1006 29.3185 24.3204 30.1036 25.7224 31.3374Z" fill="#1E1E1E"/>
<path d="M25.7224 31.3374L25.6086 31.4668L25.6089 31.4671L25.7224 31.3374ZM46.669 49.6762L46.5555 49.8058L46.5558 49.806L46.669 49.6762ZM49.8236 37.4363L49.7481 37.5912L49.7491 37.5917L49.8236 37.4363ZM47.5102 35.7539L47.3708 35.8552L47.3731 35.8583L47.5102 35.7539ZM51.6743 28.8558L51.7094 29.0245L51.7101 29.0243L51.6743 28.8558ZM67.3631 29.1923L67.3121 29.3568L67.313 29.3571L67.3631 29.1923ZM68.0782 37.7728L68.1467 37.9309L68.1475 37.9305L68.0782 37.7728ZM65.5545 40.0021L65.7139 40.0673L65.7144 40.066L65.5545 40.0021ZM64.3768 50.5174L64.2045 50.5165V50.5174H64.3768ZM64.4188 72.8519L64.5911 72.851L64.5911 72.8506L64.4188 72.8519ZM63.5355 83.5355L63.3697 83.4887L63.3696 83.4893L63.5355 83.5355ZM57.1422 87.0687L57.0546 87.217L57.0574 87.2187L57.1422 87.0687ZM54.0297 84.545L54.1452 84.4172L54.1446 84.4166L54.0297 84.545ZM29.0873 62.2104L28.9718 62.3383L28.9724 62.3388L29.0873 62.2104ZM22.8202 74.955L22.6549 75.0036L22.6558 75.0066L22.8202 74.955ZM25.5121 78.1096L25.4351 78.2637L25.436 78.2642L25.5121 78.1096ZM6.92102 86.1013L6.84564 86.2562L6.84816 86.2574L6.92102 86.1013ZM7.0472 77.7731L7.13495 77.9214L7.13538 77.9211L7.0472 77.7731ZM9.4447 73.609L9.6153 73.6331L9.6155 73.6316L9.4447 73.609ZM8.8979 42.1893L9.06487 42.1468L9.06481 42.1466L8.8979 42.1893ZM5.36475 37.8149L5.28908 37.9697L5.28929 37.9698L5.36475 37.8149ZM2.71489 36.0062L2.58093 36.1147L2.58408 36.1184L2.71489 36.0062ZM8.93996 28.7717L8.91559 28.6011L8.91415 28.6014L8.93996 28.7717ZM22.0631 28.982L22.0045 29.1441L22.0099 29.1459L22.0631 28.982ZM25.6089 31.4671L46.5555 49.8058L46.7824 49.5465L25.8359 31.2078L25.6089 31.4671ZM46.5558 49.806C47.541 50.6646 48.3941 51.3131 49.1141 51.7479C49.8286 52.1795 50.4337 52.4142 50.9171 52.4142V52.0696C50.5313 52.0696 49.9937 51.8767 49.2922 51.453C48.5961 51.0326 47.7598 50.3982 46.7821 49.5463L46.5558 49.806ZM50.9171 52.4142C51.3142 52.4142 51.6688 52.3076 51.9739 52.0905C52.2774 51.8746 52.5221 51.5564 52.7136 51.1478C53.0943 50.3351 53.2766 49.1374 53.2766 47.5731H52.9321C52.9321 49.1214 52.7499 50.258 52.4015 51.0016C52.2284 51.3712 52.0175 51.6366 51.7742 51.8097C51.5325 51.9817 51.2491 52.0696 50.9171 52.0696V52.4142ZM53.2766 47.5731C53.2766 44.0419 53.0674 41.6044 52.6372 40.2851L52.3096 40.392C52.7207 41.6525 52.9321 44.038 52.9321 47.5731H53.2766ZM52.6372 40.2851C52.2005 38.9458 51.2817 37.944 49.898 37.281L49.7491 37.5917C51.0573 38.2185 51.9051 39.1516 52.3096 40.392L52.6372 40.2851ZM49.899 37.2814C48.8159 36.7538 48.0723 36.2074 47.6472 35.6495L47.3731 35.8583C47.8454 36.4781 48.6441 37.0533 49.7481 37.5912L49.899 37.2814ZM47.6495 35.6525C47.2271 35.0717 47.0095 34.3246 47.0095 33.3984H46.6649C46.6649 34.379 46.8959 35.2022 47.3709 35.8552L47.6495 35.6525ZM47.0095 33.3984C47.0095 32.2648 47.3953 31.344 48.1644 30.6218C48.9388 29.8945 50.114 29.3574 51.7094 29.0245L51.6391 28.6872C50.0098 29.0272 48.7665 29.5837 47.9285 30.3706C47.0852 31.1626 46.6649 32.1766 46.6649 33.3984H47.0095ZM51.7101 29.0243C53.0084 28.7481 55.2913 28.6075 58.5723 28.6075V28.2629C55.2917 28.2629 52.976 28.4027 51.6384 28.6873L51.7101 29.0243ZM58.5723 28.6075C62.8073 28.6075 65.7135 28.8607 67.3121 29.3568L67.4142 29.0278C65.76 28.5144 62.8056 28.2629 58.5723 28.2629V28.6075ZM67.313 29.3571C68.5829 29.7436 69.518 30.2976 70.1352 31.0087C70.7499 31.7169 71.0605 32.5937 71.0605 33.6508H71.405C71.405 32.5207 71.0707 31.5608 70.3955 30.7829C69.7228 30.0078 68.7231 29.4261 67.4133 29.0275L67.313 29.3571ZM71.0605 33.6508C71.0605 34.5264 70.8088 35.2883 70.3073 35.9436C69.804 36.6012 69.0421 37.1604 68.0088 37.6151L68.1475 37.9305C69.2173 37.4598 70.0327 36.8694 70.5809 36.153C71.131 35.4343 71.405 34.5978 71.405 33.6508H71.0605ZM68.0097 37.6147C67.1668 37.98 66.5689 38.3117 66.2378 38.6127L66.4695 38.8677C66.7553 38.6079 67.3071 38.2947 68.1467 37.9309L68.0097 37.6147ZM66.2378 38.6127C65.9033 38.9168 65.6245 39.3631 65.3945 39.9381L65.7144 40.066C65.9331 39.5194 66.1871 39.1245 66.4695 38.8677L66.2378 38.6127ZM65.395 39.9368C64.6237 41.8223 64.2325 45.3592 64.2045 50.5165L64.549 50.5183C64.5771 45.3565 64.9711 41.8832 65.7139 40.0673L65.395 39.9368ZM64.2045 50.5174V64.2294H64.5491V50.5174H64.2045ZM64.2045 64.2294C64.2045 66.3331 64.2185 69.2078 64.2466 72.8533L64.5911 72.8506C64.5631 69.2055 64.5491 66.3318 64.5491 64.2294H64.2045ZM64.2465 72.8529C64.2746 77.7863 63.9796 81.3266 63.3697 83.4888L63.7014 83.5823C64.3253 81.3701 64.6192 77.788 64.5911 72.851L64.2465 72.8529ZM63.3696 83.4893C62.9956 84.8328 62.4741 85.8217 61.816 86.473C61.1623 87.12 60.3651 87.4432 59.4135 87.4432V87.7877C60.4529 87.7877 61.3381 87.4309 62.0584 86.7179C62.7743 86.0093 63.3184 84.9582 63.7015 83.5817L63.3696 83.4893ZM59.4135 87.4432C58.5688 87.4432 57.8419 87.2662 57.227 86.9187L57.0574 87.2187C57.7324 87.6002 58.5197 87.7877 59.4135 87.7877V87.4432ZM57.2299 86.9203C56.6301 86.5659 55.6047 85.7363 54.1452 84.4172L53.9142 84.6728C55.371 85.9895 56.4206 86.8423 57.0546 87.217L57.2299 86.9203ZM54.1446 84.4166L29.2023 62.0821L28.9724 62.3388L53.9148 84.6733L54.1446 84.4166ZM29.2028 62.0826C27.4605 60.5088 25.974 59.6827 24.755 59.6827V60.0273C25.8354 60.0273 27.2371 60.7714 28.9718 62.3383L29.2028 62.0826ZM24.755 59.6827C24.2831 59.6827 23.8674 59.8478 23.5156 60.1727C23.1676 60.4941 22.888 60.966 22.6687 61.5736C22.2307 62.787 22.017 64.5883 22.017 66.9634H22.3616C22.3616 64.5995 22.5755 62.8466 22.9928 61.6906C23.2011 61.1135 23.4559 60.6968 23.7494 60.4258C24.039 60.1584 24.3717 60.0273 24.755 60.0273V59.6827ZM22.017 66.9634C22.017 70.8593 22.2264 73.5466 22.6549 75.0036L22.9855 74.9064C22.5728 73.5032 22.3616 70.8628 22.3616 66.9634H22.017ZM22.6558 75.0066C23.1185 76.4815 24.0475 77.5699 25.4351 78.2637L25.5892 77.9555C24.2848 77.3033 23.4192 76.2887 22.9846 74.9034L22.6558 75.0066ZM25.436 78.2642C27.2835 79.1741 28.1579 80.3324 28.1579 81.7269H28.5025C28.5025 80.1491 27.4982 78.8958 25.5882 77.9551L25.436 78.2642ZM28.1579 81.7269C28.1579 82.6685 27.9054 83.4853 27.4042 84.1843C26.9017 84.8851 26.1421 85.4774 25.1135 85.9555C23.0519 86.914 19.9381 87.4011 15.7539 87.4011V87.7457C19.9539 87.7457 23.1283 87.2584 25.2588 86.268C26.3262 85.7718 27.1387 85.146 27.6842 84.3851C28.231 83.6226 28.5025 82.7341 28.5025 81.7269H28.1579ZM15.7539 87.4011C11.9795 87.4011 9.06415 86.9113 6.99387 85.9451L6.84816 86.2574C8.98401 87.2541 11.9572 87.7457 15.7539 87.7457V87.4011ZM6.99639 85.9463C4.96176 84.9565 3.98076 83.5911 3.98076 81.8531H3.6362C3.6362 83.7603 4.73023 85.2271 6.84565 86.2562L6.99639 85.9463ZM3.98076 81.8531C3.98076 80.919 4.17376 80.2504 4.53033 79.8175L4.26435 79.5984C3.83578 80.1188 3.6362 80.8804 3.6362 81.8531H3.98076ZM4.53033 79.8175C4.90124 79.3671 5.7592 78.7356 7.13495 77.9214L6.95945 77.6249C5.58719 78.437 4.67858 79.0954 4.26435 79.5984L4.53033 79.8175ZM7.13538 77.9211C8.51125 77.1015 9.33004 75.6584 9.6153 73.6331L9.2741 73.585C8.99853 75.5415 8.21899 76.8745 6.95903 77.6251L7.13538 77.9211ZM9.6155 73.6316C10.0937 70.003 10.332 64.7925 10.332 58.0043H9.98746C9.98746 64.7879 9.7491 69.9806 9.27389 73.5865L9.6155 73.6316ZM10.332 58.0043C10.332 50.7677 9.91172 45.4778 9.06487 42.1468L8.73093 42.2317C9.56653 45.5184 9.98746 50.7718 9.98746 58.0043H10.332ZM9.06481 42.1466C8.75368 40.9303 8.35328 40.0056 7.85409 39.3889L7.58628 39.6057C8.04048 40.1668 8.42522 41.0367 8.73099 42.2319L9.06481 42.1466ZM7.85409 39.3889C7.3548 38.7722 6.54428 38.1979 5.4402 37.66L5.28929 37.9698C6.37241 38.4974 7.13218 39.0448 7.58628 39.6057L7.85409 39.3889ZM5.44042 37.6601C4.18533 37.0465 3.32738 36.4561 2.84569 35.8941L2.58408 36.1184C3.11187 36.7341 4.02049 37.3495 5.28908 37.9697L5.44042 37.6601ZM2.84879 35.8978C2.39969 35.3431 2.17213 34.6675 2.17213 33.8611H1.82756C1.82756 34.7372 2.07669 35.4917 2.58098 36.1146L2.84879 35.8978ZM2.17213 33.8611C2.17213 32.5741 2.72093 31.527 3.83676 30.7087C4.9611 29.8842 6.66449 29.2907 8.96577 28.942L8.91415 28.6014C6.58869 28.9537 4.82202 29.5589 3.63299 30.4309C2.43545 31.3091 1.82756 32.4562 1.82756 33.8611H2.17213ZM8.96432 28.9422C10.5211 28.7198 13.258 28.6075 17.184 28.6075V28.2629C13.2585 28.2629 10.4994 28.3749 8.9156 28.6011L8.96432 28.9422ZM17.184 28.6075C19.4242 28.6075 21.025 28.7903 22.0046 29.144L22.1216 28.82C21.0822 28.4446 19.4303 28.2629 17.184 28.2629V28.6075ZM22.0099 29.1459C23.0146 29.4717 24.2134 30.239 25.6086 31.4668L25.8362 31.2081C24.4273 29.9683 23.1866 29.1653 22.1162 28.8181L22.0099 29.1459Z" fill="#F6DAC7" mask="url(#path-1-outside-1_47_8116)"/>
<mask id="path-3-outside-2_47_8116" maskUnits="userSpaceOnUse" x="5.07617" y="19.8409" width="73" height="63" fill="black">
<rect fill="white" x="5.07617" y="19.8409" width="73" height="63"/>
<path d="M30.8923 24.4462L51.8389 42.7849C53.8017 44.4954 55.2178 45.3507 56.0871 45.3507C57.5452 45.3507 58.2743 43.7944 58.2743 40.6819C58.2743 37.1487 58.064 34.7372 57.6433 33.4473C57.2227 32.1574 56.3394 31.19 54.9935 30.5451C53.8999 30.0123 53.1288 29.4515 52.6801 28.8626C52.2314 28.2457 52.0071 27.4606 52.0071 26.5072C52.0071 24.1518 53.6195 22.6376 56.8442 21.9646C58.1621 21.6842 60.4614 21.544 63.7422 21.544C67.9764 21.544 70.9067 21.7963 72.533 22.3011C75.1128 23.0862 76.4027 24.5724 76.4027 26.7596C76.4027 28.5822 75.3511 29.9562 73.2481 30.8816C72.4069 31.2461 71.832 31.5686 71.5236 31.849C71.2151 32.1294 70.9487 32.55 70.7244 33.1108C69.9673 34.9615 69.5747 38.4666 69.5467 43.6262V57.3381C69.5467 59.4412 69.5607 62.3154 69.5888 65.9607C69.6168 70.8959 69.3224 74.4571 68.7055 76.6443C67.9484 79.3642 66.5744 80.7242 64.5835 80.7242C63.7142 80.7242 62.9571 80.542 62.3121 80.1774C61.6952 79.8129 60.6577 78.9717 59.1996 77.6538L34.2572 55.3192C32.5187 53.7489 31.0746 52.9638 29.9249 52.9638C28.2144 52.9638 27.3592 55.3332 27.3592 60.0721C27.3592 63.9698 27.5695 66.6337 27.9901 68.0638C28.4388 69.4939 29.3361 70.5454 30.682 71.2184C32.5608 72.1437 33.5001 73.3495 33.5001 74.8356C33.5001 78.7333 29.308 80.6822 20.9238 80.6822C17.1383 80.6822 14.194 80.1915 12.0909 79.21C10.0159 78.2006 8.9784 76.7845 8.9784 74.9618C8.9784 74.0084 9.17469 73.2934 9.56726 72.8167C9.95983 72.34 10.8431 71.6951 12.2171 70.8819C13.535 70.0967 14.3342 68.7087 14.6146 66.7178C15.0913 63.1005 15.3297 57.899 15.3297 51.1131C15.3297 43.8785 14.909 38.6068 14.0678 35.298C13.7594 34.0923 13.3668 33.1949 12.8901 32.6061C12.4134 32.0172 11.6283 31.4564 10.5347 30.9236C9.27283 30.3067 8.38954 29.7039 7.88481 29.115C7.40811 28.5261 7.16977 27.8111 7.16977 26.9699C7.16977 24.278 9.48314 22.5815 14.1099 21.8805C15.6802 21.6561 18.4282 21.544 22.3539 21.544C24.5972 21.544 26.2235 21.7262 27.233 22.0908C28.2705 22.4273 29.4903 23.2124 30.8923 24.4462Z"/>
</mask>
<path d="M30.8923 24.4462L51.8389 42.7849C53.8017 44.4954 55.2178 45.3507 56.0871 45.3507C57.5452 45.3507 58.2743 43.7944 58.2743 40.6819C58.2743 37.1487 58.064 34.7372 57.6433 33.4473C57.2227 32.1574 56.3394 31.19 54.9935 30.5451C53.8999 30.0123 53.1288 29.4515 52.6801 28.8626C52.2314 28.2457 52.0071 27.4606 52.0071 26.5072C52.0071 24.1518 53.6195 22.6376 56.8442 21.9646C58.1621 21.6842 60.4614 21.544 63.7422 21.544C67.9764 21.544 70.9067 21.7963 72.533 22.3011C75.1128 23.0862 76.4027 24.5724 76.4027 26.7596C76.4027 28.5822 75.3511 29.9562 73.2481 30.8816C72.4069 31.2461 71.832 31.5686 71.5236 31.849C71.2151 32.1294 70.9487 32.55 70.7244 33.1108C69.9673 34.9615 69.5747 38.4666 69.5467 43.6262V57.3381C69.5467 59.4412 69.5607 62.3154 69.5888 65.9607C69.6168 70.8959 69.3224 74.4571 68.7055 76.6443C67.9484 79.3642 66.5744 80.7242 64.5835 80.7242C63.7142 80.7242 62.9571 80.542 62.3121 80.1774C61.6952 79.8129 60.6577 78.9717 59.1996 77.6538L34.2572 55.3192C32.5187 53.7489 31.0746 52.9638 29.9249 52.9638C28.2144 52.9638 27.3592 55.3332 27.3592 60.0721C27.3592 63.9698 27.5695 66.6337 27.9901 68.0638C28.4388 69.4939 29.3361 70.5454 30.682 71.2184C32.5608 72.1437 33.5001 73.3495 33.5001 74.8356C33.5001 78.7333 29.308 80.6822 20.9238 80.6822C17.1383 80.6822 14.194 80.1915 12.0909 79.21C10.0159 78.2006 8.9784 76.7845 8.9784 74.9618C8.9784 74.0084 9.17469 73.2934 9.56726 72.8167C9.95983 72.34 10.8431 71.6951 12.2171 70.8819C13.535 70.0967 14.3342 68.7087 14.6146 66.7178C15.0913 63.1005 15.3297 57.899 15.3297 51.1131C15.3297 43.8785 14.909 38.6068 14.0678 35.298C13.7594 34.0923 13.3668 33.1949 12.8901 32.6061C12.4134 32.0172 11.6283 31.4564 10.5347 30.9236C9.27283 30.3067 8.38954 29.7039 7.88481 29.115C7.40811 28.5261 7.16977 27.8111 7.16977 26.9699C7.16977 24.278 9.48314 22.5815 14.1099 21.8805C15.6802 21.6561 18.4282 21.544 22.3539 21.544C24.5972 21.544 26.2235 21.7262 27.233 22.0908C28.2705 22.4273 29.4903 23.2124 30.8923 24.4462Z" fill="#F6DAC7"/>
<path d="M30.8923 24.4462L30.0496 25.4038L30.0521 25.4059L30.8923 24.4462ZM51.8389 42.7849L50.9986 43.7447L51.0008 43.7466L51.8389 42.7849ZM54.9935 30.5451L54.4348 31.6919L54.4423 31.6954L54.9935 30.5451ZM52.6801 28.8626L51.6485 29.6129L51.6568 29.6244L51.6654 29.6357L52.6801 28.8626ZM56.8442 21.9646L57.1048 23.2133L57.1096 23.2123L56.8442 21.9646ZM72.533 22.3011L72.1549 23.5194L72.1616 23.5214L72.533 22.3011ZM73.2481 30.8816L73.7553 32.052L73.7618 32.0492L73.2481 30.8816ZM70.7244 33.1108L71.9051 33.5938L71.9088 33.5846L70.7244 33.1108ZM69.5467 43.6262L68.2711 43.6192V43.6262H69.5467ZM69.5888 65.9607L70.8643 65.9535L70.8643 65.9509L69.5888 65.9607ZM68.7055 76.6443L67.4778 76.298L67.4766 76.3022L68.7055 76.6443ZM62.3121 80.1774L61.6632 81.2756L61.6738 81.2819L61.6845 81.2879L62.3121 80.1774ZM59.1996 77.6538L60.055 76.7074L60.0505 76.7035L59.1996 77.6538ZM34.2572 55.3192L33.4022 56.2658L33.4063 56.2695L34.2572 55.3192ZM27.9901 68.0638L26.7663 68.4237L26.7696 68.4347L26.773 68.4456L27.9901 68.0638ZM30.682 71.2184L30.1116 72.3593L30.1184 72.3627L30.682 71.2184ZM12.0909 79.21L11.5329 80.3571L11.5422 80.3616L11.5515 80.366L12.0909 79.21ZM12.2171 70.8819L12.8668 71.9796L12.87 71.9778L12.2171 70.8819ZM14.6146 66.7178L15.8778 66.8957L15.8793 66.8845L14.6146 66.7178ZM14.0678 35.298L15.3041 34.9837L15.3036 34.9819L14.0678 35.298ZM10.5347 30.9236L9.97441 32.0696L9.976 32.0704L10.5347 30.9236ZM7.88481 29.115L6.89335 29.9176L6.90463 29.9315L6.9163 29.9452L7.88481 29.115ZM14.1099 21.8805L13.9295 20.6176L13.9188 20.6192L14.1099 21.8805ZM27.233 22.0908L26.7998 23.2905L26.8195 23.2977L26.8395 23.3041L27.233 22.0908ZM30.0521 25.4059L50.9986 43.7447L52.6791 41.8252L31.7326 23.4864L30.0521 25.4059ZM51.0008 43.7466C52.0102 44.6262 52.9172 45.3202 53.7136 45.8011C54.4699 46.2579 55.2912 46.6263 56.0871 46.6263V44.0751C56.0136 44.0751 55.6923 44.0158 55.0325 43.6173C54.4129 43.2431 53.6304 42.6542 52.6769 41.8232L51.0008 43.7466ZM56.0871 46.6263C56.6926 46.6263 57.2753 46.4598 57.7835 46.0982C58.2795 45.7453 58.6326 45.2582 58.8826 44.7246C59.367 43.6905 59.5499 42.2974 59.5499 40.6819H56.9987C56.9987 42.1789 56.817 43.1201 56.5723 43.6423C56.4577 43.8869 56.3552 43.9834 56.3044 44.0195C56.2658 44.047 56.2106 44.0751 56.0871 44.0751V46.6263ZM59.5499 40.6819C59.5499 37.1629 59.3476 34.5593 58.8561 33.0519L56.4306 33.8428C56.7803 34.9151 56.9987 37.1345 56.9987 40.6819H59.5499ZM58.8561 33.0519C58.316 31.3955 57.1702 30.1736 55.5447 29.3947L54.4423 31.6954C55.5086 32.2064 56.1295 32.9194 56.4306 33.8428L58.8561 33.0519ZM55.5522 29.3983C54.5359 28.9033 53.969 28.4495 53.6948 28.0896L51.6654 29.6357C52.2885 30.4535 53.2638 31.1214 54.4348 31.6918L55.5522 29.3983ZM53.7117 28.1124C53.4575 27.7628 53.2827 27.2591 53.2827 26.5072H50.7315C50.7315 27.662 51.0054 28.7287 51.6485 29.6129L53.7117 28.1124ZM53.2827 26.5072C53.2827 25.6561 53.5583 25.0338 54.0896 24.5348C54.6607 23.9985 55.6172 23.5237 57.1048 23.2133L56.5836 20.7159C54.8464 21.0784 53.3844 21.6972 52.3431 22.6751C51.2621 23.6903 50.7315 25.0029 50.7315 26.5072H53.2827ZM57.1096 23.2123C58.2822 22.9628 60.4599 22.8196 63.7422 22.8196V20.2684C60.463 20.2684 58.042 20.4056 56.5787 20.7169L57.1096 23.2123ZM63.7422 22.8196C67.9828 22.8196 70.7344 23.0785 72.155 23.5194L72.9111 21.0828C71.0789 20.5142 67.97 20.2684 63.7422 20.2684V22.8196ZM72.1616 23.5214C73.304 23.8691 74.0323 24.3341 74.4719 24.8407C74.8926 25.3254 75.1271 25.9365 75.1271 26.7596H77.6783C77.6783 25.3955 77.2678 24.1698 76.3986 23.1684C75.5484 22.1888 74.3418 21.5182 72.9044 21.0807L72.1616 23.5214ZM75.1271 26.7596C75.1271 27.4067 74.947 27.9298 74.601 28.3818C74.2419 28.8511 73.6513 29.3105 72.7343 29.714L73.7618 32.0492C74.9479 31.5273 75.9347 30.837 76.627 29.9323C77.3326 29.0104 77.6783 27.9351 77.6783 26.7596H75.1271ZM72.7409 29.7111C71.8877 30.0809 71.142 30.4719 70.6655 30.9051L72.3816 32.7929C72.522 32.6653 72.926 32.4113 73.7553 32.052L72.7409 29.7111ZM70.6655 30.9051C70.1646 31.3605 69.8063 31.9714 69.54 32.6371L71.9088 33.5846C72.0912 33.1286 72.2656 32.8983 72.3816 32.7929L70.6655 30.9051ZM69.5438 32.6278C68.6812 34.7362 68.2991 38.4766 68.2711 43.6192L70.8223 43.6331C70.8504 38.4567 71.2534 35.1868 71.905 33.5938L69.5438 32.6278ZM68.2711 43.6262V57.3381H70.8223V43.6262H68.2711ZM68.2711 57.3381C68.2711 59.446 68.2851 62.3239 68.3132 65.9705L70.8643 65.9509C70.8363 62.3069 70.8223 59.4364 70.8223 57.3381H68.2711ZM68.3132 65.968C68.3411 70.8897 68.0424 74.2961 67.4778 76.298L69.9332 76.9906C70.6023 74.6181 70.8925 70.9021 70.8643 65.9535L68.3132 65.968ZM67.4766 76.3022C67.1319 77.5404 66.6828 78.3295 66.2098 78.7976C65.7695 79.2335 65.2541 79.4486 64.5835 79.4486V81.9998C65.9038 81.9998 67.0708 81.535 68.0045 80.6108C68.9055 79.719 69.5219 78.4681 69.9343 76.9863L67.4766 76.3022ZM64.5835 79.4486C63.8958 79.4486 63.3624 79.3058 62.9398 79.0669L61.6845 81.2879C62.5517 81.7781 63.5326 81.9998 64.5835 81.9998V79.4486ZM62.9611 79.0792C62.4709 78.7896 61.523 78.0343 60.055 76.7074L58.3443 78.6001C59.7925 79.9091 60.9196 80.8362 61.6632 81.2756L62.9611 79.0792ZM60.0505 76.7035L35.1082 54.3689L33.4063 56.2695L58.3487 78.6041L60.0505 76.7035ZM35.1123 54.3726C33.3455 52.7768 31.5876 51.6882 29.9249 51.6882V54.2394C30.5616 54.2394 31.6919 54.721 33.4022 56.2658L35.1123 54.3726ZM29.9249 51.6882C29.1692 51.6882 28.4879 51.9621 27.937 52.4709C27.4143 52.9536 27.0554 53.6024 26.8008 54.3078C26.2965 55.7049 26.0836 57.6614 26.0836 60.0721H28.6348C28.6348 57.744 28.8495 56.1463 29.2005 55.1739C29.3735 54.6946 29.5491 54.4548 29.6679 54.3452C29.7584 54.2616 29.8254 54.2394 29.9249 54.2394V51.6882ZM26.0836 60.0721C26.0836 63.9567 26.2872 66.7945 26.7663 68.4237L29.2139 67.7038C28.8518 66.4729 28.6348 63.9829 28.6348 60.0721H26.0836ZM26.773 68.4456C27.3257 70.2075 28.4574 71.5322 30.1116 72.3593L31.2525 70.0774C30.2148 69.5586 29.5518 68.7802 29.2072 67.6819L26.773 68.4456ZM30.1184 72.3627C31.7661 73.1742 32.2245 74.0281 32.2245 74.8356H34.7758C34.7758 72.6709 33.3555 71.1132 31.2457 70.074L30.1184 72.3627ZM32.2245 74.8356C32.2245 75.5669 32.0329 76.1544 31.6775 76.6502C31.3129 77.1587 30.7227 77.6434 29.8183 78.0638C27.9769 78.9198 25.0573 79.4066 20.9238 79.4066V81.9578C25.1745 81.9578 28.5431 81.4701 30.8938 80.3773C32.0855 79.8233 33.0673 79.09 33.7508 78.1368C34.4433 77.1709 34.7758 76.0532 34.7758 74.8356H32.2245ZM20.9238 79.4066C17.221 79.4066 14.4907 78.9222 12.6304 78.0541L11.5515 80.366C13.8973 81.4607 17.0556 81.9578 20.9238 81.9578V79.4066ZM12.649 78.063C10.873 77.199 10.254 76.158 10.254 74.9618H7.7028C7.7028 77.411 9.15879 79.2021 11.5329 80.3571L12.649 78.063ZM10.254 74.9618C10.254 74.1514 10.4259 73.7806 10.5519 73.6276L8.58258 72.0058C7.92346 72.8062 7.7028 73.8655 7.7028 74.9618H10.254ZM10.5519 73.6276C10.7842 73.3456 11.4799 72.8005 12.8668 71.9796L11.5674 69.7841C10.2063 70.5897 9.1355 71.3344 8.58258 72.0058L10.5519 73.6276ZM12.87 71.9778C14.617 70.937 15.5615 69.1412 15.8778 66.8957L13.3515 66.5399C13.1069 68.2763 12.4531 69.2565 11.5643 69.786L12.87 71.9778ZM15.8793 66.8845C16.367 63.1836 16.6053 57.916 16.6053 51.1131H14.0541C14.0541 57.8819 13.8156 63.0175 13.3499 66.5512L15.8793 66.8845ZM16.6053 51.1131C16.6053 43.8632 16.187 38.4564 15.3041 34.9837L12.8315 35.6123C13.6311 38.7573 14.0541 43.8939 14.0541 51.1131H16.6053ZM15.3036 34.9819C14.9754 33.6986 14.5248 32.5981 13.8816 31.8035L11.8986 33.4087C12.2088 33.7918 12.5434 34.4859 12.832 35.6142L15.3036 34.9819ZM13.8816 31.8035C13.2376 31.008 12.2645 30.3475 11.0933 29.7769L9.976 32.0704C10.992 32.5654 11.5892 33.0265 11.8986 33.4087L13.8816 31.8035ZM11.0949 29.7777C9.88306 29.1852 9.18736 28.6746 8.85332 28.2848L6.9163 29.9452C7.59173 30.7332 8.6626 31.4283 9.97441 32.0696L11.0949 29.7777ZM8.87627 28.3124C8.60387 27.9759 8.44537 27.5532 8.44537 26.9699H5.89416C5.89416 28.069 6.21235 29.0764 6.89335 29.9176L8.87627 28.3124ZM8.44537 26.9699C8.44537 26.0605 8.80496 25.3336 9.65914 24.7072C10.5764 24.0346 12.0771 23.4786 14.301 23.1417L13.9188 20.6192C11.5159 20.9833 9.54657 21.6261 8.15045 22.6499C6.69126 23.72 5.89416 25.1873 5.89416 26.9699H8.44537ZM14.2903 23.1432C15.7607 22.9332 18.4262 22.8196 22.3539 22.8196V20.2684C18.4301 20.2684 15.5996 20.3791 13.9295 20.6177L14.2903 23.1432ZM22.3539 22.8196C24.5746 22.8196 26.0117 23.006 26.7998 23.2905L27.6663 20.891C26.4354 20.4465 24.6197 20.2684 22.3539 20.2684V22.8196ZM26.8395 23.3041C27.6335 23.5617 28.6983 24.2146 30.0496 25.4038L31.735 23.4886C30.2823 22.2102 28.9075 21.2928 27.6265 20.8774L26.8395 23.3041Z" fill="#1E1E1E" mask="url(#path-3-outside-2_47_8116)"/>
</svg>
