<svg width="77" height="106" viewBox="0 0 77 106" fill="none" xmlns="http://www.w3.org/2000/svg">
<mask id="path-1-outside-1_47_8119" maskUnits="userSpaceOnUse" x="0.0625" y="27.0259" width="71" height="61" fill="black">
<rect fill="white" x="0.0625" y="27.0259" width="71" height="61"/>
<path d="M24.8787 30.6311L45.8252 48.9699C47.7881 50.6804 49.2041 51.5356 50.0734 51.5356C51.5315 51.5356 52.2606 49.9793 52.2606 46.8668C52.2606 43.3336 52.0503 40.9221 51.6297 39.6323C51.2091 38.3424 50.3258 37.375 48.9798 36.73C47.8862 36.1972 47.1151 35.6364 46.6664 35.0476C46.2178 34.4307 45.9935 33.6455 45.9935 32.6921C45.9935 30.3367 47.6058 28.8225 50.8305 28.1495C52.1484 27.8691 54.4478 27.7289 57.7286 27.7289C61.9627 27.7289 64.893 27.9813 66.5194 28.486C69.0991 29.2712 70.389 30.7573 70.389 32.9445C70.389 34.7672 69.3375 36.1412 67.2344 37.0665C66.3932 37.431 65.8183 37.7535 65.5099 38.0339C65.2014 38.3143 64.9351 38.7349 64.7107 39.2958C63.9536 41.1465 63.5611 44.6516 63.533 49.8111V63.5231C63.533 65.6261 63.547 68.5003 63.5751 72.1456C63.6031 77.0808 63.3087 80.642 62.6918 82.8292C61.9347 85.5492 60.5607 86.9092 58.5698 86.9092C57.7005 86.9092 56.9434 86.7269 56.2985 86.3624C55.6816 85.9978 54.6441 85.1566 53.1859 83.8387L28.2436 61.5041C26.505 59.9338 25.0609 59.1487 23.9113 59.1487C22.2008 59.1487 21.3455 61.5182 21.3455 66.2571C21.3455 70.1547 21.5558 72.8186 21.9764 74.2487C22.4251 75.6788 23.3224 76.7303 24.6684 77.4033C26.5471 78.3287 27.4865 79.5344 27.4865 81.0206C27.4865 84.9183 23.2944 86.8671 14.9101 86.8671C11.1246 86.8671 8.18033 86.3764 6.07727 85.395C4.00224 84.3855 2.96473 82.9694 2.96473 81.1468C2.96473 80.1934 3.16102 79.4783 3.55359 79.0016C3.94616 78.5249 4.82945 77.88 6.20345 77.0668C7.52137 76.2817 8.32054 74.8937 8.60095 72.9028C9.07764 69.2855 9.31599 64.0839 9.31599 57.298C9.31599 50.0635 8.89538 44.7918 8.05415 41.483C7.7457 40.2772 7.35313 39.3799 6.87643 38.791C6.39974 38.2022 5.61459 37.6414 4.521 37.1086C3.25916 36.4917 2.37587 35.8888 1.87114 35.2999C1.39444 34.7111 1.15609 33.996 1.15609 33.1548C1.15609 30.4629 3.46947 28.7664 8.09621 28.0654C9.6665 27.8411 12.4145 27.7289 16.3402 27.7289C18.5835 27.7289 20.2099 27.9112 21.2193 28.2757C22.2569 28.6122 23.4766 29.3973 24.8787 30.6311Z"/>
</mask>
<path d="M24.8787 30.6311L45.8252 48.9699C47.7881 50.6804 49.2041 51.5356 50.0734 51.5356C51.5315 51.5356 52.2606 49.9793 52.2606 46.8668C52.2606 43.3336 52.0503 40.9221 51.6297 39.6323C51.2091 38.3424 50.3258 37.375 48.9798 36.73C47.8862 36.1972 47.1151 35.6364 46.6664 35.0476C46.2178 34.4307 45.9935 33.6455 45.9935 32.6921C45.9935 30.3367 47.6058 28.8225 50.8305 28.1495C52.1484 27.8691 54.4478 27.7289 57.7286 27.7289C61.9627 27.7289 64.893 27.9813 66.5194 28.486C69.0991 29.2712 70.389 30.7573 70.389 32.9445C70.389 34.7672 69.3375 36.1412 67.2344 37.0665C66.3932 37.431 65.8183 37.7535 65.5099 38.0339C65.2014 38.3143 64.9351 38.7349 64.7107 39.2958C63.9536 41.1465 63.5611 44.6516 63.533 49.8111V63.5231C63.533 65.6261 63.547 68.5003 63.5751 72.1456C63.6031 77.0808 63.3087 80.642 62.6918 82.8292C61.9347 85.5492 60.5607 86.9092 58.5698 86.9092C57.7005 86.9092 56.9434 86.7269 56.2985 86.3624C55.6816 85.9978 54.6441 85.1566 53.1859 83.8387L28.2436 61.5041C26.505 59.9338 25.0609 59.1487 23.9113 59.1487C22.2008 59.1487 21.3455 61.5182 21.3455 66.2571C21.3455 70.1547 21.5558 72.8186 21.9764 74.2487C22.4251 75.6788 23.3224 76.7303 24.6684 77.4033C26.5471 78.3287 27.4865 79.5344 27.4865 81.0206C27.4865 84.9183 23.2944 86.8671 14.9101 86.8671C11.1246 86.8671 8.18033 86.3764 6.07727 85.395C4.00224 84.3855 2.96473 82.9694 2.96473 81.1468C2.96473 80.1934 3.16102 79.4783 3.55359 79.0016C3.94616 78.5249 4.82945 77.88 6.20345 77.0668C7.52137 76.2817 8.32054 74.8937 8.60095 72.9028C9.07764 69.2855 9.31599 64.0839 9.31599 57.298C9.31599 50.0635 8.89538 44.7918 8.05415 41.483C7.7457 40.2772 7.35313 39.3799 6.87643 38.791C6.39974 38.2022 5.61459 37.6414 4.521 37.1086C3.25916 36.4917 2.37587 35.8888 1.87114 35.2999C1.39444 34.7111 1.15609 33.996 1.15609 33.1548C1.15609 30.4629 3.46947 28.7664 8.09621 28.0654C9.6665 27.8411 12.4145 27.7289 16.3402 27.7289C18.5835 27.7289 20.2099 27.9112 21.2193 28.2757C22.2569 28.6122 23.4766 29.3973 24.8787 30.6311Z" fill="#1E1E1E"/>
<path d="M24.8787 30.6311L24.7649 30.7605L24.7652 30.7608L24.8787 30.6311ZM45.8252 48.9699L45.7117 49.0995L45.712 49.0998L45.8252 48.9699ZM48.9798 36.73L48.9043 36.8849L48.9054 36.8854L48.9798 36.73ZM46.6664 35.0476L46.5271 35.1489L46.5294 35.152L46.6664 35.0476ZM50.8305 28.1495L50.8657 28.3182L50.8664 28.318L50.8305 28.1495ZM66.5194 28.486L66.4683 28.6506L66.4692 28.6508L66.5194 28.486ZM67.2344 37.0665L67.3029 37.2246L67.3038 37.2242L67.2344 37.0665ZM64.7107 39.2958L64.8702 39.361L64.8707 39.3597L64.7107 39.2958ZM63.533 49.8111L63.3607 49.8102V49.8111H63.533ZM63.5751 72.1456L63.7474 72.1447L63.7474 72.1443L63.5751 72.1456ZM62.6918 82.8292L62.526 82.7825L62.5258 82.783L62.6918 82.8292ZM56.2985 86.3624L56.2108 86.5107L56.2137 86.5124L56.2985 86.3624ZM53.1859 83.8387L53.3015 83.7109L53.3009 83.7103L53.1859 83.8387ZM28.2436 61.5041L28.1281 61.632L28.1286 61.6325L28.2436 61.5041ZM21.9764 74.2487L21.8111 74.2973L21.8121 74.3003L21.9764 74.2487ZM24.6684 77.4033L24.5913 77.5574L24.5922 77.5579L24.6684 77.4033ZM6.07727 85.395L6.00189 85.5499L6.00441 85.5511L6.07727 85.395ZM6.20345 77.0668L6.2912 77.2151L6.29163 77.2148L6.20345 77.0668ZM8.60095 72.9028L8.77155 72.9268L8.77175 72.9253L8.60095 72.9028ZM8.05415 41.483L8.22112 41.4405L8.22106 41.4403L8.05415 41.483ZM4.521 37.1086L4.44533 37.2634L4.44554 37.2635L4.521 37.1086ZM1.87114 35.2999L1.73718 35.4084L1.74033 35.4121L1.87114 35.2999ZM8.09621 28.0654L8.07184 27.8948L8.0704 27.8951L8.09621 28.0654ZM21.2193 28.2757L21.1608 28.4378L21.1662 28.4396L21.2193 28.2757ZM24.7652 30.7608L45.7117 49.0995L45.9387 48.8402L24.9922 30.5015L24.7652 30.7608ZM45.712 49.0998C46.6972 49.9583 47.5504 50.6068 48.2703 51.0416C48.9849 51.4732 49.59 51.7079 50.0734 51.7079V51.3633C49.6875 51.3633 49.15 51.1704 48.4485 50.7467C47.7524 50.3263 46.9161 49.6919 45.9384 48.84L45.712 49.0998ZM50.0734 51.7079C50.4705 51.7079 50.8251 51.6013 51.1302 51.3842C51.4336 51.1683 51.6784 50.8501 51.8698 50.4415C52.2505 49.6288 52.4329 48.4311 52.4329 46.8668H52.0883C52.0883 48.4151 51.9061 49.5517 51.5578 50.2953C51.3847 50.6649 51.1737 50.9303 50.9304 51.1034C50.6887 51.2754 50.4054 51.3633 50.0734 51.3633V51.7079ZM52.4329 46.8668C52.4329 43.3356 52.2237 40.8981 51.7935 39.5788L51.4659 39.6857C51.8769 40.9462 52.0883 43.3317 52.0883 46.8668H52.4329ZM51.7935 39.5788C51.3567 38.2395 50.438 37.2377 49.0543 36.5747L48.9054 36.8854C50.2136 37.5122 51.0614 38.4453 51.4659 39.6857L51.7935 39.5788ZM49.0553 36.5751C47.9721 36.0475 47.2286 35.5011 46.8035 34.9432L46.5294 35.152C47.0016 35.7718 47.8003 36.347 48.9043 36.8849L49.0553 36.5751ZM46.8058 34.9462C46.3834 34.3654 46.1657 33.6183 46.1657 32.6921H45.8212C45.8212 33.6727 46.0522 34.4959 46.5271 35.1489L46.8058 34.9462ZM46.1657 32.6921C46.1657 31.5585 46.5516 30.6377 47.3207 29.9155C48.0951 29.1882 49.2702 28.6511 50.8657 28.3182L50.7953 27.9809C49.1661 28.3209 47.9227 28.8774 47.0848 29.6643C46.2415 30.4563 45.8212 31.4703 45.8212 32.6921H46.1657ZM50.8664 28.318C52.1646 28.0418 54.4476 27.9012 57.7286 27.9012V27.5566C54.448 27.5566 52.1322 27.6964 50.7946 27.981L50.8664 28.318ZM57.7286 27.9012C61.9636 27.9012 64.8697 28.1544 66.4683 28.6505L66.5704 28.3215C64.9163 27.8081 61.9619 27.5566 57.7286 27.5566V27.9012ZM66.4692 28.6508C67.7392 29.0373 68.6743 29.5913 69.2915 30.3024C69.9061 31.0106 70.2167 31.8874 70.2167 32.9445H70.5613C70.5613 31.8144 70.2269 30.8545 69.5517 30.0766C68.879 29.3015 67.8793 28.7198 66.5695 28.3212L66.4692 28.6508ZM70.2167 32.9445C70.2167 33.8201 69.965 34.582 69.4635 35.2373C68.9603 35.8949 68.1984 36.4541 67.165 36.9088L67.3038 37.2242C68.3735 36.7535 69.1889 36.1631 69.7372 35.4467C70.2872 34.728 70.5613 33.8915 70.5613 32.9445H70.2167ZM67.1659 36.9084C66.3231 37.2737 65.7252 37.6054 65.394 37.9064L65.6258 38.1614C65.9115 37.9016 66.4633 37.5884 67.3029 37.2246L67.1659 36.9084ZM65.394 37.9064C65.0596 38.2105 64.7808 38.6568 64.5508 39.2318L64.8707 39.3597C65.0894 38.8131 65.3433 38.4182 65.6258 38.1614L65.394 37.9064ZM64.5513 39.2305C63.7799 41.116 63.3888 44.6529 63.3607 49.8102L63.7053 49.812C63.7334 44.6502 64.1273 41.1769 64.8702 39.361L64.5513 39.2305ZM63.3607 49.8111V63.5231H63.7053V49.8111H63.3607ZM63.3607 63.5231C63.3607 65.6268 63.3748 68.5015 63.4028 72.147L63.7474 72.1443C63.7193 68.4992 63.7053 65.6255 63.7053 63.5231H63.3607ZM63.4028 72.1466C63.4308 77.08 63.1358 80.6203 62.526 82.7825L62.8576 82.876C63.4816 80.6638 63.7754 77.0817 63.7474 72.1447L63.4028 72.1466ZM62.5258 82.783C62.1518 84.1265 61.6304 85.1154 60.9723 85.7667C60.3186 86.4137 59.5214 86.7369 58.5698 86.7369V87.0814C59.6091 87.0814 60.4943 86.7246 61.2147 86.0116C61.9306 85.303 62.4746 84.2519 62.8578 82.8754L62.5258 82.783ZM58.5698 86.7369C57.725 86.7369 56.9982 86.5599 56.3832 86.2124L56.2137 86.5124C56.8887 86.8939 57.676 87.0814 58.5698 87.0814V86.7369ZM56.3861 86.214C55.7863 85.8596 54.7609 85.03 53.3015 83.7109L53.0704 83.9665C54.5272 85.2832 55.5768 86.136 56.2108 86.5107L56.3861 86.214ZM53.3009 83.7103L28.3585 61.3758L28.1286 61.6325L53.071 83.967L53.3009 83.7103ZM28.3591 61.3763C26.6167 59.8026 25.1302 58.9764 23.9113 58.9764V59.321C24.9917 59.321 26.3934 60.0651 28.1281 61.632L28.3591 61.3763ZM23.9113 58.9764C23.4393 58.9764 23.0237 59.1415 22.6719 59.4664C22.3239 59.7878 22.0442 60.2597 21.8249 60.8673C21.3869 62.0807 21.1732 63.882 21.1732 66.2571H21.5178C21.5178 63.8932 21.7317 62.1403 22.149 60.9843C22.3573 60.4072 22.6122 59.9905 22.9056 59.7195C23.1953 59.4521 23.528 59.321 23.9113 59.321V58.9764ZM21.1732 66.2571C21.1732 70.153 21.3826 72.8403 21.8112 74.2973L22.1417 74.2001C21.729 72.7969 21.5178 70.1565 21.5178 66.2571H21.1732ZM21.8121 74.3003C22.2748 75.7752 23.2037 76.8636 24.5913 77.5574L24.7454 77.2492C23.4411 76.597 22.5754 75.5824 22.1408 74.1971L21.8121 74.3003ZM24.5922 77.5579C26.4398 78.4678 27.3142 79.6261 27.3142 81.0206H27.6588C27.6588 79.4428 26.6544 78.1895 24.7445 77.2488L24.5922 77.5579ZM27.3142 81.0206C27.3142 81.9622 27.0617 82.779 26.5604 83.478C26.058 84.1788 25.2984 84.7711 24.2698 85.2492C22.2081 86.2077 19.0943 86.6948 14.9101 86.6948V87.0394C19.1102 87.0394 22.2846 86.5521 24.415 85.5617C25.4824 85.0655 26.2949 84.4397 26.8405 83.6788C27.3872 82.9163 27.6588 82.0278 27.6588 81.0206H27.3142ZM14.9101 86.6948C11.1358 86.6948 8.2204 86.205 6.15012 85.2388L6.00441 85.5511C8.14026 86.5478 11.1135 87.0394 14.9101 87.0394V86.6948ZM6.15264 85.24C4.11801 84.2502 3.13701 82.8848 3.13701 81.1468H2.79245C2.79245 83.054 3.88648 84.5208 6.0019 85.5499L6.15264 85.24ZM3.13701 81.1468C3.13701 80.2127 3.33001 79.5441 3.68658 79.1112L3.4206 78.8921C2.99203 79.4125 2.79245 80.1741 2.79245 81.1468H3.13701ZM3.68658 79.1112C4.05749 78.6608 4.91545 78.0293 6.2912 77.2151L6.1157 76.9186C4.74344 77.7307 3.83483 78.3891 3.4206 78.8921L3.68658 79.1112ZM6.29163 77.2148C7.6675 76.3952 8.48629 74.9521 8.77155 72.9268L8.43035 72.8787C8.15478 74.8352 7.37524 76.1682 6.11528 76.9188L6.29163 77.2148ZM8.77175 72.9253C9.24993 69.2967 9.48827 64.0862 9.48827 57.298H9.14371C9.14371 64.0816 8.90535 69.2743 8.43014 72.8802L8.77175 72.9253ZM9.48827 57.298C9.48827 50.0614 9.06797 44.7715 8.22112 41.4405L7.88718 41.5254C8.72278 44.8121 9.14371 50.0655 9.14371 57.298H9.48827ZM8.22106 41.4403C7.90993 40.224 7.50953 39.2993 7.01034 38.6826L6.74253 38.8994C7.19673 39.4605 7.58147 40.3304 7.88724 41.5256L8.22106 41.4403ZM7.01034 38.6826C6.51105 38.0659 5.70053 37.4916 4.59645 36.9537L4.44554 37.2635C5.52866 37.7911 6.28843 38.3385 6.74253 38.8994L7.01034 38.6826ZM4.59667 36.9538C3.34158 36.3402 2.48363 35.7498 2.00194 35.1878L1.74033 35.4121C2.26812 36.0278 3.17674 36.6432 4.44533 37.2634L4.59667 36.9538ZM2.00504 35.1915C1.55594 34.6368 1.32838 33.9612 1.32838 33.1548H0.983811C0.983811 34.0309 1.23294 34.7854 1.73723 35.4083L2.00504 35.1915ZM1.32838 33.1548C1.32838 31.8678 1.87718 30.8207 2.99301 30.0024C4.11735 29.1779 5.82074 28.5844 8.12202 28.2357L8.0704 27.8951C5.74494 28.2474 3.97827 28.8526 2.78924 29.7246C1.5917 30.6028 0.983811 31.7499 0.983811 33.1548H1.32838ZM8.12057 28.2359C9.67738 28.0135 12.4142 27.9012 16.3402 27.9012V27.5566C12.4148 27.5566 9.65562 27.6686 8.07185 27.8948L8.12057 28.2359ZM16.3402 27.9012C18.5805 27.9012 20.1813 28.084 21.1608 28.4377L21.2779 28.1137C20.2385 27.7383 18.5865 27.5566 16.3402 27.5566V27.9012ZM21.1662 28.4396C22.1708 28.7654 23.3697 29.5327 24.7649 30.7605L24.9925 30.5018C23.5836 29.262 22.3429 28.459 21.2725 28.1118L21.1662 28.4396Z" fill="#C2DCEE" mask="url(#path-1-outside-1_47_8119)"/>
<mask id="path-3-outside-2_47_8119" maskUnits="userSpaceOnUse" x="4.23242" y="19.1345" width="73" height="63" fill="black">
<rect fill="white" x="4.23242" y="19.1345" width="73" height="63"/>
<path d="M30.0486 23.7398L50.9951 42.0785C52.958 43.789 54.3741 44.6442 55.2433 44.6442C56.7014 44.6442 57.4305 43.088 57.4305 39.9754C57.4305 36.4423 57.2202 34.0308 56.7996 32.7409C56.379 31.451 55.4957 30.4836 54.1497 29.8387C53.0561 29.3059 52.285 28.7451 51.8364 28.1562C51.3877 27.5393 51.1634 26.7542 51.1634 25.8008C51.1634 23.4453 52.7757 21.9311 56.0004 21.2582C57.3183 20.9777 59.6177 20.8375 62.8985 20.8375C67.1327 20.8375 70.0629 21.0899 71.6893 21.5946C74.2691 22.3798 75.5589 23.866 75.5589 26.0531C75.5589 27.8758 74.5074 29.2498 72.4043 30.1752C71.5631 30.5397 70.9883 30.8622 70.6798 31.1426C70.3714 31.423 70.105 31.8436 69.8807 32.4044C69.1236 34.2551 68.731 37.7602 68.7029 42.9197V56.6317C68.7029 58.7348 68.717 61.609 68.745 65.2543C68.773 70.1895 68.4786 73.7507 67.8617 75.9379C67.1046 78.6578 65.7306 80.0178 63.7397 80.0178C62.8704 80.0178 62.1133 79.8355 61.4684 79.471C60.8515 79.1065 59.814 78.2653 58.3559 76.9473L33.4135 54.6128C31.675 53.0425 30.2309 52.2573 29.0812 52.2573C27.3707 52.2573 26.5154 54.6268 26.5154 59.3657C26.5154 63.2634 26.7258 65.9273 27.1464 67.3574C27.595 68.7874 28.4923 69.839 29.8383 70.512C31.717 71.4373 32.6564 72.6431 32.6564 74.1292C32.6564 78.0269 28.4643 79.9757 20.0801 79.9757C16.2945 79.9757 13.3503 79.485 11.2472 78.5036C9.17216 77.4941 8.13465 76.0781 8.13465 74.2554C8.13465 73.302 8.33094 72.587 8.72351 72.1103C9.11608 71.6336 9.99937 70.9886 11.3734 70.1755C12.6913 69.3903 13.4905 68.0023 13.7709 66.0114C14.2476 62.3941 14.4859 57.1925 14.4859 50.4066C14.4859 43.1721 14.0653 37.9004 13.2241 34.5916C12.9156 33.3858 12.523 32.4885 12.0464 31.8997C11.5697 31.3108 10.7845 30.75 9.69092 30.2172C8.42908 29.6003 7.54579 28.9974 7.04106 28.4086C6.56436 27.8197 6.32602 27.1047 6.32602 26.2635C6.32602 23.5715 8.63939 21.8751 13.2661 21.174C14.8364 20.9497 17.5844 20.8375 21.5101 20.8375C23.7534 20.8375 25.3798 21.0198 26.3893 21.3843C27.4268 21.7208 28.6466 22.506 30.0486 23.7398Z"/>
</mask>
<path d="M30.0486 23.7398L50.9951 42.0785C52.958 43.789 54.3741 44.6442 55.2433 44.6442C56.7014 44.6442 57.4305 43.088 57.4305 39.9754C57.4305 36.4423 57.2202 34.0308 56.7996 32.7409C56.379 31.451 55.4957 30.4836 54.1497 29.8387C53.0561 29.3059 52.285 28.7451 51.8364 28.1562C51.3877 27.5393 51.1634 26.7542 51.1634 25.8008C51.1634 23.4453 52.7757 21.9311 56.0004 21.2582C57.3183 20.9777 59.6177 20.8375 62.8985 20.8375C67.1327 20.8375 70.0629 21.0899 71.6893 21.5946C74.2691 22.3798 75.5589 23.866 75.5589 26.0531C75.5589 27.8758 74.5074 29.2498 72.4043 30.1752C71.5631 30.5397 70.9883 30.8622 70.6798 31.1426C70.3714 31.423 70.105 31.8436 69.8807 32.4044C69.1236 34.2551 68.731 37.7602 68.7029 42.9197V56.6317C68.7029 58.7348 68.717 61.609 68.745 65.2543C68.773 70.1895 68.4786 73.7507 67.8617 75.9379C67.1046 78.6578 65.7306 80.0178 63.7397 80.0178C62.8704 80.0178 62.1133 79.8355 61.4684 79.471C60.8515 79.1065 59.814 78.2653 58.3559 76.9473L33.4135 54.6128C31.675 53.0425 30.2309 52.2573 29.0812 52.2573C27.3707 52.2573 26.5154 54.6268 26.5154 59.3657C26.5154 63.2634 26.7258 65.9273 27.1464 67.3574C27.595 68.7874 28.4923 69.839 29.8383 70.512C31.717 71.4373 32.6564 72.6431 32.6564 74.1292C32.6564 78.0269 28.4643 79.9757 20.0801 79.9757C16.2945 79.9757 13.3503 79.485 11.2472 78.5036C9.17216 77.4941 8.13465 76.0781 8.13465 74.2554C8.13465 73.302 8.33094 72.587 8.72351 72.1103C9.11608 71.6336 9.99937 70.9886 11.3734 70.1755C12.6913 69.3903 13.4905 68.0023 13.7709 66.0114C14.2476 62.3941 14.4859 57.1925 14.4859 50.4066C14.4859 43.1721 14.0653 37.9004 13.2241 34.5916C12.9156 33.3858 12.523 32.4885 12.0464 31.8997C11.5697 31.3108 10.7845 30.75 9.69092 30.2172C8.42908 29.6003 7.54579 28.9974 7.04106 28.4086C6.56436 27.8197 6.32602 27.1047 6.32602 26.2635C6.32602 23.5715 8.63939 21.8751 13.2661 21.174C14.8364 20.9497 17.5844 20.8375 21.5101 20.8375C23.7534 20.8375 25.3798 21.0198 26.3893 21.3843C27.4268 21.7208 28.6466 22.506 30.0486 23.7398Z" fill="#C2DCEE"/>
<path d="M30.0486 23.7398L29.2059 24.6974L29.2083 24.6995L30.0486 23.7398ZM50.9951 42.0785L50.1549 43.0383L50.1571 43.0402L50.9951 42.0785ZM54.1497 29.8387L53.591 30.9854L53.5985 30.989L54.1497 29.8387ZM51.8364 28.1562L50.8047 28.9065L50.8131 28.918L50.8217 28.9293L51.8364 28.1562ZM56.0004 21.2582L56.261 22.5069L56.2659 22.5058L56.0004 21.2582ZM71.6893 21.5946L71.3112 22.813L71.3179 22.815L71.6893 21.5946ZM72.4043 30.1752L72.9115 31.3456L72.9181 31.3427L72.4043 30.1752ZM69.8807 32.4044L71.0613 32.8874L71.065 32.8782L69.8807 32.4044ZM68.7029 42.9197L67.4273 42.9128V42.9197H68.7029ZM68.745 65.2543L70.0206 65.247L70.0206 65.2445L68.745 65.2543ZM67.8617 75.9379L66.634 75.5916L66.6328 75.5958L67.8617 75.9379ZM61.4684 79.471L60.8195 80.5692L60.83 80.5755L60.8407 80.5815L61.4684 79.471ZM58.3559 76.9473L59.2112 76.001L59.2068 75.997L58.3559 76.9473ZM33.4135 54.6128L32.5585 55.5594L32.5626 55.5631L33.4135 54.6128ZM27.1464 67.3574L25.9226 67.7173L25.9258 67.7283L25.9293 67.7392L27.1464 67.3574ZM29.8383 70.512L29.2678 71.6529L29.2747 71.6563L29.8383 70.512ZM11.2472 78.5036L10.6892 79.6507L10.6984 79.6552L10.7078 79.6595L11.2472 78.5036ZM11.3734 70.1755L12.0231 71.2732L12.0262 71.2713L11.3734 70.1755ZM13.7709 66.0114L15.0341 66.1893L15.0355 66.1781L13.7709 66.0114ZM13.2241 34.5916L14.4603 34.2773L14.4599 34.2755L13.2241 34.5916ZM9.69092 30.2172L9.13066 31.3632L9.13225 31.364L9.69092 30.2172ZM7.04106 28.4086L6.0496 29.2112L6.06088 29.2251L6.07255 29.2387L7.04106 28.4086ZM13.2661 21.174L13.0857 19.9112L13.075 19.9128L13.2661 21.174ZM26.3893 21.3843L25.956 22.5841L25.9758 22.5912L25.9957 22.5977L26.3893 21.3843ZM29.2083 24.6995L50.1549 43.0383L51.8354 41.1188L30.8889 22.78L29.2083 24.6995ZM50.1571 43.0402C51.1664 43.9198 52.0735 44.6137 52.8699 45.0947C53.6261 45.5515 54.4475 45.9199 55.2433 45.9199V43.3686C55.1699 43.3686 54.8486 43.3094 54.1888 42.9109C53.5691 42.5366 52.7867 41.9477 51.8332 41.1168L50.1571 43.0402ZM55.2433 45.9199C55.8488 45.9199 56.4315 45.7534 56.9398 45.3918C57.4358 45.0389 57.7889 44.5517 58.0388 44.0182C58.5233 42.9841 58.7061 41.5909 58.7061 39.9754H56.1549C56.1549 41.4725 55.9732 42.4137 55.7286 42.9359C55.614 43.1805 55.5115 43.277 55.4607 43.3131C55.4221 43.3405 55.3669 43.3686 55.2433 43.3686V45.9199ZM58.7061 39.9754C58.7061 36.4565 58.5039 33.8529 58.0123 32.3454L55.5868 33.1364C55.9365 34.2087 56.1549 36.4281 56.1549 39.9754H58.7061ZM58.0123 32.3454C57.4722 30.6891 56.3265 29.4672 54.7009 28.6883L53.5985 30.989C54.6649 31.5 55.2857 32.213 55.5868 33.1364L58.0123 32.3454ZM54.7084 28.6919C53.6922 28.1968 53.1252 27.7431 52.851 27.3831L50.8217 28.9293C51.4448 29.7471 52.4201 30.4149 53.591 30.9854L54.7084 28.6919ZM52.868 27.4059C52.6137 27.0564 52.439 26.5527 52.439 25.8008H49.8878C49.8878 26.9556 50.1617 28.0223 50.8047 28.9065L52.868 27.4059ZM52.439 25.8008C52.439 24.9497 52.7145 24.3274 53.2459 23.8284C53.8169 23.2921 54.7735 22.8173 56.261 22.5069L55.7398 20.0095C54.0027 20.372 52.5407 20.9908 51.4994 21.9687C50.4184 22.9839 49.8878 24.2965 49.8878 25.8008H52.439ZM56.2659 22.5058C57.4384 22.2564 59.6162 22.1131 62.8985 22.1131V19.5619C59.6192 19.5619 57.1983 19.6991 55.735 20.0105L56.2659 22.5058ZM62.8985 22.1131C67.139 22.1131 69.8907 22.3721 71.3112 22.8129L72.0674 20.3764C70.2352 19.8077 67.1263 19.5619 62.8985 19.5619V22.1131ZM71.3179 22.815C72.4602 23.1627 73.1885 23.6277 73.6282 24.1343C74.0489 24.619 74.2833 25.23 74.2833 26.0531H76.8345C76.8345 24.6891 76.424 23.4634 75.5549 22.462C74.7046 21.4824 73.4981 20.8118 72.0607 20.3743L71.3179 22.815ZM74.2833 26.0531C74.2833 26.7003 74.1032 27.2234 73.7573 27.6754C73.3981 28.1447 72.8076 28.6041 71.8906 29.0076L72.9181 31.3427C74.1042 30.8208 75.0909 30.1306 75.7833 29.2259C76.4889 28.3039 76.8345 27.2287 76.8345 26.0531H74.2833ZM71.8971 29.0047C71.0439 29.3744 70.2983 29.7655 69.8218 30.1987L71.5379 32.0864C71.6782 31.9588 72.0823 31.7049 72.9115 31.3456L71.8971 29.0047ZM69.8218 30.1987C69.3209 30.654 68.9625 31.265 68.6963 31.9307L71.065 32.8782C71.2474 32.4222 71.4219 32.1919 71.5379 32.0864L69.8218 30.1987ZM68.7 31.9214C67.8375 34.0298 67.4553 37.7702 67.4274 42.9128L69.9785 42.9267C70.0067 37.7502 70.4096 34.4804 71.0613 32.8874L68.7 31.9214ZM67.4273 42.9197V56.6317H69.9785V42.9197H67.4273ZM67.4273 56.6317C67.4273 58.7396 67.4414 61.6175 67.4694 65.2641L70.0206 65.2445C69.9925 61.6004 69.9785 58.73 69.9785 56.6317H67.4273ZM67.4694 65.2615C67.4974 70.1832 67.1987 73.5896 66.634 75.5916L69.0894 76.2841C69.7586 73.9117 70.0487 70.1957 70.0206 65.247L67.4694 65.2615ZM66.6328 75.5958C66.2882 76.834 65.839 77.623 65.366 78.0912C64.9257 78.5271 64.4103 78.7422 63.7397 78.7422V81.2934C65.06 81.2934 66.2271 80.8286 67.1607 79.9044C68.0617 79.0126 68.6781 77.7617 69.0906 76.2799L66.6328 75.5958ZM63.7397 78.7422C63.052 78.7422 62.5187 78.5994 62.0961 78.3605L60.8407 80.5815C61.708 81.0717 62.6888 81.2934 63.7397 81.2934V78.7422ZM62.1173 78.3728C61.6272 78.0832 60.6792 77.3278 59.2112 76.001L57.5005 77.8937C58.9488 79.2027 60.0758 80.1298 60.8195 80.5692L62.1173 78.3728ZM59.2068 75.997L34.2644 53.6625L32.5626 55.5631L57.5049 77.8976L59.2068 75.997ZM34.2685 53.6661C32.5018 52.0704 30.7439 50.9817 29.0812 50.9817V53.5329C29.7179 53.5329 30.8482 54.0146 32.5585 55.5594L34.2685 53.6661ZM29.0812 50.9817C28.3254 50.9817 27.6442 51.2557 27.0932 51.7645C26.5706 52.2472 26.2117 52.8959 25.957 53.6014C25.4528 54.9985 25.2398 56.955 25.2398 59.3657H27.791C27.791 57.0376 28.0058 55.4398 28.3567 54.4675C28.5297 53.9882 28.7053 53.7484 28.8241 53.6387C28.9146 53.5551 28.9817 53.5329 29.0812 53.5329V50.9817ZM25.2398 59.3657C25.2398 63.2503 25.4434 66.0881 25.9226 67.7173L28.3701 66.9974C28.0081 65.7664 27.791 63.2765 27.791 59.3657H25.2398ZM25.9293 67.7392C26.482 69.5011 27.6136 70.8258 29.2678 71.6529L30.4088 69.371C29.371 68.8521 28.708 68.0738 28.3635 66.9755L25.9293 67.7392ZM29.2747 71.6563C30.9223 72.4678 31.3808 73.3216 31.3808 74.1292H33.932C33.932 71.9645 32.5117 70.4068 30.4019 69.3676L29.2747 71.6563ZM31.3808 74.1292C31.3808 74.8605 31.1892 75.448 30.8337 75.9438C30.4691 76.4522 29.879 76.937 28.9746 77.3574C27.1332 78.2134 24.2136 78.7001 20.0801 78.7001V81.2514C24.3308 81.2514 27.6993 80.7636 30.0501 79.6708C31.2417 79.1169 32.2236 78.3835 32.907 77.4304C33.5996 76.4645 33.932 75.3468 33.932 74.1292H31.3808ZM20.0801 78.7001C16.3773 78.7001 13.6469 78.2158 11.7866 77.3477L10.7078 79.6595C13.0536 80.7542 16.2118 81.2514 20.0801 81.2514V78.7001ZM11.8052 77.3565C10.0293 76.4926 9.41026 75.4516 9.41026 74.2554H6.85905C6.85905 76.7046 8.31504 78.4957 10.6892 79.6507L11.8052 77.3565ZM9.41026 74.2554C9.41026 73.4449 9.58217 73.0742 9.70819 72.9212L7.73883 71.2994C7.07971 72.0997 6.85905 73.1591 6.85905 74.2554H9.41026ZM9.70819 72.9212C9.94041 72.6392 10.6362 72.094 12.0231 71.2732L10.7237 69.0777C9.36258 69.8833 8.29175 70.628 7.73883 71.2994L9.70819 72.9212ZM12.0262 71.2713C13.7733 70.2306 14.7177 68.4347 15.034 66.1893L12.5077 65.8335C12.2632 67.5698 11.6093 68.5501 10.7205 69.0796L12.0262 71.2713ZM15.0355 66.1781C15.5232 62.4772 15.7615 57.2096 15.7615 50.4066H13.2103C13.2103 57.1755 12.9719 62.311 12.5062 65.8447L15.0355 66.1781ZM15.7615 50.4066C15.7615 43.1568 15.3432 37.75 14.4603 34.2773L11.9878 34.9059C12.7874 38.0509 13.2103 43.1874 13.2103 50.4066H15.7615ZM14.4599 34.2755C14.1316 32.9922 13.6811 31.8917 13.0378 31.0971L11.0549 32.7023C11.365 33.0854 11.6996 33.7795 11.9883 34.9077L14.4599 34.2755ZM13.0378 31.0971C12.3938 30.3015 11.4208 29.641 10.2496 29.0705L9.13225 31.364C10.1482 31.8589 10.7455 32.3201 11.0549 32.7023L13.0378 31.0971ZM10.2512 29.0712C9.03931 28.4788 8.34361 27.9681 8.00957 27.5784L6.07255 29.2387C6.74798 30.0267 7.81885 30.7219 9.13066 31.3632L10.2512 29.0712ZM8.03252 27.606C7.76012 27.2695 7.60162 26.8468 7.60162 26.2635H5.05041C5.05041 27.3626 5.3686 28.37 6.0496 29.2112L8.03252 27.606ZM7.60162 26.2635C7.60162 25.3541 7.96121 24.6272 8.81539 24.0008C9.73264 23.3282 11.2334 22.7722 13.4572 22.4352L13.075 19.9128C10.6721 20.2769 8.70282 20.9197 7.3067 21.9435C5.84751 23.0136 5.05041 24.4809 5.05041 26.2635H7.60162ZM13.4465 22.4368C14.917 22.2268 17.5825 22.1131 21.5101 22.1131V19.5619C17.5864 19.5619 14.7559 19.6727 13.0857 19.9113L13.4465 22.4368ZM21.5101 22.1131C23.7309 22.1131 25.1679 22.2995 25.956 22.5841L26.8225 20.1846C25.5917 19.7401 23.776 19.5619 21.5101 19.5619V22.1131ZM25.9957 22.5977C26.7898 22.8553 27.8545 23.5082 29.2059 24.6974L30.8913 22.7822C29.4386 21.5038 28.0638 20.5864 26.7828 20.171L25.9957 22.5977Z" fill="#1E1E1E" mask="url(#path-3-outside-2_47_8119)"/>
</svg>
