<svg width="78" height="107" viewBox="0 0 78 107" fill="none" xmlns="http://www.w3.org/2000/svg">
<mask id="path-1-outside-1_47_8092" maskUnits="userSpaceOnUse" x="0.753906" y="27.3866" width="71" height="61" fill="black">
<rect fill="white" x="0.753906" y="27.3866" width="71" height="61"/>
<path d="M25.5701 30.9919L46.5166 49.3306C48.4795 51.0411 49.8955 51.8963 50.7648 51.8963C52.2229 51.8963 52.952 50.3401 52.952 47.2275C52.952 43.6944 52.7417 41.2829 52.3211 39.993C51.9005 38.7031 51.0172 37.7357 49.6712 37.0907C48.5776 36.558 47.8065 35.9971 47.3578 35.4083C46.9092 34.7914 46.6849 34.0062 46.6849 33.0529C46.6849 30.6974 48.2972 29.1832 51.5219 28.5102C52.8398 28.2298 55.1392 28.0896 58.42 28.0896C62.6541 28.0896 65.5844 28.342 67.2108 28.8467C69.7905 29.6319 71.0804 31.118 71.0804 33.3052C71.0804 35.1279 70.0289 36.5019 67.9258 37.4272C67.0846 37.7918 66.5098 38.1142 66.2013 38.3946C65.8929 38.6751 65.6265 39.0957 65.4021 39.6565C64.645 41.5072 64.2525 45.0123 64.2244 50.1718V63.8838C64.2244 65.9869 64.2384 68.8611 64.2665 72.5064C64.2945 77.4416 64.0001 81.0027 63.3832 83.1899C62.6261 85.9099 61.2521 87.2699 59.2612 87.2699C58.3919 87.2699 57.6348 87.0876 56.9899 86.7231C56.373 86.3586 55.3355 85.5173 53.8773 84.1994L28.935 61.8649C27.1964 60.2946 25.7523 59.5094 24.6027 59.5094C22.8922 59.5094 22.0369 61.8789 22.0369 66.6178C22.0369 70.5155 22.2472 73.1793 22.6678 74.6094C23.1165 76.0395 24.0138 77.091 25.3598 77.764C27.2385 78.6894 28.1779 79.8951 28.1779 81.3813C28.1779 85.279 23.9858 87.2278 15.6015 87.2278C11.816 87.2278 8.87174 86.7371 6.76867 85.7557C4.69365 84.7462 3.65614 83.3301 3.65614 81.5075C3.65614 80.5541 3.85242 79.8391 4.245 79.3624C4.63757 78.8857 5.52085 78.2407 6.89486 77.4275C8.21278 76.6424 9.01194 75.2544 9.29235 73.2635C9.76905 69.6462 10.0074 64.4446 10.0074 57.6587C10.0074 50.4242 9.58678 45.1525 8.74556 41.8437C8.43711 40.6379 8.04453 39.7406 7.56784 39.1517C7.09114 38.5629 6.306 38.0021 5.21241 37.4693C3.95057 36.8524 3.06728 36.2495 2.56254 35.6607C2.08585 35.0718 1.8475 34.3568 1.8475 33.5155C1.8475 30.8236 4.16087 29.1271 8.78762 28.4261C10.3579 28.2018 13.1059 28.0896 17.0316 28.0896C19.2749 28.0896 20.9013 28.2719 21.9107 28.6364C22.9483 28.9729 24.168 29.7581 25.5701 30.9919Z"/>
</mask>
<path d="M25.5701 30.9919L46.5166 49.3306C48.4795 51.0411 49.8955 51.8963 50.7648 51.8963C52.2229 51.8963 52.952 50.3401 52.952 47.2275C52.952 43.6944 52.7417 41.2829 52.3211 39.993C51.9005 38.7031 51.0172 37.7357 49.6712 37.0907C48.5776 36.558 47.8065 35.9971 47.3578 35.4083C46.9092 34.7914 46.6849 34.0062 46.6849 33.0529C46.6849 30.6974 48.2972 29.1832 51.5219 28.5102C52.8398 28.2298 55.1392 28.0896 58.42 28.0896C62.6541 28.0896 65.5844 28.342 67.2108 28.8467C69.7905 29.6319 71.0804 31.118 71.0804 33.3052C71.0804 35.1279 70.0289 36.5019 67.9258 37.4272C67.0846 37.7918 66.5098 38.1142 66.2013 38.3946C65.8929 38.6751 65.6265 39.0957 65.4021 39.6565C64.645 41.5072 64.2525 45.0123 64.2244 50.1718V63.8838C64.2244 65.9869 64.2384 68.8611 64.2665 72.5064C64.2945 77.4416 64.0001 81.0027 63.3832 83.1899C62.6261 85.9099 61.2521 87.2699 59.2612 87.2699C58.3919 87.2699 57.6348 87.0876 56.9899 86.7231C56.373 86.3586 55.3355 85.5173 53.8773 84.1994L28.935 61.8649C27.1964 60.2946 25.7523 59.5094 24.6027 59.5094C22.8922 59.5094 22.0369 61.8789 22.0369 66.6178C22.0369 70.5155 22.2472 73.1793 22.6678 74.6094C23.1165 76.0395 24.0138 77.091 25.3598 77.764C27.2385 78.6894 28.1779 79.8951 28.1779 81.3813C28.1779 85.279 23.9858 87.2278 15.6015 87.2278C11.816 87.2278 8.87174 86.7371 6.76867 85.7557C4.69365 84.7462 3.65614 83.3301 3.65614 81.5075C3.65614 80.5541 3.85242 79.8391 4.245 79.3624C4.63757 78.8857 5.52085 78.2407 6.89486 77.4275C8.21278 76.6424 9.01194 75.2544 9.29235 73.2635C9.76905 69.6462 10.0074 64.4446 10.0074 57.6587C10.0074 50.4242 9.58678 45.1525 8.74556 41.8437C8.43711 40.6379 8.04453 39.7406 7.56784 39.1517C7.09114 38.5629 6.306 38.0021 5.21241 37.4693C3.95057 36.8524 3.06728 36.2495 2.56254 35.6607C2.08585 35.0718 1.8475 34.3568 1.8475 33.5155C1.8475 30.8236 4.16087 29.1271 8.78762 28.4261C10.3579 28.2018 13.1059 28.0896 17.0316 28.0896C19.2749 28.0896 20.9013 28.2719 21.9107 28.6364C22.9483 28.9729 24.168 29.7581 25.5701 30.9919Z" fill="#1E1E1E"/>
<path d="M25.5701 30.9919L25.4563 31.1212L25.4566 31.1215L25.5701 30.9919ZM46.5166 49.3306L46.4031 49.4602L46.4034 49.4605L46.5166 49.3306ZM49.6712 37.0907L49.5958 37.2456L49.5968 37.2461L49.6712 37.0907ZM47.3578 35.4083L47.2185 35.5096L47.2208 35.5127L47.3578 35.4083ZM51.5219 28.5102L51.5571 28.6789L51.5578 28.6787L51.5219 28.5102ZM67.2108 28.8467L67.1597 29.0113L67.1606 29.0115L67.2108 28.8467ZM67.9258 37.4272L67.9943 37.5853L67.9952 37.5849L67.9258 37.4272ZM65.4021 39.6565L65.5616 39.7217L65.5621 39.7205L65.4021 39.6565ZM64.2244 50.1718L64.0521 50.1709V50.1718H64.2244ZM64.2665 72.5064L64.4388 72.5054L64.4388 72.505L64.2665 72.5064ZM63.3832 83.1899L63.2174 83.1432L63.2172 83.1437L63.3832 83.1899ZM56.9899 86.7231L56.9022 86.8714L56.9051 86.8731L56.9899 86.7231ZM53.8773 84.1994L53.9929 84.0716L53.9923 84.0711L53.8773 84.1994ZM28.935 61.8649L28.8195 61.9927L28.8201 61.9932L28.935 61.8649ZM22.6678 74.6094L22.5025 74.6581L22.5035 74.661L22.6678 74.6094ZM25.3598 77.764L25.2827 77.9181L25.2836 77.9186L25.3598 77.764ZM6.76867 85.7557L6.6933 85.9106L6.69582 85.9118L6.76867 85.7557ZM6.89486 77.4275L6.98261 77.5758L6.98303 77.5755L6.89486 77.4275ZM9.29235 73.2635L9.46296 73.2875L9.46316 73.286L9.29235 73.2635ZM8.74556 41.8437L8.91253 41.8012L8.91246 41.801L8.74556 41.8437ZM5.21241 37.4693L5.13674 37.6241L5.13695 37.6242L5.21241 37.4693ZM2.56254 35.6607L2.42858 35.7691L2.43174 35.7728L2.56254 35.6607ZM8.78762 28.4261L8.76325 28.2556L8.76181 28.2558L8.78762 28.4261ZM21.9107 28.6364L21.8522 28.7985L21.8576 28.8003L21.9107 28.6364ZM25.4566 31.1215L46.4031 49.4602L46.6301 49.201L25.6836 30.8622L25.4566 31.1215ZM46.4034 49.4605C47.3886 50.319 48.2418 50.9675 48.9617 51.4024C49.6763 51.8339 50.2814 52.0686 50.7648 52.0686V51.724C50.379 51.724 49.8414 51.5311 49.1399 51.1074C48.4438 50.687 47.6075 50.0527 46.6298 49.2007L46.4034 49.4605ZM50.7648 52.0686C51.1619 52.0686 51.5165 51.962 51.8216 51.7449C52.125 51.529 52.3698 51.2108 52.5612 50.8022C52.9419 49.9895 53.1243 48.7918 53.1243 47.2275H52.7797C52.7797 48.7758 52.5975 49.9125 52.2492 50.656C52.0761 51.0256 51.8651 51.291 51.6218 51.4641C51.3801 51.6361 51.0968 51.724 50.7648 51.724V52.0686ZM53.1243 47.2275C53.1243 43.6963 52.9151 41.2588 52.4849 39.9396L52.1573 40.0464C52.5683 41.3069 52.7797 43.6924 52.7797 47.2275H53.1243ZM52.4849 39.9396C52.0481 38.6002 51.1294 37.5984 49.7457 36.9354L49.5968 37.2461C50.905 37.873 51.7528 38.806 52.1573 40.0464L52.4849 39.9396ZM49.7467 36.9359C48.6635 36.4082 47.92 35.8618 47.4949 35.3039L47.2208 35.5127C47.693 36.1325 48.4917 36.7078 49.5958 37.2456L49.7467 36.9359ZM47.4972 35.307C47.0748 34.7262 46.8571 33.979 46.8571 33.0529H46.5126C46.5126 34.0335 46.7436 34.8566 47.2185 35.5096L47.4972 35.307ZM46.8571 33.0529C46.8571 31.9193 47.243 30.9985 48.0121 30.2762C48.7865 29.5489 49.9616 29.0119 51.5571 28.6789L51.4867 28.3416C49.8575 28.6816 48.6141 29.2381 47.7762 30.025C46.9329 30.817 46.5126 31.831 46.5126 33.0529H46.8571ZM51.5578 28.6787C52.856 28.4025 55.139 28.2619 58.42 28.2619V27.9173C55.1394 27.9173 52.8236 28.0571 51.4861 28.3417L51.5578 28.6787ZM58.42 28.2619C62.655 28.2619 65.5611 28.5152 67.1597 29.0113L67.2618 28.6822C65.6077 28.1688 62.6533 27.9173 58.42 27.9173V28.2619ZM67.1606 29.0115C68.4306 29.3981 69.3657 29.952 69.9829 30.6631C70.5976 31.3713 70.9081 32.2482 70.9081 33.3052H71.2527C71.2527 32.1751 70.9183 31.2153 70.2431 30.4373C69.5704 29.6622 68.5707 29.0805 67.2609 28.6819L67.1606 29.0115ZM70.9081 33.3052C70.9081 34.1809 70.6564 34.9427 70.155 35.598C69.6517 36.2556 68.8898 36.8149 67.8564 37.2695L67.9952 37.5849C69.0649 37.1143 69.8803 36.5238 70.4286 35.8074C70.9786 35.0887 71.2527 34.2522 71.2527 33.3052H70.9081ZM67.8573 37.2692C67.0145 37.6344 66.4166 37.9661 66.0854 38.2672L66.3172 38.5221C66.6029 38.2624 67.1547 37.9491 67.9943 37.5853L67.8573 37.2692ZM66.0854 38.2672C65.751 38.5712 65.4722 39.0175 65.2422 39.5925L65.5621 39.7205C65.7808 39.1738 66.0347 38.7789 66.3172 38.5221L66.0854 38.2672ZM65.2427 39.5912C64.4713 41.4768 64.0802 45.0136 64.0521 50.1709L64.3967 50.1727C64.4248 45.0109 64.8187 41.5376 65.5616 39.7217L65.2427 39.5912ZM64.0521 50.1718V63.8838H64.3967V50.1718H64.0521ZM64.0521 63.8838C64.0521 65.9875 64.0662 68.8622 64.0942 72.5077L64.4388 72.505C64.4107 68.8599 64.3967 65.9862 64.3967 63.8838H64.0521ZM64.0942 72.5073C64.1222 77.4407 63.8272 80.981 63.2174 83.1432L63.549 83.2367C64.173 81.0245 64.4668 77.4424 64.4388 72.5054L64.0942 72.5073ZM63.2172 83.1437C62.8433 84.4873 62.3218 85.4761 61.6637 86.1275C61.01 86.7745 60.2128 87.0976 59.2612 87.0976V87.4422C60.3005 87.4422 61.1857 87.0853 61.9061 86.3723C62.622 85.6637 63.166 84.6126 63.5492 83.2361L63.2172 83.1437ZM59.2612 87.0976C58.4164 87.0976 57.6896 86.9207 57.0747 86.5731L56.9051 86.8731C57.5801 87.2546 58.3674 87.4422 59.2612 87.4422V87.0976ZM57.0775 86.5748C56.4777 86.2203 55.4523 85.3907 53.9929 84.0716L53.7618 84.3272C55.2186 85.6439 56.2682 86.4968 56.9022 86.8714L57.0775 86.5748ZM53.9923 84.0711L29.0499 61.7365L28.8201 61.9932L53.7624 84.3278L53.9923 84.0711ZM29.0505 61.737C27.3081 60.1633 25.8216 59.3371 24.6027 59.3371V59.6817C25.6831 59.6817 27.0848 60.4259 28.8195 61.9927L29.0505 61.737ZM24.6027 59.3371C24.1307 59.3371 23.7151 59.5022 23.3633 59.8271C23.0153 60.1485 22.7356 60.6204 22.5163 61.228C22.0783 62.4414 21.8646 64.2427 21.8646 66.6178H22.2092C22.2092 64.2539 22.4231 62.501 22.8404 61.345C23.0487 60.7679 23.3036 60.3513 23.597 60.0803C23.8867 59.8128 24.2194 59.6817 24.6027 59.6817V59.3371ZM21.8646 66.6178C21.8646 70.5137 22.074 73.2011 22.5026 74.658L22.8331 74.5608C22.4204 73.1576 22.2092 70.5172 22.2092 66.6178H21.8646ZM22.5035 74.661C22.9662 76.1359 23.8951 77.2243 25.2827 77.9181L25.4368 77.6099C24.1325 76.9578 23.2668 75.9431 22.8322 74.5579L22.5035 74.661ZM25.2836 77.9186C27.1312 78.8286 28.0056 79.9868 28.0056 81.3813H28.3502C28.3502 79.8035 27.3458 78.5502 25.4359 77.6095L25.2836 77.9186ZM28.0056 81.3813C28.0056 82.3229 27.7531 83.1397 27.2518 83.8388C26.7494 84.5395 25.9898 85.1318 24.9612 85.61C22.8995 86.5684 19.7857 87.0555 15.6015 87.0555V87.4001C19.8016 87.4001 22.976 86.9128 25.1064 85.9224C26.1739 85.4262 26.9863 84.8004 27.5319 84.0395C28.0786 83.277 28.3502 82.3886 28.3502 81.3813H28.0056ZM15.6015 87.0555C11.8272 87.0555 8.91181 86.5657 6.84153 85.5996L6.69582 85.9118C8.83167 86.9085 11.8049 87.4001 15.6015 87.4001V87.0555ZM6.84404 85.6008C4.80941 84.6109 3.82842 83.2455 3.82842 81.5075H3.48385C3.48385 83.4148 4.57789 84.8815 6.69331 85.9106L6.84404 85.6008ZM3.82842 81.5075C3.82842 80.5734 4.02141 79.9049 4.37799 79.4719L4.112 79.2528C3.68343 79.7732 3.48385 80.5348 3.48385 81.5075H3.82842ZM4.37799 79.4719C4.7489 79.0215 5.60686 78.39 6.9826 77.5758L6.80711 77.2793C5.43485 78.0914 4.52623 78.7498 4.112 79.2528L4.37799 79.4719ZM6.98303 77.5755C8.35891 76.7559 9.1777 75.3128 9.46295 73.2875L9.12175 73.2394C8.84619 75.196 8.06665 76.5289 6.80668 77.2795L6.98303 77.5755ZM9.46316 73.286C9.94134 69.6574 10.1797 64.4469 10.1797 57.6587H9.83511C9.83511 64.4423 9.59675 69.635 9.12155 73.241L9.46316 73.286ZM10.1797 57.6587C10.1797 50.4221 9.75938 45.1322 8.91253 41.8012L8.57858 41.8861C9.41418 45.1728 9.83511 50.4262 9.83511 57.6587H10.1797ZM8.91246 41.801C8.60134 40.5847 8.20093 39.66 7.70174 39.0433L7.43393 39.2601C7.88813 39.8212 8.27288 40.6911 8.57865 41.8864L8.91246 41.801ZM7.70174 39.0433C7.20246 38.4266 6.39193 37.8523 5.28786 37.3144L5.13695 37.6242C6.22006 38.1518 6.97983 38.6992 7.43393 39.2601L7.70174 39.0433ZM5.28807 37.3145C4.03298 36.7009 3.17503 36.1105 2.69335 35.5485L2.43174 35.7728C2.95953 36.3885 3.86815 37.0039 5.13674 37.6241L5.28807 37.3145ZM2.69645 35.5523C2.24735 34.9975 2.01978 34.3219 2.01978 33.5155H1.67522C1.67522 34.3916 1.92435 35.1461 2.42864 35.7691L2.69645 35.5523ZM2.01978 33.5155C2.01978 32.2285 2.56858 31.1814 3.68441 30.3632C4.80876 29.5386 6.51215 28.9451 8.81343 28.5965L8.76181 28.2558C6.43634 28.6081 4.66967 29.2134 3.48065 30.0853C2.28311 30.9635 1.67522 32.1106 1.67522 33.5155H2.01978ZM8.81198 28.5967C10.3688 28.3743 13.1056 28.2619 17.0316 28.2619V27.9173C13.1062 27.9173 10.347 28.0293 8.76325 28.2556L8.81198 28.5967ZM17.0316 28.2619C19.2719 28.2619 20.8727 28.4447 21.8522 28.7985L21.9693 28.4744C20.9299 28.099 19.2779 27.9173 17.0316 27.9173V28.2619ZM21.8576 28.8003C22.8622 29.1261 24.0611 29.8934 25.4563 31.1212L25.6839 30.8625C24.275 29.6227 23.0343 28.8197 21.9639 28.4725L21.8576 28.8003Z" fill="#FDE0E3" mask="url(#path-1-outside-1_47_8092)"/>
<mask id="path-3-outside-2_47_8092" maskUnits="userSpaceOnUse" x="4.92383" y="19.4952" width="73" height="63" fill="black">
<rect fill="white" x="4.92383" y="19.4952" width="73" height="63"/>
<path d="M30.74 24.1005L51.6865 42.4392C53.6494 44.1497 55.0655 45.005 55.9347 45.005C57.3929 45.005 58.1219 43.4487 58.1219 40.3362C58.1219 36.803 57.9116 34.3915 57.491 33.1016C57.0704 31.8117 56.1871 30.8443 54.8411 30.1994C53.7475 29.6666 52.9764 29.1058 52.5278 28.5169C52.0791 27.9 51.8548 27.1149 51.8548 26.1615C51.8548 23.8061 53.4671 22.2919 56.6918 21.6189C58.0098 21.3385 60.3091 21.1983 63.5899 21.1983C67.8241 21.1983 70.7543 21.4506 72.3807 21.9554C74.9605 22.7405 76.2503 24.2267 76.2503 26.4139C76.2503 28.2365 75.1988 29.6105 73.0957 30.5359C72.2545 30.9004 71.6797 31.2229 71.3712 31.5033C71.0628 31.7837 70.7964 32.2043 70.5721 32.7651C69.815 34.6158 69.4224 38.1209 69.3943 43.2805V56.9924C69.3943 59.0955 69.4084 61.9697 69.4364 65.615C69.4644 70.5502 69.17 74.1114 68.5531 76.2986C67.796 79.0185 66.422 80.3785 64.4311 80.3785C63.5618 80.3785 62.8047 80.1963 62.1598 79.8317C61.5429 79.4672 60.5054 78.626 59.0473 77.3081L34.1049 54.9735C32.3664 53.4032 30.9223 52.6181 29.7726 52.6181C28.0621 52.6181 27.2069 54.9875 27.2069 59.7264C27.2069 63.6241 27.4172 66.288 27.8378 67.7181C28.2864 69.1482 29.1837 70.1997 30.5297 70.8727C32.4084 71.798 33.3478 73.0038 33.3478 74.4899C33.3478 78.3876 29.1557 80.3365 20.7715 80.3365C16.986 80.3365 14.0417 79.8458 11.9386 78.8643C9.86357 77.8548 8.82606 76.4388 8.82606 74.6161C8.82606 73.6627 9.02234 72.9477 9.41492 72.471C9.80749 71.9943 10.6908 71.3494 12.0648 70.5362C13.3827 69.751 14.1819 68.363 14.4623 66.3721C14.939 62.7548 15.1773 57.5533 15.1773 50.7674C15.1773 43.5328 14.7567 38.2611 13.9155 34.9523C13.607 33.7466 13.2145 32.8492 12.7378 32.2604C12.2611 31.6715 11.4759 31.1107 10.3823 30.5779C9.12049 29.961 8.2372 29.3582 7.73246 28.7693C7.25577 28.1804 7.01742 27.4654 7.01742 26.6242C7.01742 23.9322 9.33079 22.2358 13.9575 21.5348C15.5278 21.3104 18.2758 21.1983 22.2016 21.1983C24.4448 21.1983 26.0712 21.3805 27.0807 21.7451C28.1182 22.0816 29.338 22.8667 30.74 24.1005Z"/>
</mask>
<path d="M30.74 24.1005L51.6865 42.4392C53.6494 44.1497 55.0655 45.005 55.9347 45.005C57.3929 45.005 58.1219 43.4487 58.1219 40.3362C58.1219 36.803 57.9116 34.3915 57.491 33.1016C57.0704 31.8117 56.1871 30.8443 54.8411 30.1994C53.7475 29.6666 52.9764 29.1058 52.5278 28.5169C52.0791 27.9 51.8548 27.1149 51.8548 26.1615C51.8548 23.8061 53.4671 22.2919 56.6918 21.6189C58.0098 21.3385 60.3091 21.1983 63.5899 21.1983C67.8241 21.1983 70.7543 21.4506 72.3807 21.9554C74.9605 22.7405 76.2503 24.2267 76.2503 26.4139C76.2503 28.2365 75.1988 29.6105 73.0957 30.5359C72.2545 30.9004 71.6797 31.2229 71.3712 31.5033C71.0628 31.7837 70.7964 32.2043 70.5721 32.7651C69.815 34.6158 69.4224 38.1209 69.3943 43.2805V56.9924C69.3943 59.0955 69.4084 61.9697 69.4364 65.615C69.4644 70.5502 69.17 74.1114 68.5531 76.2986C67.796 79.0185 66.422 80.3785 64.4311 80.3785C63.5618 80.3785 62.8047 80.1963 62.1598 79.8317C61.5429 79.4672 60.5054 78.626 59.0473 77.3081L34.1049 54.9735C32.3664 53.4032 30.9223 52.6181 29.7726 52.6181C28.0621 52.6181 27.2069 54.9875 27.2069 59.7264C27.2069 63.6241 27.4172 66.288 27.8378 67.7181C28.2864 69.1482 29.1837 70.1997 30.5297 70.8727C32.4084 71.798 33.3478 73.0038 33.3478 74.4899C33.3478 78.3876 29.1557 80.3365 20.7715 80.3365C16.986 80.3365 14.0417 79.8458 11.9386 78.8643C9.86357 77.8548 8.82606 76.4388 8.82606 74.6161C8.82606 73.6627 9.02234 72.9477 9.41492 72.471C9.80749 71.9943 10.6908 71.3494 12.0648 70.5362C13.3827 69.751 14.1819 68.363 14.4623 66.3721C14.939 62.7548 15.1773 57.5533 15.1773 50.7674C15.1773 43.5328 14.7567 38.2611 13.9155 34.9523C13.607 33.7466 13.2145 32.8492 12.7378 32.2604C12.2611 31.6715 11.4759 31.1107 10.3823 30.5779C9.12049 29.961 8.2372 29.3582 7.73246 28.7693C7.25577 28.1804 7.01742 27.4654 7.01742 26.6242C7.01742 23.9322 9.33079 22.2358 13.9575 21.5348C15.5278 21.3104 18.2758 21.1983 22.2016 21.1983C24.4448 21.1983 26.0712 21.3805 27.0807 21.7451C28.1182 22.0816 29.338 22.8667 30.74 24.1005Z" fill="#FDE0E3"/>
<path d="M30.74 24.1005L29.8973 25.0581L29.8997 25.0602L30.74 24.1005ZM51.6865 42.4392L50.8463 43.399L50.8485 43.4009L51.6865 42.4392ZM54.8411 30.1994L54.2824 31.3462L54.2899 31.3497L54.8411 30.1994ZM52.5278 28.5169L51.4961 29.2672L51.5045 29.2787L51.5131 29.29L52.5278 28.5169ZM56.6918 21.6189L56.9524 22.8676L56.9573 22.8666L56.6918 21.6189ZM72.3807 21.9554L72.0026 23.1737L72.0093 23.1757L72.3807 21.9554ZM73.0957 30.5359L73.6029 31.7063L73.6095 31.7035L73.0957 30.5359ZM70.5721 32.7651L71.7527 33.2481L71.7564 33.2389L70.5721 32.7651ZM69.3943 43.2805L68.1187 43.2735V43.2805H69.3943ZM69.4364 65.615L70.712 65.6078L70.712 65.6052L69.4364 65.615ZM68.5531 76.2986L67.3254 75.9523L67.3242 75.9565L68.5531 76.2986ZM62.1598 79.8317L61.5109 80.9299L61.5214 80.9362L61.5321 80.9422L62.1598 79.8317ZM59.0473 77.3081L59.9026 76.3617L59.8982 76.3578L59.0473 77.3081ZM34.1049 54.9735L33.2499 55.9201L33.254 55.9238L34.1049 54.9735ZM27.8378 67.7181L26.614 68.078L26.6172 68.089L26.6207 68.0999L27.8378 67.7181ZM30.5297 70.8727L29.9592 72.0136L29.9661 72.017L30.5297 70.8727ZM11.9386 78.8643L11.3806 80.0114L11.3898 80.0159L11.3992 80.0203L11.9386 78.8643ZM12.0648 70.5362L12.7145 71.6339L12.7176 71.6321L12.0648 70.5362ZM14.4623 66.3721L15.7255 66.55L15.7269 66.5388L14.4623 66.3721ZM13.9155 34.9523L15.1518 34.638L15.1513 34.6362L13.9155 34.9523ZM10.3823 30.5779L9.82207 31.7239L9.82365 31.7247L10.3823 30.5779ZM7.73246 28.7693L6.74101 29.5719L6.75229 29.5858L6.76395 29.5995L7.73246 28.7693ZM13.9575 21.5348L13.7771 20.2719L13.7664 20.2735L13.9575 21.5348ZM27.0807 21.7451L26.6474 22.9448L26.6672 22.952L26.6871 22.9584L27.0807 21.7451ZM29.8997 25.0602L50.8463 43.399L52.5268 41.4795L31.5803 23.1407L29.8997 25.0602ZM50.8485 43.4009C51.8578 44.2805 52.7649 44.9745 53.5613 45.4554C54.3175 45.9122 55.1389 46.2806 55.9347 46.2806V43.7294C55.8613 43.7294 55.54 43.6701 54.8802 43.2716C54.2605 42.8974 53.4781 42.3085 52.5246 41.4775L50.8485 43.4009ZM55.9347 46.2806C56.5402 46.2806 57.1229 46.1141 57.6312 45.7525C58.1272 45.3996 58.4803 44.9125 58.7302 44.3789C59.2147 43.3448 59.3975 41.9517 59.3975 40.3362H56.8463C56.8463 41.8332 56.6646 42.7744 56.42 43.2966C56.3054 43.5412 56.2029 43.6377 56.1521 43.6738C56.1135 43.7013 56.0583 43.7294 55.9347 43.7294V46.2806ZM59.3975 40.3362C59.3975 36.8172 59.1953 34.2136 58.7037 32.7062L56.2782 33.4971C56.6279 34.5694 56.8463 36.7888 56.8463 40.3362H59.3975ZM58.7037 32.7062C58.1636 31.0498 57.0179 29.8279 55.3923 29.049L54.2899 31.3497C55.3563 31.8607 55.9771 32.5737 56.2782 33.4971L58.7037 32.7062ZM55.3998 29.0526C54.3836 28.5576 53.8166 28.1038 53.5424 27.7439L51.5131 29.29C52.1362 30.1078 53.1115 30.7757 54.2825 31.3461L55.3998 29.0526ZM53.5594 27.7667C53.3052 27.4171 53.1304 26.9134 53.1304 26.1615H50.5792C50.5792 27.3163 50.8531 28.383 51.4961 29.2672L53.5594 27.7667ZM53.1304 26.1615C53.1304 25.3104 53.4059 24.6881 53.9373 24.1891C54.5084 23.6528 55.4649 23.178 56.9524 22.8676L56.4312 20.3702C54.6941 20.7327 53.2321 21.3515 52.1908 22.3294C51.1098 23.3446 50.5792 24.6572 50.5792 26.1615H53.1304ZM56.9573 22.8666C58.1298 22.6171 60.3076 22.4739 63.5899 22.4739V19.9227C60.3106 19.9227 57.8897 20.0599 56.4264 20.3712L56.9573 22.8666ZM63.5899 22.4739C67.8305 22.4739 70.5821 22.7328 72.0026 23.1737L72.7588 20.7371C70.9266 20.1685 67.8177 19.9227 63.5899 19.9227V22.4739ZM72.0093 23.1757C73.1517 23.5234 73.8799 23.9884 74.3196 24.495C74.7403 24.9797 74.9747 25.5908 74.9747 26.4139H77.5259C77.5259 25.0498 77.1154 23.8241 76.2463 22.8227C75.396 21.8431 74.1895 21.1725 72.7521 20.735L72.0093 23.1757ZM74.9747 26.4139C74.9747 27.061 74.7946 27.5841 74.4487 28.0361C74.0895 28.5054 73.499 28.9648 72.582 29.3683L73.6095 31.7035C74.7956 31.1816 75.7823 30.4913 76.4747 29.5866C77.1803 28.6646 77.5259 27.5894 77.5259 26.4139H74.9747ZM72.5886 29.3654C71.7353 29.7352 70.9897 30.1262 70.5132 30.5594L72.2293 32.4472C72.3696 32.3196 72.7737 32.0656 73.6029 31.7063L72.5886 29.3654ZM70.5132 30.5594C70.0123 31.0148 69.6539 31.6257 69.3877 32.2914L71.7564 33.2389C71.9388 32.7829 72.1133 32.5526 72.2293 32.4472L70.5132 30.5594ZM69.3914 32.2821C68.5289 34.3905 68.1467 38.1309 68.1188 43.2735L70.6699 43.2874C70.6981 38.111 71.101 34.8411 71.7527 33.2481L69.3914 32.2821ZM68.1187 43.2805V56.9924H70.6699V43.2805H68.1187ZM68.1187 56.9924C68.1187 59.1003 68.1328 61.9782 68.1608 65.6248L70.712 65.6052C70.6839 61.9612 70.6699 59.0907 70.6699 56.9924H68.1187ZM68.1608 65.6223C68.1888 70.544 67.8901 73.9504 67.3254 75.9523L69.7808 76.6449C70.45 74.2724 70.7401 70.5564 70.712 65.6078L68.1608 65.6223ZM67.3242 75.9565C66.9796 77.1947 66.5304 77.9838 66.0574 78.4519C65.6171 78.8878 65.1017 79.1029 64.4311 79.1029V81.6541C65.7514 81.6541 66.9185 81.1893 67.8521 80.2651C68.7531 79.3733 69.3695 78.1224 69.782 76.6406L67.3242 75.9565ZM64.4311 79.1029C63.7434 79.1029 63.2101 78.9601 62.7875 78.7212L61.5321 80.9422C62.3994 81.4324 63.3803 81.6541 64.4311 81.6541V79.1029ZM62.8087 78.7335C62.3186 78.4439 61.3706 77.6886 59.9026 76.3617L58.1919 78.2544C59.6402 79.5634 60.7672 80.4905 61.5109 80.9299L62.8087 78.7335ZM59.8982 76.3578L34.9558 54.0232L33.254 55.9238L58.1963 78.2583L59.8982 76.3578ZM34.9599 54.0269C33.1932 52.4311 31.4353 51.3425 29.7726 51.3425V53.8937C30.4093 53.8937 31.5396 54.3753 33.2499 55.9201L34.9599 54.0269ZM29.7726 51.3425C29.0168 51.3425 28.3356 51.6164 27.7847 52.1252C27.262 52.6079 26.9031 53.2567 26.6484 53.9621C26.1442 55.3592 25.9312 57.3157 25.9312 59.7264H28.4825C28.4825 57.3983 28.6972 55.8006 29.0481 54.8282C29.2211 54.3489 29.3967 54.1091 29.5155 53.9995C29.606 53.9159 29.6731 53.8937 29.7726 53.8937V51.3425ZM25.9312 59.7264C25.9312 63.611 26.1348 66.4488 26.614 68.078L29.0615 67.3581C28.6995 66.1272 28.4825 63.6372 28.4825 59.7264H25.9312ZM26.6207 68.0999C27.1734 69.8618 28.3051 71.1865 29.9592 72.0136L31.1002 69.7317C30.0624 69.2129 29.3994 68.4345 29.0549 67.3362L26.6207 68.0999ZM29.9661 72.017C31.6137 72.8285 32.0722 73.6824 32.0722 74.4899H34.6234C34.6234 72.3252 33.2031 70.7675 31.0933 69.7283L29.9661 72.017ZM32.0722 74.4899C32.0722 75.2212 31.8806 75.8087 31.5251 76.3045C31.1605 76.813 30.5704 77.2977 29.666 77.7181C27.8246 78.5741 24.905 79.0609 20.7715 79.0609V81.6121C25.0222 81.6121 28.3907 81.1244 30.7415 80.0316C31.9331 79.4776 32.915 78.7443 33.5984 77.7911C34.291 76.8252 34.6234 75.7075 34.6234 74.4899H32.0722ZM20.7715 79.0609C17.0687 79.0609 14.3383 78.5765 12.478 77.7084L11.3992 80.0203C13.745 81.115 16.9032 81.6121 20.7715 81.6121V79.0609ZM12.4966 77.7173C10.7207 76.8533 10.1017 75.8123 10.1017 74.6161H7.55045C7.55045 77.0653 9.00645 78.8564 11.3806 80.0114L12.4966 77.7173ZM10.1017 74.6161C10.1017 73.8057 10.2736 73.4349 10.3996 73.2819L8.43024 71.6601C7.77111 72.4605 7.55045 73.5198 7.55045 74.6161H10.1017ZM10.3996 73.2819C10.6318 72.9999 11.3276 72.4548 12.7145 71.6339L11.4151 69.4384C10.054 70.244 8.98316 70.9887 8.43024 71.6601L10.3996 73.2819ZM12.7176 71.6321C14.4647 70.5913 15.4092 68.7955 15.7254 66.55L13.1991 66.1942C12.9546 67.9306 12.3007 68.9108 11.4119 69.4403L12.7176 71.6321ZM15.7269 66.5388C16.2147 62.8379 16.4529 57.5703 16.4529 50.7674H13.9017C13.9017 57.5362 13.6633 62.6717 13.1976 66.2054L15.7269 66.5388ZM16.4529 50.7674C16.4529 43.5175 16.0346 38.1107 15.1518 34.638L12.6792 35.2666C13.4788 38.4116 13.9017 43.5482 13.9017 50.7674H16.4529ZM15.1513 34.6362C14.823 33.3529 14.3725 32.2524 13.7292 31.4578L11.7463 33.063C12.0564 33.4461 12.391 34.1402 12.6797 35.2684L15.1513 34.6362ZM13.7292 31.4578C13.0852 30.6623 12.1122 30.0018 10.941 29.4312L9.82365 31.7247C10.8396 32.2197 11.4369 32.6808 11.7463 33.063L13.7292 31.4578ZM10.9426 29.432C9.73072 28.8395 9.03502 28.3289 8.70098 27.9391L6.76395 29.5995C7.43938 30.3875 8.51026 31.0826 9.82207 31.7239L10.9426 29.432ZM8.72392 27.9667C8.45153 27.6302 8.29303 27.2075 8.29303 26.6242H5.74182C5.74182 27.7233 6.06001 28.7307 6.74101 29.5719L8.72392 27.9667ZM8.29303 26.6242C8.29303 25.7148 8.65262 24.9879 9.5068 24.3615C10.424 23.6889 11.9248 23.1329 14.1486 22.796L13.7664 20.2735C11.3635 20.6376 9.39423 21.2804 7.99811 22.3042C6.53891 23.3743 5.74182 24.8416 5.74182 26.6242H8.29303ZM14.1379 22.7975C15.6084 22.5875 18.2739 22.4739 22.2016 22.4739V19.9227C18.2778 19.9227 15.4473 20.0334 13.7771 20.272L14.1379 22.7975ZM22.2016 22.4739C24.4223 22.4739 25.8593 22.6602 26.6474 22.9448L27.5139 20.5453C26.2831 20.1008 24.4674 19.9227 22.2016 19.9227V22.4739ZM26.6871 22.9584C27.4812 23.216 28.5459 23.8689 29.8973 25.0581L31.5827 23.1429C30.13 21.8645 28.7552 20.9471 27.4742 20.5317L26.6871 22.9584Z" fill="#1E1E1E" mask="url(#path-3-outside-2_47_8092)"/>
</svg>
