<svg width="73" height="107" viewBox="0 0 73 107" fill="none" xmlns="http://www.w3.org/2000/svg">
<mask id="path-1-outside-1_47_8095" maskUnits="userSpaceOnUse" x="1.57812" y="27.5203" width="65" height="61" fill="black">
<rect fill="white" x="1.57812" y="27.5203" width="65" height="61"/>
<path d="M34.5637 27.9289C41.7702 27.9289 48.0653 29.9899 53.4492 34.1119C57.0945 36.944 60.0528 40.6174 62.3241 45.1319C64.5394 49.6185 65.647 54.105 65.647 58.5916C65.647 65.2092 63.4598 71.1258 59.0854 76.3414C55.384 80.7719 50.547 83.9545 44.5743 85.8893C40.9009 87.0671 37.2135 87.6559 33.5121 87.6559C28.6611 87.6559 24.0203 86.6464 19.5898 84.6275C14.234 82.1879 10.0419 78.5006 7.01351 73.5654C4.06921 68.7984 2.59707 63.5408 2.59707 57.7924C2.59707 51.1187 4.48983 45.2301 8.27534 40.1266C11.6402 35.584 16.1689 32.2472 21.8611 30.116C25.6747 28.6579 29.9089 27.9289 34.5637 27.9289ZM30.5678 40.0005C28.2124 40.0005 26.3477 41.052 24.9737 43.1551C23.9081 44.7253 23.3754 46.5901 23.3754 48.7492C23.3754 51.9178 24.0203 55.5912 25.3102 59.7693C26.6001 63.9193 28.2264 67.6067 30.1893 70.8314C31.0586 72.2054 32.1241 73.299 33.3859 74.1122C34.6758 74.9254 35.9797 75.332 37.2976 75.332C39.4288 75.332 41.1392 74.5328 42.4291 72.9345C43.747 71.3361 44.406 69.2331 44.406 66.6253C44.406 63.2323 43.8592 59.573 42.7656 55.6473C41.672 51.7215 40.256 48.3707 38.5174 45.5946C37.4519 43.8841 36.2181 42.5382 34.816 41.5567C33.414 40.5753 31.9979 40.0565 30.5678 40.0005Z"/>
</mask>
<path d="M34.5637 27.9289C41.7702 27.9289 48.0653 29.9899 53.4492 34.1119C57.0945 36.944 60.0528 40.6174 62.3241 45.1319C64.5394 49.6185 65.647 54.105 65.647 58.5916C65.647 65.2092 63.4598 71.1258 59.0854 76.3414C55.384 80.7719 50.547 83.9545 44.5743 85.8893C40.9009 87.0671 37.2135 87.6559 33.5121 87.6559C28.6611 87.6559 24.0203 86.6464 19.5898 84.6275C14.234 82.1879 10.0419 78.5006 7.01351 73.5654C4.06921 68.7984 2.59707 63.5408 2.59707 57.7924C2.59707 51.1187 4.48983 45.2301 8.27534 40.1266C11.6402 35.584 16.1689 32.2472 21.8611 30.116C25.6747 28.6579 29.9089 27.9289 34.5637 27.9289ZM30.5678 40.0005C28.2124 40.0005 26.3477 41.052 24.9737 43.1551C23.9081 44.7253 23.3754 46.5901 23.3754 48.7492C23.3754 51.9178 24.0203 55.5912 25.3102 59.7693C26.6001 63.9193 28.2264 67.6067 30.1893 70.8314C31.0586 72.2054 32.1241 73.299 33.3859 74.1122C34.6758 74.9254 35.9797 75.332 37.2976 75.332C39.4288 75.332 41.1392 74.5328 42.4291 72.9345C43.747 71.3361 44.406 69.2331 44.406 66.6253C44.406 63.2323 43.8592 59.573 42.7656 55.6473C41.672 51.7215 40.256 48.3707 38.5174 45.5946C37.4519 43.8841 36.2181 42.5382 34.816 41.5567C33.414 40.5753 31.9979 40.0565 30.5678 40.0005Z" fill="#1E1E1E"/>
<path d="M53.4492 34.1119L53.5549 33.9758L53.5539 33.9751L53.4492 34.1119ZM62.3241 45.1319L62.4786 45.0557L62.478 45.0545L62.3241 45.1319ZM59.0854 76.3414L58.9534 76.2307L58.9532 76.231L59.0854 76.3414ZM44.5743 85.8893L44.6269 86.0534L44.6273 86.0532L44.5743 85.8893ZM19.5898 84.6275L19.6613 84.4707L19.6613 84.4707L19.5898 84.6275ZM7.01351 73.5654L7.16035 73.4753L7.16008 73.4748L7.01351 73.5654ZM8.27534 40.1266L8.41372 40.2293L8.41378 40.2292L8.27534 40.1266ZM21.8611 30.116L21.9216 30.2774L21.9227 30.277L21.8611 30.116ZM30.5678 40.0005L30.5746 39.8282H30.5678V40.0005ZM24.9737 43.1551L25.1163 43.2518L25.1179 43.2493L24.9737 43.1551ZM25.3102 59.7693L25.1456 59.8201L25.1457 59.8204L25.3102 59.7693ZM30.1893 70.8314L30.0421 70.921L30.0437 70.9235L30.1893 70.8314ZM33.3859 74.1122L33.2926 74.257L33.2941 74.2579L33.3859 74.1122ZM42.4291 72.9345L42.2962 72.8249L42.2951 72.8263L42.4291 72.9345ZM38.5174 45.5946L38.3712 45.6857L38.3714 45.6861L38.5174 45.5946ZM34.5637 28.1011C41.7348 28.1011 47.9926 30.1512 53.3445 34.2487L53.5539 33.9751C48.1381 29.8286 41.8055 27.7566 34.5637 27.7566V28.1011ZM53.3435 34.2479C56.9667 37.0629 59.9093 40.7155 62.1702 45.2094L62.478 45.0545C60.1963 40.5192 57.2223 36.8251 53.5549 33.9758L53.3435 34.2479ZM62.1696 45.2082C64.3745 49.6738 65.4747 54.1344 65.4747 58.5916H65.8193C65.8193 54.0756 64.7042 49.5632 62.4786 45.0557L62.1696 45.2082ZM65.4747 58.5916C65.4747 65.1675 63.3026 71.0452 58.9534 76.2307L59.2174 76.4521C63.617 71.2065 65.8193 65.2509 65.8193 58.5916H65.4747ZM58.9532 76.231C55.2744 80.6343 50.4658 83.7997 44.5212 85.7254L44.6273 86.0532C50.6281 84.1093 55.4936 80.9094 59.2176 76.4519L58.9532 76.231ZM44.5217 85.7253C40.8646 86.8978 37.1949 87.4836 33.5121 87.4836V87.8282C37.2321 87.8282 40.9372 87.2363 44.6269 86.0534L44.5217 85.7253ZM33.5121 87.4836C28.6858 87.4836 24.0694 86.4795 19.6613 84.4707L19.5184 84.7843C23.9712 86.8134 28.6363 87.8282 33.5121 87.8282V87.4836ZM19.6613 84.4707C14.3361 82.0451 10.1705 78.3807 7.16035 73.4753L6.86666 73.6555C9.91333 78.6204 14.1319 82.3308 19.5184 84.7843L19.6613 84.4707ZM7.16008 73.4748C4.23305 68.7358 2.76935 63.5097 2.76935 57.7924H2.42478C2.42478 63.5719 3.90538 68.861 6.86693 73.6559L7.16008 73.4748ZM2.76935 57.7924C2.76935 51.1536 4.65137 45.3015 8.41372 40.2293L8.13697 40.024C4.32828 45.1587 2.42478 51.0837 2.42478 57.7924H2.76935ZM8.41378 40.2292C11.7574 35.7153 16.2579 32.3978 21.9216 30.2774L21.8007 29.9547C16.0798 32.0965 11.5231 35.4527 8.13691 40.0241L8.41378 40.2292ZM21.9227 30.277C25.714 28.8273 29.927 28.1011 34.5637 28.1011V27.7566C29.8908 27.7566 25.6354 28.4885 21.7996 29.9551L21.9227 30.277ZM30.5678 39.8282C28.1498 39.8282 26.2327 40.9129 24.8295 43.0608L25.1179 43.2493C26.4626 41.191 28.2751 40.1727 30.5678 40.1727V39.8282ZM24.8311 43.0583C23.7436 44.661 23.2031 46.5605 23.2031 48.7492H23.5476C23.5476 46.6196 24.0726 44.7897 25.1162 43.2518L24.8311 43.0583ZM23.2031 48.7492C23.2031 51.9402 23.8524 55.6313 25.1456 59.8201L25.4748 59.7184C24.1882 55.551 23.5476 51.8955 23.5476 48.7492H23.2031ZM25.1457 59.8204C26.4391 63.9819 28.0709 67.6826 30.0421 70.921L30.3365 70.7418C28.3819 67.5308 26.761 63.8567 25.4747 59.7181L25.1457 59.8204ZM30.0437 70.9235C30.9252 72.3169 32.008 73.4291 33.2926 74.257L33.4793 73.9674C32.2402 73.1688 31.1919 72.0939 30.3349 70.7393L30.0437 70.9235ZM33.2941 74.2579C34.607 75.0857 35.9424 75.5042 37.2976 75.5042V75.1597C36.0171 75.1597 34.7446 74.7651 33.4778 73.9664L33.2941 74.2579ZM37.2976 75.5042C39.4786 75.5042 41.2392 74.6832 42.5632 73.0427L42.2951 72.8263C41.0393 74.3823 39.3789 75.1597 37.2976 75.1597V75.5042ZM42.5621 73.0441C43.9114 71.4076 44.5783 69.2625 44.5783 66.6253H44.2337C44.2337 69.2037 43.5827 71.2647 42.2962 72.8249L42.5621 73.0441ZM44.5783 66.6253C44.5783 63.2139 44.0286 59.5389 42.9316 55.601L42.5997 55.6935C43.6899 59.6071 44.2337 63.2507 44.2337 66.6253H44.5783ZM42.9316 55.601C41.8346 51.6631 40.4126 48.2962 38.6634 45.5032L38.3714 45.6861C40.0993 48.4451 41.5095 51.78 42.5997 55.6935L42.9316 55.601ZM38.6637 45.5035C37.588 43.7768 36.339 42.4125 34.9148 41.4156L34.7172 41.6979C36.0972 42.6638 37.3158 43.9915 38.3712 45.6857L38.6637 45.5035ZM34.9148 41.4156C33.4911 40.419 32.0437 39.8859 30.5746 39.8283L30.5611 40.1726C31.9522 40.2272 33.3369 40.7316 34.7172 41.6979L34.9148 41.4156Z" fill="#FFF9B8" mask="url(#path-1-outside-1_47_8095)"/>
<mask id="path-3-outside-2_47_8095" maskUnits="userSpaceOnUse" x="5.74609" y="19.6289" width="67" height="63" fill="black">
<rect fill="white" x="5.74609" y="19.6289" width="67" height="63"/>
<path d="M39.7316 21.0375C46.9381 21.0375 53.2333 23.0985 58.6172 27.2205C62.2625 30.0526 65.2208 33.726 67.4921 38.2406C69.7073 42.7271 70.8149 47.2137 70.8149 51.7002C70.8149 58.3178 68.6278 64.2345 64.2534 69.4501C60.552 73.8805 55.7149 77.0632 49.7422 78.998C46.0689 80.1757 42.3815 80.7646 38.6801 80.7646C33.829 80.7646 29.1883 79.7551 24.7578 77.7361C19.402 75.2966 15.2099 71.6092 12.1815 66.674C9.23718 61.9071 7.76504 56.6494 7.76504 50.901C7.76504 44.2273 9.6578 38.3387 13.4433 33.2353C16.8082 28.6927 21.3368 25.3558 27.0291 23.2247C30.8427 21.7666 35.0768 21.0375 39.7316 21.0375ZM35.7358 33.1091C33.3804 33.1091 31.5157 34.1606 30.1417 36.2637C29.0761 37.834 28.5433 39.6987 28.5433 41.8578C28.5433 45.0265 29.1883 48.6998 30.4781 52.8779C31.768 57.028 33.3944 60.7153 35.3573 63.94C36.2265 65.314 37.2921 66.4076 38.5539 67.2208C39.8438 68.034 41.1477 68.4406 42.4656 68.4406C44.5967 68.4406 46.3072 67.6414 47.5971 66.0431C48.915 64.4448 49.574 62.3417 49.574 59.7339C49.574 56.341 49.0272 52.6816 47.9336 48.7559C46.84 44.8302 45.4239 41.4793 43.6854 38.7033C42.6198 36.9928 41.386 35.6468 39.984 34.6654C38.582 33.6839 37.1659 33.1652 35.7358 33.1091Z"/>
</mask>
<path d="M39.7316 21.0375C46.9381 21.0375 53.2333 23.0985 58.6172 27.2205C62.2625 30.0526 65.2208 33.726 67.4921 38.2406C69.7073 42.7271 70.8149 47.2137 70.8149 51.7002C70.8149 58.3178 68.6278 64.2345 64.2534 69.4501C60.552 73.8805 55.7149 77.0632 49.7422 78.998C46.0689 80.1757 42.3815 80.7646 38.6801 80.7646C33.829 80.7646 29.1883 79.7551 24.7578 77.7361C19.402 75.2966 15.2099 71.6092 12.1815 66.674C9.23718 61.9071 7.76504 56.6494 7.76504 50.901C7.76504 44.2273 9.6578 38.3387 13.4433 33.2353C16.8082 28.6927 21.3368 25.3558 27.0291 23.2247C30.8427 21.7666 35.0768 21.0375 39.7316 21.0375ZM35.7358 33.1091C33.3804 33.1091 31.5157 34.1606 30.1417 36.2637C29.0761 37.834 28.5433 39.6987 28.5433 41.8578C28.5433 45.0265 29.1883 48.6998 30.4781 52.8779C31.768 57.028 33.3944 60.7153 35.3573 63.94C36.2265 65.314 37.2921 66.4076 38.5539 67.2208C39.8438 68.034 41.1477 68.4406 42.4656 68.4406C44.5967 68.4406 46.3072 67.6414 47.5971 66.0431C48.915 64.4448 49.574 62.3417 49.574 59.7339C49.574 56.341 49.0272 52.6816 47.9336 48.7559C46.84 44.8302 45.4239 41.4793 43.6854 38.7033C42.6198 36.9928 41.386 35.6468 39.984 34.6654C38.582 33.6839 37.1659 33.1652 35.7358 33.1091Z" fill="#FFF9B8"/>
<path d="M58.6172 27.2205L59.3998 26.2132L59.3926 26.2077L58.6172 27.2205ZM67.4921 38.2406L68.6359 37.6758L68.6316 37.6673L67.4921 38.2406ZM64.2534 69.4501L63.276 68.6303L63.2744 68.6322L64.2534 69.4501ZM49.7422 78.998L50.1317 80.2127L50.1353 80.2115L49.7422 78.998ZM24.7578 77.7361L25.2868 76.5754L25.2866 76.5753L24.7578 77.7361ZM12.1815 66.674L13.2687 66.0069L13.2668 66.0037L12.1815 66.674ZM13.4433 33.2353L14.4678 33.9952L14.4683 33.9946L13.4433 33.2353ZM27.0291 23.2247L27.4764 24.4193L27.4847 24.4162L27.0291 23.2247ZM35.7358 33.1091L35.7858 31.8345L35.7608 31.8335H35.7358V33.1091ZM30.1417 36.2637L31.1972 36.9799L31.2034 36.9707L31.2095 36.9614L30.1417 36.2637ZM30.4781 52.8779L29.2593 53.2542L29.26 53.2565L30.4781 52.8779ZM35.3573 63.94L34.2676 64.6033L34.2734 64.6127L34.2793 64.622L35.3573 63.94ZM38.5539 67.2208L37.8629 68.2931L37.8736 68.2999L38.5539 67.2208ZM47.5971 66.0431L46.6129 65.2315L46.6044 65.242L47.5971 66.0431ZM43.6854 38.7033L42.6027 39.3777L42.6043 39.3803L43.6854 38.7033ZM39.7316 22.3131C46.6766 22.3131 52.6949 24.2929 57.8417 28.2334L59.3926 26.2077C53.7717 21.9042 47.1997 19.7619 39.7316 19.7619V22.3131ZM57.8346 28.2278C61.3164 30.9329 64.1583 34.4524 66.3526 38.8139L68.6316 37.6673C66.2833 32.9996 63.2086 29.1724 59.3998 26.2132L57.8346 28.2278ZM66.3483 38.8053C68.4869 43.1367 69.5393 47.4311 69.5393 51.7002H72.0905C72.0905 46.9962 70.9277 42.3175 68.6359 37.6758L66.3483 38.8053ZM69.5393 51.7002C69.5393 58.0088 67.4638 63.6373 63.276 68.6304L65.2307 70.2698C69.7917 64.8317 72.0905 58.6269 72.0905 51.7002H69.5393ZM63.2744 68.6322C59.7406 72.8622 55.1139 75.917 49.3491 77.7845L50.1353 80.2115C56.3159 78.2093 61.3634 74.8989 65.2323 70.2679L63.2744 68.6322ZM49.3528 77.7833C45.7999 78.9224 42.2438 79.489 38.6801 79.489V82.0402C42.5192 82.0402 46.3378 81.429 50.1317 80.2127L49.3528 77.7833ZM38.6801 79.489C34.0122 79.489 29.5518 78.5189 25.2868 76.5754L24.2289 78.8969C28.8248 80.9912 33.6458 82.0402 38.6801 82.0402V79.489ZM25.2866 76.5753C20.1579 74.2392 16.162 70.7218 13.2687 66.0069L11.0942 67.3412C14.2578 72.4966 18.6461 76.354 24.229 78.897L25.2866 76.5753ZM13.2668 66.0037C10.4502 61.4436 9.04064 56.4191 9.04064 50.901H6.48943C6.48943 56.8797 8.02412 62.3705 11.0962 67.3443L13.2668 66.0037ZM9.04064 50.901C9.04064 44.4863 10.8539 38.8673 14.4678 33.9952L12.4188 32.4753C8.46168 37.8101 6.48943 43.9683 6.48943 50.901H9.04064ZM14.4683 33.9946C17.6756 29.6648 21.9965 26.4709 27.4764 24.4193L26.5819 22.0301C20.6771 24.2407 15.9408 27.7206 12.4183 32.476L14.4683 33.9946ZM27.4847 24.4162C31.1339 23.0209 35.211 22.3131 39.7316 22.3131V19.7619C34.9427 19.7619 30.5514 20.5122 26.5736 22.0332L27.4847 24.4162ZM35.7358 31.8335C32.9165 31.8335 30.6646 33.131 29.0738 35.566L31.2095 36.9614C32.3667 35.1902 33.8442 34.3847 35.7358 34.3847V31.8335ZM29.0861 35.5474C27.858 37.3573 27.2677 39.4797 27.2677 41.8578H29.8189C29.8189 39.9177 30.2942 38.3107 31.1972 36.9799L29.0861 35.5474ZM27.2677 41.8578C27.2677 45.1921 27.945 48.997 29.2593 53.2542L31.697 52.5016C30.4315 48.4027 29.8189 44.8608 29.8189 41.8578H27.2677ZM29.26 53.2565C30.5764 57.4917 32.243 61.2771 34.2676 64.6033L36.4469 63.2768C34.5458 60.1536 32.9597 56.5643 31.6963 52.4993L29.26 53.2565ZM34.2793 64.622C35.2393 66.1395 36.4326 67.3713 37.8629 68.2931L39.2449 66.1486C38.1515 65.444 37.2138 64.4886 36.4352 63.258L34.2793 64.622ZM37.8736 68.2999C39.3346 69.2209 40.8711 69.7162 42.4656 69.7162V67.165C41.4243 67.165 40.353 66.8471 39.2342 66.1418L37.8736 68.2999ZM42.4656 69.7162C44.9655 69.7162 47.0474 68.7554 48.5898 66.8442L46.6044 65.242C45.5671 66.5274 44.2279 67.165 42.4656 67.165V69.7162ZM48.5813 66.8546C50.1322 64.9738 50.8496 62.5593 50.8496 59.7339H48.2984C48.2984 62.1241 47.6979 63.9158 46.6129 65.2316L48.5813 66.8546ZM50.8496 59.7339C50.8496 56.2048 50.281 52.4292 49.1624 48.4136L46.7048 49.0982C47.7733 52.9341 48.2984 56.4771 48.2984 59.7339H50.8496ZM49.1624 48.4136C48.0436 44.3973 46.5837 40.9279 44.7665 38.0262L42.6043 39.3803C44.2642 42.0307 45.6364 45.2631 46.7048 49.0982L49.1624 48.4136ZM44.7681 38.0288C43.6276 36.1979 42.2811 34.7163 40.7155 33.6203L39.2525 35.7104C40.491 36.5773 41.6121 37.7876 42.6027 39.3777L44.7681 38.0288ZM40.7155 33.6203C39.1527 32.5264 37.5047 31.9019 35.7858 31.8345L35.6858 34.3837C36.8271 34.4285 38.0112 34.8415 39.2525 35.7104L40.7155 33.6203Z" fill="#1E1E1E" mask="url(#path-3-outside-2_47_8095)"/>
</svg>
