<svg width="61" height="107" viewBox="0 0 61 107" fill="none" xmlns="http://www.w3.org/2000/svg">
<mask id="path-1-outside-1_47_8101" maskUnits="userSpaceOnUse" x="1.08789" y="27.7585" width="54" height="61" fill="black">
<rect fill="white" x="1.08789" y="27.7585" width="54" height="61"/>
<path d="M27.1754 28.1671C30.0636 28.1671 33.8491 28.8822 38.5319 30.3123C39.0927 30.4805 39.5414 30.5646 39.8779 30.5646C40.1583 30.5646 40.9995 30.3123 42.4016 29.8075C42.8502 29.6393 43.3269 29.5552 43.8317 29.5552C45.7104 29.5552 47.6873 31.0413 49.7623 34.0137C51.8654 36.986 52.9169 39.8181 52.9169 42.51C52.9169 44.0803 52.4402 45.4123 51.4868 46.5059C50.5615 47.5714 49.4258 48.1042 48.0798 48.1042C46.9582 48.1042 46.0469 47.8799 45.3459 47.4312C44.6448 46.9826 43.1026 45.6506 40.7191 43.4354C37.3542 40.2948 34.0454 38.7245 30.7926 38.7245C29.2224 38.7245 27.9605 39.1031 27.0071 39.8602C26.0818 40.6173 25.6191 41.6127 25.6191 42.8465C25.6191 45.2861 27.7642 47.1228 32.0545 48.3566C37.8589 50.0671 41.5744 51.3149 43.2007 52.1C50.3512 55.5771 53.9264 60.6946 53.9264 67.4524C53.9264 73.4251 51.4868 78.3042 46.6077 82.0897C41.6164 85.9594 35.0969 87.8942 27.0492 87.8942C23.46 87.8942 19.6744 87.4736 15.6926 86.6324C11.7108 85.7631 8.83664 84.7536 7.07007 83.6039C5.72411 82.7066 4.50433 80.7578 3.41073 77.7574C2.34518 74.729 1.8124 71.7847 1.8124 68.9245C1.8124 67.5505 2.09281 66.513 2.65363 65.812C3.35465 64.9147 4.23794 64.4661 5.30349 64.4661C6.36905 64.4661 7.39254 65.0128 8.37397 66.1064C8.96283 66.7233 10.3509 68.7002 12.538 72.0371C13.5756 73.6074 15.2159 74.9113 17.4592 75.9488C19.7305 76.9863 22.0719 77.5051 24.4835 77.5051C26.5585 77.5051 28.2409 77.1265 29.5308 76.3694C30.8207 75.5843 31.4656 74.5888 31.4656 73.383C31.4656 72.2614 30.9609 71.294 29.9514 70.4808C28.9419 69.6676 27.3016 68.9105 25.0302 68.2095C21.0204 66.9477 17.9639 65.798 15.8609 64.7605C13.7578 63.6949 11.795 62.363 9.9723 60.7647C5.54184 56.8389 3.32661 52.3804 3.32661 47.3892C3.32661 44.9216 3.90145 42.5241 5.05113 40.1967C6.2008 37.8412 7.82717 35.8083 9.93024 34.0978C14.6411 30.144 20.3895 28.1671 27.1754 28.1671Z"/>
</mask>
<path d="M27.1754 28.1671C30.0636 28.1671 33.8491 28.8822 38.5319 30.3123C39.0927 30.4805 39.5414 30.5646 39.8779 30.5646C40.1583 30.5646 40.9995 30.3123 42.4016 29.8075C42.8502 29.6393 43.3269 29.5552 43.8317 29.5552C45.7104 29.5552 47.6873 31.0413 49.7623 34.0137C51.8654 36.986 52.9169 39.8181 52.9169 42.51C52.9169 44.0803 52.4402 45.4123 51.4868 46.5059C50.5615 47.5714 49.4258 48.1042 48.0798 48.1042C46.9582 48.1042 46.0469 47.8799 45.3459 47.4312C44.6448 46.9826 43.1026 45.6506 40.7191 43.4354C37.3542 40.2948 34.0454 38.7245 30.7926 38.7245C29.2224 38.7245 27.9605 39.1031 27.0071 39.8602C26.0818 40.6173 25.6191 41.6127 25.6191 42.8465C25.6191 45.2861 27.7642 47.1228 32.0545 48.3566C37.8589 50.0671 41.5744 51.3149 43.2007 52.1C50.3512 55.5771 53.9264 60.6946 53.9264 67.4524C53.9264 73.4251 51.4868 78.3042 46.6077 82.0897C41.6164 85.9594 35.0969 87.8942 27.0492 87.8942C23.46 87.8942 19.6744 87.4736 15.6926 86.6324C11.7108 85.7631 8.83664 84.7536 7.07007 83.6039C5.72411 82.7066 4.50433 80.7578 3.41073 77.7574C2.34518 74.729 1.8124 71.7847 1.8124 68.9245C1.8124 67.5505 2.09281 66.513 2.65363 65.812C3.35465 64.9147 4.23794 64.4661 5.30349 64.4661C6.36905 64.4661 7.39254 65.0128 8.37397 66.1064C8.96283 66.7233 10.3509 68.7002 12.538 72.0371C13.5756 73.6074 15.2159 74.9113 17.4592 75.9488C19.7305 76.9863 22.0719 77.5051 24.4835 77.5051C26.5585 77.5051 28.2409 77.1265 29.5308 76.3694C30.8207 75.5843 31.4656 74.5888 31.4656 73.383C31.4656 72.2614 30.9609 71.294 29.9514 70.4808C28.9419 69.6676 27.3016 68.9105 25.0302 68.2095C21.0204 66.9477 17.9639 65.798 15.8609 64.7605C13.7578 63.6949 11.795 62.363 9.9723 60.7647C5.54184 56.8389 3.32661 52.3804 3.32661 47.3892C3.32661 44.9216 3.90145 42.5241 5.05113 40.1967C6.2008 37.8412 7.82717 35.8083 9.93024 34.0978C14.6411 30.144 20.3895 28.1671 27.1754 28.1671Z" fill="#1E1E1E"/>
<path d="M38.5319 30.3123L38.4816 30.477L38.4824 30.4773L38.5319 30.3123ZM42.4016 29.8075L42.4599 29.9696L42.4621 29.9688L42.4016 29.8075ZM49.7623 34.0137L49.621 34.1123L49.6217 34.1132L49.7623 34.0137ZM51.4868 46.5059L51.3569 46.3927L51.3567 46.3929L51.4868 46.5059ZM40.7191 43.4354L40.6016 43.5613L40.6018 43.5616L40.7191 43.4354ZM27.0071 39.8602L26.9 39.7253L26.898 39.7268L27.0071 39.8602ZM32.0545 48.3566L32.1032 48.1913L32.1021 48.191L32.0545 48.3566ZM43.2007 52.1L43.2761 51.9451L43.2756 51.9449L43.2007 52.1ZM46.6077 82.0897L46.7133 82.2259L46.7133 82.2259L46.6077 82.0897ZM15.6926 86.6324L15.6559 86.8007L15.657 86.8009L15.6926 86.6324ZM7.07007 83.6039L6.9745 83.7473L6.9761 83.7483L7.07007 83.6039ZM3.41073 77.7574L3.24821 77.8146L3.24887 77.8164L3.41073 77.7574ZM2.65363 65.812L2.78817 65.9196L2.78939 65.9181L2.65363 65.812ZM8.37397 66.1064L8.24569 66.2216L8.24935 66.2254L8.37397 66.1064ZM12.538 72.0371L12.3939 72.1315L12.3943 72.1321L12.538 72.0371ZM17.4592 75.9488L17.3869 76.1052L17.3876 76.1055L17.4592 75.9488ZM29.5308 76.3694L29.618 76.518L29.6204 76.5166L29.5308 76.3694ZM25.0302 68.2095L24.9785 68.3738L24.9794 68.3741L25.0302 68.2095ZM15.8609 64.7605L15.783 64.9142L15.7847 64.915L15.8609 64.7605ZM9.9723 60.7647L9.85804 60.8936L9.85871 60.8942L9.9723 60.7647ZM5.05113 40.1967L5.20559 40.273L5.20595 40.2722L5.05113 40.1967ZM9.93024 34.0978L10.039 34.2315L10.041 34.2297L9.93024 34.0978ZM27.1754 28.3394C30.0387 28.3394 33.8054 29.049 38.4816 30.477L38.5822 30.1475C33.8928 28.7154 30.0884 27.9949 27.1754 27.9949V28.3394ZM38.4824 30.4773C39.0493 30.6473 39.5167 30.7369 39.8779 30.7369V30.3924C39.5661 30.3924 39.1362 30.3137 38.5814 30.1472L38.4824 30.4773ZM39.8779 30.7369C39.968 30.7369 40.0887 30.7175 40.2312 30.6854C40.3768 30.6526 40.5562 30.6041 40.7686 30.5404C41.1936 30.4129 41.7577 30.2224 42.4599 29.9696L42.3432 29.6454C41.6434 29.8974 41.0859 30.0855 40.6696 30.2103C40.4614 30.2728 40.2903 30.3189 40.1555 30.3492C40.0176 30.3803 39.928 30.3924 39.8779 30.3924V30.7369ZM42.4621 29.9688C42.8904 29.8082 43.3465 29.7274 43.8317 29.7274V29.3829C43.3074 29.3829 42.8101 29.4703 42.3411 29.6462L42.4621 29.9688ZM43.8317 29.7274C45.6185 29.7274 47.5502 31.146 49.621 34.1123L49.9036 33.915C47.8243 30.9367 45.8023 29.3829 43.8317 29.3829V29.7274ZM49.6217 34.1132C51.7113 37.0665 52.7446 39.8644 52.7446 42.51H53.0892C53.0892 39.7719 52.0195 36.9055 49.9029 33.9142L49.6217 34.1132ZM52.7446 42.51C52.7446 44.0424 52.2806 45.3331 51.3569 46.3927L51.6167 46.6191C52.5998 45.4914 53.0892 44.1183 53.0892 42.51H52.7446ZM51.3567 46.3929C50.4623 47.4229 49.3732 47.9319 48.0798 47.9319V48.2765C49.4784 48.2765 50.6606 47.72 51.6169 46.6188L51.3567 46.3929ZM48.0798 47.9319C46.98 47.9319 46.1039 47.7118 45.4387 47.2861L45.253 47.5763C45.9898 48.0479 46.9364 48.2765 48.0798 48.2765V47.9319ZM45.4387 47.2861C44.7537 46.8477 43.224 45.5282 40.8364 43.3092L40.6018 43.5616C42.9812 45.773 44.536 47.1175 45.253 47.5763L45.4387 47.2861ZM40.8367 43.3094C37.4531 40.1515 34.1043 38.5522 30.7926 38.5522V38.8968C33.9865 38.8968 37.2553 40.4382 40.6016 43.5613L40.8367 43.3094ZM30.7926 38.5522C29.1949 38.5522 27.8917 38.9377 26.9 39.7253L27.1143 39.9951C28.0293 39.2684 29.2499 38.8968 30.7926 38.8968V38.5522ZM26.898 39.7268C25.9312 40.5179 25.4468 41.563 25.4468 42.8465H25.7914C25.7914 41.6625 26.2323 40.7167 27.1162 39.9935L26.898 39.7268ZM25.4468 42.8465C25.4468 44.1248 26.0118 45.2392 27.1159 46.1846C28.215 47.1256 29.8503 47.902 32.0069 48.5221L32.1021 48.191C29.9684 47.5774 28.3861 46.8185 27.34 45.9228C26.299 45.0315 25.7914 44.0078 25.7914 42.8465H25.4468ZM32.0058 48.5218C37.8136 50.2333 41.5146 51.4773 43.1258 52.2552L43.2756 51.9449C41.6341 51.1524 37.9042 49.9008 32.1032 48.1913L32.0058 48.5218ZM43.1254 52.255C46.6813 53.9841 49.3369 56.1156 51.1037 58.6446C52.8694 61.172 53.7541 64.1057 53.7541 67.4524H54.0987C54.0987 64.0412 53.1957 61.0373 51.3862 58.4473C49.5778 55.8587 46.8706 53.693 43.2761 51.9451L43.1254 52.255ZM53.7541 67.4524C53.7541 73.3698 51.3408 78.1994 46.5021 81.9536L46.7133 82.2259C51.6328 78.409 54.0987 73.4804 54.0987 67.4524H53.7541ZM46.5021 81.9536C41.5485 85.794 35.0693 87.7219 27.0492 87.7219V88.0665C35.1245 88.0665 41.6843 86.1247 46.7133 82.2259L46.5021 81.9536ZM27.0492 87.7219C23.4734 87.7219 19.6999 87.3029 15.7282 86.4638L15.657 86.8009C19.649 87.6443 23.4465 88.0665 27.0492 88.0665V87.7219ZM15.7294 86.464C11.7526 85.5959 8.90357 84.5916 7.16404 83.4595L6.9761 83.7483C8.76971 84.9156 11.6691 85.9303 15.6559 86.8007L15.7294 86.464ZM7.16563 83.4606C5.86814 82.5956 4.66391 80.6925 3.5726 77.6984L3.24887 77.8164C4.34475 80.8231 5.58007 82.8177 6.9745 83.7473L7.16563 83.4606ZM3.57325 77.7002C2.51338 74.688 1.98469 71.763 1.98469 68.9245H1.64012C1.64012 71.8064 2.17698 74.77 3.24822 77.8146L3.57325 77.7002ZM1.98469 68.9245C1.98469 67.5699 2.26177 66.5776 2.78816 65.9196L2.5191 65.7044C1.92386 66.4484 1.64012 67.5311 1.64012 68.9245H1.98469ZM2.78939 65.9181C3.46035 65.0592 4.29504 64.6383 5.30349 64.6383V64.2938C4.18084 64.2938 3.24895 64.7702 2.51787 65.7059L2.78939 65.9181ZM5.30349 64.6383C6.3037 64.6383 7.28413 65.15 8.24575 66.2215L8.50219 65.9914C7.50094 64.8757 6.43439 64.2938 5.30349 64.2938V64.6383ZM8.24935 66.2254C8.53348 66.5231 9.02068 67.161 9.71563 68.1508C10.4081 69.1371 11.3008 70.4638 12.3939 72.1315L12.6821 71.9426C11.5881 70.2735 10.6931 68.9434 9.99763 67.9528C9.30455 66.9657 8.80332 66.3067 8.49859 65.9875L8.24935 66.2254ZM12.3943 72.1321C13.4542 73.7362 15.1235 75.0583 17.3869 76.1052L17.5315 75.7924C15.3084 74.7642 13.6969 73.4786 12.6818 71.9421L12.3943 72.1321ZM17.3876 76.1055C19.6806 77.1529 22.0464 77.6773 24.4835 77.6773V77.3328C22.0975 77.3328 19.7805 76.8197 17.5308 75.7921L17.3876 76.1055ZM24.4835 77.6773C26.5778 77.6773 28.2934 77.2955 29.618 76.518L29.4436 76.2208C28.1885 76.9575 26.5392 77.3328 24.4835 77.3328V77.6773ZM29.6204 76.5166C30.9467 75.7093 31.6379 74.6646 31.6379 73.383H31.2933C31.2933 74.513 30.6947 75.4593 29.4412 76.2222L29.6204 76.5166ZM31.6379 73.383C31.6379 72.2008 31.1025 71.1868 30.0595 70.3467L29.8433 70.615C30.8193 71.4012 31.2933 72.322 31.2933 73.383H31.6379ZM30.0595 70.3467C29.0243 69.5127 27.3588 68.7479 25.0811 68.0449L24.9794 68.3741C27.2443 69.0732 28.8596 69.8225 29.8433 70.615L30.0595 70.3467ZM25.082 68.0452C21.0751 66.7843 18.0284 65.6377 15.9371 64.606L15.7847 64.915C17.8995 65.9583 20.9658 67.1111 24.9785 68.3738L25.082 68.0452ZM15.9387 64.6068C13.8489 63.5479 11.898 62.2242 10.0859 60.6351L9.85871 60.8942C11.6919 62.5018 13.6667 63.8419 15.783 64.9142L15.9387 64.6068ZM10.0866 60.6357C5.68548 56.736 3.49889 52.3219 3.49889 47.3892H3.15433C3.15433 52.439 5.3982 56.9418 9.85804 60.8936L10.0866 60.6357ZM3.49889 47.3892C3.49889 44.9494 4.06701 42.5779 5.20559 40.273L4.89666 40.1204C3.73589 42.4702 3.15433 44.8937 3.15433 47.3892H3.49889ZM5.20595 40.2722C6.34427 37.9401 7.9546 35.9267 10.0389 34.2314L9.82153 33.9641C7.69974 35.6898 6.05733 37.7424 4.8963 40.1211L5.20595 40.2722ZM10.041 34.2297C14.7176 30.3048 20.4255 28.3394 27.1754 28.3394V27.9949C20.3535 27.9949 14.5646 29.9833 9.81948 33.9658L10.041 34.2297Z" fill="#C2DCEE" mask="url(#path-1-outside-1_47_8101)"/>
<mask id="path-3-outside-2_47_8101" maskUnits="userSpaceOnUse" x="5.25586" y="19.8672" width="56" height="63" fill="black">
<rect fill="white" x="5.25586" y="19.8672" width="56" height="63"/>
<path d="M32.3433 21.2758C35.2316 21.2758 39.0171 21.9908 43.6999 23.4209C44.2607 23.5892 44.7094 23.6733 45.0459 23.6733C45.3263 23.6733 46.1675 23.4209 47.5695 22.9162C48.0182 22.7479 48.4949 22.6638 48.9996 22.6638C50.8784 22.6638 52.8552 24.15 54.9303 27.1223C57.0333 30.0946 58.0849 32.9268 58.0849 35.6187C58.0849 37.189 57.6082 38.5209 56.6548 39.6145C55.7294 40.6801 54.5938 41.2128 53.2478 41.2128C52.1262 41.2128 51.2149 40.9885 50.5138 40.5399C49.8128 40.0912 48.2706 38.7593 45.8871 36.544C42.5222 33.4035 39.2134 31.8332 35.9606 31.8332C34.3903 31.8332 33.1285 32.2117 32.1751 32.9688C31.2497 33.7259 30.7871 34.7214 30.7871 35.9552C30.7871 38.3947 32.9322 40.2314 37.2225 41.4652C43.0269 43.1757 46.7423 44.4235 48.3687 45.2087C55.5191 48.6857 59.0943 53.8032 59.0943 60.561C59.0943 66.5338 56.6548 71.4129 51.7757 75.1984C46.7844 79.068 40.2649 81.0028 32.2172 81.0028C28.6279 81.0028 24.8424 80.5822 20.8606 79.741C16.8788 78.8717 14.0046 77.8623 12.238 76.7126C10.8921 75.8153 9.6723 73.8664 8.5787 70.8661C7.51315 67.8377 6.98037 64.8934 6.98037 62.0332C6.98037 60.6592 7.26078 59.6217 7.8216 58.9207C8.52262 58.0233 9.40591 57.5747 10.4715 57.5747C11.537 57.5747 12.5605 58.1215 13.5419 59.2151C14.1308 59.832 15.5188 61.8089 17.706 65.1457C18.7435 66.716 20.3839 68.0199 22.6272 69.0574C24.8985 70.0949 27.2399 70.6137 29.6514 70.6137C31.7264 70.6137 33.4089 70.2351 34.6988 69.478C35.9887 68.6929 36.6336 67.6974 36.6336 66.4917C36.6336 65.3701 36.1289 64.4026 35.1194 63.5895C34.1099 62.7763 32.4695 62.0192 30.1982 61.3181C26.1884 60.0563 23.1319 58.9066 21.0289 57.8691C18.9258 56.8036 16.9629 55.4716 15.1403 53.8733C10.7098 49.9476 8.49458 45.4891 8.49458 40.4978C8.49458 38.0302 9.06942 35.6327 10.2191 33.3053C11.3688 30.9499 12.9951 28.9169 15.0982 27.2064C19.8091 23.2527 25.5575 21.2758 32.3433 21.2758Z"/>
</mask>
<path d="M32.3433 21.2758C35.2316 21.2758 39.0171 21.9908 43.6999 23.4209C44.2607 23.5892 44.7094 23.6733 45.0459 23.6733C45.3263 23.6733 46.1675 23.4209 47.5695 22.9162C48.0182 22.7479 48.4949 22.6638 48.9996 22.6638C50.8784 22.6638 52.8552 24.15 54.9303 27.1223C57.0333 30.0946 58.0849 32.9268 58.0849 35.6187C58.0849 37.189 57.6082 38.5209 56.6548 39.6145C55.7294 40.6801 54.5938 41.2128 53.2478 41.2128C52.1262 41.2128 51.2149 40.9885 50.5138 40.5399C49.8128 40.0912 48.2706 38.7593 45.8871 36.544C42.5222 33.4035 39.2134 31.8332 35.9606 31.8332C34.3903 31.8332 33.1285 32.2117 32.1751 32.9688C31.2497 33.7259 30.7871 34.7214 30.7871 35.9552C30.7871 38.3947 32.9322 40.2314 37.2225 41.4652C43.0269 43.1757 46.7423 44.4235 48.3687 45.2087C55.5191 48.6857 59.0943 53.8032 59.0943 60.561C59.0943 66.5338 56.6548 71.4129 51.7757 75.1984C46.7844 79.068 40.2649 81.0028 32.2172 81.0028C28.6279 81.0028 24.8424 80.5822 20.8606 79.741C16.8788 78.8717 14.0046 77.8623 12.238 76.7126C10.8921 75.8153 9.6723 73.8664 8.5787 70.8661C7.51315 67.8377 6.98037 64.8934 6.98037 62.0332C6.98037 60.6592 7.26078 59.6217 7.8216 58.9207C8.52262 58.0233 9.40591 57.5747 10.4715 57.5747C11.537 57.5747 12.5605 58.1215 13.5419 59.2151C14.1308 59.832 15.5188 61.8089 17.706 65.1457C18.7435 66.716 20.3839 68.0199 22.6272 69.0574C24.8985 70.0949 27.2399 70.6137 29.6514 70.6137C31.7264 70.6137 33.4089 70.2351 34.6988 69.478C35.9887 68.6929 36.6336 67.6974 36.6336 66.4917C36.6336 65.3701 36.1289 64.4026 35.1194 63.5895C34.1099 62.7763 32.4695 62.0192 30.1982 61.3181C26.1884 60.0563 23.1319 58.9066 21.0289 57.8691C18.9258 56.8036 16.9629 55.4716 15.1403 53.8733C10.7098 49.9476 8.49458 45.4891 8.49458 40.4978C8.49458 38.0302 9.06942 35.6327 10.2191 33.3053C11.3688 30.9499 12.9951 28.9169 15.0982 27.2064C19.8091 23.2527 25.5575 21.2758 32.3433 21.2758Z" fill="#C2DCEE"/>
<path d="M43.6999 23.4209L43.3273 24.6409L43.3334 24.6427L43.6999 23.4209ZM47.5695 22.9162L48.0016 24.1164L48.0095 24.1135L48.0174 24.1106L47.5695 22.9162ZM54.9303 27.1223L53.8843 27.8525L53.889 27.8591L54.9303 27.1223ZM56.6548 39.6145L55.6933 38.7763L55.6917 38.7781L56.6548 39.6145ZM45.8871 36.544L45.0167 37.4766L45.0187 37.4784L45.8871 36.544ZM32.1751 32.9688L31.3818 31.9699L31.3745 31.9757L31.3673 31.9816L32.1751 32.9688ZM37.2225 41.4652L37.583 40.2416L37.575 40.2393L37.2225 41.4652ZM48.3687 45.2087L48.9265 44.0615L48.9233 44.0599L48.3687 45.2087ZM51.7757 75.1984L52.5572 76.2065L52.5576 76.2062L51.7757 75.1984ZM20.8606 79.741L20.5885 80.9873L20.5969 80.9891L20.8606 79.741ZM12.238 76.7126L11.5304 77.774L11.5423 77.7817L12.238 76.7126ZM8.5787 70.8661L7.37541 71.2894L7.37778 71.2962L7.38023 71.3029L8.5787 70.8661ZM7.8216 58.9207L8.81768 59.7175L8.82228 59.7118L8.82681 59.706L7.8216 58.9207ZM13.5419 59.2151L12.5926 60.0671L12.6057 60.0817L12.6192 60.0959L13.5419 59.2151ZM17.706 65.1457L16.6391 65.845L16.6417 65.8489L17.706 65.1457ZM22.6272 69.0574L22.0917 70.2152L22.0972 70.2177L22.6272 69.0574ZM34.6988 69.478L35.3445 70.5781L35.3533 70.573L35.362 70.5677L34.6988 69.478ZM30.1982 61.3181L29.8153 62.5349L29.822 62.537L30.1982 61.3181ZM21.0289 57.8691L20.4523 59.0071L20.4645 59.0131L21.0289 57.8691ZM15.1403 53.8733L14.2943 54.828L14.2992 54.8324L15.1403 53.8733ZM10.2191 33.3053L11.3628 33.8703L11.3654 33.8648L10.2191 33.3053ZM15.0982 27.2064L15.9031 28.196L15.9107 28.1898L15.9183 28.1835L15.0982 27.2064ZM32.3433 22.5514C35.0476 22.5514 38.6938 23.2259 43.3273 24.6409L44.0725 22.2009C39.3403 20.7558 35.4155 20.0002 32.3433 20.0002V22.5514ZM43.3334 24.6427C43.9391 24.8244 44.5263 24.9489 45.0459 24.9489V22.3977C44.8924 22.3977 44.5824 22.3539 44.0664 22.1991L43.3334 24.6427ZM45.0459 24.9489C45.2643 24.9489 45.484 24.9058 45.6413 24.8705C45.8215 24.8299 46.0279 24.7735 46.2536 24.7058C46.7062 24.57 47.2916 24.372 48.0016 24.1164L47.1375 21.716C46.4455 21.9651 45.9092 22.1456 45.5205 22.2622C45.3256 22.3207 45.1815 22.3589 45.0813 22.3815C44.9582 22.4092 44.9676 22.3977 45.0459 22.3977V24.9489ZM48.0174 24.1106C48.3153 23.9988 48.6396 23.9394 48.9996 23.9394V21.3882C48.3502 21.3882 47.721 21.497 47.1216 21.7218L48.0174 24.1106ZM48.9996 23.9394C50.1978 23.9394 51.8404 24.9247 53.8843 27.8525L55.9762 26.3921C53.8701 23.3752 51.5589 21.3882 48.9996 21.3882V23.9394ZM53.889 27.8591C55.8923 30.6905 56.8093 33.2693 56.8093 35.6187H59.3605C59.3605 32.5842 58.1743 29.4987 55.9716 26.3855L53.889 27.8591ZM56.8093 35.6187C56.8093 36.9082 56.4268 37.9349 55.6933 38.7763L57.6163 40.4528C58.7895 39.107 59.3605 37.4697 59.3605 35.6187H56.8093ZM55.6917 38.7781C54.9952 39.5801 54.2043 39.9372 53.2478 39.9372V42.4884C54.9832 42.4884 56.4637 41.78 57.6179 40.4509L55.6917 38.7781ZM53.2478 39.9372C52.2875 39.9372 51.6374 39.7444 51.2014 39.4655L49.8262 41.6143C50.7923 42.2326 51.9648 42.4884 53.2478 42.4884V39.9372ZM51.2014 39.4655C50.6187 39.0925 49.1694 37.8532 46.7555 35.6097L45.0187 37.4784C47.3718 39.6654 49.0069 41.0899 49.8262 41.6143L51.2014 39.4655ZM46.7575 35.6115C43.2544 32.342 39.6494 30.5576 35.9606 30.5576V33.1088C38.7773 33.1088 41.7899 34.4649 45.0167 37.4766L46.7575 35.6115ZM35.9606 30.5576C34.1867 30.5576 32.6191 30.9874 31.3818 31.9699L32.9684 33.9678C33.6379 33.4361 34.5939 33.1088 35.9606 33.1088V30.5576ZM31.3673 31.9816C30.1351 32.9897 29.5115 34.3529 29.5115 35.9552H32.0627C32.0627 35.0898 32.3644 34.4621 32.9829 33.9561L31.3673 31.9816ZM29.5115 35.9552C29.5115 37.6082 30.2602 39.013 31.5663 40.1313C32.835 41.2176 34.6401 42.0499 36.8699 42.6911L37.575 40.2393C35.5146 39.6467 34.102 38.9438 33.2256 38.1934C32.3865 37.475 32.0627 36.7417 32.0627 35.9552H29.5115ZM36.8619 42.6888C42.6915 44.4067 46.2998 45.6264 47.8141 46.3574L48.9233 44.0599C47.1849 43.2207 43.3623 41.9447 37.583 40.2416L36.8619 42.6888ZM47.8109 46.3558C51.243 48.0248 53.7337 50.0469 55.3672 52.3851C56.9927 54.7118 57.8187 57.4208 57.8187 60.561H60.3699C60.3699 56.9435 59.4084 53.7148 57.4586 50.924C55.517 48.1448 52.6448 45.8696 48.9265 44.0615L47.8109 46.3558ZM57.8187 60.561C57.8187 66.1242 55.5737 70.6371 50.9937 74.1905L52.5576 76.2062C57.7358 72.1886 60.3699 66.9433 60.3699 60.561H57.8187ZM50.9941 74.1903C46.2815 77.8438 40.0605 79.7272 32.2172 79.7272V82.2784C40.4693 82.2784 47.2873 80.2922 52.5572 76.2065L50.9941 74.1903ZM32.2172 79.7272C28.7274 79.7272 25.0307 79.3182 21.1243 78.4929L20.5969 80.9891C24.6541 81.8462 28.5285 82.2784 32.2172 82.2784V79.7272ZM21.1327 78.4948C17.1878 77.6336 14.5002 76.6628 12.9338 75.6435L11.5423 77.7817C13.509 79.0617 16.5698 80.1099 20.5885 80.9873L21.1327 78.4948ZM12.9456 75.6512C11.9585 74.9932 10.8539 73.3832 9.77718 70.4292L7.38023 71.3029C8.49073 74.3497 9.8256 76.6374 11.5305 77.774L12.9456 75.6512ZM9.782 70.4427C8.7585 67.5338 8.25598 64.7327 8.25598 62.0332H5.70477C5.70477 65.0541 6.2678 68.1415 7.37541 71.2894L9.782 70.4427ZM8.25598 62.0332C8.25598 60.8028 8.51174 60.0999 8.81768 59.7175L6.82552 58.1238C6.00982 59.1434 5.70477 60.5156 5.70477 62.0332H8.25598ZM8.82681 59.706C9.30524 59.0936 9.82869 58.8503 10.4715 58.8503V56.2991C8.98313 56.2991 7.74 56.9531 6.81639 58.1353L8.82681 59.706ZM10.4715 58.8503C11.0532 58.8503 11.7579 59.137 12.5926 60.0671L14.4913 58.3631C13.3631 57.106 12.0208 56.2991 10.4715 56.2991V58.8503ZM12.6192 60.0959C12.8374 60.3244 13.2797 60.8951 13.9806 61.8934C14.6635 62.866 15.5489 64.1817 16.6392 65.845L18.7729 64.4464C17.6759 62.7729 16.7738 61.4318 16.0686 60.4274C15.3815 59.4488 14.8353 58.7226 14.4647 58.3343L12.6192 60.0959ZM16.6417 65.8489C17.8448 67.6698 19.6992 69.1087 22.0917 70.2152L23.1627 67.8997C21.0686 66.9311 19.6422 65.7622 18.7703 64.4425L16.6417 65.8489ZM22.0972 70.2177C24.5288 71.3285 27.0505 71.8893 29.6514 71.8893V69.3381C27.4293 69.3381 25.2682 68.8614 23.1572 67.8971L22.0972 70.2177ZM29.6514 71.8893C31.8695 71.8893 33.7973 71.4863 35.3445 70.5781L34.0531 68.3779C33.0205 68.984 31.5834 69.3381 29.6514 69.3381V71.8893ZM35.362 70.5677C36.9216 69.6184 37.9092 68.2584 37.9092 66.4917H35.358C35.358 67.1365 35.0557 67.7674 34.0355 68.3884L35.362 70.5677ZM37.9092 66.4917C37.9092 64.9213 37.1771 63.6091 35.9196 62.5961L34.3192 64.5828C35.0806 65.1962 35.358 65.8188 35.358 66.4917H37.9092ZM35.9196 62.5961C34.7196 61.6294 32.8932 60.815 30.5744 60.0993L29.822 62.537C32.0459 63.2234 33.5003 63.9232 34.3192 64.5828L35.9196 62.5961ZM30.5811 60.1014C26.593 58.8464 23.6091 57.7197 21.5932 56.7252L20.4645 59.0131C22.6547 60.0936 25.7837 61.2663 29.8153 62.5349L30.5811 60.1014ZM21.6054 56.7312C19.6003 55.7153 17.7259 54.4441 15.9813 52.9142L14.2992 54.8324C16.1999 56.4991 18.2513 57.8918 20.4523 59.007L21.6054 56.7312ZM15.9862 52.9186C11.7733 49.1856 9.77018 45.0557 9.77018 40.4978H7.21898C7.21898 45.9225 9.64629 50.7095 14.2943 54.828L15.9862 52.9186ZM9.77018 40.4978C9.77018 38.2364 10.2952 36.0314 11.3628 33.8703L9.07542 32.7404C7.84359 35.2341 7.21898 37.8241 7.21898 40.4978H9.77018ZM11.3654 33.8648C12.4311 31.6816 13.9387 29.7938 15.9031 28.196L14.2933 26.2168C12.0516 28.0401 10.3065 30.2181 9.07275 32.7458L11.3654 33.8648ZM15.9183 28.1835C20.3752 24.4429 25.8242 22.5514 32.3433 22.5514V20.0002C25.2907 20.0002 19.243 22.0625 14.2782 26.2293L15.9183 28.1835Z" fill="#1E1E1E" mask="url(#path-3-outside-2_47_8101)"/>
</svg>
