<svg width="66" height="107" viewBox="0 0 66 107" fill="none" xmlns="http://www.w3.org/2000/svg">
<mask id="path-1-outside-1_47_8125" maskUnits="userSpaceOnUse" x="-1" y="27.7069" width="62" height="61" fill="black">
<rect fill="white" x="-1" y="27.7069" width="62" height="61"/>
<path d="M19.6426 29.2932H41.8089C44.1924 29.2091 46.3656 28.8866 48.3284 28.3258C49.1697 28.1015 49.9128 27.9893 50.5577 27.9893C52.829 27.9893 55.0302 29.6718 57.1613 33.0367C59.3205 36.4016 60.4 39.8646 60.4 43.4258C60.4 45.8654 59.657 47.646 58.1708 48.7676C57.0492 49.6088 55.7032 50.0294 54.1329 50.0294C52.6467 50.0294 51.3569 49.6229 50.2633 48.8097C49.1697 47.9684 48.0901 46.5944 47.0245 44.6877C46.0992 42.9491 45.3701 41.8135 44.8374 41.2807C44.3046 40.7479 43.6596 40.4815 42.9025 40.4815C41.865 40.4815 41.1219 40.9162 40.6733 41.7854C40.2246 42.6547 40.0003 44.0848 40.0003 46.0757V69.63C40.0003 72.0415 40.2527 73.7941 40.7574 74.8877C41.2621 75.9813 42.2155 76.8225 43.6176 77.4114C45.1318 78.0563 46.1553 78.6732 46.6881 79.2621C47.2489 79.8229 47.5293 80.608 47.5293 81.6175C47.5293 83.6364 46.1553 85.1366 43.4073 86.1181C40.6873 87.0995 36.4952 87.5902 30.8309 87.5902C23.8768 87.5902 18.7173 87.0154 15.3524 85.8657C12.5203 84.9123 11.1042 83.37 11.1042 81.2389C11.1042 80.0893 11.6089 79.192 12.6184 78.547C12.8708 78.4068 13.8662 78.0703 15.6047 77.5375C16.6703 77.2291 17.3994 76.6402 17.7919 75.771C18.2125 74.9017 18.549 73.2333 18.8014 70.7657C19.0257 68.5785 19.236 65.0453 19.4323 60.1662C19.6286 55.2591 19.7268 51.0109 19.7268 47.4216C19.7268 44.898 19.5305 43.1034 19.1379 42.0378C18.7453 40.9722 18.1004 40.4395 17.2031 40.4395C16.1095 40.4395 15.0439 41.2246 14.0064 42.7949C12.1277 45.6551 10.5854 47.5478 9.37967 48.4732C7.94959 49.5668 6.56156 50.1136 5.2156 50.1136C3.7014 50.1136 2.45358 49.5528 1.47215 48.4311C0.490715 47.2814 0 45.8233 0 44.0567C0 42.3182 0.392572 40.4114 1.17772 38.3364C1.96286 36.2333 3.01439 34.2985 4.33231 32.5319C6.46342 29.6718 8.56649 28.2417 10.6415 28.2417C11.2023 28.2417 11.8473 28.3258 12.5763 28.4941C14.0905 28.8025 15.3243 29.0128 16.2777 29.125C17.2592 29.2371 18.3808 29.2932 19.6426 29.2932Z"/>
</mask>
<path d="M19.6426 29.2932H41.8089C44.1924 29.2091 46.3656 28.8866 48.3284 28.3258C49.1697 28.1015 49.9128 27.9893 50.5577 27.9893C52.829 27.9893 55.0302 29.6718 57.1613 33.0367C59.3205 36.4016 60.4 39.8646 60.4 43.4258C60.4 45.8654 59.657 47.646 58.1708 48.7676C57.0492 49.6088 55.7032 50.0294 54.1329 50.0294C52.6467 50.0294 51.3569 49.6229 50.2633 48.8097C49.1697 47.9684 48.0901 46.5944 47.0245 44.6877C46.0992 42.9491 45.3701 41.8135 44.8374 41.2807C44.3046 40.7479 43.6596 40.4815 42.9025 40.4815C41.865 40.4815 41.1219 40.9162 40.6733 41.7854C40.2246 42.6547 40.0003 44.0848 40.0003 46.0757V69.63C40.0003 72.0415 40.2527 73.7941 40.7574 74.8877C41.2621 75.9813 42.2155 76.8225 43.6176 77.4114C45.1318 78.0563 46.1553 78.6732 46.6881 79.2621C47.2489 79.8229 47.5293 80.608 47.5293 81.6175C47.5293 83.6364 46.1553 85.1366 43.4073 86.1181C40.6873 87.0995 36.4952 87.5902 30.8309 87.5902C23.8768 87.5902 18.7173 87.0154 15.3524 85.8657C12.5203 84.9123 11.1042 83.37 11.1042 81.2389C11.1042 80.0893 11.6089 79.192 12.6184 78.547C12.8708 78.4068 13.8662 78.0703 15.6047 77.5375C16.6703 77.2291 17.3994 76.6402 17.7919 75.771C18.2125 74.9017 18.549 73.2333 18.8014 70.7657C19.0257 68.5785 19.236 65.0453 19.4323 60.1662C19.6286 55.2591 19.7268 51.0109 19.7268 47.4216C19.7268 44.898 19.5305 43.1034 19.1379 42.0378C18.7453 40.9722 18.1004 40.4395 17.2031 40.4395C16.1095 40.4395 15.0439 41.2246 14.0064 42.7949C12.1277 45.6551 10.5854 47.5478 9.37967 48.4732C7.94959 49.5668 6.56156 50.1136 5.2156 50.1136C3.7014 50.1136 2.45358 49.5528 1.47215 48.4311C0.490715 47.2814 0 45.8233 0 44.0567C0 42.3182 0.392572 40.4114 1.17772 38.3364C1.96286 36.2333 3.01439 34.2985 4.33231 32.5319C6.46342 29.6718 8.56649 28.2417 10.6415 28.2417C11.2023 28.2417 11.8473 28.3258 12.5763 28.4941C14.0905 28.8025 15.3243 29.0128 16.2777 29.125C17.2592 29.2371 18.3808 29.2932 19.6426 29.2932Z" fill="#1E1E1E"/>
<path d="M41.8089 29.2932V29.4656L41.815 29.4654L41.8089 29.2932ZM48.3284 28.3258L48.284 28.1593L48.2811 28.1602L48.3284 28.3258ZM57.1613 33.0367L57.0158 33.1289L57.0163 33.1297L57.1613 33.0367ZM58.1708 48.7676L58.2742 48.9054L58.2746 48.9051L58.1708 48.7676ZM50.2633 48.8097L50.1582 48.9462L50.1605 48.9479L50.2633 48.8097ZM47.0245 44.6877L46.8724 44.7686L46.8742 44.7717L47.0245 44.6877ZM43.6176 77.4114L43.6851 77.2529L43.6843 77.2525L43.6176 77.4114ZM46.6881 79.2621L46.5601 79.3778L46.5662 79.3839L46.6881 79.2621ZM43.4073 86.1181L43.3493 85.9558L43.3488 85.956L43.4073 86.1181ZM15.3524 85.8657L15.4081 85.7027L15.4073 85.7024L15.3524 85.8657ZM12.6184 78.547L12.5346 78.3961L12.5256 78.4018L12.6184 78.547ZM15.6047 77.5375L15.5568 77.372L15.5543 77.3728L15.6047 77.5375ZM17.7919 75.771L17.6368 75.6959L17.6349 75.7001L17.7919 75.771ZM18.8014 70.7657L18.63 70.7481L18.63 70.7481L18.8014 70.7657ZM19.4323 60.1662L19.6045 60.1731L19.6045 60.1731L19.4323 60.1662ZM14.0064 42.7949L13.8627 42.6999L13.8624 42.7003L14.0064 42.7949ZM9.37967 48.4732L9.48433 48.61L9.48456 48.6099L9.37967 48.4732ZM1.47215 48.4311L1.3411 48.543L1.34249 48.5446L1.47215 48.4311ZM1.17772 38.3364L1.33885 38.3974L1.33912 38.3967L1.17772 38.3364ZM4.33231 32.5319L4.4704 32.635L4.47047 32.6349L4.33231 32.5319ZM12.5763 28.4941L12.5376 28.662L12.5419 28.6629L12.5763 28.4941ZM16.2777 29.125L16.2576 29.2961L16.2582 29.2961L16.2777 29.125ZM19.6426 29.4655H41.8089V29.1209H19.6426V29.4655ZM41.815 29.4654C44.2102 29.3809 46.3975 29.0567 48.3758 28.4915L48.2811 28.1602C46.3337 28.7166 44.1747 29.0373 41.8029 29.121L41.815 29.4654ZM48.3728 28.4923C49.2043 28.2706 49.9319 28.1616 50.5577 28.1616V27.817C49.8936 27.817 49.1351 27.9324 48.2841 28.1593L48.3728 28.4923ZM50.5577 28.1616C52.7362 28.1616 54.8925 29.7763 57.0158 33.1289L57.3069 32.9445C55.1679 29.5672 52.9218 27.817 50.5577 27.817V28.1616ZM57.0163 33.1297C59.1599 36.4704 60.2278 39.9016 60.2278 43.4258H60.5723C60.5723 39.8277 59.481 36.3328 57.3063 32.9436L57.0163 33.1297ZM60.2278 43.4258C60.2278 45.8296 59.4973 47.5506 58.067 48.6301L58.2746 48.9051C59.8166 47.7413 60.5723 45.9011 60.5723 43.4258H60.2278ZM58.0674 48.6298C56.9792 49.446 55.6706 49.8572 54.1329 49.8572V50.2017C55.7358 50.2017 57.1192 49.7717 58.2742 48.9054L58.0674 48.6298ZM54.1329 49.8572C52.6802 49.8572 51.4272 49.4605 50.3661 48.6714L50.1605 48.9479C51.2865 49.7852 52.6132 50.2017 54.1329 50.2017V49.8572ZM50.3683 48.6731C49.3009 47.852 48.235 46.5006 47.1749 44.6036L46.8742 44.7717C47.9452 46.6883 49.0385 48.0849 50.1582 48.9462L50.3683 48.6731ZM47.1766 44.6067C46.2521 42.8698 45.5125 41.7122 44.9592 41.1589L44.7155 41.4025C45.2278 41.9148 45.9462 43.0284 46.8725 44.7686L47.1766 44.6067ZM44.9592 41.1589C44.3939 40.5936 43.7051 40.3092 42.9025 40.3092V40.6538C43.6142 40.6538 44.2152 40.9022 44.7155 41.4025L44.9592 41.1589ZM42.9025 40.3092C42.3595 40.3092 41.883 40.4232 41.4801 40.6588C41.0767 40.8948 40.7574 41.2468 40.5202 41.7064L40.8264 41.8644C41.0378 41.4548 41.3144 41.1549 41.6541 40.9562C41.9943 40.7572 42.4081 40.6538 42.9025 40.6538V40.3092ZM40.5202 41.7064C40.0515 42.6145 39.828 44.0801 39.828 46.0757H40.1726C40.1726 44.0894 40.3978 42.6949 40.8264 41.8644L40.5202 41.7064ZM39.828 46.0757V69.63H40.1726V46.0757H39.828ZM39.828 69.63C39.828 72.0464 40.0798 73.8306 40.601 74.9599L40.9138 74.8155C40.4256 73.7575 40.1726 72.0367 40.1726 69.63H39.828ZM40.601 74.9599C41.1281 76.102 42.12 76.9692 43.5509 77.5702L43.6843 77.2525C42.3111 76.6758 41.3962 75.8605 40.9138 74.8155L40.601 74.9599ZM43.5501 77.5699C45.0608 78.2133 46.0542 78.8183 46.5603 79.3776L46.8158 79.1465C46.2563 78.5281 45.2028 77.8993 43.6851 77.2529L43.5501 77.5699ZM46.5662 79.3839C47.0865 79.9042 47.357 80.6406 47.357 81.6175H47.7016C47.7016 80.5754 47.4112 79.7416 46.8099 79.1402L46.5662 79.3839ZM47.357 81.6175C47.357 82.5835 47.0299 83.4219 46.3717 84.1405C45.7101 84.8628 44.7076 85.4707 43.3493 85.9558L43.4652 86.2803C44.8549 85.784 45.9134 85.151 46.6258 84.3732C47.3417 83.5916 47.7016 82.6704 47.7016 81.6175H47.357ZM43.3488 85.956C40.658 86.9269 36.4906 87.4179 30.8309 87.4179V87.7625C36.4998 87.7625 40.7166 87.2721 43.4657 86.2801L43.3488 85.956ZM30.8309 87.4179C23.8812 87.4179 18.7451 86.8428 15.4081 85.7027L15.2967 86.0287C18.6894 87.1879 23.8724 87.7625 30.8309 87.7625V87.4179ZM15.4073 85.7024C14.0078 85.2313 12.9749 84.62 12.2931 83.8774C11.6149 83.1387 11.2765 82.2622 11.2765 81.2389H10.9319C10.9319 82.3468 11.3015 83.3069 12.0393 84.1105C12.7736 84.9102 13.8649 85.5467 15.2974 86.029L15.4073 85.7024ZM11.2765 81.2389C11.2765 80.151 11.7487 79.3071 12.7111 78.6922L12.5256 78.4018C11.4691 79.0768 10.9319 80.0276 10.9319 81.2389H11.2765ZM12.7021 78.6976C12.8117 78.6367 13.1071 78.5225 13.6094 78.3527C14.1049 78.1852 14.7866 77.9685 15.6552 77.7023L15.5543 77.3728C14.6844 77.6394 13.9991 77.8573 13.4991 78.0263C13.006 78.193 12.6775 78.3171 12.5347 78.3964L12.7021 78.6976ZM15.6527 77.703C16.7579 77.3831 17.5321 76.7648 17.9489 75.8419L17.6349 75.7001C17.2666 76.5156 16.5827 77.0751 15.5568 77.3721L15.6527 77.703ZM17.947 75.846C18.3825 74.946 18.7206 73.2489 18.9728 70.7832L18.63 70.7481C18.3775 73.2176 18.0426 74.8574 17.6369 75.6959L17.947 75.846ZM18.9728 70.7833C19.1977 68.5903 19.4082 65.0526 19.6045 60.1731L19.2602 60.1593C19.0639 65.0381 18.8538 68.5666 18.63 70.7481L18.9728 70.7833ZM19.6045 60.1731C19.8008 55.2644 19.899 51.0138 19.899 47.4216H19.5545C19.5545 51.0079 19.4564 55.2537 19.2602 60.1593L19.6045 60.1731ZM19.899 47.4216C19.899 44.8964 19.7036 43.0748 19.2996 41.9782L18.9762 42.0974C19.3574 43.1319 19.5545 44.8996 19.5545 47.4216H19.899ZM19.2996 41.9782C19.0964 41.4267 18.8224 40.9977 18.4695 40.7062C18.1138 40.4124 17.6886 40.2672 17.2031 40.2672V40.6118C17.6148 40.6118 17.9608 40.7329 18.25 40.9719C18.5421 41.2131 18.7869 41.5833 18.9762 42.0974L19.2996 41.9782ZM17.2031 40.2672C16.0197 40.2672 14.9091 41.1161 13.8627 42.6999L14.1502 42.8899C15.1787 41.3331 16.1993 40.6118 17.2031 40.6118V40.2672ZM13.8624 42.7003C11.9844 45.5594 10.4555 47.4303 9.27478 48.3365L9.48456 48.6099C10.7153 47.6653 12.271 45.7507 14.1504 42.8895L13.8624 42.7003ZM9.27502 48.3363C7.8649 49.4147 6.51275 49.9413 5.2156 49.9413V50.2859C6.61038 50.2859 8.03428 49.7189 9.48433 48.61L9.27502 48.3363ZM5.2156 49.9413C3.75016 49.9413 2.54992 49.4012 1.6018 48.3177L1.34249 48.5446C2.35723 49.7043 3.65263 50.2859 5.2156 50.2859V49.9413ZM1.60318 48.3193C0.652752 47.2059 0.172283 45.7896 0.172283 44.0567H-0.172283C-0.172283 45.857 0.328678 47.357 1.34111 48.543L1.60318 48.3193ZM0.172283 44.0567C0.172283 42.3439 0.559134 40.4581 1.33885 38.3974L1.01658 38.2754C0.226011 40.3648 -0.172283 42.2925 -0.172283 44.0567H0.172283ZM1.33912 38.3967C2.11866 36.3086 3.16242 34.3882 4.4704 32.635L4.19423 32.4289C2.86637 34.2088 1.80706 36.1581 1.01631 38.2761L1.33912 38.3967ZM4.47047 32.6349C6.59192 29.7877 8.65027 28.414 10.6415 28.414V28.0694C8.4827 28.0694 6.33492 29.5559 4.19416 32.429L4.47047 32.6349ZM10.6415 28.414C11.1858 28.414 11.8173 28.4957 12.5376 28.6619L12.6151 28.3262C11.8772 28.1559 11.2189 28.0694 10.6415 28.0694V28.414ZM12.5419 28.6629C14.0584 28.9718 15.2974 29.1831 16.2576 29.2961L16.2979 28.9539C15.3512 28.8425 14.1227 28.6332 12.6107 28.3252L12.5419 28.6629ZM16.2582 29.2961C17.2476 29.4092 18.3759 29.4655 19.6426 29.4655V29.1209C18.3856 29.1209 17.2707 29.0651 16.2973 28.9538L16.2582 29.2961Z" fill="#FFF9B8" mask="url(#path-1-outside-1_47_8125)"/>
<mask id="path-3-outside-2_47_8125" maskUnits="userSpaceOnUse" x="3.16992" y="19.8156" width="64" height="63" fill="black">
<rect fill="white" x="3.16992" y="19.8156" width="64" height="63"/>
<path d="M24.8126 22.4019H46.9789C49.3623 22.3177 51.5355 21.9953 53.4984 21.4345C54.3396 21.2101 55.0827 21.098 55.7276 21.098C57.9989 21.098 60.2001 22.7804 62.3312 26.1453C64.4904 29.5102 65.57 32.9733 65.57 36.5345C65.57 38.974 64.8269 40.7546 63.3407 41.8762C62.2191 42.7175 60.8731 43.1381 59.3028 43.1381C57.8167 43.1381 56.5268 42.7315 55.4332 41.9183C54.3396 41.0771 53.26 39.7031 52.1945 37.7963C51.2691 36.0578 50.5401 34.9221 50.0073 34.3893C49.4745 33.8566 48.8296 33.5902 48.0725 33.5902C47.0349 33.5902 46.2919 34.0248 45.8432 34.8941C45.3946 35.7633 45.1702 37.1934 45.1702 39.1843V62.7387C45.1702 65.1502 45.4226 66.9027 45.9273 67.9963C46.4321 69.0899 47.3855 69.9311 48.7875 70.52C50.3017 71.1649 51.3252 71.7818 51.858 72.3707C52.4188 72.9315 52.6992 73.7167 52.6992 74.7261C52.6992 76.7451 51.3252 78.2453 48.5772 79.2267C45.8572 80.2081 41.6651 80.6988 36.0009 80.6988C29.0467 80.6988 23.8872 80.124 20.5223 78.9743C17.6902 78.0209 16.2741 76.4787 16.2741 74.3476C16.2741 73.1979 16.7788 72.3006 17.7883 71.6557C18.0407 71.5155 19.0361 71.179 20.7747 70.6462C21.8402 70.3377 22.5693 69.7489 22.9619 68.8796C23.3825 68.0103 23.719 66.3419 23.9713 63.8743C24.1957 61.6871 24.406 58.154 24.6022 53.2749C24.7985 48.3677 24.8967 44.1195 24.8967 40.5303C24.8967 38.0066 24.7004 36.212 24.3078 35.1464C23.9152 34.0809 23.2703 33.5481 22.373 33.5481C21.2794 33.5481 20.2139 34.3333 19.1763 35.9035C17.2976 38.7637 15.7554 40.6565 14.5496 41.5818C13.1195 42.6754 11.7315 43.2222 10.3855 43.2222C8.87132 43.2222 7.6235 42.6614 6.64207 41.5398C5.66064 40.3901 5.16992 38.932 5.16992 37.1654C5.16992 35.4268 5.56249 33.5201 6.34764 31.445C7.13278 29.342 8.18432 27.4072 9.50224 25.6406C11.6333 22.7804 13.7364 21.3503 15.8114 21.3503C16.3723 21.3503 17.0172 21.4345 17.7463 21.6027C19.2605 21.9111 20.4943 22.1215 21.4476 22.2336C22.4291 22.3458 23.5507 22.4019 24.8126 22.4019Z"/>
</mask>
<path d="M24.8126 22.4019H46.9789C49.3623 22.3177 51.5355 21.9953 53.4984 21.4345C54.3396 21.2101 55.0827 21.098 55.7276 21.098C57.9989 21.098 60.2001 22.7804 62.3312 26.1453C64.4904 29.5102 65.57 32.9733 65.57 36.5345C65.57 38.974 64.8269 40.7546 63.3407 41.8762C62.2191 42.7175 60.8731 43.1381 59.3028 43.1381C57.8167 43.1381 56.5268 42.7315 55.4332 41.9183C54.3396 41.0771 53.26 39.7031 52.1945 37.7963C51.2691 36.0578 50.5401 34.9221 50.0073 34.3893C49.4745 33.8566 48.8296 33.5902 48.0725 33.5902C47.0349 33.5902 46.2919 34.0248 45.8432 34.8941C45.3946 35.7633 45.1702 37.1934 45.1702 39.1843V62.7387C45.1702 65.1502 45.4226 66.9027 45.9273 67.9963C46.4321 69.0899 47.3855 69.9311 48.7875 70.52C50.3017 71.1649 51.3252 71.7818 51.858 72.3707C52.4188 72.9315 52.6992 73.7167 52.6992 74.7261C52.6992 76.7451 51.3252 78.2453 48.5772 79.2267C45.8572 80.2081 41.6651 80.6988 36.0009 80.6988C29.0467 80.6988 23.8872 80.124 20.5223 78.9743C17.6902 78.0209 16.2741 76.4787 16.2741 74.3476C16.2741 73.1979 16.7788 72.3006 17.7883 71.6557C18.0407 71.5155 19.0361 71.179 20.7747 70.6462C21.8402 70.3377 22.5693 69.7489 22.9619 68.8796C23.3825 68.0103 23.719 66.3419 23.9713 63.8743C24.1957 61.6871 24.406 58.154 24.6022 53.2749C24.7985 48.3677 24.8967 44.1195 24.8967 40.5303C24.8967 38.0066 24.7004 36.212 24.3078 35.1464C23.9152 34.0809 23.2703 33.5481 22.373 33.5481C21.2794 33.5481 20.2139 34.3333 19.1763 35.9035C17.2976 38.7637 15.7554 40.6565 14.5496 41.5818C13.1195 42.6754 11.7315 43.2222 10.3855 43.2222C8.87132 43.2222 7.6235 42.6614 6.64207 41.5398C5.66064 40.3901 5.16992 38.932 5.16992 37.1654C5.16992 35.4268 5.56249 33.5201 6.34764 31.445C7.13278 29.342 8.18432 27.4072 9.50224 25.6406C11.6333 22.7804 13.7364 21.3503 15.8114 21.3503C16.3723 21.3503 17.0172 21.4345 17.7463 21.6027C19.2605 21.9111 20.4943 22.1215 21.4476 22.2336C22.4291 22.3458 23.5507 22.4019 24.8126 22.4019Z" fill="#FFF9B8"/>
<path d="M46.9789 22.4019V23.6775H47.0014L47.0239 23.6767L46.9789 22.4019ZM53.4984 21.4345L53.1697 20.2019L53.1588 20.2048L53.1479 20.2079L53.4984 21.4345ZM62.3312 26.1453L61.2536 26.8278L61.2577 26.8342L62.3312 26.1453ZM63.3407 41.8762L64.1061 42.8967L64.1091 42.8944L63.3407 41.8762ZM55.4332 41.9183L54.6554 42.9294L54.6637 42.9357L54.672 42.9419L55.4332 41.9183ZM52.1945 37.7963L51.0684 38.3956L51.0746 38.4072L51.0809 38.4186L52.1945 37.7963ZM48.7875 70.52L49.2874 69.3464L49.2815 69.3439L48.7875 70.52ZM51.858 72.3707L50.9121 73.2265L50.9335 73.2502L50.956 73.2727L51.858 72.3707ZM48.5772 79.2267L48.1482 78.0254L48.1442 78.0268L48.5772 79.2267ZM20.5223 78.9743L20.9347 77.7672L20.9293 77.7654L20.5223 78.9743ZM17.7883 71.6557L17.1688 70.5406L17.1346 70.5596L17.1015 70.5807L17.7883 71.6557ZM20.7747 70.6462L20.42 69.4209L20.4104 69.4237L20.4009 69.4266L20.7747 70.6462ZM22.9619 68.8796L21.8136 68.324L21.8063 68.3392L21.7993 68.3546L22.9619 68.8796ZM23.9713 63.8743L22.7024 63.7442L22.7023 63.7445L23.9713 63.8743ZM24.6022 53.2749L25.8768 53.3261L25.8768 53.3258L24.6022 53.2749ZM19.1763 35.9035L18.1121 35.2004L18.1102 35.2032L19.1763 35.9035ZM14.5496 41.5818L15.3245 42.5951L15.3262 42.5938L14.5496 41.5818ZM6.64207 41.5398L5.67189 42.368L5.67695 42.3739L5.68208 42.3798L6.64207 41.5398ZM6.34764 31.445L7.54071 31.8965L7.54268 31.8912L6.34764 31.445ZM9.50224 25.6406L10.5247 26.4033L10.5251 26.4027L9.50224 25.6406ZM17.7463 21.6027L17.4594 22.8456L17.4755 22.8493L17.4916 22.8526L17.7463 21.6027ZM21.4476 22.2336L21.2986 23.5005L21.3028 23.501L21.4476 22.2336ZM24.8126 23.6775H46.9789V21.1263H24.8126V23.6775ZM47.0239 23.6767C49.4939 23.5895 51.7715 23.2545 53.8488 22.661L53.1479 20.2079C51.2996 20.736 49.2308 21.046 46.9339 21.1271L47.0239 23.6767ZM53.827 22.667C54.5958 22.462 55.2246 22.3736 55.7276 22.3736V19.8224C54.9407 19.8224 54.0834 19.9583 53.1697 20.2019L53.827 22.667ZM55.7276 22.3736C57.312 22.3736 59.1806 23.5547 61.2536 26.8278L63.4089 25.4628C61.2197 22.0061 58.6858 19.8224 55.7276 19.8224V22.3736ZM61.2577 26.8342C63.3016 30.0196 64.2944 33.2467 64.2944 36.5345H66.8456C66.8456 32.6999 65.6792 29.0009 63.4048 25.4564L61.2577 26.8342ZM64.2944 36.5345C64.2944 38.7092 63.6446 40.0488 62.5723 40.8581L64.1091 42.8944C66.0091 41.4605 66.8456 39.2388 66.8456 36.5345H64.2944ZM62.5754 40.8558C61.7008 41.5117 60.6319 41.8625 59.3028 41.8625V44.4137C61.1143 44.4137 62.7373 43.9233 64.1061 42.8967L62.5754 40.8558ZM59.3028 41.8625C58.0646 41.8625 57.0477 41.5293 56.1943 40.8947L54.672 42.9419C56.0058 43.9337 57.5687 44.4137 59.3028 44.4137V41.8625ZM56.2109 40.9072C55.3111 40.215 54.3328 39.008 53.308 37.174L51.0809 38.4186C52.1872 40.3982 53.3681 41.9391 54.6554 42.9294L56.2109 40.9072ZM53.3205 37.197C52.4016 35.4705 51.5941 34.1722 50.9093 33.4873L49.1053 35.2913C49.486 35.672 50.1367 36.6451 51.0684 38.3956L53.3205 37.197ZM50.9093 33.4873C50.136 32.7141 49.166 32.3146 48.0725 32.3146V34.8658C48.4931 34.8658 48.813 34.9991 49.1053 35.2913L50.9093 33.4873ZM48.0725 32.3146C47.3738 32.3146 46.6965 32.4621 46.093 32.8151C45.4852 33.1705 45.0294 33.6895 44.7097 34.309L46.9767 35.4791C47.1057 35.2293 47.2457 35.0964 47.381 35.0172C47.5206 34.9356 47.7336 34.8658 48.0725 34.8658V32.3146ZM44.7097 34.309C44.1127 35.4657 43.8946 37.1589 43.8946 39.1843H46.4458C46.4458 37.2279 46.6764 36.061 46.9767 35.4791L44.7097 34.309ZM43.8946 39.1843V62.7387H46.4458V39.1843H43.8946ZM43.8946 62.7387C43.8946 65.1862 44.1426 67.1734 44.7691 68.5309L47.0855 67.4618C46.7026 66.6321 46.4458 65.1141 46.4458 62.7387H43.8946ZM44.7691 68.5309C45.4398 69.984 46.6778 71.0175 48.2935 71.6961L49.2815 69.3439C48.0931 68.8448 47.4243 68.1958 47.0855 67.4618L44.7691 68.5309ZM48.2876 71.6936C49.7758 72.3274 50.577 72.8562 50.9121 73.2265L52.8039 71.5149C52.0734 70.7075 50.8276 70.0024 49.2874 69.3464L48.2876 71.6936ZM50.956 73.2727C51.2168 73.5335 51.4236 73.9581 51.4236 74.7261H53.9748C53.9748 73.4752 53.6208 72.3295 52.76 71.4687L50.956 73.2727ZM51.4236 74.7261C51.4236 75.414 51.2014 75.9871 50.728 76.5039C50.229 77.0487 49.406 77.5762 48.1482 78.0254L49.0062 80.428C50.4964 79.8958 51.7344 79.1824 52.6094 78.227C53.51 77.2437 53.9748 76.0572 53.9748 74.7261H51.4236ZM48.1442 78.0268C45.6402 78.9303 41.631 79.4232 36.0009 79.4232V81.9744C41.6992 81.9744 46.0743 81.4859 49.0101 80.4266L48.1442 78.0268ZM36.0009 79.4232C29.0796 79.4232 24.0935 78.8465 20.9347 77.7672L20.1099 80.1814C23.6809 81.4015 29.0138 81.9744 36.0009 81.9744V79.4232ZM20.9293 77.7654C19.6352 77.3298 18.7893 76.7992 18.2758 76.2399C17.7881 75.7087 17.5497 75.0999 17.5497 74.3476H14.9985C14.9985 75.7263 15.4682 76.9542 16.3965 77.9653C17.2991 78.9483 18.5772 79.6655 20.1153 80.1833L20.9293 77.7654ZM17.5497 74.3476C17.5497 73.6548 17.8139 73.153 18.4751 72.7306L17.1015 70.5807C15.7438 71.4482 14.9985 72.741 14.9985 74.3476H17.5497ZM18.4078 72.7707C18.3843 72.7838 18.4188 72.7639 18.5721 72.7053C18.7065 72.654 18.8917 72.588 19.1327 72.5066C19.6135 72.344 20.2837 72.1308 21.1484 71.8658L20.4009 69.4266C19.5271 69.6944 18.8303 69.9158 18.3157 70.0897C17.8522 70.2464 17.4175 70.4024 17.1688 70.5406L18.4078 72.7707ZM21.1294 71.8715C22.4888 71.478 23.5523 70.6715 24.1244 69.4046L21.7993 68.3546C21.5863 68.8263 21.1916 69.1975 20.42 69.4209L21.1294 71.8715ZM24.1101 69.4352C24.6408 68.3384 24.9894 66.4578 25.2403 64.0041L22.7023 63.7445C22.4486 66.226 22.1241 67.6822 21.8136 68.324L24.1101 69.4352ZM25.2403 64.0045C25.4689 61.7749 25.6804 58.2078 25.8768 53.3261L23.3277 53.2236C23.1315 58.1001 22.9224 61.5993 22.7024 63.7442L25.2403 64.0045ZM25.8768 53.3258C26.0736 48.4074 26.1723 44.1414 26.1723 40.5303H23.6211C23.6211 44.0976 23.5235 48.328 23.3277 53.2239L25.8768 53.3258ZM26.1723 40.5303C26.1723 37.9948 25.982 36.0009 25.5048 34.7055L23.1109 35.5874C23.4187 36.4231 23.6211 38.0184 23.6211 40.5303H26.1723ZM25.5048 34.7055C25.2573 34.0338 24.8898 33.4167 24.3421 32.9643C23.7738 32.4948 23.095 32.2725 22.373 32.2725V34.8237C22.5483 34.8237 22.6407 34.8679 22.7173 34.9311C22.8145 35.0115 22.9658 35.1935 23.1109 35.5874L25.5048 34.7055ZM22.373 32.2725C20.6145 32.2725 19.2157 33.53 18.1121 35.2004L20.2406 36.6067C21.212 35.1365 21.9443 34.8237 22.373 34.8237V32.2725ZM18.1102 35.2032C16.2365 38.0557 14.7937 39.7866 13.773 40.5699L15.3262 42.5938C16.717 41.5264 18.3587 39.4717 20.2425 36.6039L18.1102 35.2032ZM13.7747 40.5685C12.4925 41.5491 11.3701 41.9466 10.3855 41.9466V44.4978C12.0929 44.4978 13.7466 43.8017 15.3245 42.5951L13.7747 40.5685ZM10.3855 41.9466C9.23241 41.9466 8.33686 41.5395 7.60206 40.6998L5.68208 42.3798C6.91014 43.7832 8.51022 44.4978 10.3855 44.4978V41.9466ZM7.61225 40.7116C6.86038 39.8308 6.44553 38.6823 6.44553 37.1654H3.89432C3.89432 39.1816 4.4609 40.9494 5.67189 42.368L7.61225 40.7116ZM6.44553 37.1654C6.44553 35.6171 6.79574 33.8653 7.54069 31.8965L5.15458 30.9936C4.32925 33.1749 3.89432 35.2366 3.89432 37.1654H6.44553ZM7.54268 31.8912C8.28636 29.8992 9.28032 28.0713 10.5247 26.4033L8.47981 24.8778C7.08831 26.743 5.97921 28.7848 5.1526 30.9989L7.54268 31.8912ZM10.5251 26.4027C12.5848 23.6384 14.3568 22.6259 15.8114 22.6259V20.0747C13.1161 20.0747 10.6819 21.9224 8.47935 24.8784L10.5251 26.4027ZM15.8114 22.6259C16.2498 22.6259 16.7953 22.6924 17.4594 22.8456L18.0331 20.3598C17.2391 20.1765 16.4947 20.0747 15.8114 20.0747V22.6259ZM17.4916 22.8526C19.0225 23.1645 20.2952 23.3824 21.2986 23.5005L21.5967 20.9668C20.6933 20.8605 19.4984 20.6578 18.0009 20.3528L17.4916 22.8526ZM21.3028 23.501C22.3434 23.6199 23.5149 23.6775 24.8126 23.6775V21.1263C23.5866 21.1263 22.5148 21.0717 21.5925 20.9663L21.3028 23.501Z" fill="#1E1E1E" mask="url(#path-3-outside-2_47_8125)"/>
</svg>
