<svg width="77" height="106" viewBox="0 0 77 106" fill="none" xmlns="http://www.w3.org/2000/svg">
<mask id="path-1-outside-1_47_8122" maskUnits="userSpaceOnUse" x="0.605469" y="27.2869" width="70" height="61" fill="black">
<rect fill="white" x="0.605469" y="27.2869" width="70" height="61"/>
<path d="M63.9498 49.9038V60.1668C63.9498 66.3638 63.4871 70.7522 62.5618 73.332C60.5709 78.7719 56.1965 82.7117 49.4386 85.1512C45.3447 86.6654 40.7179 87.4225 35.5584 87.4225C26.5573 87.4225 19.3508 85.2774 13.9389 80.9871C11.3031 78.8841 9.48041 76.4445 8.47093 73.6685C7.46146 70.8924 6.95673 66.8826 6.95673 61.6389C6.95673 59.592 7.02683 56.227 7.16703 51.5442C7.25116 48.2354 7.29322 46.0482 7.29322 44.9827C7.29322 42.6553 7.11095 41.0429 6.74642 40.1456C6.40993 39.2483 5.65283 38.4071 4.47511 37.6219C2.62441 36.4162 1.69906 35.0702 1.69906 33.584C1.69906 32.4904 2.16174 31.523 3.08709 30.6818C4.04048 29.8406 5.28829 29.2657 6.83054 28.9573C9.91504 28.3404 13.5604 28.032 17.7665 28.032C22.3932 28.032 26.2348 28.3825 29.2913 29.0835C32.2917 29.7565 33.7918 31.2847 33.7918 33.6682C33.7918 34.8459 33.3572 35.7853 32.4879 36.4863C32.2917 36.6545 31.4504 37.0892 29.9643 37.7902C29.067 38.1827 28.4501 38.8978 28.1136 39.9353C27.8051 40.9728 27.6509 42.6833 27.6509 45.0668C27.6509 47.5063 27.5387 52.778 27.3144 60.8818C27.1742 65.7049 28.4781 69.3782 31.2261 71.9019C33.4694 73.9769 36.3576 75.0144 39.8907 75.0144C42.134 75.0144 44.167 74.6078 45.9896 73.7947C47.8123 72.9534 49.2003 71.8178 50.1537 70.3877C50.9108 69.2941 51.4296 68.0743 51.71 66.7284C51.9904 65.3824 52.1306 63.5457 52.1306 61.2183V51.9648C51.9904 44.8705 51.7801 40.7204 51.4997 39.5147C51.2473 38.2809 50.35 37.3135 48.8077 36.6125C47.3496 35.9675 46.3542 35.3787 45.8214 34.8459C45.2886 34.3131 45.0222 33.6541 45.0222 32.869C45.0222 31.1865 46.0177 29.9668 48.0086 29.2097C50.0275 28.4245 53.2522 28.032 57.6827 28.032C62.029 28.032 65.1696 28.4105 67.1044 29.1676C69.0673 29.9247 70.0487 31.1305 70.0487 32.7849C70.0487 33.5981 69.8804 34.2009 69.544 34.5935C69.2075 34.9861 68.3242 35.589 66.8941 36.4022C65.4079 37.2434 64.5527 38.1547 64.3284 39.1361C64.1321 40.0895 64.0059 43.6788 63.9498 49.9038Z"/>
</mask>
<path d="M63.9498 49.9038V60.1668C63.9498 66.3638 63.4871 70.7522 62.5618 73.332C60.5709 78.7719 56.1965 82.7117 49.4386 85.1512C45.3447 86.6654 40.7179 87.4225 35.5584 87.4225C26.5573 87.4225 19.3508 85.2774 13.9389 80.9871C11.3031 78.8841 9.48041 76.4445 8.47093 73.6685C7.46146 70.8924 6.95673 66.8826 6.95673 61.6389C6.95673 59.592 7.02683 56.227 7.16703 51.5442C7.25116 48.2354 7.29322 46.0482 7.29322 44.9827C7.29322 42.6553 7.11095 41.0429 6.74642 40.1456C6.40993 39.2483 5.65283 38.4071 4.47511 37.6219C2.62441 36.4162 1.69906 35.0702 1.69906 33.584C1.69906 32.4904 2.16174 31.523 3.08709 30.6818C4.04048 29.8406 5.28829 29.2657 6.83054 28.9573C9.91504 28.3404 13.5604 28.032 17.7665 28.032C22.3932 28.032 26.2348 28.3825 29.2913 29.0835C32.2917 29.7565 33.7918 31.2847 33.7918 33.6682C33.7918 34.8459 33.3572 35.7853 32.4879 36.4863C32.2917 36.6545 31.4504 37.0892 29.9643 37.7902C29.067 38.1827 28.4501 38.8978 28.1136 39.9353C27.8051 40.9728 27.6509 42.6833 27.6509 45.0668C27.6509 47.5063 27.5387 52.778 27.3144 60.8818C27.1742 65.7049 28.4781 69.3782 31.2261 71.9019C33.4694 73.9769 36.3576 75.0144 39.8907 75.0144C42.134 75.0144 44.167 74.6078 45.9896 73.7947C47.8123 72.9534 49.2003 71.8178 50.1537 70.3877C50.9108 69.2941 51.4296 68.0743 51.71 66.7284C51.9904 65.3824 52.1306 63.5457 52.1306 61.2183V51.9648C51.9904 44.8705 51.7801 40.7204 51.4997 39.5147C51.2473 38.2809 50.35 37.3135 48.8077 36.6125C47.3496 35.9675 46.3542 35.3787 45.8214 34.8459C45.2886 34.3131 45.0222 33.6541 45.0222 32.869C45.0222 31.1865 46.0177 29.9668 48.0086 29.2097C50.0275 28.4245 53.2522 28.032 57.6827 28.032C62.029 28.032 65.1696 28.4105 67.1044 29.1676C69.0673 29.9247 70.0487 31.1305 70.0487 32.7849C70.0487 33.5981 69.8804 34.2009 69.544 34.5935C69.2075 34.9861 68.3242 35.589 66.8941 36.4022C65.4079 37.2434 64.5527 38.1547 64.3284 39.1361C64.1321 40.0895 64.0059 43.6788 63.9498 49.9038Z" fill="#1E1E1E"/>
<path d="M63.9498 49.9038L63.7775 49.9023V49.9038H63.9498ZM62.5618 73.332L62.7236 73.3912L62.7239 73.3902L62.5618 73.332ZM49.4386 85.1512L49.3801 84.9892L49.3789 84.9896L49.4386 85.1512ZM13.9389 80.9871L13.8315 81.1218L13.8319 81.1221L13.9389 80.9871ZM7.16703 51.5442L7.33924 51.5494L7.33926 51.5486L7.16703 51.5442ZM6.74642 40.1456L6.58505 40.2061L6.58681 40.2105L6.74642 40.1456ZM4.47511 37.6219L4.57068 37.4786L4.56916 37.4776L4.47511 37.6219ZM3.08709 30.6818L2.97309 30.5526L2.9712 30.5543L3.08709 30.6818ZM6.83054 28.9573L6.86433 29.1262L6.83054 28.9573ZM29.2913 29.0835L29.2528 29.2514L29.2536 29.2516L29.2913 29.0835ZM32.4879 36.4863L32.3797 36.3521L32.3758 36.3555L32.4879 36.4863ZM29.9643 37.7902L30.0333 37.9481L30.0378 37.946L29.9643 37.7902ZM28.1136 39.9353L27.9496 39.8821L27.9484 39.8862L28.1136 39.9353ZM27.3144 60.8818L27.4866 60.8868L27.4866 60.8866L27.3144 60.8818ZM31.2261 71.9019L31.3431 71.7754L31.3426 71.775L31.2261 71.9019ZM45.9896 73.7947L46.0598 73.952L46.0618 73.9511L45.9896 73.7947ZM50.1537 70.3877L50.012 70.2896L50.0103 70.2921L50.1537 70.3877ZM52.1306 51.9648H52.3029L52.3028 51.9614L52.1306 51.9648ZM51.4997 39.5147L51.3308 39.5492L51.3318 39.5537L51.4997 39.5147ZM48.8077 36.6125L48.879 36.4556L48.8774 36.4549L48.8077 36.6125ZM48.0086 29.2097L48.0698 29.3707L48.071 29.3702L48.0086 29.2097ZM67.1044 29.1676L67.0416 29.328L67.0424 29.3283L67.1044 29.1676ZM66.8941 36.4022L66.979 36.5521L66.9793 36.5519L66.8941 36.4022ZM64.3284 39.1361L64.1604 39.0977L64.1596 39.1014L64.3284 39.1361ZM63.7775 49.9038V60.1668H64.1221V49.9038H63.7775ZM63.7775 60.1668C63.7775 66.3627 63.314 70.7246 62.3996 73.2738L62.7239 73.3902C63.6603 70.7798 64.1221 66.365 64.1221 60.1668H63.7775ZM62.4 73.2728C60.4307 78.6536 56.1026 82.5624 49.3802 84.9892L49.4971 85.3133C56.2904 82.8609 60.711 78.8903 62.7236 73.3912L62.4 73.2728ZM49.3789 84.9896C45.3072 86.4956 40.7012 87.2502 35.5584 87.2502V87.5948C40.7347 87.5948 45.3822 86.8352 49.4984 85.3128L49.3789 84.9896ZM35.5584 87.2502C26.5843 87.2502 19.4192 85.1118 14.0459 80.8521L13.8319 81.1221C19.2824 85.443 26.5303 87.5948 35.5584 87.5948V87.2502ZM14.0464 80.8525C11.4317 78.7663 9.63002 76.3518 8.63284 73.6096L8.30902 73.7273C9.3308 76.5372 11.1744 79.0018 13.8315 81.1218L14.0464 80.8525ZM8.63284 73.6096C7.63361 70.8617 7.12901 66.8756 7.12901 61.6389H6.78444C6.78444 66.8896 7.28932 70.9232 8.30902 73.7273L8.63284 73.6096ZM7.12901 61.6389C7.12901 59.5948 7.19904 56.2321 7.33924 51.5494L6.99483 51.5391C6.85462 56.222 6.78444 59.5892 6.78444 61.6389H7.12901ZM7.33926 51.5486C7.42337 48.2402 7.4655 46.0508 7.4655 44.9827H7.12093C7.12093 46.0456 7.07894 48.2306 6.99481 51.5398L7.33926 51.5486ZM7.4655 44.9827C7.4655 42.6557 7.28455 41.0125 6.90603 40.0808L6.58681 40.2105C6.93735 41.0733 7.12093 42.6548 7.12093 44.9827H7.4655ZM6.90773 40.0851C6.55381 39.1413 5.76481 38.2747 4.57067 37.4786L4.37954 37.7653C5.54085 38.5395 6.26605 39.3553 6.58511 40.2061L6.90773 40.0851ZM4.56916 37.4776C2.74193 36.2871 1.87135 34.9871 1.87135 33.584H1.52678C1.52678 35.1533 2.50689 36.5452 4.38106 37.7663L4.56916 37.4776ZM1.87135 33.584C1.87135 32.5462 2.30786 31.623 3.20298 30.8093L2.9712 30.5543C2.01562 31.423 1.52678 32.4347 1.52678 33.584H1.87135ZM3.20107 30.811C4.12689 29.9941 5.34485 29.4301 6.86433 29.1262L6.79676 28.7884C5.23174 29.1014 3.95407 29.6871 2.9731 30.5526L3.20107 30.811ZM6.86433 29.1262C9.9347 28.5122 13.5682 28.2042 17.7665 28.2042V27.8597C13.5525 27.8597 9.89538 28.1686 6.79676 28.7884L6.86433 29.1262ZM17.7665 28.2042C22.3858 28.2042 26.2134 28.5543 29.2528 29.2514L29.3298 28.9156C26.2563 28.2106 22.4007 27.8597 17.7665 27.8597V28.2042ZM29.2536 29.2516C30.7348 29.5838 31.825 30.1229 32.5438 30.8551C33.2585 31.5832 33.6196 32.516 33.6196 33.6682H33.9641C33.9641 32.4369 33.5751 31.4138 32.7896 30.6137C32.0082 29.8177 30.8481 29.2561 29.329 28.9154L29.2536 29.2516ZM33.6196 33.6682C33.6196 34.7971 33.206 35.6859 32.3798 36.3522L32.5961 36.6204C33.5084 35.8846 33.9641 34.8947 33.9641 33.6682H33.6196ZM32.3758 36.3555C32.3398 36.3863 32.2626 36.4383 32.1332 36.5134C32.007 36.5868 31.8398 36.6774 31.6307 36.7854C31.2128 37.0013 30.6331 37.2842 29.8908 37.6344L30.0378 37.946C30.7816 37.5951 31.3656 37.3102 31.7889 37.0915C32.0005 36.9822 32.1732 36.8887 32.3064 36.8114C32.4364 36.7358 32.5379 36.6703 32.6001 36.6171L32.3758 36.3555ZM29.8952 37.6323C28.9474 38.047 28.2994 38.8037 27.9497 39.8822L28.2774 39.9885C28.6007 38.9918 29.1866 38.3185 30.0333 37.948L29.8952 37.6323ZM27.9484 39.8862C27.6323 40.9495 27.4786 42.6817 27.4786 45.0668H27.8232C27.8232 42.6849 27.9779 40.9961 28.2787 39.9844L27.9484 39.8862ZM27.4786 45.0668C27.4786 47.5035 27.3665 52.7727 27.1422 60.8771L27.4866 60.8866C27.7109 52.7834 27.8232 47.5092 27.8232 45.0668H27.4786ZM27.1422 60.8768C27.001 65.7342 28.3146 69.462 31.1096 72.0288L31.3426 71.775C28.6416 69.2945 27.3474 65.6756 27.4866 60.8868L27.1422 60.8768ZM31.1091 72.0284C33.3892 74.1374 36.3215 75.1867 39.8907 75.1867V74.8422C36.3937 74.8422 33.5496 73.8164 31.3431 71.7754L31.1091 72.0284ZM39.8907 75.1867C42.1552 75.1867 44.2125 74.7762 46.0598 73.952L45.9194 73.6373C44.1214 74.4395 42.1128 74.8422 39.8907 74.8422V75.1867ZM46.0618 73.9511C47.9084 73.0988 49.3232 71.944 50.297 70.4833L50.0103 70.2921C49.0774 71.6916 47.7161 72.8081 45.9174 73.6382L46.0618 73.9511ZM50.2953 70.4858C51.066 69.3726 51.5937 68.1313 51.8786 66.7635L51.5413 66.6932C51.2654 68.0174 50.7556 69.2156 50.012 70.2896L50.2953 70.4858ZM51.8786 66.7635C52.1625 65.4008 52.3029 63.5506 52.3029 61.2183H51.9583C51.9583 63.5408 51.8182 65.364 51.5413 66.6932L51.8786 66.7635ZM52.3029 61.2183V51.9648H51.9583V61.2183H52.3029ZM52.3028 51.9614C52.2327 48.4135 52.145 45.6004 52.0398 43.5228C51.9348 41.4517 51.8118 40.0964 51.6675 39.4757L51.3318 39.5537C51.4679 40.1387 51.5903 41.4613 51.6956 43.5403C51.8007 45.6127 51.8882 48.4218 51.9583 51.9682L52.3028 51.9614ZM51.6684 39.4802C51.4014 38.1748 50.4526 37.1709 48.879 36.4556L48.7364 36.7693C50.2473 37.4561 51.0931 38.3869 51.3309 39.5492L51.6684 39.4802ZM48.8774 36.4549C47.4219 35.8111 46.4519 35.2328 45.9432 34.7241L45.6996 34.9677C46.2564 35.5246 47.2773 36.1239 48.738 36.77L48.8774 36.4549ZM45.9432 34.7241C45.4442 34.2251 45.1945 33.6106 45.1945 32.869H44.8499C44.8499 33.6977 45.133 34.4011 45.6996 34.9677L45.9432 34.7241ZM45.1945 32.869C45.1945 32.0645 45.4314 31.3782 45.9023 30.8013C46.3753 30.2216 47.093 29.7422 48.0698 29.3707L47.9473 29.0486C46.9332 29.4343 46.1577 29.9433 45.6353 30.5834C45.1107 31.2262 44.8499 31.991 44.8499 32.869H45.1945ZM48.071 29.3702C50.0584 28.5973 53.256 28.2042 57.6827 28.2042V27.8597C53.2484 27.8597 49.9966 28.2517 47.9461 29.0491L48.071 29.3702ZM57.6827 28.2042C62.0258 28.2042 65.1387 28.5834 67.0416 29.328L67.1672 29.0072C65.2004 28.2376 62.0322 27.8597 57.6827 27.8597V28.2042ZM67.0424 29.3283C68.0053 29.6998 68.7128 30.1757 69.179 30.7485C69.643 31.3186 69.8764 31.9946 69.8764 32.7849H70.221C70.221 31.9208 69.9636 31.1667 69.4462 30.531C68.931 29.8981 68.1663 29.3925 67.1664 29.0069L67.0424 29.3283ZM69.8764 32.7849C69.8764 33.5793 69.7112 34.1336 69.4131 34.4814L69.6748 34.7056C70.0496 34.2683 70.221 33.6169 70.221 32.7849H69.8764ZM69.4131 34.4814C69.2605 34.6595 68.9715 34.8978 68.532 35.1978C68.0957 35.4956 67.5218 35.847 66.8089 36.2524L66.9793 36.5519C67.6965 36.1441 68.2792 35.7875 68.7262 35.4824C69.17 35.1795 69.4909 34.9201 69.6748 34.7056L69.4131 34.4814ZM66.8092 36.2522C65.3088 37.1015 64.401 38.045 64.1604 39.0977L64.4963 39.1745C64.7043 38.2644 65.507 37.3853 66.979 36.5521L66.8092 36.2522ZM64.1596 39.1014C64.0579 39.5953 63.9773 40.7471 63.9143 42.537C63.8512 44.3339 63.8056 46.7892 63.7775 49.9023L64.1221 49.9054C64.1501 46.7934 64.1957 44.3416 64.2587 42.5492C64.3219 40.7499 64.4025 39.6304 64.4971 39.1709L64.1596 39.1014Z" fill="#FDE0E3" mask="url(#path-1-outside-1_47_8122)"/>
<mask id="path-3-outside-2_47_8122" maskUnits="userSpaceOnUse" x="4.77539" y="19.3956" width="72" height="63" fill="black">
<rect fill="white" x="4.77539" y="19.3956" width="72" height="63"/>
<path d="M69.1197 43.0126V53.2756C69.1197 59.4726 68.657 63.861 67.7317 66.4407C65.7408 71.8807 61.3664 75.8204 54.6086 78.26C50.5146 79.7742 45.8879 80.5313 40.7283 80.5313C31.7272 80.5313 24.5207 78.3862 19.1088 74.0959C16.473 71.9928 14.6503 69.5533 13.6409 66.7772C12.6314 64.0012 12.1266 59.9913 12.1266 54.7477C12.1266 52.7007 12.1968 49.3358 12.337 44.653C12.4211 41.3442 12.4631 39.157 12.4631 38.0914C12.4631 35.764 12.2809 34.1517 11.9163 33.2544C11.5799 32.3571 10.8227 31.5158 9.64503 30.7307C7.79433 29.5249 6.86898 28.179 6.86898 26.6928C6.86898 25.5992 7.33166 24.6318 8.25701 23.7906C9.2104 22.9494 10.4582 22.3745 12.0005 22.0661C15.085 21.4492 18.7303 21.1407 22.9364 21.1407C27.5631 21.1407 31.4047 21.4912 34.4612 22.1922C37.4616 22.8652 38.9618 24.3935 38.9618 26.7769C38.9618 27.9546 38.5271 28.894 37.6579 29.595C37.4616 29.7633 36.6204 30.1979 35.1342 30.8989C34.2369 31.2915 33.62 32.0066 33.2835 33.0441C32.975 34.0816 32.8208 35.7921 32.8208 38.1755C32.8208 40.6151 32.7086 45.8868 32.4843 53.9906C32.3441 58.8136 33.648 62.487 36.396 65.0107C38.6393 67.0857 41.5275 68.1232 45.0607 68.1232C47.3039 68.1232 49.3369 67.7166 51.1595 66.9034C52.9822 66.0622 54.3702 64.9265 55.3236 63.4965C56.0807 62.4029 56.5995 61.1831 56.8799 59.8371C57.1603 58.4912 57.3005 56.6545 57.3005 54.3271V45.0736C57.1603 37.9793 56.95 33.8292 56.6696 32.6235C56.4172 31.3897 55.5199 30.4222 53.9777 29.7212C52.5195 29.0763 51.5241 28.4874 50.9913 27.9546C50.4585 27.4219 50.1921 26.7629 50.1921 25.9778C50.1921 24.2953 51.1876 23.0755 53.1785 22.3184C55.1974 21.5333 58.4221 21.1407 62.8526 21.1407C67.1989 21.1407 70.3395 21.5193 72.2743 22.2764C74.2372 23.0335 75.2186 24.2392 75.2186 25.8936C75.2186 26.7068 75.0504 27.3097 74.7139 27.7023C74.3774 28.0949 73.4941 28.6977 72.064 29.5109C70.5778 30.3521 69.7226 31.2635 69.4983 32.2449C69.302 33.1983 69.1758 36.7875 69.1197 43.0126Z"/>
</mask>
<path d="M69.1197 43.0126V53.2756C69.1197 59.4726 68.657 63.861 67.7317 66.4407C65.7408 71.8807 61.3664 75.8204 54.6086 78.26C50.5146 79.7742 45.8879 80.5313 40.7283 80.5313C31.7272 80.5313 24.5207 78.3862 19.1088 74.0959C16.473 71.9928 14.6503 69.5533 13.6409 66.7772C12.6314 64.0012 12.1266 59.9913 12.1266 54.7477C12.1266 52.7007 12.1968 49.3358 12.337 44.653C12.4211 41.3442 12.4631 39.157 12.4631 38.0914C12.4631 35.764 12.2809 34.1517 11.9163 33.2544C11.5799 32.3571 10.8227 31.5158 9.64503 30.7307C7.79433 29.5249 6.86898 28.179 6.86898 26.6928C6.86898 25.5992 7.33166 24.6318 8.25701 23.7906C9.2104 22.9494 10.4582 22.3745 12.0005 22.0661C15.085 21.4492 18.7303 21.1407 22.9364 21.1407C27.5631 21.1407 31.4047 21.4912 34.4612 22.1922C37.4616 22.8652 38.9618 24.3935 38.9618 26.7769C38.9618 27.9546 38.5271 28.894 37.6579 29.595C37.4616 29.7633 36.6204 30.1979 35.1342 30.8989C34.2369 31.2915 33.62 32.0066 33.2835 33.0441C32.975 34.0816 32.8208 35.7921 32.8208 38.1755C32.8208 40.6151 32.7086 45.8868 32.4843 53.9906C32.3441 58.8136 33.648 62.487 36.396 65.0107C38.6393 67.0857 41.5275 68.1232 45.0607 68.1232C47.3039 68.1232 49.3369 67.7166 51.1595 66.9034C52.9822 66.0622 54.3702 64.9265 55.3236 63.4965C56.0807 62.4029 56.5995 61.1831 56.8799 59.8371C57.1603 58.4912 57.3005 56.6545 57.3005 54.3271V45.0736C57.1603 37.9793 56.95 33.8292 56.6696 32.6235C56.4172 31.3897 55.5199 30.4222 53.9777 29.7212C52.5195 29.0763 51.5241 28.4874 50.9913 27.9546C50.4585 27.4219 50.1921 26.7629 50.1921 25.9778C50.1921 24.2953 51.1876 23.0755 53.1785 22.3184C55.1974 21.5333 58.4221 21.1407 62.8526 21.1407C67.1989 21.1407 70.3395 21.5193 72.2743 22.2764C74.2372 23.0335 75.2186 24.2392 75.2186 25.8936C75.2186 26.7068 75.0504 27.3097 74.7139 27.7023C74.3774 28.0949 73.4941 28.6977 72.064 29.5109C70.5778 30.3521 69.7226 31.2635 69.4983 32.2449C69.302 33.1983 69.1758 36.7875 69.1197 43.0126Z" fill="#FDE0E3"/>
<path d="M69.1197 43.0126L67.8441 43.0011V43.0126H69.1197ZM67.7317 66.4407L68.9296 66.8792L68.9324 66.8714L67.7317 66.4407ZM54.6086 78.26L54.1754 77.0601L54.1661 77.0636L54.6086 78.26ZM19.1088 74.0959L18.3133 75.093L18.3164 75.0955L19.1088 74.0959ZM12.337 44.653L13.612 44.6912L13.6121 44.6854L12.337 44.653ZM11.9163 33.2544L10.722 33.7023L10.728 33.7185L10.7345 33.7345L11.9163 33.2544ZM9.64503 30.7307L10.3526 29.6693L10.3414 29.6619L9.64503 30.7307ZM8.25701 23.7906L7.41304 22.8341L7.40595 22.8403L7.39894 22.8467L8.25701 23.7906ZM12.0005 22.0661L12.2506 23.3169L12.0005 22.0661ZM34.4612 22.1922L34.176 23.4356L34.182 23.4369L34.4612 22.1922ZM37.6579 29.595L36.8571 28.6021L36.8422 28.6141L36.8277 28.6265L37.6579 29.595ZM35.1342 30.8989L35.6455 32.0676L35.662 32.0603L35.6784 32.0526L35.1342 30.8989ZM33.2835 33.0441L32.0701 32.6505L32.0653 32.6655L32.0608 32.6806L33.2835 33.0441ZM32.4843 53.9906L33.7594 54.0277L33.7594 54.0259L32.4843 53.9906ZM36.396 65.0107L37.2622 64.0742L37.2588 64.0711L36.396 65.0107ZM51.1595 66.9034L51.6793 68.0683L51.6867 68.065L51.6941 68.0616L51.1595 66.9034ZM55.3236 63.4965L54.2748 62.7704L54.2685 62.7796L54.2622 62.7889L55.3236 63.4965ZM57.3005 45.0736H58.5761V45.061L58.5759 45.0484L57.3005 45.0736ZM56.6696 32.6235L55.4198 32.8791L55.4233 32.8958L55.4271 32.9124L56.6696 32.6235ZM53.9777 29.7212L54.5055 28.5599L54.4936 28.5546L53.9777 29.7212ZM53.1785 22.3184L53.6319 23.5108L53.6408 23.5073L53.1785 22.3184ZM72.2743 22.2764L71.8095 23.4643L71.8153 23.4665L72.2743 22.2764ZM72.064 29.5109L72.6924 30.621L72.6945 30.6198L72.064 29.5109ZM69.4983 32.2449L68.2547 31.9607L68.2517 31.9741L68.2489 31.9877L69.4983 32.2449ZM67.8441 43.0126V53.2756H70.3953V43.0126H67.8441ZM67.8441 53.2756C67.8441 59.464 67.3752 63.6565 66.531 66.0101L68.9324 66.8714C69.9389 64.0655 70.3953 59.4812 70.3953 53.2756H67.8441ZM66.5338 66.0023C64.7031 71.0044 60.6713 74.7152 54.1754 77.0602L55.0417 79.4598C62.0616 76.9257 66.7784 72.757 68.9296 66.8792L66.5338 66.0023ZM54.1661 77.0636C50.2369 78.5168 45.7637 79.2557 40.7283 79.2557V81.8069C46.012 81.8069 50.7923 81.0315 55.0511 79.4564L54.1661 77.0636ZM40.7283 79.2557C31.927 79.2557 25.0273 77.1599 19.9013 73.0963L18.3164 75.0955C24.0142 79.6124 31.5275 81.8069 40.7283 81.8069V79.2557ZM19.9044 73.0988C17.4255 71.121 15.7581 68.8669 14.8397 66.3413L12.4421 67.2132C13.5426 70.2397 15.5205 72.8647 18.3133 75.093L19.9044 73.0988ZM14.8397 66.3413C13.906 63.7736 13.4023 59.9394 13.4023 54.7477H10.851C10.851 60.0433 11.3568 64.2288 12.4421 67.2132L14.8397 66.3413ZM13.4023 54.7477C13.4023 52.7215 13.4718 49.3732 13.612 44.6912L11.0619 44.6148C10.9217 49.2984 10.851 52.68 10.851 54.7477H13.4023ZM13.6121 44.6854C13.6962 41.3797 13.7387 39.176 13.7387 38.0914H11.1875C11.1875 39.1379 11.146 41.3086 11.0618 44.6206L13.6121 44.6854ZM13.7387 38.0914C13.7387 35.7672 13.5662 33.9264 13.0981 32.7743L10.7345 33.7345C10.9955 34.3769 11.1875 35.7608 11.1875 38.0914H13.7387ZM13.1107 32.8065C12.6452 31.5649 11.6519 30.5355 10.3526 29.6693L8.93745 31.7921C9.99364 32.4962 10.5146 33.1492 10.722 33.7023L13.1107 32.8065ZM10.3414 29.6619C8.66449 28.5694 8.14459 27.5637 8.14459 26.6928H5.59338C5.59338 28.7943 6.92418 30.4805 8.9487 31.7995L10.3414 29.6619ZM8.14459 26.6928C8.14459 26.0118 8.41354 25.3722 9.11507 24.7344L7.39894 22.8467C6.24978 23.8914 5.59338 25.1866 5.59338 26.6928H8.14459ZM9.10098 24.7471C9.85019 24.086 10.877 23.5916 12.2506 23.3169L11.7503 20.8152C10.0394 21.1574 8.57061 21.8127 7.41304 22.8341L9.10098 24.7471ZM12.2506 23.3169C15.2305 22.7209 18.7881 22.4163 22.9364 22.4163V19.8651C18.6724 19.8651 14.9394 20.1774 11.7503 20.8152L12.2506 23.3169ZM22.9364 22.4163C27.508 22.4163 31.2459 22.7635 34.176 23.4356L34.7464 20.9489C31.5636 20.2189 27.6183 19.8651 22.9364 19.8651V22.4163ZM34.182 23.4369C35.5418 23.7419 36.4081 24.2088 36.9263 24.7368C37.4149 25.2345 37.6862 25.8782 37.6862 26.7769H40.2374C40.2374 25.2922 39.7585 23.9801 38.7469 22.9496C37.765 21.9493 36.381 21.3155 34.7404 20.9476L34.182 23.4369ZM37.6862 26.7769C37.6862 27.5932 37.4077 28.1581 36.8571 28.6021L38.4586 30.588C39.6466 29.63 40.2374 28.3161 40.2374 26.7769H37.6862ZM36.8277 28.6265C36.8752 28.5858 36.8758 28.5945 36.7488 28.6683C36.6446 28.7288 36.4951 28.8101 36.2942 28.9139C35.8936 29.1209 35.3277 29.3973 34.59 29.7452L35.6784 32.0526C36.4269 31.6996 37.0246 31.4081 37.4653 31.1805C37.6849 31.067 37.8755 30.9642 38.0306 30.8741C38.1631 30.7971 38.3423 30.6884 38.488 30.5635L36.8277 28.6265ZM34.6229 29.7303C33.3514 30.2866 32.5048 31.3102 32.0701 32.6505L34.4969 33.4376C34.7351 32.7029 35.1224 32.2964 35.6455 32.0676L34.6229 29.7303ZM32.0608 32.6806C31.6955 33.9091 31.5452 35.7803 31.5452 38.1755H34.0964C34.0964 35.8038 34.2545 34.2541 34.5062 33.4076L32.0608 32.6806ZM31.5452 38.1755C31.5452 40.5941 31.4337 45.8472 31.2092 53.9553L33.7594 54.0259C33.9836 45.9264 34.0964 40.6361 34.0964 38.1755H31.5452ZM31.2093 53.9535C31.0617 59.0305 32.4374 63.1071 35.5332 65.9502L37.2588 64.0711C34.8586 61.8668 33.6266 58.5967 33.7594 54.0277L31.2093 53.9535ZM35.5298 65.9471C38.0455 68.2741 41.26 69.3988 45.0607 69.3988V66.8476C41.795 66.8476 39.2331 65.8973 37.2622 64.0742L35.5298 65.9471ZM45.0607 69.3988C47.4608 69.3988 49.6739 68.963 51.6793 68.0683L50.6398 65.7385C48.9999 66.4702 47.1471 66.8476 45.0607 66.8476V69.3988ZM51.6941 68.0616C53.6941 67.1385 55.2803 65.861 56.385 64.204L54.2622 62.7889C53.4601 63.9921 52.2703 64.9859 50.625 65.7452L51.6941 68.0616ZM56.3724 64.2225C57.23 62.9838 57.8146 61.6046 58.1287 60.0973L55.6311 59.577C55.3843 60.7615 54.9315 61.8219 54.2748 62.7704L56.3724 64.2225ZM58.1287 60.0973C58.435 58.6271 58.5761 56.6907 58.5761 54.3271H56.0249C56.0249 56.6182 55.8856 58.3552 55.6311 59.577L58.1287 60.0973ZM58.5761 54.3271V45.0736H56.0249V54.3271H58.5761ZM58.5759 45.0484C58.5056 41.4959 58.4177 38.6698 58.3116 36.5757C58.2079 34.5295 58.083 33.0696 57.912 32.3345L55.4271 32.9124C55.5366 33.3831 55.657 34.6011 55.7636 36.7049C55.8678 38.7608 55.9551 41.557 56.0251 45.0988L58.5759 45.0484ZM57.9193 32.3678C57.5586 30.6044 56.2799 29.3665 54.5055 28.56L53.4498 30.8825C54.7599 31.478 55.2758 32.1749 55.4198 32.8791L57.9193 32.3678ZM54.4936 28.5546C53.055 27.9183 52.2478 27.4072 51.8933 27.0527L50.0893 28.8566C50.8003 29.5677 51.984 30.2342 53.4617 30.8878L54.4936 28.5546ZM51.8933 27.0527C51.6107 26.7701 51.4677 26.4405 51.4677 25.9778H48.9165C48.9165 27.0854 49.3063 28.0736 50.0893 28.8566L51.8933 27.0527ZM51.4677 25.9778C51.4677 25.4088 51.6284 24.9735 51.927 24.6076C52.242 24.2216 52.7745 23.8368 53.6319 23.5107L52.7251 21.1261C51.5915 21.5572 50.6309 22.1608 49.9504 22.9946C49.2536 23.8484 48.9165 24.8643 48.9165 25.9778H51.4677ZM53.6408 23.5073C55.4265 22.8129 58.45 22.4163 62.8526 22.4163V19.8651C58.3942 19.8651 54.9684 20.2537 52.7161 21.1296L53.6408 23.5073ZM62.8526 22.4163C67.1752 22.4163 70.1111 22.7997 71.8095 23.4643L72.7392 21.0885C70.5679 20.2389 67.2226 19.8651 62.8526 19.8651V22.4163ZM71.8153 23.4665C72.6598 23.7923 73.1837 24.1735 73.4932 24.5538C73.7864 24.9139 73.943 25.3395 73.943 25.8936H76.4942C76.4942 24.7933 76.1601 23.7889 75.4719 22.9433C74.8 22.1178 73.8517 21.5176 72.7334 21.0862L71.8153 23.4665ZM73.943 25.8936C73.943 26.5677 73.7976 26.8112 73.7454 26.8721L75.6824 28.5324C76.3031 27.8082 76.4942 26.846 76.4942 25.8936H73.943ZM73.7454 26.8721C73.6925 26.9338 73.5056 27.1048 73.0799 27.3953C72.678 27.6696 72.1325 28.0046 71.4335 28.402L72.6945 30.6198C73.4256 30.2041 74.0368 29.831 74.5182 29.5025C74.9758 29.1901 75.3987 28.8634 75.6824 28.5324L73.7454 26.8721ZM71.4357 28.4008C69.8442 29.3016 68.5998 30.451 68.2547 31.9607L70.7418 32.5291C70.8454 32.076 71.3115 31.4026 72.6924 30.621L71.4357 28.4008ZM68.2489 31.9877C68.1245 32.5918 68.0435 33.8468 67.9816 35.607C67.9179 37.4179 67.8723 39.8842 67.8442 43.0011L70.3953 43.0241C70.4233 39.9159 70.4687 37.475 70.5312 35.6967C70.5955 33.8677 70.6758 32.8514 70.7477 32.5021L68.2489 31.9877Z" fill="#1E1E1E" mask="url(#path-3-outside-2_47_8122)"/>
</svg>
