<svg width="76" height="107" viewBox="0 0 76 107" fill="none" xmlns="http://www.w3.org/2000/svg">
<mask id="path-1-outside-1_47_8107" maskUnits="userSpaceOnUse" x="-0.566406" y="27.6141" width="71" height="61" fill="black">
<rect fill="white" x="-0.566406" y="27.6141" width="71" height="61"/>
<path d="M60.0345 42.2395L40.7283 81.3144C39.5506 83.7259 38.429 85.3944 37.3634 86.3197C36.2979 87.217 34.9519 87.6657 33.3255 87.6657C31.9796 87.6657 30.7738 87.3712 29.7083 86.7824C28.8951 86.3337 28.2501 85.815 27.7734 85.2261C27.3248 84.6092 26.75 83.5156 26.0489 81.9453L8.84586 44.0481C7.89247 41.917 7.0232 40.4729 6.23805 39.7158C5.48095 38.9306 4.38736 38.4119 2.95727 38.1595C1.27482 37.8511 0.433594 36.8135 0.433594 35.047C0.433594 32.8878 1.90574 31.2334 4.85003 30.0837C7.79432 28.906 12.0145 28.3172 17.5105 28.3172C23.2308 28.3172 27.437 28.7518 30.1289 29.6211C32.8208 30.4903 34.1668 31.8363 34.1668 33.6589C34.1668 34.8367 33.4377 35.9303 31.9796 36.9397C30.8579 37.6968 30.2971 38.4119 30.2971 39.0849C30.2971 39.7018 30.5495 40.585 31.0542 41.7347L36.3119 53.596C37.069 55.3345 37.9242 56.2038 38.8776 56.2038C39.803 56.2038 40.6302 55.7411 41.3592 54.8158C42.0883 53.8904 43.0697 52.0678 44.3035 49.3478C46.5188 44.4687 47.8086 41.5945 48.1732 40.7252C48.5377 39.8279 48.72 39.1409 48.72 38.6642C48.72 37.7109 48.061 36.8977 46.7431 36.2247C45.285 35.4676 44.5559 34.5002 44.5559 33.3225C44.5559 29.9856 49.0284 28.3172 57.9735 28.3172C62.432 28.3172 65.5725 28.6817 67.3952 29.4108C69.2459 30.1118 70.1712 31.3316 70.1712 33.0701C70.1712 35.1451 68.9655 36.3368 66.554 36.6453C64.8435 36.8416 63.7359 37.122 63.2311 37.4865C62.3338 38.1315 61.2683 39.7158 60.0345 42.2395Z"/>
</mask>
<path d="M60.0345 42.2395L40.7283 81.3144C39.5506 83.7259 38.429 85.3944 37.3634 86.3197C36.2979 87.217 34.9519 87.6657 33.3255 87.6657C31.9796 87.6657 30.7738 87.3712 29.7083 86.7824C28.8951 86.3337 28.2501 85.815 27.7734 85.2261C27.3248 84.6092 26.75 83.5156 26.0489 81.9453L8.84586 44.0481C7.89247 41.917 7.0232 40.4729 6.23805 39.7158C5.48095 38.9306 4.38736 38.4119 2.95727 38.1595C1.27482 37.8511 0.433594 36.8135 0.433594 35.047C0.433594 32.8878 1.90574 31.2334 4.85003 30.0837C7.79432 28.906 12.0145 28.3172 17.5105 28.3172C23.2308 28.3172 27.437 28.7518 30.1289 29.6211C32.8208 30.4903 34.1668 31.8363 34.1668 33.6589C34.1668 34.8367 33.4377 35.9303 31.9796 36.9397C30.8579 37.6968 30.2971 38.4119 30.2971 39.0849C30.2971 39.7018 30.5495 40.585 31.0542 41.7347L36.3119 53.596C37.069 55.3345 37.9242 56.2038 38.8776 56.2038C39.803 56.2038 40.6302 55.7411 41.3592 54.8158C42.0883 53.8904 43.0697 52.0678 44.3035 49.3478C46.5188 44.4687 47.8086 41.5945 48.1732 40.7252C48.5377 39.8279 48.72 39.1409 48.72 38.6642C48.72 37.7109 48.061 36.8977 46.7431 36.2247C45.285 35.4676 44.5559 34.5002 44.5559 33.3225C44.5559 29.9856 49.0284 28.3172 57.9735 28.3172C62.432 28.3172 65.5725 28.6817 67.3952 29.4108C69.2459 30.1118 70.1712 31.3316 70.1712 33.0701C70.1712 35.1451 68.9655 36.3368 66.554 36.6453C64.8435 36.8416 63.7359 37.122 63.2311 37.4865C62.3338 38.1315 61.2683 39.7158 60.0345 42.2395Z" fill="#1E1E1E"/>
<path d="M60.0345 42.2395L60.1889 42.3158L60.1892 42.3151L60.0345 42.2395ZM40.7283 81.3144L40.5739 81.2381L40.5735 81.2388L40.7283 81.3144ZM37.3634 86.3197L37.4744 86.4515L37.4764 86.4498L37.3634 86.3197ZM29.7083 86.7824L29.7916 86.6316L29.7915 86.6315L29.7083 86.7824ZM27.7734 85.2261L27.6339 85.3276L27.6395 85.3345L27.7734 85.2261ZM26.0489 81.9453L26.2063 81.8751L26.2058 81.8741L26.0489 81.9453ZM8.84586 44.0481L8.68859 44.1184L8.68898 44.1193L8.84586 44.0481ZM6.23805 39.7158L6.11396 39.8354L6.11847 39.8398L6.23805 39.7158ZM2.95727 38.1595L2.9262 38.329L2.92733 38.3292L2.95727 38.1595ZM4.85003 30.0837L4.9127 30.2442L4.91402 30.2437L4.85003 30.0837ZM31.9796 36.9397L32.076 37.0825L32.0776 37.0814L31.9796 36.9397ZM31.0542 41.7347L30.8965 41.804L30.8967 41.8045L31.0542 41.7347ZM36.3119 53.596L36.4698 53.5272L36.4694 53.5262L36.3119 53.596ZM44.3035 49.3478L44.1467 49.2766L44.1466 49.2766L44.3035 49.3478ZM48.1732 40.7252L48.3321 40.7919L48.3328 40.7901L48.1732 40.7252ZM46.7431 36.2247L46.6637 36.3776L46.6647 36.3781L46.7431 36.2247ZM67.3952 29.4108L67.3312 29.5707L67.3342 29.5719L67.3952 29.4108ZM66.554 36.6453L66.5736 36.8165L66.5758 36.8162L66.554 36.6453ZM63.2311 37.4865L63.3317 37.6264L63.332 37.6262L63.2311 37.4865ZM59.88 42.1631L40.5739 81.2381L40.8828 81.3907L60.1889 42.3158L59.88 42.1631ZM40.5735 81.2388C39.3985 83.6449 38.2891 85.2876 37.2505 86.1896L37.4764 86.4498C38.5688 85.5011 39.7028 83.807 40.8831 81.39L40.5735 81.2388ZM37.2525 86.1879C36.223 87.0548 34.9185 87.4934 33.3255 87.4934V87.838C34.9854 87.838 36.3727 87.3792 37.4744 86.4515L37.2525 86.1879ZM33.3255 87.4934C32.0056 87.4934 30.829 87.2049 29.7916 86.6316L29.6249 86.9332C30.7186 87.5376 31.9536 87.838 33.3255 87.838V87.4934ZM29.7915 86.6315C28.9935 86.1913 28.3673 85.6859 27.9074 85.1177L27.6395 85.3345C28.133 85.9441 28.7966 86.4762 29.625 86.9332L29.7915 86.6315ZM27.9128 85.1248C27.4756 84.5237 26.9069 83.4446 26.2062 81.8751L25.8916 82.0156C26.593 83.5867 27.174 84.6947 27.6341 85.3274L27.9128 85.1248ZM26.2058 81.8741L9.00273 43.9769L8.68898 44.1193L25.8921 82.0165L26.2058 81.8741ZM9.00312 43.9777C8.04865 41.8442 7.16835 40.3735 6.35764 39.5918L6.11847 39.8398C6.87805 40.5722 7.73628 41.9898 8.68859 44.1184L9.00312 43.9777ZM6.36207 39.5962C5.5725 38.7774 4.44139 38.2465 2.98721 37.9898L2.92733 38.3292C4.33332 38.5773 5.38941 39.0839 6.11404 39.8354L6.36207 39.5962ZM2.98834 37.99C2.17592 37.8411 1.58649 37.5203 1.19834 37.0415C0.809628 36.5621 0.605877 35.9036 0.605877 35.047H0.261311C0.261311 35.9569 0.478172 36.7004 0.930691 37.2585C1.38377 37.8173 2.05617 38.1695 2.9262 38.329L2.98834 37.99ZM0.605877 35.047C0.605877 32.9909 1.99836 31.3822 4.9127 30.2442L4.78737 29.9233C1.81312 31.0846 0.261311 32.7847 0.261311 35.047H0.605877ZM4.91402 30.2437C7.82825 29.078 12.0227 28.4894 17.5105 28.4894V28.1449C12.0062 28.1449 7.76039 28.734 4.78605 29.9238L4.91402 30.2437ZM17.5105 28.4894C23.2273 28.4894 27.4109 28.9244 30.0759 29.785L30.1818 29.4571C27.463 28.5792 23.2343 28.1449 17.5105 28.1449V28.4894ZM30.0759 29.785C31.4075 30.215 32.3889 30.7577 33.0355 31.4043C33.6777 32.0466 33.9945 32.7955 33.9945 33.6589H34.339C34.339 32.6997 33.9828 31.8644 33.2791 31.1607C32.5797 30.4613 31.5421 29.8964 30.1818 29.4571L30.0759 29.785ZM33.9945 33.6589C33.9945 34.7556 33.3178 35.8037 31.8815 36.7981L32.0776 37.0814C33.5576 36.0568 34.339 34.9177 34.339 33.6589H33.9945ZM31.8832 36.7969C31.314 37.1811 30.8777 37.5608 30.5822 37.9375C30.2863 38.3148 30.1248 38.6982 30.1248 39.0849H30.4694C30.4694 38.7985 30.5884 38.4879 30.8533 38.1502C31.1186 37.8119 31.5235 37.4554 32.076 37.0825L31.8832 36.7969ZM30.1248 39.0849C30.1248 39.7395 30.39 40.6504 30.8965 41.804L31.212 41.6655C30.7089 40.5197 30.4694 39.664 30.4694 39.0849H30.1248ZM30.8967 41.8045L36.1544 53.6658L36.4694 53.5262L31.2117 41.6649L30.8967 41.8045ZM36.1539 53.6648C36.5368 54.5439 36.95 55.217 37.3983 55.6727C37.8489 56.1306 38.3428 56.3761 38.8776 56.3761V56.0315C38.4591 56.0315 38.0487 55.8424 37.644 55.431C37.237 55.0174 36.8441 54.3867 36.4698 53.5272L36.1539 53.6648ZM38.8776 56.3761C39.8697 56.3761 40.7426 55.8768 41.4946 54.9224L41.2239 54.7092C40.5178 55.6054 39.7362 56.0315 38.8776 56.0315V56.3761ZM41.4946 54.9224C42.2381 53.9787 43.227 52.1381 44.4604 49.419L44.1466 49.2766C42.9125 51.9975 41.9385 53.8022 41.2239 54.7092L41.4946 54.9224ZM44.4604 49.419C46.675 44.5413 47.9663 41.6641 48.3321 40.7919L48.0143 40.6586C47.651 41.5249 46.3625 44.3961 44.1467 49.2766L44.4604 49.419ZM48.3328 40.7901C48.6989 39.889 48.8923 39.1761 48.8923 38.6642H48.5477C48.5477 39.1058 48.3766 39.7669 48.0136 40.6604L48.3328 40.7901ZM48.8923 38.6642C48.8923 37.6146 48.1621 36.7559 46.8214 36.0712L46.6647 36.3781C47.9599 37.0395 48.5477 37.8071 48.5477 38.6642H48.8923ZM46.8225 36.0718C45.3957 35.331 44.7282 34.4113 44.7282 33.3225H44.3836C44.3836 34.5891 45.1742 35.6042 46.6637 36.3776L46.8225 36.0718ZM44.7282 33.3225C44.7282 32.5309 44.9919 31.8417 45.523 31.2474C46.0572 30.6496 46.8682 30.1411 47.9705 29.7299C50.1773 28.9067 53.5068 28.4894 57.9735 28.4894V28.1449C53.4951 28.1449 50.1158 28.5619 47.8501 29.4071C46.7161 29.8301 45.8499 30.3644 45.266 31.0178C44.6789 31.6749 44.3836 32.4456 44.3836 33.3225H44.7282ZM57.9735 28.4894C62.4309 28.4894 65.542 28.855 67.3312 29.5707L67.4592 29.2508C65.6031 28.5084 62.433 28.1449 57.9735 28.1449V28.4894ZM67.3342 29.5719C68.238 29.9142 68.9018 30.3779 69.34 30.9555C69.7769 31.5314 69.999 32.2331 69.999 33.0701H70.3435C70.3435 32.1686 70.1029 31.3911 69.6145 30.7472C69.1273 30.105 68.4031 29.6083 67.4562 29.2496L67.3342 29.5719ZM69.999 33.0701C69.999 34.0725 69.7089 34.8411 69.1458 35.3976C68.5793 35.9576 67.7162 36.323 66.5321 36.4744L66.5758 36.8162C67.8033 36.6592 68.7488 36.2745 69.388 35.6427C70.0307 35.0075 70.3435 34.1427 70.3435 33.0701H69.999ZM66.5343 36.4741C65.6749 36.5728 64.9621 36.693 64.3981 36.8358C63.8378 36.9776 63.4093 37.1453 63.1303 37.3469L63.332 37.6262C63.5577 37.4632 63.9353 37.3084 64.4827 37.1698C65.0263 37.0322 65.7226 36.9141 66.5736 36.8165L66.5343 36.4741ZM63.1306 37.3466C62.6574 37.6867 62.1532 38.2637 61.616 39.0623C61.0773 39.8633 60.4986 40.8978 59.8797 42.1638L60.1892 42.3151C60.8041 41.0574 61.3751 40.038 61.9019 39.2546C62.4304 38.4689 62.9075 37.9313 63.3317 37.6264L63.1306 37.3466Z" fill="#F6DAC7" mask="url(#path-1-outside-1_47_8107)"/>
<mask id="path-3-outside-2_47_8107" maskUnits="userSpaceOnUse" x="3.60352" y="19.7228" width="74" height="63" fill="black">
<rect fill="white" x="3.60352" y="19.7228" width="74" height="63"/>
<path d="M65.2044 35.3481L45.8983 74.4231C44.7205 76.8346 43.5989 78.503 42.5333 79.4283C41.4678 80.3257 40.1218 80.7743 38.4955 80.7743C37.1495 80.7743 35.9437 80.4799 34.8782 79.891C34.065 79.4424 33.4201 78.9236 32.9434 78.3348C32.4947 77.7179 31.9199 76.6243 31.2189 75.054L14.0158 37.1567C13.0624 35.0256 12.1931 33.5815 11.408 32.8244C10.6509 32.0393 9.55728 31.5205 8.12719 31.2681C6.44474 30.9597 5.60352 29.9222 5.60352 28.1556C5.60352 25.9965 7.07566 24.3421 10.02 23.1924C12.9642 22.0147 17.1844 21.4258 22.6804 21.4258C28.4007 21.4258 32.6069 21.8604 35.2988 22.7297C37.9907 23.599 39.3367 24.9449 39.3367 26.7676C39.3367 27.9453 38.6076 29.0389 37.1495 30.0484C36.0279 30.8055 35.467 31.5205 35.467 32.1935C35.467 32.8104 35.7194 33.6937 36.2241 34.8434L41.4818 46.7046C42.2389 48.4432 43.0942 49.3125 44.0476 49.3125C44.9729 49.3125 45.8001 48.8498 46.5292 47.9244C47.2582 46.9991 48.2397 45.1764 49.4735 42.4565C51.6887 37.5773 52.9786 34.7032 53.3431 33.8339C53.7076 32.9366 53.8899 32.2496 53.8899 31.7729C53.8899 30.8195 53.2309 30.0063 51.913 29.3333C50.4549 28.5762 49.7258 27.6088 49.7258 26.4311C49.7258 23.0942 54.1983 21.4258 63.1434 21.4258C67.6019 21.4258 70.7425 21.7903 72.5651 22.5194C74.4158 23.2204 75.3412 24.4402 75.3412 26.1787C75.3412 28.2538 74.1354 29.4455 71.7239 29.7539C70.0134 29.9502 68.9058 30.2306 68.4011 30.5952C67.5037 31.2401 66.4382 32.8244 65.2044 35.3481Z"/>
</mask>
<path d="M65.2044 35.3481L45.8983 74.4231C44.7205 76.8346 43.5989 78.503 42.5333 79.4283C41.4678 80.3257 40.1218 80.7743 38.4955 80.7743C37.1495 80.7743 35.9437 80.4799 34.8782 79.891C34.065 79.4424 33.4201 78.9236 32.9434 78.3348C32.4947 77.7179 31.9199 76.6243 31.2189 75.054L14.0158 37.1567C13.0624 35.0256 12.1931 33.5815 11.408 32.8244C10.6509 32.0393 9.55728 31.5205 8.12719 31.2681C6.44474 30.9597 5.60352 29.9222 5.60352 28.1556C5.60352 25.9965 7.07566 24.3421 10.02 23.1924C12.9642 22.0147 17.1844 21.4258 22.6804 21.4258C28.4007 21.4258 32.6069 21.8604 35.2988 22.7297C37.9907 23.599 39.3367 24.9449 39.3367 26.7676C39.3367 27.9453 38.6076 29.0389 37.1495 30.0484C36.0279 30.8055 35.467 31.5205 35.467 32.1935C35.467 32.8104 35.7194 33.6937 36.2241 34.8434L41.4818 46.7046C42.2389 48.4432 43.0942 49.3125 44.0476 49.3125C44.9729 49.3125 45.8001 48.8498 46.5292 47.9244C47.2582 46.9991 48.2397 45.1764 49.4735 42.4565C51.6887 37.5773 52.9786 34.7032 53.3431 33.8339C53.7076 32.9366 53.8899 32.2496 53.8899 31.7729C53.8899 30.8195 53.2309 30.0063 51.913 29.3333C50.4549 28.5762 49.7258 27.6088 49.7258 26.4311C49.7258 23.0942 54.1983 21.4258 63.1434 21.4258C67.6019 21.4258 70.7425 21.7903 72.5651 22.5194C74.4158 23.2204 75.3412 24.4402 75.3412 26.1787C75.3412 28.2538 74.1354 29.4455 71.7239 29.7539C70.0134 29.9502 68.9058 30.2306 68.4011 30.5952C67.5037 31.2401 66.4382 32.8244 65.2044 35.3481Z" fill="#F6DAC7"/>
<path d="M65.2044 35.3481L66.348 35.9131L66.3504 35.9084L65.2044 35.3481ZM45.8983 74.4231L44.7546 73.858L44.752 73.8633L45.8983 74.4231ZM42.5333 79.4283L43.355 80.4041L43.3624 80.3978L43.3697 80.3915L42.5333 79.4283ZM34.8782 79.891L35.4952 78.7746L35.4944 78.7741L34.8782 79.891ZM32.9434 78.3348L31.9117 79.085L31.9311 79.1117L31.9519 79.1374L32.9434 78.3348ZM31.2189 75.054L32.3837 74.534L32.3804 74.5267L31.2189 75.054ZM14.0158 37.1567L12.8514 37.6777L12.8542 37.684L14.0158 37.1567ZM11.408 32.8244L10.4897 33.7099L10.5058 33.7266L10.5225 33.7427L11.408 32.8244ZM8.12719 31.2681L7.89716 32.5229L7.90551 32.5243L8.12719 31.2681ZM10.02 23.1924L10.4839 24.3806L10.4937 24.3767L10.02 23.1924ZM37.1495 30.0484L37.8632 31.1057L37.8694 31.1014L37.8756 31.0972L37.1495 30.0484ZM36.2241 34.8434L35.0561 35.3561L35.058 35.3603L36.2241 34.8434ZM41.4818 46.7046L42.6514 46.1953L42.648 46.1877L41.4818 46.7046ZM49.4735 42.4565L48.312 41.9291L48.3118 41.9295L49.4735 42.4565ZM53.3431 33.8339L54.5195 34.3272L54.5222 34.3206L54.5249 34.314L53.3431 33.8339ZM51.913 29.3333L51.3252 30.4654L51.3329 30.4694L51.913 29.3333ZM72.5651 22.5194L72.0914 23.7038L72.1023 23.7081L72.1133 23.7123L72.5651 22.5194ZM71.7239 29.7539L71.8693 31.0212L71.8775 31.0203L71.8857 31.0192L71.7239 29.7539ZM68.4011 30.5952L69.1455 31.631L69.1479 31.6293L68.4011 30.5952ZM64.0608 34.7831L44.7546 73.858L47.0419 74.9881L66.348 35.9131L64.0608 34.7831ZM44.752 73.8633C43.594 76.2346 42.5634 77.7128 41.6969 78.4652L43.3697 80.3915C44.6344 79.2932 45.8471 77.4346 47.0445 74.9828L44.752 73.8633ZM41.7117 78.4526C40.9137 79.1247 39.8742 79.4987 38.4955 79.4987V82.0499C40.3695 82.0499 42.0219 81.5267 43.355 80.4041L41.7117 78.4526ZM38.4955 79.4987C37.342 79.4987 36.3525 79.2483 35.4952 78.7746L34.2612 81.0075C35.535 81.7114 36.957 82.0499 38.4955 82.0499V79.4987ZM35.4944 78.7741C34.7938 78.3876 34.2874 77.9676 33.9348 77.5321L31.9519 79.1374C32.5528 79.8796 33.3362 80.4972 34.262 81.0079L35.4944 78.7741ZM33.975 77.5845C33.6114 77.0846 33.082 76.0983 32.3837 74.534L30.0541 75.574C30.7577 77.1503 31.378 78.3511 31.9117 79.085L33.975 77.5845ZM32.3804 74.5267L15.1773 36.6295L12.8542 37.684L30.0573 75.5812L32.3804 74.5267ZM15.1802 36.6358C14.2188 34.4868 13.2678 32.8458 12.2934 31.9062L10.5225 33.7427C11.1184 34.3173 11.906 35.5644 12.8514 37.6776L15.1802 36.6358ZM12.3262 31.939C11.3287 30.9045 9.95737 30.2958 8.34888 30.012L7.90551 32.5243C9.15718 32.7452 9.97306 33.174 10.4897 33.7099L12.3262 31.939ZM8.35722 30.0135C7.72929 29.8983 7.40553 29.6776 7.22527 29.4553C7.04089 29.2279 6.87912 28.8413 6.87912 28.1556H4.32791C4.32791 29.2365 4.58675 30.2519 5.2436 31.0621C5.90457 31.8772 6.84265 32.3295 7.89717 32.5228L8.35722 30.0135ZM6.87912 28.1556C6.87912 26.76 7.7614 25.4437 10.4839 24.3806L9.55598 22.0041C6.38992 23.2404 4.32791 25.2329 4.32791 28.1556H6.87912ZM10.4937 24.3767C13.2155 23.288 17.2453 22.7014 22.6804 22.7014V20.1502C17.1234 20.1502 12.713 20.7413 9.54621 22.008L10.4937 24.3767ZM22.6804 22.7014C28.3747 22.7014 32.4139 23.1386 34.9068 23.9436L35.6908 21.5158C32.7998 20.5823 28.4268 20.1502 22.6804 20.1502V22.7014ZM34.9068 23.9436C36.1465 24.3439 36.9477 24.8156 37.4252 25.2931C37.8708 25.7387 38.0611 26.2109 38.0611 26.7676H40.6123C40.6123 25.5016 40.1296 24.3895 39.2292 23.4891C38.3608 22.6207 37.143 21.9848 35.6908 21.5158L34.9068 23.9436ZM38.0611 26.7676C38.0611 27.3451 37.7201 28.1018 36.4234 28.9996L37.8756 31.0972C39.4951 29.976 40.6123 28.5455 40.6123 26.7676H38.0611ZM36.4358 28.9911C35.8133 29.4113 35.276 29.8654 34.8839 30.3653C34.4887 30.8692 34.1914 31.486 34.1914 32.1935H36.7427C36.7427 32.2281 36.7258 32.1508 36.8914 31.9397C37.0602 31.7245 37.3641 31.4425 37.8632 31.1057L36.4358 28.9911ZM34.1914 32.1935C34.1914 33.0899 34.5388 34.1778 35.0561 35.3561L37.3921 34.3306C36.9 33.2096 36.7427 32.5309 36.7427 32.1935H34.1914ZM35.058 35.3603L40.3156 47.2216L42.648 46.1877L37.3903 34.3264L35.058 35.3603ZM40.3123 47.214C40.7224 48.1558 41.201 48.9649 41.7818 49.5551C42.3789 50.162 43.1402 50.5881 44.0476 50.5881V48.0368C44.0015 48.0368 43.8585 48.0283 43.6004 47.7659C43.3259 47.4869 42.9983 46.992 42.6513 46.1953L40.3123 47.214ZM44.0476 50.5881C45.4671 50.5881 46.6324 49.8546 47.5311 48.7139L45.5272 47.135C44.9678 47.8449 44.4787 48.0368 44.0476 48.0368V50.5881ZM47.5311 48.7139C48.3675 47.6523 49.4042 45.6971 50.6351 42.9834L48.3118 41.9295C47.0751 44.6558 46.149 46.3458 45.5272 47.135L47.5311 48.7139ZM50.635 42.9838C52.8456 38.1148 54.1458 35.2183 54.5195 34.3272L52.1667 33.3406C51.8114 34.188 50.5318 37.0399 48.312 41.9291L50.635 42.9838ZM54.5249 34.314C54.9008 33.3888 55.1655 32.5096 55.1655 31.7729H52.6143C52.6143 31.9896 52.5145 32.4843 52.1613 33.3538L54.5249 34.314ZM55.1655 31.7729C55.1655 30.1066 53.9796 28.9563 52.4931 28.1973L51.3329 30.4694C52.4823 31.0563 52.6143 31.5324 52.6143 31.7729H55.1655ZM52.5008 28.2012C51.2747 27.5646 51.0014 26.9506 51.0014 26.4311H48.4502C48.4502 28.2671 49.6351 29.5879 51.3252 30.4654L52.5008 28.2012ZM51.0014 26.4311C51.0014 25.9124 51.1641 25.4846 51.5156 25.0912C51.8909 24.6713 52.5251 24.2457 53.5261 23.8723C55.5445 23.1193 58.714 22.7014 63.1434 22.7014V20.1502C58.6277 20.1502 55.0885 20.5665 52.6344 21.482C51.3991 21.9428 50.3561 22.56 49.6132 23.3913C48.8466 24.2493 48.4502 25.2813 48.4502 26.4311H51.0014ZM63.1434 22.7014C67.5939 22.7014 70.5161 23.0737 72.0914 23.7038L73.0389 21.335C70.9688 20.507 67.6098 20.1502 63.1434 20.1502V22.7014ZM72.1133 23.7123C72.8791 24.0024 73.3497 24.3603 73.6309 24.731C73.9029 25.0895 74.0656 25.5484 74.0656 26.1787H76.6168C76.6168 25.0706 76.3168 24.0503 75.6634 23.189C75.0193 22.3399 74.1018 21.7374 73.017 21.3265L72.1133 23.7123ZM74.0656 26.1787C74.0656 26.9567 73.8483 27.417 73.5402 27.7216C73.2064 28.0515 72.607 28.355 71.5621 28.4886L71.8857 31.0192C73.2523 30.8444 74.4616 30.3979 75.3335 29.536C76.2312 28.6488 76.6168 27.4758 76.6168 26.1787H74.0656ZM71.5785 28.4867C70.692 28.5884 69.9263 28.7156 69.2973 28.8749C68.6956 29.0272 68.1043 29.236 67.6542 29.5611L69.1479 31.6293C69.2025 31.5899 69.4175 31.4761 69.9234 31.3481C70.4019 31.2269 71.0453 31.1158 71.8693 31.0212L71.5785 28.4867ZM67.6566 29.5594C67.0266 30.0121 66.4355 30.7151 65.8704 31.5552C65.2938 32.4126 64.6902 33.4955 64.0584 34.7878L66.3504 35.9084C66.9524 34.677 67.4985 33.7059 67.9874 32.979C68.4879 32.2348 68.8782 31.8231 69.1455 31.631L67.6566 29.5594Z" fill="#1E1E1E" mask="url(#path-3-outside-2_47_8107)"/>
</svg>
