<?xml version="1.0" encoding="UTF-8"?>
<svg id="Calque_2" data-name="Calque 2" xmlns="http://www.w3.org/2000/svg" viewBox="0 0 238.39 385.27">
  <defs>
    <style>
      .cls-1 {
        fill: #eab9d7;
      }

      .cls-1, .cls-2 {
        stroke: #1e1e1e;
        stroke-linecap: round;
        stroke-linejoin: round;
        stroke-width: 2px;
      }

      .cls-3 {
        fill: #edd5e9;
      }

      .cls-2 {
        fill: none;
      }

      .cls-4 {
        fill: #ecd2e7;
      }
    </style>
  </defs>
  <g id="Calque_1-2" data-name="Calque 1">
    <path class="cls-1" d="M54.56,206.26s-21.81-2.97-38.07-28.95-23.2-52.94-3.37-70.2,39.66-12.69,39.66-12.69c0,0,19.04,2.38,32.72,30.34s-8.59,64.09-8.59,64.09c0,0-2.38,5.47-6.3,9.75s-16.04,7.65-16.04,7.65Z"/>
    <path class="cls-1" d="M55.99,211.31s-.35,4.82,6.6,4.46c6.95-.36,10.12-7.37,10.42-8.98.3-1.62-.53-9.37-11.62-8.3-2.34.22-3.47,3.22-4.14,4.76-1.67,3.82-1.47,8.06-1.29,8.08,0,0,.02,0,.02-.02Z"/>
    <path class="cls-2" d="M57.48,202.73c-.36.1-1.99-.88-2.18-1.2-.52-.89-.56-2.03-.21-3s1.05-1.8,1.88-2.42c1.49-1.11,3.39-1.58,5.24-1.55.56,0,1.14.06,1.65.31,1.14.54,3.5,2.76,2.96,3.91"/>
    <path class="cls-2" d="M59.84,211.71s2.67-6.53,9.64-5.45"/>
    <path class="cls-2" d="M63.94,212.1s2.14.39,2.96-1.63"/>
    <path class="cls-4" d="M76.43,135.8c-.74,1.18-1.09,2.57-1.23,3.95-.39,3.71.57,7.41.72,11.14.05,1.26-.01,2.58-.6,3.69-.71,1.35-2.18,2.38-2.27,3.91-.07,1.14.68,2.17,1.5,2.97.69.68,1.48,1.3,2.42,1.53,1.8.43,3.61-.7,4.85-2.07,1.77-1.96,2.86-4.46,3.44-7.04s.66-5.24.61-7.88c-.04-2.47-.21-4.97-1.06-7.29-.69-1.88-1.89-3.65-3.59-4.76-1.83-1.2-3.73.18-4.78,1.84Z"/>
    <path class="cls-2" d="M64.73,215.43c6.28,17.61,27.25,27.55,37.63,43.11,8.32,12.48,8.82,29.01,4.26,43.3-2.73,8.57-7.12,16.55-9.82,25.14-5.98,18.98-3.09,40.55,7.66,57.28"/>
    <path class="cls-1" d="M108.61,157.1s-16.71-15.38-13.71-64.83c3-49.45,28.17-71.33,28.17-71.33,0,0,23.08-32.67,71.03-14.39,47.95,18.28,43.16,58.14,43.16,58.14,0,0,1.2,45.26-37.16,73.13-38.36,27.87-68.33,27.87-68.33,27.87l-23.15-8.6Z"/>
    <path class="cls-1" d="M130.46,165.61c.58,1.95,0,4.08,0,6.12,0,.64,0,1.29-.21,1.9-.42,1.23-1.2,2.49-2.2,3.32-1.11.92-2.52,1.55-3.89,2.02-.83.28-1.73.31-2.6.32-1.98.02-3.96-.04-5.93-.16-1.65-.11-3.34-.27-4.83-.99-1.15-.56-2.13-1.41-3.09-2.26-1.07-.95-2.16-1.91-2.9-3.13-1.03-1.68-1.32-3.73-1.26-5.7.03-1.07.17-2.15.55-3.14,1.08-2.8,3.89-4.49,6.5-5.96,0,0,15.07-8.35,19.85,7.68Z"/>
    <path class="cls-2" d="M108.08,168.61s12.03-2.49,16.66,4.42"/>
    <path class="cls-2" d="M110.96,173.03s2.4,3.15,6.64,2.15"/>
    <path class="cls-2" d="M115.64,179.12c4.19,20.25,17.04,33.4,9.63,52.7-6.73,17.52-44.56,34.86-58.37,47.57-15.4,14.18-4.59,35.62-8.03,56.28"/>
    <path class="cls-3" d="M192.93,112.92c4.29-3.72,8.03-8.08,12.62-11.43,2.42-1.77,5.91-3.2,8.25-1.32,1.11.89,1.63,2.33,1.93,3.72.89,4.13.27,8.58-1.72,12.31-1.52,2.85-3.78,5.24-6.13,7.46-6.35,6.02-13.87,11.24-22.47,12.87-1.39.26-2.82.43-4.21.15-3.15-.64-5.5-3.61-6.02-6.78-.6-3.68.6-8.64,4.29-10.02,5.1-1.9,9.19-3.26,13.45-6.95Z"/>
    <path class="cls-2" d="M114.28,151.67s11.22-6.26,16.44,5.15"/>
  </g>
</svg>