<?xml version="1.0" encoding="UTF-8"?>
<svg id="Calque_2" data-name="Calque 2" xmlns="http://www.w3.org/2000/svg" viewBox="0 0 222.59 209.76">
  <defs>
    <style>
      .cls-1 {
        fill: #cbbada;
      }

      .cls-2 {
        fill: #322429;
      }
    </style>
  </defs>
  <g id="Calque_1-2" data-name="Calque 1">
    <path class="cls-2" d="M158.32,86.67c.33.54-.06,2.03.07,2.9-20.74.2-43.43,3.01-58.26,18.89-12.34,13.21-16.9,32.66-18.4,50.24-.26,3.08,1.1,16.84-1.52,17.39-5.31,1.11-3.18-16.72-3.48-20.37-1.68-20.53-9.38-42.6-26.96-54.62-14.46-9.88-32.62-11.34-49.69-11.53.14-1.12-.57-2.22.59-3.07,1.65-1.21,19.97-1.29,24.67-2.04,33.16-5.26,48.82-32.63,51.39-64.02.26-3.18-.93-19.89,1.52-20.38,5.61-1.12,3.16,13.43,3.48,17.4,3,37.5,19.2,64.33,59.24,68.12,3.03.29,16.23-.71,17.34,1.09ZM79.73,31.89c-2.64-.24-1.61-.04-1.97,1.49-.83,3.56-.98,7.35-2.06,10.89-7.04,22.98-23.6,37.91-46.75,43.81,25.12,6.2,39.7,21.92,47.51,46.03.98,3.01.54,7.59,3.26,9.16,5.55-27.32,21.7-48.83,49.8-55.19-28.03-6.86-45.05-28.32-49.79-56.19Z"/>
    <path class="cls-1" d="M79.73,31.89c4.74,27.87,21.76,49.33,49.79,56.19-28.1,6.36-44.25,27.87-49.8,55.19-2.72-1.58-2.28-6.15-3.26-9.16-7.82-24.11-22.39-39.83-47.51-46.03,23.14-5.9,39.71-20.84,46.75-43.81,1.08-3.54,1.23-7.32,2.06-10.89.36-1.53-.67-1.73,1.97-1.49Z"/>
    <path class="cls-2" d="M222.52,165.02c.17.27-.03,1.01.04,1.45-10.37.1-21.71,1.51-29.13,9.44-6.17,6.61-8.45,16.33-9.2,25.12-.13,1.54.55,8.42-.76,8.69-2.66.55-1.59-8.36-1.74-10.19-.84-10.26-4.69-21.3-13.48-27.31-7.23-4.94-16.31-5.67-24.85-5.77.07-.56-.28-1.11.29-1.53.83-.61,9.99-.65,12.33-1.02,16.58-2.63,24.41-16.31,25.7-32.01.13-1.59-.46-9.95.76-10.19,2.81-.56,1.58,6.72,1.74,8.7,1.5,18.75,9.6,32.16,29.62,34.06,1.52.14,8.12-.35,8.67.54ZM183.23,137.63c-1.32-.12-.81-.02-.99.75-.42,1.78-.49,3.67-1.03,5.44-3.52,11.49-11.8,18.96-23.37,21.91,12.56,3.1,19.85,10.96,23.76,23.01.49,1.51.27,3.79,1.63,4.58,2.77-13.66,10.85-24.41,24.9-27.6-14.02-3.43-22.53-14.16-24.9-28.1Z"/>
    <path class="cls-1" d="M183.23,137.63c2.37,13.93,10.88,24.67,24.9,28.1-14.05,3.18-22.13,13.94-24.9,27.6-1.36-.79-1.14-3.08-1.63-4.58-3.91-12.06-11.2-19.91-23.76-23.01,11.57-2.95,19.86-10.42,23.37-21.91.54-1.77.61-3.66,1.03-5.44.18-.77-.33-.87.99-.75Z"/>
  </g>
</svg>