<svg width="591" height="77" viewBox="0 0 591 77" fill="none" xmlns="http://www.w3.org/2000/svg">
<mask id="path-1-outside-1_168_20" maskUnits="userSpaceOnUse" x="0.981445" y="0.536621" width="590" height="77" fill="black">
<rect fill="white" x="0.981445" y="0.536621" width="590" height="77"/>
<path d="M34.7274 18.7077L50.3966 32.4261C51.8649 33.7057 52.9242 34.3455 53.5745 34.3455C54.6653 34.3455 55.2107 33.1813 55.2107 30.8529C55.2107 28.2099 55.0533 26.4059 54.7387 25.441C54.424 24.4761 53.7633 23.7525 52.7564 23.27C51.9384 22.8714 51.3615 22.4519 51.0259 22.0114C50.6903 21.5499 50.5225 20.9626 50.5225 20.2494C50.5225 18.4874 51.7286 17.3547 54.1409 16.8513C55.1268 16.6415 56.8468 16.5366 59.301 16.5366C62.4684 16.5366 64.6605 16.7254 65.8771 17.103C67.8069 17.6903 68.7718 18.8021 68.7718 20.4382C68.7718 21.8017 67.9852 22.8295 66.412 23.5217C65.7827 23.7944 65.3527 24.0356 65.1219 24.2454C64.8912 24.4552 64.6919 24.7698 64.5241 25.1893C63.9578 26.5738 63.6641 29.1958 63.6431 33.0554V43.3128C63.6431 44.886 63.6536 47.0361 63.6746 49.763C63.6955 53.4548 63.4753 56.1188 63.0138 57.7549C62.4475 59.7896 61.4196 60.807 59.9303 60.807C59.28 60.807 58.7137 60.6706 58.2312 60.398C57.7698 60.1253 56.9936 59.496 55.9029 58.5101L37.2445 41.8025C35.944 40.6278 34.8637 40.0405 34.0037 40.0405C32.7241 40.0405 32.0843 41.813 32.0843 45.358C32.0843 48.2737 32.2417 50.2664 32.5563 51.3362C32.8919 52.406 33.5632 53.1926 34.57 53.696C35.9754 54.3883 36.6781 55.2902 36.6781 56.402C36.6781 59.3177 33.5422 60.7755 27.2703 60.7755C24.4385 60.7755 22.236 60.4084 20.6628 59.6743C19.1105 58.9191 18.3344 57.8598 18.3344 56.4964C18.3344 55.7832 18.4812 55.2483 18.7749 54.8917C19.0686 54.5351 19.7293 54.0526 20.7572 53.4443C21.7431 52.857 22.3409 51.8187 22.5506 50.3294C22.9072 47.6234 23.0855 43.7323 23.0855 38.6561C23.0855 33.2442 22.7709 29.3007 22.1416 26.8255C21.9109 25.9235 21.6172 25.2523 21.2606 24.8118C20.904 24.3712 20.3167 23.9517 19.4986 23.5532C18.5547 23.0917 17.8939 22.6407 17.5163 22.2002C17.1597 21.7597 16.9814 21.2248 16.9814 20.5955C16.9814 18.5818 18.712 17.3127 22.1731 16.7883C23.3477 16.6205 25.4034 16.5366 28.3401 16.5366C30.0182 16.5366 31.2348 16.673 31.99 16.9457C32.7661 17.1974 33.6785 17.7847 34.7274 18.7077Z"/>
<path d="M98.9776 46.0502H84.1893C83.5391 46.0502 83.214 46.3334 83.214 46.8997C83.214 48.2632 83.9481 49.5532 85.4165 50.7699C86.9058 51.9655 88.5 52.5633 90.199 52.5633C91.2059 52.5633 92.3176 52.3745 93.5343 51.997C94.7719 51.5984 95.7892 51.116 96.5863 50.5496C97.2995 50.0462 97.8659 49.7945 98.2854 49.7945C98.8308 49.7945 99.3657 50.1301 99.8901 50.8013C100.414 51.4726 100.677 52.1648 100.677 52.878C100.677 54.3883 99.7327 55.8461 97.8449 57.2515C94.5097 59.7477 90.6605 60.9958 86.2975 60.9958C81.8924 60.9958 78.2006 59.7162 75.222 57.1571C73.7746 55.8985 72.579 54.3778 71.6351 52.5948C70.3975 50.2245 69.7787 47.7283 69.7787 45.1063C69.7787 41.5823 70.8485 38.4148 72.988 35.604C74.8339 33.1708 77.1833 31.3563 80.036 30.1607C82.1756 29.2587 84.4935 28.8077 86.9897 28.8077C90.9752 28.8077 94.3628 29.9404 97.1527 32.2059C98.5581 33.3386 99.6908 34.6811 100.551 36.2333C101.537 37.9953 102.03 39.7154 102.03 41.3935C102.03 42.7569 101.746 43.8792 101.18 44.7602C100.614 45.6202 99.8796 46.0502 98.9776 46.0502ZM85.0074 40.1664H88.1853C89.5278 40.1664 90.199 39.5476 90.199 38.31C90.199 37.1772 89.8739 36.2543 89.2236 35.5411C88.5734 34.8279 87.7238 34.4713 86.675 34.4713C85.5004 34.4713 84.5774 34.9328 83.9062 35.8557C83.2769 36.7158 82.9622 37.5863 82.9622 38.4673C82.9622 39.0966 83.1091 39.5371 83.4027 39.7888C83.7174 40.0405 84.2523 40.1664 85.0074 40.1664Z"/>
<path d="M139.881 54.7029L136.64 49.5113C135.885 48.3366 135.392 47.6339 135.162 47.4032C134.952 47.1724 134.669 47.0571 134.312 47.0571C133.557 47.0571 132.781 47.7493 131.984 49.1337L126.729 58.1954C125.722 59.9365 124.59 60.807 123.331 60.807C122.555 60.807 121.842 60.5448 121.191 60.0204C120.541 59.475 119.838 58.5625 119.083 57.283L109.644 41.5823C108.071 39.0441 106.844 37.387 105.963 36.6109C105.543 36.2753 104.778 35.9501 103.666 35.6355C103.204 35.4887 102.816 35.2055 102.502 34.786C102.208 34.3455 102.061 33.863 102.061 33.3386C102.061 31.7234 103.309 30.5907 105.805 29.9404C108.323 29.3112 111.07 28.9965 114.049 28.9965C120.74 28.9965 124.086 30.2446 124.086 32.7408C124.086 33.2022 123.761 33.905 123.111 34.8489C122.985 35.0377 122.922 35.2369 122.922 35.4467C122.922 35.9082 123.415 37.0514 124.401 38.8763C125.492 40.953 126.436 41.9913 127.233 41.9913C127.694 41.9913 128.281 41.4669 128.995 40.4181C129.708 39.3693 130.064 38.5197 130.064 37.8695C130.064 37.2192 129.907 36.7053 129.592 36.3277C129.278 35.9292 128.533 35.3104 127.358 34.4713C126.645 33.9679 126.289 33.3701 126.289 32.6778C126.289 31.0417 127.967 29.9719 131.323 29.4685C133.358 29.1538 135.749 28.9965 138.497 28.9965C141.664 28.9965 143.951 29.2692 145.356 29.8146C146.761 30.339 147.464 31.199 147.464 32.3947C147.464 32.8771 147.38 33.2652 147.212 33.5588C147.045 33.8525 146.594 34.3769 145.86 35.1321C145.629 35.3838 145.513 35.7089 145.513 36.1075C145.513 36.6738 145.996 37.8695 146.961 39.6944C147.8 41.2886 148.565 42.0857 149.258 42.0857C150.013 42.0857 150.967 41.0683 152.121 39.0336C152.96 37.5024 153.38 36.485 153.38 35.9816C153.38 35.5831 153.044 34.9643 152.373 34.1252C151.89 33.5379 151.649 32.8981 151.649 32.2059C151.649 31.1151 152.142 30.36 153.128 29.9404C154.512 29.3321 156.526 29.028 159.169 29.028C160.952 29.028 162.536 29.1643 163.92 29.437C164.717 29.6048 165.367 29.9509 165.871 30.4753C166.374 30.9788 166.626 31.5661 166.626 32.2373C166.626 32.9086 166.332 33.4749 165.745 33.9364C165.64 34.0413 164.906 34.335 163.542 34.8174C162.766 35.1111 162.127 35.5306 161.623 36.076C161.12 36.6214 160.511 37.5968 159.798 39.0022L151.932 54.2309C149.625 58.6779 147.59 60.9014 145.828 60.9014C145.073 60.9014 144.234 60.4294 143.311 59.4855C142.409 58.5206 141.266 56.9264 139.881 54.7029Z"/>
<path d="M201.52 28.7763C205.17 28.7763 208.264 29.6992 210.802 31.5451C212.144 32.531 213.078 33.6637 213.602 34.9433C214.148 36.2019 214.42 37.9429 214.42 40.1664L214.357 44.8546C214.357 48.1059 214.588 50.214 215.05 51.1789C215.28 51.6404 215.501 51.934 215.71 52.0599C215.92 52.1858 216.361 52.3011 217.032 52.406C217.703 52.5109 218.039 52.9514 218.039 53.7275C218.039 54.7344 217.63 55.7832 216.812 56.8739C216.015 57.9647 214.976 58.8772 213.697 59.6113C212.123 60.5343 210.477 60.9958 208.757 60.9958C206.554 60.9958 204.813 60.2406 203.534 58.7303C203.093 58.185 202.684 57.9123 202.307 57.9123C201.887 57.9123 201.331 58.1745 200.639 58.6989C198.541 60.2301 196.161 60.9958 193.497 60.9958C190.749 60.9958 188.525 60.4084 186.826 59.2338C185.714 58.4577 184.833 57.4508 184.183 56.2132C183.533 54.9546 183.208 53.6436 183.208 52.2801C183.208 50.0986 184.089 48.1688 185.851 46.4907C188.599 43.8477 192.71 42.5157 198.185 42.4947C199.401 42.4947 200.167 42.3794 200.482 42.1486C200.796 41.8969 200.954 41.3305 200.954 40.4495C200.954 38.2261 200.723 36.6214 200.261 35.6355C199.8 34.6286 199.045 34.1252 197.996 34.1252C197.367 34.1252 196.8 34.314 196.297 34.6916C195.814 35.0691 195.206 35.7614 194.472 36.7682C192.605 39.4322 190.654 40.7642 188.62 40.7642C187.592 40.7642 186.753 40.46 186.102 39.8517C185.452 39.2434 185.127 38.4463 185.127 37.4604C185.127 36.4536 185.526 35.4467 186.323 34.4398C187.141 33.433 188.242 32.552 189.626 31.7968C193.423 29.7831 197.388 28.7763 201.52 28.7763ZM199.412 46.9941C198.489 46.9941 197.681 47.3717 196.989 48.1269C196.318 48.882 195.982 49.784 195.982 50.8328C195.982 51.8396 196.223 52.6577 196.706 53.287C197.188 53.8953 197.828 54.1995 198.625 54.1995C200.303 54.1995 201.142 52.7836 201.142 49.9518C201.142 48.7981 201.017 48.022 200.765 47.6234C200.534 47.2249 200.083 47.0151 199.412 46.9941Z"/>
<path d="M238.082 35.195V45.2951C238.082 49.763 238.145 52.3641 238.27 53.0982C238.417 53.8324 238.942 54.3987 239.844 54.7973C240.62 55.1329 241.134 55.4476 241.385 55.7412C241.658 56.0349 241.794 56.4544 241.794 56.9998C241.794 57.692 241.543 58.3213 241.039 58.8877C240.557 59.454 239.907 59.8526 239.088 60.0833C237.578 60.5448 235.03 60.7755 231.443 60.7755C227.394 60.7755 224.552 60.4714 222.916 59.8631C222.161 59.5904 221.542 59.1708 221.059 58.6045C220.577 58.0171 220.336 57.4088 220.336 56.7796C220.336 56.2761 220.462 55.8881 220.713 55.6154C220.986 55.3427 221.563 55.0175 222.444 54.64C223.262 54.2834 223.765 53.308 223.954 51.7138C224.29 48.9869 224.458 45.1063 224.458 40.072C224.458 34.9538 224.311 31.6605 224.017 30.1922C223.723 28.7238 222.989 27.6331 221.814 26.9199C220.933 26.4164 220.325 25.9445 219.99 25.504C219.675 25.0425 219.518 24.4866 219.518 23.8364C219.518 22.8085 220.011 21.917 220.996 21.1619C221.982 20.3858 223.556 19.6726 225.716 19.0223C227.163 18.5818 229.041 18.1623 231.348 17.7637C233.656 17.3652 235.334 17.1659 236.383 17.1659C238.04 17.1659 238.868 18.1937 238.868 20.2494C238.868 20.9207 238.763 22.4624 238.554 24.8747C238.281 28.6294 238.124 32.0695 238.082 35.195Z"/>
<path d="M260.767 19.0852L260.358 31.3563C260.358 31.65 260.358 31.8807 260.358 32.0486C260.358 32.4681 260.495 32.6778 260.767 32.6778C260.914 32.6778 261.334 32.3947 262.026 31.8283C264.48 29.8146 267.186 28.8077 270.144 28.8077C273.08 28.8077 275.671 29.867 277.915 31.9856C280.726 34.6496 282.132 38.1212 282.132 42.4003C282.132 48.5044 279.856 53.3814 275.304 57.0313C272.032 59.6743 268.193 60.9958 263.788 60.9958C261.606 60.9958 259.635 60.7126 257.873 60.1462C256.132 59.6009 254.223 58.6569 252.146 57.3144C251.832 57.1257 251.58 57.0313 251.391 57.0313C251.16 57.0313 250.51 57.2305 249.44 57.6291C248.895 57.8389 248.255 57.9437 247.521 57.9437C246.22 57.9437 245.57 57.5242 245.57 56.6852C245.57 56.4125 245.623 56.0978 245.727 55.7412C246.147 54.3778 246.43 52.6892 246.577 50.6755C246.724 48.6617 246.797 45.4734 246.797 41.1103V32.4261C246.797 30.2656 246.713 28.9126 246.546 28.3672C246.378 27.8218 245.906 27.3918 245.13 27.0772C244.039 26.6157 243.284 26.1647 242.864 25.7242C242.445 25.2627 242.235 24.6859 242.235 23.9937C242.235 22.5883 243.735 21.2143 246.734 19.8718C248.37 19.1587 250.405 18.5399 252.838 18.0154C255.293 17.4701 257.39 17.1974 259.131 17.1974C260.243 17.1974 260.788 17.8267 260.767 19.0852ZM263.473 38.2785C262.341 38.2785 261.523 38.6666 261.019 39.4427C260.621 40.03 260.421 41.2257 260.421 43.0296C260.421 47.959 260.589 51.2838 260.925 53.0038C261.218 54.598 262.11 55.3951 263.599 55.3951C265.13 55.3951 266.295 54.7449 267.092 53.4443C267.889 52.1438 268.287 50.2559 268.287 47.7807C268.287 44.1309 267.616 41.4669 266.274 39.7888C265.498 38.8239 264.564 38.3205 263.473 38.2785Z"/>
<path d="M301.671 30.6012V47.6549C301.671 51.3048 302.877 53.1297 305.289 53.1297C305.898 53.1297 306.496 52.9619 307.083 52.6263C307.67 52.2697 308.079 51.8396 308.31 51.3362C308.772 50.3294 309.002 48.0849 309.002 44.6028C309.002 41.1627 308.887 38.8134 308.656 37.5548C308.572 37.0304 308.425 36.6528 308.216 36.4221C308.006 36.1704 307.607 35.8872 307.02 35.5726C305.824 34.9433 305.227 34.1462 305.227 33.1813C305.227 31.8807 306.254 30.9788 308.31 30.4753C312.212 29.5104 316.061 29.028 319.857 29.028C321.976 29.028 323.035 30.1502 323.035 32.3947C323.035 32.6254 323.025 33.0974 323.004 33.8106C322.962 34.8174 322.93 36.0445 322.91 37.4919V51.3677C322.91 52.0809 323.518 52.7311 324.734 53.3185C325.762 53.8219 326.276 54.5561 326.276 55.521C326.276 57.4088 324.042 58.8667 319.574 59.8945C316.952 60.5028 314.414 60.807 311.96 60.807C310.953 60.807 310.261 60.6916 309.883 60.4609C309.527 60.2301 309.317 59.7792 309.254 59.1079C309.149 57.8074 308.751 57.1571 308.058 57.1571C307.807 57.1571 307.576 57.2201 307.366 57.3459C307.156 57.4508 306.517 57.8703 305.447 58.6045C303.328 60.0518 301.052 60.7755 298.619 60.7755C294.592 60.7755 291.749 59.6113 290.092 57.283C288.687 55.3322 287.984 52.0494 287.984 47.4346C287.984 45.7146 287.995 44.2462 288.016 43.0296C288.016 42.3164 288.016 41.834 288.016 41.5823C288.016 39.7783 287.848 38.4568 287.512 37.6178C287.197 36.7577 286.61 36.0865 285.75 35.604C284.932 35.1845 284.408 34.8489 284.177 34.5972C283.967 34.3455 283.862 33.9993 283.862 33.5588C283.862 31.9647 285.068 30.9054 287.481 30.3809C291.592 29.479 295.703 29.028 299.815 29.028C301.052 29.028 301.671 29.5524 301.671 30.6012Z"/>
<path d="M343.361 29.028C344.557 29.028 345.155 29.8775 345.155 31.5766C345.155 31.5976 345.155 31.7759 345.155 32.1115C345.134 32.4471 345.123 32.7198 345.123 32.9296C345.123 34.0623 345.459 34.6286 346.13 34.6286C346.487 34.6286 347.043 34.1776 347.798 33.2757C348.931 31.9751 350.357 30.9473 352.077 30.1922C353.797 29.416 355.559 29.028 357.363 29.028C360.866 29.028 363.299 30.3075 364.663 32.8666C365.187 33.8106 365.617 34.2825 365.953 34.2825C366.184 34.2825 366.729 33.863 367.589 33.024C370.316 30.36 373.41 29.028 376.871 29.028C379.577 29.028 381.79 29.7726 383.51 31.2619C385.314 32.8142 386.216 35.1426 386.216 38.247C386.216 38.9183 386.195 40.051 386.153 41.6452C386.111 42.1906 386.09 43.8372 386.09 46.5851C386.09 48.3471 386.079 49.5847 386.059 50.2979C386.038 50.7384 386.027 51.053 386.027 51.2418C386.027 52.5843 386.447 53.759 387.286 54.7658C387.789 55.3741 388.093 55.7832 388.198 55.9929C388.324 56.1817 388.387 56.4439 388.387 56.7796C388.387 59.4645 385.23 60.807 378.916 60.807C376.126 60.807 373.871 60.4714 372.151 59.8001C370.452 59.1289 369.603 58.2479 369.603 57.1571C369.603 56.7376 369.655 56.423 369.76 56.2132C369.886 55.9825 370.295 55.3951 370.987 54.4512C371.637 53.5912 371.962 50.7279 371.962 45.8614C371.962 43.0296 371.763 41.0579 371.365 39.9461C370.903 38.6246 369.98 37.9639 368.596 37.9639C367.904 37.9639 367.285 38.1841 366.739 38.6246C366.215 39.0441 365.869 39.579 365.701 40.2293C365.512 40.9844 365.407 42.9982 365.386 46.2705C365.449 49.7945 365.554 51.934 365.701 52.6892C365.869 53.4443 366.404 54.4931 367.306 55.8356C367.516 56.1503 367.62 56.5488 367.62 57.0313C367.62 59.5274 364.359 60.7755 357.835 60.7755C353.912 60.7755 351.269 60.4819 349.906 59.8945C348.815 59.433 348.27 58.615 348.27 57.4403C348.27 56.9159 348.333 56.5488 348.459 56.3391C348.605 56.1293 349.077 55.6468 349.874 54.8917C350.336 54.4512 350.63 54.0422 350.755 53.6646C350.902 53.266 351.007 52.5528 351.07 51.525C351.217 49.2176 351.29 46.8893 351.29 44.5399C351.29 40.4286 350.242 38.3729 348.144 38.3729C346.571 38.3729 345.637 39.2539 345.344 41.0159C345.092 42.673 344.966 45.0433 344.966 48.1269C344.966 50.4342 345.008 51.9445 345.092 52.6577C345.197 53.3709 345.459 54.1156 345.879 54.8917C346.382 55.7937 346.634 56.5278 346.634 57.0942C346.634 58.4577 345.679 59.4016 343.77 59.926C341.694 60.4923 339.407 60.7755 336.911 60.7755C333.681 60.7755 331.311 60.5238 329.8 60.0204C328.29 59.496 327.535 58.6779 327.535 57.5662C327.535 57.1466 327.629 56.79 327.818 56.4964C328.028 56.2027 328.489 55.7412 329.202 55.1119C330.146 54.2519 330.692 53.0668 330.839 51.5565C331.069 48.9554 331.185 46.26 331.185 43.4701C331.185 41.4774 331.08 40.0929 330.87 39.3168C330.681 38.5197 330.262 37.88 329.611 37.3975C328.982 36.915 328.573 36.548 328.384 36.2962C328.217 36.0445 328.133 35.6984 328.133 35.2579C328.133 33.8525 329.234 32.7408 331.436 31.9227C336.743 30.0139 340.718 29.049 343.361 29.028Z"/>
<path d="M418.97 28.8077C420.019 28.8077 421.729 29.0385 424.099 29.4999C424.581 29.5838 424.98 29.6258 425.295 29.6258C425.651 29.6258 426.343 29.437 427.371 29.0594C427.854 28.8707 428.263 28.7763 428.598 28.7763C429.563 28.7763 430.539 29.3951 431.525 30.6327C432.322 31.6185 432.972 32.6988 433.475 33.8735C433.979 35.0482 434.23 36.0655 434.23 36.9255C434.23 37.7646 433.937 38.4673 433.349 39.0336C432.762 39.579 432.028 39.8517 431.147 39.8517C430.413 39.8517 429.752 39.6734 429.165 39.3168C428.598 38.9602 427.675 38.1736 426.396 36.957C425.053 35.6565 423.942 35.0062 423.061 35.0062C422.473 35.0062 421.959 35.2265 421.519 35.667C421.099 36.0865 420.89 36.5899 420.89 37.1772C420.89 38.2051 421.875 39.17 423.847 40.072C427.392 41.6662 430.109 43.4072 431.996 45.2951C433.591 46.8893 434.388 48.84 434.388 51.1474C434.388 54.0631 433.108 56.4964 430.549 58.4472C428.347 60.1462 425.651 60.9958 422.463 60.9958C421.645 60.9958 420.155 60.8594 417.995 60.5867C415.96 60.356 414.817 60.2406 414.565 60.2406C414.293 60.2406 413.978 60.2721 413.621 60.335C413.013 60.4189 412.572 60.4609 412.3 60.4609C411.314 60.4609 410.538 60.2092 409.971 59.7057C409.111 58.9296 408.314 57.713 407.58 56.0559C406.846 54.3778 406.479 52.9409 406.479 51.7453C406.479 49.8154 407.234 48.8505 408.744 48.8505C409.332 48.8505 409.867 49.0498 410.349 49.4484C410.852 49.8259 411.891 50.8538 413.464 52.5319C414.324 53.4548 415.037 54.0946 415.604 54.4512C416.17 54.7868 416.778 54.9546 417.428 54.9546C418.121 54.9546 418.677 54.7763 419.096 54.4197C419.516 54.0422 419.725 53.5492 419.725 52.9409C419.725 51.997 418.918 51.1369 417.303 50.3608C413.925 48.7037 411.482 46.9941 409.971 45.2321C408.482 43.4701 407.737 41.4354 407.737 39.128C407.737 36.6319 408.503 34.4818 410.034 32.6778C412.216 30.0978 415.195 28.8077 418.97 28.8077Z"/>
<path d="M456.57 28.7763C460.409 28.7763 463.776 29.7726 466.67 31.7654C468.747 33.1918 470.414 35.0482 471.673 37.3346C472.974 39.7259 473.624 42.222 473.624 44.8231C473.624 49.3749 471.537 53.2451 467.362 56.4334C463.377 59.475 458.815 60.9958 453.675 60.9958C448.662 60.9958 444.603 59.5694 441.499 56.7166C438.478 53.9478 436.968 50.3398 436.968 45.8929C436.968 40.9425 438.814 36.8941 442.506 33.7476C446.365 30.4334 451.053 28.7763 456.57 28.7763ZM454.053 36.0445C453.13 36.0445 452.385 36.3906 451.819 37.0829C451.274 37.7541 451.001 38.6561 451.001 39.7888C451.001 41.0474 451.232 42.7674 451.693 44.9489C452.176 47.1095 452.742 49.0288 453.392 50.7069C454.043 52.427 455.102 53.287 456.57 53.287C458.437 53.287 459.371 52.1018 459.371 49.7315C459.371 47.9695 459.129 45.9663 458.647 43.7218C458.185 41.4774 457.619 39.6524 456.948 38.247C456.256 36.8207 455.291 36.0865 454.053 36.0445Z"/>
<path d="M495.397 28.7763C499.236 28.7763 502.603 29.7726 505.497 31.7654C507.574 33.1918 509.242 35.0482 510.5 37.3346C511.801 39.7259 512.451 42.222 512.451 44.8231C512.451 49.3749 510.364 53.2451 506.19 56.4334C502.204 59.475 497.642 60.9958 492.503 60.9958C487.489 60.9958 483.43 59.5694 480.326 56.7166C477.305 53.9478 475.795 50.3398 475.795 45.8929C475.795 40.9425 477.641 36.8941 481.333 33.7476C485.192 30.4334 489.88 28.7763 495.397 28.7763ZM492.88 36.0445C491.957 36.0445 491.212 36.3906 490.646 37.0829C490.101 37.7541 489.828 38.6561 489.828 39.7888C489.828 41.0474 490.059 42.7674 490.52 44.9489C491.003 47.1095 491.569 49.0288 492.219 50.7069C492.87 52.427 493.929 53.287 495.397 53.287C497.264 53.287 498.198 52.1018 498.198 49.7315C498.198 47.9695 497.956 45.9663 497.474 43.7218C497.012 41.4774 496.446 39.6524 495.775 38.247C495.083 36.8207 494.118 36.0865 492.88 36.0445Z"/>
<path d="M552.914 40.4181L553.355 51.4935C553.397 52.3326 553.522 52.9514 553.732 53.3499C553.963 53.7485 554.613 54.5141 555.683 55.6468C555.998 55.9825 556.155 56.4544 556.155 57.0627C556.155 58.4472 555.326 59.4121 553.669 59.9575C552.012 60.5028 549.054 60.7755 544.796 60.7755C541.902 60.7755 539.856 60.5238 538.661 60.0204C537.423 59.496 536.804 58.6464 536.804 57.4718C536.804 57.0522 536.867 56.7481 536.993 56.5593C537.119 56.3495 537.539 55.8566 538.252 55.0805C539.091 54.1995 539.51 51.2628 539.51 46.2705C539.51 43.3757 539.175 41.2362 538.503 39.8517C537.958 38.74 536.951 38.1841 535.483 38.1841C534.077 38.1841 533.113 38.6351 532.588 39.5371C532.064 40.4391 531.802 42.0752 531.802 44.4455V50.6755C531.802 51.9131 531.875 52.7626 532.022 53.2241C532.19 53.6856 532.714 54.577 533.595 55.8986C533.826 56.2761 533.941 56.7061 533.941 57.1886C533.941 58.4262 533.081 59.3387 531.361 59.926C529.641 60.5133 526.956 60.807 523.306 60.807C517.475 60.807 514.559 59.6009 514.559 57.1886C514.559 56.6852 514.643 56.3076 514.811 56.0559C515 55.7832 515.43 55.4056 516.101 54.9232C516.646 54.5246 516.992 54.0736 517.139 53.5702C517.286 53.0458 517.422 51.7767 517.548 49.763C517.695 47.3717 517.768 44.865 517.768 42.243C517.768 40.7957 517.653 39.8517 517.422 39.4112C517.213 38.9497 516.583 38.3939 515.534 37.7436C514.632 37.1772 514.181 36.485 514.181 35.667C514.181 34.8279 514.549 34.1462 515.283 33.6218C516.017 33.0764 517.527 32.3947 519.814 31.5766C521.827 30.8634 523.768 30.2656 525.634 29.7831C527.501 29.2797 528.781 29.028 529.473 29.028C530.102 29.028 530.627 29.2587 531.046 29.7202C531.487 30.1817 531.707 30.7271 531.707 31.3563C531.707 31.4193 531.697 31.6815 531.676 32.1429C531.655 32.3108 531.644 32.4576 531.644 32.5835C531.644 33.5903 532.064 34.0937 532.903 34.0937C533.406 34.0937 533.941 33.6952 534.507 32.8981C536.311 30.297 538.933 28.9965 542.374 28.9965C545.017 28.9965 547.282 29.6887 549.17 31.0732C550.491 32.059 551.414 33.2232 551.939 34.5657C552.463 35.8872 552.788 37.838 552.914 40.4181Z"/>
<path d="M566.884 47.3717C568.709 47.3717 570.272 48.0534 571.572 49.4169C572.873 50.7594 573.523 52.3326 573.523 54.1365C573.523 56.0034 572.852 57.6186 571.51 58.9821C570.167 60.3245 568.562 60.9958 566.695 60.9958C564.871 60.9958 563.308 60.377 562.007 59.1394C560.602 57.7969 559.899 56.1398 559.899 54.168C559.899 52.3431 560.518 50.8013 561.756 49.5427C563.14 48.0954 564.85 47.3717 566.884 47.3717ZM566.727 17.6379C568.594 17.6379 570.178 18.3091 571.478 19.6516C573.219 21.4136 574.09 23.9098 574.09 27.1401C574.09 29.2797 573.712 31.5871 572.957 34.0623C572.223 36.5165 571.237 38.7085 569.999 40.6383C568.594 42.8199 567.461 43.9106 566.601 43.9106C565.762 43.9106 564.577 42.5157 563.046 39.7259C561.913 37.6702 561.011 35.4677 560.34 33.1183C559.689 30.769 559.364 28.6189 559.364 26.6681C559.364 24.2769 559.899 22.2736 560.969 20.6585C562.29 18.6447 564.21 17.6379 566.727 17.6379Z"/>
</mask>
<path d="M34.7274 18.7077L50.3966 32.4261C51.8649 33.7057 52.9242 34.3455 53.5745 34.3455C54.6653 34.3455 55.2107 33.1813 55.2107 30.8529C55.2107 28.2099 55.0533 26.4059 54.7387 25.441C54.424 24.4761 53.7633 23.7525 52.7564 23.27C51.9384 22.8714 51.3615 22.4519 51.0259 22.0114C50.6903 21.5499 50.5225 20.9626 50.5225 20.2494C50.5225 18.4874 51.7286 17.3547 54.1409 16.8513C55.1268 16.6415 56.8468 16.5366 59.301 16.5366C62.4684 16.5366 64.6605 16.7254 65.8771 17.103C67.8069 17.6903 68.7718 18.8021 68.7718 20.4382C68.7718 21.8017 67.9852 22.8295 66.412 23.5217C65.7827 23.7944 65.3527 24.0356 65.1219 24.2454C64.8912 24.4552 64.6919 24.7698 64.5241 25.1893C63.9578 26.5738 63.6641 29.1958 63.6431 33.0554V43.3128C63.6431 44.886 63.6536 47.0361 63.6746 49.763C63.6955 53.4548 63.4753 56.1188 63.0138 57.7549C62.4475 59.7896 61.4196 60.807 59.9303 60.807C59.28 60.807 58.7137 60.6706 58.2312 60.398C57.7698 60.1253 56.9936 59.496 55.9029 58.5101L37.2445 41.8025C35.944 40.6278 34.8637 40.0405 34.0037 40.0405C32.7241 40.0405 32.0843 41.813 32.0843 45.358C32.0843 48.2737 32.2417 50.2664 32.5563 51.3362C32.8919 52.406 33.5632 53.1926 34.57 53.696C35.9754 54.3883 36.6781 55.2902 36.6781 56.402C36.6781 59.3177 33.5422 60.7755 27.2703 60.7755C24.4385 60.7755 22.236 60.4084 20.6628 59.6743C19.1105 58.9191 18.3344 57.8598 18.3344 56.4964C18.3344 55.7832 18.4812 55.2483 18.7749 54.8917C19.0686 54.5351 19.7293 54.0526 20.7572 53.4443C21.7431 52.857 22.3409 51.8187 22.5506 50.3294C22.9072 47.6234 23.0855 43.7323 23.0855 38.6561C23.0855 33.2442 22.7709 29.3007 22.1416 26.8255C21.9109 25.9235 21.6172 25.2523 21.2606 24.8118C20.904 24.3712 20.3167 23.9517 19.4986 23.5532C18.5547 23.0917 17.8939 22.6407 17.5163 22.2002C17.1597 21.7597 16.9814 21.2248 16.9814 20.5955C16.9814 18.5818 18.712 17.3127 22.1731 16.7883C23.3477 16.6205 25.4034 16.5366 28.3401 16.5366C30.0182 16.5366 31.2348 16.673 31.99 16.9457C32.7661 17.1974 33.6785 17.7847 34.7274 18.7077Z" fill="#C2DCEE"/>
<path d="M98.9776 46.0502H84.1893C83.5391 46.0502 83.214 46.3334 83.214 46.8997C83.214 48.2632 83.9481 49.5532 85.4165 50.7699C86.9058 51.9655 88.5 52.5633 90.199 52.5633C91.2059 52.5633 92.3176 52.3745 93.5343 51.997C94.7719 51.5984 95.7892 51.116 96.5863 50.5496C97.2995 50.0462 97.8659 49.7945 98.2854 49.7945C98.8308 49.7945 99.3657 50.1301 99.8901 50.8013C100.414 51.4726 100.677 52.1648 100.677 52.878C100.677 54.3883 99.7327 55.8461 97.8449 57.2515C94.5097 59.7477 90.6605 60.9958 86.2975 60.9958C81.8924 60.9958 78.2006 59.7162 75.222 57.1571C73.7746 55.8985 72.579 54.3778 71.6351 52.5948C70.3975 50.2245 69.7787 47.7283 69.7787 45.1063C69.7787 41.5823 70.8485 38.4148 72.988 35.604C74.8339 33.1708 77.1833 31.3563 80.036 30.1607C82.1756 29.2587 84.4935 28.8077 86.9897 28.8077C90.9752 28.8077 94.3628 29.9404 97.1527 32.2059C98.5581 33.3386 99.6908 34.6811 100.551 36.2333C101.537 37.9953 102.03 39.7154 102.03 41.3935C102.03 42.7569 101.746 43.8792 101.18 44.7602C100.614 45.6202 99.8796 46.0502 98.9776 46.0502ZM85.0074 40.1664H88.1853C89.5278 40.1664 90.199 39.5476 90.199 38.31C90.199 37.1772 89.8739 36.2543 89.2236 35.5411C88.5734 34.8279 87.7238 34.4713 86.675 34.4713C85.5004 34.4713 84.5774 34.9328 83.9062 35.8557C83.2769 36.7158 82.9622 37.5863 82.9622 38.4673C82.9622 39.0966 83.1091 39.5371 83.4027 39.7888C83.7174 40.0405 84.2523 40.1664 85.0074 40.1664Z" fill="#C2DCEE"/>
<path d="M139.881 54.7029L136.64 49.5113C135.885 48.3366 135.392 47.6339 135.162 47.4032C134.952 47.1724 134.669 47.0571 134.312 47.0571C133.557 47.0571 132.781 47.7493 131.984 49.1337L126.729 58.1954C125.722 59.9365 124.59 60.807 123.331 60.807C122.555 60.807 121.842 60.5448 121.191 60.0204C120.541 59.475 119.838 58.5625 119.083 57.283L109.644 41.5823C108.071 39.0441 106.844 37.387 105.963 36.6109C105.543 36.2753 104.778 35.9501 103.666 35.6355C103.204 35.4887 102.816 35.2055 102.502 34.786C102.208 34.3455 102.061 33.863 102.061 33.3386C102.061 31.7234 103.309 30.5907 105.805 29.9404C108.323 29.3112 111.07 28.9965 114.049 28.9965C120.74 28.9965 124.086 30.2446 124.086 32.7408C124.086 33.2022 123.761 33.905 123.111 34.8489C122.985 35.0377 122.922 35.2369 122.922 35.4467C122.922 35.9082 123.415 37.0514 124.401 38.8763C125.492 40.953 126.436 41.9913 127.233 41.9913C127.694 41.9913 128.281 41.4669 128.995 40.4181C129.708 39.3693 130.064 38.5197 130.064 37.8695C130.064 37.2192 129.907 36.7053 129.592 36.3277C129.278 35.9292 128.533 35.3104 127.358 34.4713C126.645 33.9679 126.289 33.3701 126.289 32.6778C126.289 31.0417 127.967 29.9719 131.323 29.4685C133.358 29.1538 135.749 28.9965 138.497 28.9965C141.664 28.9965 143.951 29.2692 145.356 29.8146C146.761 30.339 147.464 31.199 147.464 32.3947C147.464 32.8771 147.38 33.2652 147.212 33.5588C147.045 33.8525 146.594 34.3769 145.86 35.1321C145.629 35.3838 145.513 35.7089 145.513 36.1075C145.513 36.6738 145.996 37.8695 146.961 39.6944C147.8 41.2886 148.565 42.0857 149.258 42.0857C150.013 42.0857 150.967 41.0683 152.121 39.0336C152.96 37.5024 153.38 36.485 153.38 35.9816C153.38 35.5831 153.044 34.9643 152.373 34.1252C151.89 33.5379 151.649 32.8981 151.649 32.2059C151.649 31.1151 152.142 30.36 153.128 29.9404C154.512 29.3321 156.526 29.028 159.169 29.028C160.952 29.028 162.536 29.1643 163.92 29.437C164.717 29.6048 165.367 29.9509 165.871 30.4753C166.374 30.9788 166.626 31.5661 166.626 32.2373C166.626 32.9086 166.332 33.4749 165.745 33.9364C165.64 34.0413 164.906 34.335 163.542 34.8174C162.766 35.1111 162.127 35.5306 161.623 36.076C161.12 36.6214 160.511 37.5968 159.798 39.0022L151.932 54.2309C149.625 58.6779 147.59 60.9014 145.828 60.9014C145.073 60.9014 144.234 60.4294 143.311 59.4855C142.409 58.5206 141.266 56.9264 139.881 54.7029Z" fill="#C2DCEE"/>
<path d="M201.52 28.7763C205.17 28.7763 208.264 29.6992 210.802 31.5451C212.144 32.531 213.078 33.6637 213.602 34.9433C214.148 36.2019 214.42 37.9429 214.42 40.1664L214.357 44.8546C214.357 48.1059 214.588 50.214 215.05 51.1789C215.28 51.6404 215.501 51.934 215.71 52.0599C215.92 52.1858 216.361 52.3011 217.032 52.406C217.703 52.5109 218.039 52.9514 218.039 53.7275C218.039 54.7344 217.63 55.7832 216.812 56.8739C216.015 57.9647 214.976 58.8772 213.697 59.6113C212.123 60.5343 210.477 60.9958 208.757 60.9958C206.554 60.9958 204.813 60.2406 203.534 58.7303C203.093 58.185 202.684 57.9123 202.307 57.9123C201.887 57.9123 201.331 58.1745 200.639 58.6989C198.541 60.2301 196.161 60.9958 193.497 60.9958C190.749 60.9958 188.525 60.4084 186.826 59.2338C185.714 58.4577 184.833 57.4508 184.183 56.2132C183.533 54.9546 183.208 53.6436 183.208 52.2801C183.208 50.0986 184.089 48.1688 185.851 46.4907C188.599 43.8477 192.71 42.5157 198.185 42.4947C199.401 42.4947 200.167 42.3794 200.482 42.1486C200.796 41.8969 200.954 41.3305 200.954 40.4495C200.954 38.2261 200.723 36.6214 200.261 35.6355C199.8 34.6286 199.045 34.1252 197.996 34.1252C197.367 34.1252 196.8 34.314 196.297 34.6916C195.814 35.0691 195.206 35.7614 194.472 36.7682C192.605 39.4322 190.654 40.7642 188.62 40.7642C187.592 40.7642 186.753 40.46 186.102 39.8517C185.452 39.2434 185.127 38.4463 185.127 37.4604C185.127 36.4536 185.526 35.4467 186.323 34.4398C187.141 33.433 188.242 32.552 189.626 31.7968C193.423 29.7831 197.388 28.7763 201.52 28.7763ZM199.412 46.9941C198.489 46.9941 197.681 47.3717 196.989 48.1269C196.318 48.882 195.982 49.784 195.982 50.8328C195.982 51.8396 196.223 52.6577 196.706 53.287C197.188 53.8953 197.828 54.1995 198.625 54.1995C200.303 54.1995 201.142 52.7836 201.142 49.9518C201.142 48.7981 201.017 48.022 200.765 47.6234C200.534 47.2249 200.083 47.0151 199.412 46.9941Z" fill="#C2DCEE"/>
<path d="M238.082 35.195V45.2951C238.082 49.763 238.145 52.3641 238.27 53.0982C238.417 53.8324 238.942 54.3987 239.844 54.7973C240.62 55.1329 241.134 55.4476 241.385 55.7412C241.658 56.0349 241.794 56.4544 241.794 56.9998C241.794 57.692 241.543 58.3213 241.039 58.8877C240.557 59.454 239.907 59.8526 239.088 60.0833C237.578 60.5448 235.03 60.7755 231.443 60.7755C227.394 60.7755 224.552 60.4714 222.916 59.8631C222.161 59.5904 221.542 59.1708 221.059 58.6045C220.577 58.0171 220.336 57.4088 220.336 56.7796C220.336 56.2761 220.462 55.8881 220.713 55.6154C220.986 55.3427 221.563 55.0175 222.444 54.64C223.262 54.2834 223.765 53.308 223.954 51.7138C224.29 48.9869 224.458 45.1063 224.458 40.072C224.458 34.9538 224.311 31.6605 224.017 30.1922C223.723 28.7238 222.989 27.6331 221.814 26.9199C220.933 26.4164 220.325 25.9445 219.99 25.504C219.675 25.0425 219.518 24.4866 219.518 23.8364C219.518 22.8085 220.011 21.917 220.996 21.1619C221.982 20.3858 223.556 19.6726 225.716 19.0223C227.163 18.5818 229.041 18.1623 231.348 17.7637C233.656 17.3652 235.334 17.1659 236.383 17.1659C238.04 17.1659 238.868 18.1937 238.868 20.2494C238.868 20.9207 238.763 22.4624 238.554 24.8747C238.281 28.6294 238.124 32.0695 238.082 35.195Z" fill="#C2DCEE"/>
<path d="M260.767 19.0852L260.358 31.3563C260.358 31.65 260.358 31.8807 260.358 32.0486C260.358 32.4681 260.495 32.6778 260.767 32.6778C260.914 32.6778 261.334 32.3947 262.026 31.8283C264.48 29.8146 267.186 28.8077 270.144 28.8077C273.08 28.8077 275.671 29.867 277.915 31.9856C280.726 34.6496 282.132 38.1212 282.132 42.4003C282.132 48.5044 279.856 53.3814 275.304 57.0313C272.032 59.6743 268.193 60.9958 263.788 60.9958C261.606 60.9958 259.635 60.7126 257.873 60.1462C256.132 59.6009 254.223 58.6569 252.146 57.3144C251.832 57.1257 251.58 57.0313 251.391 57.0313C251.16 57.0313 250.51 57.2305 249.44 57.6291C248.895 57.8389 248.255 57.9437 247.521 57.9437C246.22 57.9437 245.57 57.5242 245.57 56.6852C245.57 56.4125 245.623 56.0978 245.727 55.7412C246.147 54.3778 246.43 52.6892 246.577 50.6755C246.724 48.6617 246.797 45.4734 246.797 41.1103V32.4261C246.797 30.2656 246.713 28.9126 246.546 28.3672C246.378 27.8218 245.906 27.3918 245.13 27.0772C244.039 26.6157 243.284 26.1647 242.864 25.7242C242.445 25.2627 242.235 24.6859 242.235 23.9937C242.235 22.5883 243.735 21.2143 246.734 19.8718C248.37 19.1587 250.405 18.5399 252.838 18.0154C255.293 17.4701 257.39 17.1974 259.131 17.1974C260.243 17.1974 260.788 17.8267 260.767 19.0852ZM263.473 38.2785C262.341 38.2785 261.523 38.6666 261.019 39.4427C260.621 40.03 260.421 41.2257 260.421 43.0296C260.421 47.959 260.589 51.2838 260.925 53.0038C261.218 54.598 262.11 55.3951 263.599 55.3951C265.13 55.3951 266.295 54.7449 267.092 53.4443C267.889 52.1438 268.287 50.2559 268.287 47.7807C268.287 44.1309 267.616 41.4669 266.274 39.7888C265.498 38.8239 264.564 38.3205 263.473 38.2785Z" fill="#C2DCEE"/>
<path d="M301.671 30.6012V47.6549C301.671 51.3048 302.877 53.1297 305.289 53.1297C305.898 53.1297 306.496 52.9619 307.083 52.6263C307.67 52.2697 308.079 51.8396 308.31 51.3362C308.772 50.3294 309.002 48.0849 309.002 44.6028C309.002 41.1627 308.887 38.8134 308.656 37.5548C308.572 37.0304 308.425 36.6528 308.216 36.4221C308.006 36.1704 307.607 35.8872 307.02 35.5726C305.824 34.9433 305.227 34.1462 305.227 33.1813C305.227 31.8807 306.254 30.9788 308.31 30.4753C312.212 29.5104 316.061 29.028 319.857 29.028C321.976 29.028 323.035 30.1502 323.035 32.3947C323.035 32.6254 323.025 33.0974 323.004 33.8106C322.962 34.8174 322.93 36.0445 322.91 37.4919V51.3677C322.91 52.0809 323.518 52.7311 324.734 53.3185C325.762 53.8219 326.276 54.5561 326.276 55.521C326.276 57.4088 324.042 58.8667 319.574 59.8945C316.952 60.5028 314.414 60.807 311.96 60.807C310.953 60.807 310.261 60.6916 309.883 60.4609C309.527 60.2301 309.317 59.7792 309.254 59.1079C309.149 57.8074 308.751 57.1571 308.058 57.1571C307.807 57.1571 307.576 57.2201 307.366 57.3459C307.156 57.4508 306.517 57.8703 305.447 58.6045C303.328 60.0518 301.052 60.7755 298.619 60.7755C294.592 60.7755 291.749 59.6113 290.092 57.283C288.687 55.3322 287.984 52.0494 287.984 47.4346C287.984 45.7146 287.995 44.2462 288.016 43.0296C288.016 42.3164 288.016 41.834 288.016 41.5823C288.016 39.7783 287.848 38.4568 287.512 37.6178C287.197 36.7577 286.61 36.0865 285.75 35.604C284.932 35.1845 284.408 34.8489 284.177 34.5972C283.967 34.3455 283.862 33.9993 283.862 33.5588C283.862 31.9647 285.068 30.9054 287.481 30.3809C291.592 29.479 295.703 29.028 299.815 29.028C301.052 29.028 301.671 29.5524 301.671 30.6012Z" fill="#C2DCEE"/>
<path d="M343.361 29.028C344.557 29.028 345.155 29.8775 345.155 31.5766C345.155 31.5976 345.155 31.7759 345.155 32.1115C345.134 32.4471 345.123 32.7198 345.123 32.9296C345.123 34.0623 345.459 34.6286 346.13 34.6286C346.487 34.6286 347.043 34.1776 347.798 33.2757C348.931 31.9751 350.357 30.9473 352.077 30.1922C353.797 29.416 355.559 29.028 357.363 29.028C360.866 29.028 363.299 30.3075 364.663 32.8666C365.187 33.8106 365.617 34.2825 365.953 34.2825C366.184 34.2825 366.729 33.863 367.589 33.024C370.316 30.36 373.41 29.028 376.871 29.028C379.577 29.028 381.79 29.7726 383.51 31.2619C385.314 32.8142 386.216 35.1426 386.216 38.247C386.216 38.9183 386.195 40.051 386.153 41.6452C386.111 42.1906 386.09 43.8372 386.09 46.5851C386.09 48.3471 386.079 49.5847 386.059 50.2979C386.038 50.7384 386.027 51.053 386.027 51.2418C386.027 52.5843 386.447 53.759 387.286 54.7658C387.789 55.3741 388.093 55.7832 388.198 55.9929C388.324 56.1817 388.387 56.4439 388.387 56.7796C388.387 59.4645 385.23 60.807 378.916 60.807C376.126 60.807 373.871 60.4714 372.151 59.8001C370.452 59.1289 369.603 58.2479 369.603 57.1571C369.603 56.7376 369.655 56.423 369.76 56.2132C369.886 55.9825 370.295 55.3951 370.987 54.4512C371.637 53.5912 371.962 50.7279 371.962 45.8614C371.962 43.0296 371.763 41.0579 371.365 39.9461C370.903 38.6246 369.98 37.9639 368.596 37.9639C367.904 37.9639 367.285 38.1841 366.739 38.6246C366.215 39.0441 365.869 39.579 365.701 40.2293C365.512 40.9844 365.407 42.9982 365.386 46.2705C365.449 49.7945 365.554 51.934 365.701 52.6892C365.869 53.4443 366.404 54.4931 367.306 55.8356C367.516 56.1503 367.62 56.5488 367.62 57.0313C367.62 59.5274 364.359 60.7755 357.835 60.7755C353.912 60.7755 351.269 60.4819 349.906 59.8945C348.815 59.433 348.27 58.615 348.27 57.4403C348.27 56.9159 348.333 56.5488 348.459 56.3391C348.605 56.1293 349.077 55.6468 349.874 54.8917C350.336 54.4512 350.63 54.0422 350.755 53.6646C350.902 53.266 351.007 52.5528 351.07 51.525C351.217 49.2176 351.29 46.8893 351.29 44.5399C351.29 40.4286 350.242 38.3729 348.144 38.3729C346.571 38.3729 345.637 39.2539 345.344 41.0159C345.092 42.673 344.966 45.0433 344.966 48.1269C344.966 50.4342 345.008 51.9445 345.092 52.6577C345.197 53.3709 345.459 54.1156 345.879 54.8917C346.382 55.7937 346.634 56.5278 346.634 57.0942C346.634 58.4577 345.679 59.4016 343.77 59.926C341.694 60.4923 339.407 60.7755 336.911 60.7755C333.681 60.7755 331.311 60.5238 329.8 60.0204C328.29 59.496 327.535 58.6779 327.535 57.5662C327.535 57.1466 327.629 56.79 327.818 56.4964C328.028 56.2027 328.489 55.7412 329.202 55.1119C330.146 54.2519 330.692 53.0668 330.839 51.5565C331.069 48.9554 331.185 46.26 331.185 43.4701C331.185 41.4774 331.08 40.0929 330.87 39.3168C330.681 38.5197 330.262 37.88 329.611 37.3975C328.982 36.915 328.573 36.548 328.384 36.2962C328.217 36.0445 328.133 35.6984 328.133 35.2579C328.133 33.8525 329.234 32.7408 331.436 31.9227C336.743 30.0139 340.718 29.049 343.361 29.028Z" fill="#C2DCEE"/>
<path d="M418.97 28.8077C420.019 28.8077 421.729 29.0385 424.099 29.4999C424.581 29.5838 424.98 29.6258 425.295 29.6258C425.651 29.6258 426.343 29.437 427.371 29.0594C427.854 28.8707 428.263 28.7763 428.598 28.7763C429.563 28.7763 430.539 29.3951 431.525 30.6327C432.322 31.6185 432.972 32.6988 433.475 33.8735C433.979 35.0482 434.23 36.0655 434.23 36.9255C434.23 37.7646 433.937 38.4673 433.349 39.0336C432.762 39.579 432.028 39.8517 431.147 39.8517C430.413 39.8517 429.752 39.6734 429.165 39.3168C428.598 38.9602 427.675 38.1736 426.396 36.957C425.053 35.6565 423.942 35.0062 423.061 35.0062C422.473 35.0062 421.959 35.2265 421.519 35.667C421.099 36.0865 420.89 36.5899 420.89 37.1772C420.89 38.2051 421.875 39.17 423.847 40.072C427.392 41.6662 430.109 43.4072 431.996 45.2951C433.591 46.8893 434.388 48.84 434.388 51.1474C434.388 54.0631 433.108 56.4964 430.549 58.4472C428.347 60.1462 425.651 60.9958 422.463 60.9958C421.645 60.9958 420.155 60.8594 417.995 60.5867C415.96 60.356 414.817 60.2406 414.565 60.2406C414.293 60.2406 413.978 60.2721 413.621 60.335C413.013 60.4189 412.572 60.4609 412.3 60.4609C411.314 60.4609 410.538 60.2092 409.971 59.7057C409.111 58.9296 408.314 57.713 407.58 56.0559C406.846 54.3778 406.479 52.9409 406.479 51.7453C406.479 49.8154 407.234 48.8505 408.744 48.8505C409.332 48.8505 409.867 49.0498 410.349 49.4484C410.852 49.8259 411.891 50.8538 413.464 52.5319C414.324 53.4548 415.037 54.0946 415.604 54.4512C416.17 54.7868 416.778 54.9546 417.428 54.9546C418.121 54.9546 418.677 54.7763 419.096 54.4197C419.516 54.0422 419.725 53.5492 419.725 52.9409C419.725 51.997 418.918 51.1369 417.303 50.3608C413.925 48.7037 411.482 46.9941 409.971 45.2321C408.482 43.4701 407.737 41.4354 407.737 39.128C407.737 36.6319 408.503 34.4818 410.034 32.6778C412.216 30.0978 415.195 28.8077 418.97 28.8077Z" fill="#C2DCEE"/>
<path d="M456.57 28.7763C460.409 28.7763 463.776 29.7726 466.67 31.7654C468.747 33.1918 470.414 35.0482 471.673 37.3346C472.974 39.7259 473.624 42.222 473.624 44.8231C473.624 49.3749 471.537 53.2451 467.362 56.4334C463.377 59.475 458.815 60.9958 453.675 60.9958C448.662 60.9958 444.603 59.5694 441.499 56.7166C438.478 53.9478 436.968 50.3398 436.968 45.8929C436.968 40.9425 438.814 36.8941 442.506 33.7476C446.365 30.4334 451.053 28.7763 456.57 28.7763ZM454.053 36.0445C453.13 36.0445 452.385 36.3906 451.819 37.0829C451.274 37.7541 451.001 38.6561 451.001 39.7888C451.001 41.0474 451.232 42.7674 451.693 44.9489C452.176 47.1095 452.742 49.0288 453.392 50.7069C454.043 52.427 455.102 53.287 456.57 53.287C458.437 53.287 459.371 52.1018 459.371 49.7315C459.371 47.9695 459.129 45.9663 458.647 43.7218C458.185 41.4774 457.619 39.6524 456.948 38.247C456.256 36.8207 455.291 36.0865 454.053 36.0445Z" fill="#C2DCEE"/>
<path d="M495.397 28.7763C499.236 28.7763 502.603 29.7726 505.497 31.7654C507.574 33.1918 509.242 35.0482 510.5 37.3346C511.801 39.7259 512.451 42.222 512.451 44.8231C512.451 49.3749 510.364 53.2451 506.19 56.4334C502.204 59.475 497.642 60.9958 492.503 60.9958C487.489 60.9958 483.43 59.5694 480.326 56.7166C477.305 53.9478 475.795 50.3398 475.795 45.8929C475.795 40.9425 477.641 36.8941 481.333 33.7476C485.192 30.4334 489.88 28.7763 495.397 28.7763ZM492.88 36.0445C491.957 36.0445 491.212 36.3906 490.646 37.0829C490.101 37.7541 489.828 38.6561 489.828 39.7888C489.828 41.0474 490.059 42.7674 490.52 44.9489C491.003 47.1095 491.569 49.0288 492.219 50.7069C492.87 52.427 493.929 53.287 495.397 53.287C497.264 53.287 498.198 52.1018 498.198 49.7315C498.198 47.9695 497.956 45.9663 497.474 43.7218C497.012 41.4774 496.446 39.6524 495.775 38.247C495.083 36.8207 494.118 36.0865 492.88 36.0445Z" fill="#C2DCEE"/>
<path d="M552.914 40.4181L553.355 51.4935C553.397 52.3326 553.522 52.9514 553.732 53.3499C553.963 53.7485 554.613 54.5141 555.683 55.6468C555.998 55.9825 556.155 56.4544 556.155 57.0627C556.155 58.4472 555.326 59.4121 553.669 59.9575C552.012 60.5028 549.054 60.7755 544.796 60.7755C541.902 60.7755 539.856 60.5238 538.661 60.0204C537.423 59.496 536.804 58.6464 536.804 57.4718C536.804 57.0522 536.867 56.7481 536.993 56.5593C537.119 56.3495 537.539 55.8566 538.252 55.0805C539.091 54.1995 539.51 51.2628 539.51 46.2705C539.51 43.3757 539.175 41.2362 538.503 39.8517C537.958 38.74 536.951 38.1841 535.483 38.1841C534.077 38.1841 533.113 38.6351 532.588 39.5371C532.064 40.4391 531.802 42.0752 531.802 44.4455V50.6755C531.802 51.9131 531.875 52.7626 532.022 53.2241C532.19 53.6856 532.714 54.577 533.595 55.8986C533.826 56.2761 533.941 56.7061 533.941 57.1886C533.941 58.4262 533.081 59.3387 531.361 59.926C529.641 60.5133 526.956 60.807 523.306 60.807C517.475 60.807 514.559 59.6009 514.559 57.1886C514.559 56.6852 514.643 56.3076 514.811 56.0559C515 55.7832 515.43 55.4056 516.101 54.9232C516.646 54.5246 516.992 54.0736 517.139 53.5702C517.286 53.0458 517.422 51.7767 517.548 49.763C517.695 47.3717 517.768 44.865 517.768 42.243C517.768 40.7957 517.653 39.8517 517.422 39.4112C517.213 38.9497 516.583 38.3939 515.534 37.7436C514.632 37.1772 514.181 36.485 514.181 35.667C514.181 34.8279 514.549 34.1462 515.283 33.6218C516.017 33.0764 517.527 32.3947 519.814 31.5766C521.827 30.8634 523.768 30.2656 525.634 29.7831C527.501 29.2797 528.781 29.028 529.473 29.028C530.102 29.028 530.627 29.2587 531.046 29.7202C531.487 30.1817 531.707 30.7271 531.707 31.3563C531.707 31.4193 531.697 31.6815 531.676 32.1429C531.655 32.3108 531.644 32.4576 531.644 32.5835C531.644 33.5903 532.064 34.0937 532.903 34.0937C533.406 34.0937 533.941 33.6952 534.507 32.8981C536.311 30.297 538.933 28.9965 542.374 28.9965C545.017 28.9965 547.282 29.6887 549.17 31.0732C550.491 32.059 551.414 33.2232 551.939 34.5657C552.463 35.8872 552.788 37.838 552.914 40.4181Z" fill="#C2DCEE"/>
<path d="M566.884 47.3717C568.709 47.3717 570.272 48.0534 571.572 49.4169C572.873 50.7594 573.523 52.3326 573.523 54.1365C573.523 56.0034 572.852 57.6186 571.51 58.9821C570.167 60.3245 568.562 60.9958 566.695 60.9958C564.871 60.9958 563.308 60.377 562.007 59.1394C560.602 57.7969 559.899 56.1398 559.899 54.168C559.899 52.3431 560.518 50.8013 561.756 49.5427C563.14 48.0954 564.85 47.3717 566.884 47.3717ZM566.727 17.6379C568.594 17.6379 570.178 18.3091 571.478 19.6516C573.219 21.4136 574.09 23.9098 574.09 27.1401C574.09 29.2797 573.712 31.5871 572.957 34.0623C572.223 36.5165 571.237 38.7085 569.999 40.6383C568.594 42.8199 567.461 43.9106 566.601 43.9106C565.762 43.9106 564.577 42.5157 563.046 39.7259C561.913 37.6702 561.011 35.4677 560.34 33.1183C559.689 30.769 559.364 28.6189 559.364 26.6681C559.364 24.2769 559.899 22.2736 560.969 20.6585C562.29 18.6447 564.21 17.6379 566.727 17.6379Z" fill="#C2DCEE"/>
<path d="M34.7274 18.7077L50.3966 32.4261C51.8649 33.7057 52.9242 34.3455 53.5745 34.3455C54.6653 34.3455 55.2107 33.1813 55.2107 30.8529C55.2107 28.2099 55.0533 26.4059 54.7387 25.441C54.424 24.4761 53.7633 23.7525 52.7564 23.27C51.9384 22.8714 51.3615 22.4519 51.0259 22.0114C50.6903 21.5499 50.5225 20.9626 50.5225 20.2494C50.5225 18.4874 51.7286 17.3547 54.1409 16.8513C55.1268 16.6415 56.8468 16.5366 59.301 16.5366C62.4684 16.5366 64.6605 16.7254 65.8771 17.103C67.8069 17.6903 68.7718 18.8021 68.7718 20.4382C68.7718 21.8017 67.9852 22.8295 66.412 23.5217C65.7827 23.7944 65.3527 24.0356 65.1219 24.2454C64.8912 24.4552 64.6919 24.7698 64.5241 25.1893C63.9578 26.5738 63.6641 29.1958 63.6431 33.0554V43.3128C63.6431 44.886 63.6536 47.0361 63.6746 49.763C63.6955 53.4548 63.4753 56.1188 63.0138 57.7549C62.4475 59.7896 61.4196 60.807 59.9303 60.807C59.28 60.807 58.7137 60.6706 58.2312 60.398C57.7698 60.1253 56.9936 59.496 55.9029 58.5101L37.2445 41.8025C35.944 40.6278 34.8637 40.0405 34.0037 40.0405C32.7241 40.0405 32.0843 41.813 32.0843 45.358C32.0843 48.2737 32.2417 50.2664 32.5563 51.3362C32.8919 52.406 33.5632 53.1926 34.57 53.696C35.9754 54.3883 36.6781 55.2902 36.6781 56.402C36.6781 59.3177 33.5422 60.7755 27.2703 60.7755C24.4385 60.7755 22.236 60.4084 20.6628 59.6743C19.1105 58.9191 18.3344 57.8598 18.3344 56.4964C18.3344 55.7832 18.4812 55.2483 18.7749 54.8917C19.0686 54.5351 19.7293 54.0526 20.7572 53.4443C21.7431 52.857 22.3409 51.8187 22.5506 50.3294C22.9072 47.6234 23.0855 43.7323 23.0855 38.6561C23.0855 33.2442 22.7709 29.3007 22.1416 26.8255C21.9109 25.9235 21.6172 25.2523 21.2606 24.8118C20.904 24.3712 20.3167 23.9517 19.4986 23.5532C18.5547 23.0917 17.8939 22.6407 17.5163 22.2002C17.1597 21.7597 16.9814 21.2248 16.9814 20.5955C16.9814 18.5818 18.712 17.3127 22.1731 16.7883C23.3477 16.6205 25.4034 16.5366 28.3401 16.5366C30.0182 16.5366 31.2348 16.673 31.99 16.9457C32.7661 17.1974 33.6785 17.7847 34.7274 18.7077Z" stroke="#56A0D1" stroke-width="32" mask="url(#path-1-outside-1_168_20)"/>
<path d="M98.9776 46.0502H84.1893C83.5391 46.0502 83.214 46.3334 83.214 46.8997C83.214 48.2632 83.9481 49.5532 85.4165 50.7699C86.9058 51.9655 88.5 52.5633 90.199 52.5633C91.2059 52.5633 92.3176 52.3745 93.5343 51.997C94.7719 51.5984 95.7892 51.116 96.5863 50.5496C97.2995 50.0462 97.8659 49.7945 98.2854 49.7945C98.8308 49.7945 99.3657 50.1301 99.8901 50.8013C100.414 51.4726 100.677 52.1648 100.677 52.878C100.677 54.3883 99.7327 55.8461 97.8449 57.2515C94.5097 59.7477 90.6605 60.9958 86.2975 60.9958C81.8924 60.9958 78.2006 59.7162 75.222 57.1571C73.7746 55.8985 72.579 54.3778 71.6351 52.5948C70.3975 50.2245 69.7787 47.7283 69.7787 45.1063C69.7787 41.5823 70.8485 38.4148 72.988 35.604C74.8339 33.1708 77.1833 31.3563 80.036 30.1607C82.1756 29.2587 84.4935 28.8077 86.9897 28.8077C90.9752 28.8077 94.3628 29.9404 97.1527 32.2059C98.5581 33.3386 99.6908 34.6811 100.551 36.2333C101.537 37.9953 102.03 39.7154 102.03 41.3935C102.03 42.7569 101.746 43.8792 101.18 44.7602C100.614 45.6202 99.8796 46.0502 98.9776 46.0502ZM85.0074 40.1664H88.1853C89.5278 40.1664 90.199 39.5476 90.199 38.31C90.199 37.1772 89.8739 36.2543 89.2236 35.5411C88.5734 34.8279 87.7238 34.4713 86.675 34.4713C85.5004 34.4713 84.5774 34.9328 83.9062 35.8557C83.2769 36.7158 82.9622 37.5863 82.9622 38.4673C82.9622 39.0966 83.1091 39.5371 83.4027 39.7888C83.7174 40.0405 84.2523 40.1664 85.0074 40.1664Z" stroke="#56A0D1" stroke-width="32" mask="url(#path-1-outside-1_168_20)"/>
<path d="M139.881 54.7029L136.64 49.5113C135.885 48.3366 135.392 47.6339 135.162 47.4032C134.952 47.1724 134.669 47.0571 134.312 47.0571C133.557 47.0571 132.781 47.7493 131.984 49.1337L126.729 58.1954C125.722 59.9365 124.59 60.807 123.331 60.807C122.555 60.807 121.842 60.5448 121.191 60.0204C120.541 59.475 119.838 58.5625 119.083 57.283L109.644 41.5823C108.071 39.0441 106.844 37.387 105.963 36.6109C105.543 36.2753 104.778 35.9501 103.666 35.6355C103.204 35.4887 102.816 35.2055 102.502 34.786C102.208 34.3455 102.061 33.863 102.061 33.3386C102.061 31.7234 103.309 30.5907 105.805 29.9404C108.323 29.3112 111.07 28.9965 114.049 28.9965C120.74 28.9965 124.086 30.2446 124.086 32.7408C124.086 33.2022 123.761 33.905 123.111 34.8489C122.985 35.0377 122.922 35.2369 122.922 35.4467C122.922 35.9082 123.415 37.0514 124.401 38.8763C125.492 40.953 126.436 41.9913 127.233 41.9913C127.694 41.9913 128.281 41.4669 128.995 40.4181C129.708 39.3693 130.064 38.5197 130.064 37.8695C130.064 37.2192 129.907 36.7053 129.592 36.3277C129.278 35.9292 128.533 35.3104 127.358 34.4713C126.645 33.9679 126.289 33.3701 126.289 32.6778C126.289 31.0417 127.967 29.9719 131.323 29.4685C133.358 29.1538 135.749 28.9965 138.497 28.9965C141.664 28.9965 143.951 29.2692 145.356 29.8146C146.761 30.339 147.464 31.199 147.464 32.3947C147.464 32.8771 147.38 33.2652 147.212 33.5588C147.045 33.8525 146.594 34.3769 145.86 35.1321C145.629 35.3838 145.513 35.7089 145.513 36.1075C145.513 36.6738 145.996 37.8695 146.961 39.6944C147.8 41.2886 148.565 42.0857 149.258 42.0857C150.013 42.0857 150.967 41.0683 152.121 39.0336C152.96 37.5024 153.38 36.485 153.38 35.9816C153.38 35.5831 153.044 34.9643 152.373 34.1252C151.89 33.5379 151.649 32.8981 151.649 32.2059C151.649 31.1151 152.142 30.36 153.128 29.9404C154.512 29.3321 156.526 29.028 159.169 29.028C160.952 29.028 162.536 29.1643 163.92 29.437C164.717 29.6048 165.367 29.9509 165.871 30.4753C166.374 30.9788 166.626 31.5661 166.626 32.2373C166.626 32.9086 166.332 33.4749 165.745 33.9364C165.64 34.0413 164.906 34.335 163.542 34.8174C162.766 35.1111 162.127 35.5306 161.623 36.076C161.12 36.6214 160.511 37.5968 159.798 39.0022L151.932 54.2309C149.625 58.6779 147.59 60.9014 145.828 60.9014C145.073 60.9014 144.234 60.4294 143.311 59.4855C142.409 58.5206 141.266 56.9264 139.881 54.7029Z" stroke="#56A0D1" stroke-width="32" mask="url(#path-1-outside-1_168_20)"/>
<path d="M201.52 28.7763C205.17 28.7763 208.264 29.6992 210.802 31.5451C212.144 32.531 213.078 33.6637 213.602 34.9433C214.148 36.2019 214.42 37.9429 214.42 40.1664L214.357 44.8546C214.357 48.1059 214.588 50.214 215.05 51.1789C215.28 51.6404 215.501 51.934 215.71 52.0599C215.92 52.1858 216.361 52.3011 217.032 52.406C217.703 52.5109 218.039 52.9514 218.039 53.7275C218.039 54.7344 217.63 55.7832 216.812 56.8739C216.015 57.9647 214.976 58.8772 213.697 59.6113C212.123 60.5343 210.477 60.9958 208.757 60.9958C206.554 60.9958 204.813 60.2406 203.534 58.7303C203.093 58.185 202.684 57.9123 202.307 57.9123C201.887 57.9123 201.331 58.1745 200.639 58.6989C198.541 60.2301 196.161 60.9958 193.497 60.9958C190.749 60.9958 188.525 60.4084 186.826 59.2338C185.714 58.4577 184.833 57.4508 184.183 56.2132C183.533 54.9546 183.208 53.6436 183.208 52.2801C183.208 50.0986 184.089 48.1688 185.851 46.4907C188.599 43.8477 192.71 42.5157 198.185 42.4947C199.401 42.4947 200.167 42.3794 200.482 42.1486C200.796 41.8969 200.954 41.3305 200.954 40.4495C200.954 38.2261 200.723 36.6214 200.261 35.6355C199.8 34.6286 199.045 34.1252 197.996 34.1252C197.367 34.1252 196.8 34.314 196.297 34.6916C195.814 35.0691 195.206 35.7614 194.472 36.7682C192.605 39.4322 190.654 40.7642 188.62 40.7642C187.592 40.7642 186.753 40.46 186.102 39.8517C185.452 39.2434 185.127 38.4463 185.127 37.4604C185.127 36.4536 185.526 35.4467 186.323 34.4398C187.141 33.433 188.242 32.552 189.626 31.7968C193.423 29.7831 197.388 28.7763 201.52 28.7763ZM199.412 46.9941C198.489 46.9941 197.681 47.3717 196.989 48.1269C196.318 48.882 195.982 49.784 195.982 50.8328C195.982 51.8396 196.223 52.6577 196.706 53.287C197.188 53.8953 197.828 54.1995 198.625 54.1995C200.303 54.1995 201.142 52.7836 201.142 49.9518C201.142 48.7981 201.017 48.022 200.765 47.6234C200.534 47.2249 200.083 47.0151 199.412 46.9941Z" stroke="#56A0D1" stroke-width="32" mask="url(#path-1-outside-1_168_20)"/>
<path d="M238.082 35.195V45.2951C238.082 49.763 238.145 52.3641 238.27 53.0982C238.417 53.8324 238.942 54.3987 239.844 54.7973C240.62 55.1329 241.134 55.4476 241.385 55.7412C241.658 56.0349 241.794 56.4544 241.794 56.9998C241.794 57.692 241.543 58.3213 241.039 58.8877C240.557 59.454 239.907 59.8526 239.088 60.0833C237.578 60.5448 235.03 60.7755 231.443 60.7755C227.394 60.7755 224.552 60.4714 222.916 59.8631C222.161 59.5904 221.542 59.1708 221.059 58.6045C220.577 58.0171 220.336 57.4088 220.336 56.7796C220.336 56.2761 220.462 55.8881 220.713 55.6154C220.986 55.3427 221.563 55.0175 222.444 54.64C223.262 54.2834 223.765 53.308 223.954 51.7138C224.29 48.9869 224.458 45.1063 224.458 40.072C224.458 34.9538 224.311 31.6605 224.017 30.1922C223.723 28.7238 222.989 27.6331 221.814 26.9199C220.933 26.4164 220.325 25.9445 219.99 25.504C219.675 25.0425 219.518 24.4866 219.518 23.8364C219.518 22.8085 220.011 21.917 220.996 21.1619C221.982 20.3858 223.556 19.6726 225.716 19.0223C227.163 18.5818 229.041 18.1623 231.348 17.7637C233.656 17.3652 235.334 17.1659 236.383 17.1659C238.04 17.1659 238.868 18.1937 238.868 20.2494C238.868 20.9207 238.763 22.4624 238.554 24.8747C238.281 28.6294 238.124 32.0695 238.082 35.195Z" stroke="#56A0D1" stroke-width="32" mask="url(#path-1-outside-1_168_20)"/>
<path d="M260.767 19.0852L260.358 31.3563C260.358 31.65 260.358 31.8807 260.358 32.0486C260.358 32.4681 260.495 32.6778 260.767 32.6778C260.914 32.6778 261.334 32.3947 262.026 31.8283C264.48 29.8146 267.186 28.8077 270.144 28.8077C273.08 28.8077 275.671 29.867 277.915 31.9856C280.726 34.6496 282.132 38.1212 282.132 42.4003C282.132 48.5044 279.856 53.3814 275.304 57.0313C272.032 59.6743 268.193 60.9958 263.788 60.9958C261.606 60.9958 259.635 60.7126 257.873 60.1462C256.132 59.6009 254.223 58.6569 252.146 57.3144C251.832 57.1257 251.58 57.0313 251.391 57.0313C251.16 57.0313 250.51 57.2305 249.44 57.6291C248.895 57.8389 248.255 57.9437 247.521 57.9437C246.22 57.9437 245.57 57.5242 245.57 56.6852C245.57 56.4125 245.623 56.0978 245.727 55.7412C246.147 54.3778 246.43 52.6892 246.577 50.6755C246.724 48.6617 246.797 45.4734 246.797 41.1103V32.4261C246.797 30.2656 246.713 28.9126 246.546 28.3672C246.378 27.8218 245.906 27.3918 245.13 27.0772C244.039 26.6157 243.284 26.1647 242.864 25.7242C242.445 25.2627 242.235 24.6859 242.235 23.9937C242.235 22.5883 243.735 21.2143 246.734 19.8718C248.37 19.1587 250.405 18.5399 252.838 18.0154C255.293 17.4701 257.39 17.1974 259.131 17.1974C260.243 17.1974 260.788 17.8267 260.767 19.0852ZM263.473 38.2785C262.341 38.2785 261.523 38.6666 261.019 39.4427C260.621 40.03 260.421 41.2257 260.421 43.0296C260.421 47.959 260.589 51.2838 260.925 53.0038C261.218 54.598 262.11 55.3951 263.599 55.3951C265.13 55.3951 266.295 54.7449 267.092 53.4443C267.889 52.1438 268.287 50.2559 268.287 47.7807C268.287 44.1309 267.616 41.4669 266.274 39.7888C265.498 38.8239 264.564 38.3205 263.473 38.2785Z" stroke="#56A0D1" stroke-width="32" mask="url(#path-1-outside-1_168_20)"/>
<path d="M301.671 30.6012V47.6549C301.671 51.3048 302.877 53.1297 305.289 53.1297C305.898 53.1297 306.496 52.9619 307.083 52.6263C307.67 52.2697 308.079 51.8396 308.31 51.3362C308.772 50.3294 309.002 48.0849 309.002 44.6028C309.002 41.1627 308.887 38.8134 308.656 37.5548C308.572 37.0304 308.425 36.6528 308.216 36.4221C308.006 36.1704 307.607 35.8872 307.02 35.5726C305.824 34.9433 305.227 34.1462 305.227 33.1813C305.227 31.8807 306.254 30.9788 308.31 30.4753C312.212 29.5104 316.061 29.028 319.857 29.028C321.976 29.028 323.035 30.1502 323.035 32.3947C323.035 32.6254 323.025 33.0974 323.004 33.8106C322.962 34.8174 322.93 36.0445 322.91 37.4919V51.3677C322.91 52.0809 323.518 52.7311 324.734 53.3185C325.762 53.8219 326.276 54.5561 326.276 55.521C326.276 57.4088 324.042 58.8667 319.574 59.8945C316.952 60.5028 314.414 60.807 311.96 60.807C310.953 60.807 310.261 60.6916 309.883 60.4609C309.527 60.2301 309.317 59.7792 309.254 59.1079C309.149 57.8074 308.751 57.1571 308.058 57.1571C307.807 57.1571 307.576 57.2201 307.366 57.3459C307.156 57.4508 306.517 57.8703 305.447 58.6045C303.328 60.0518 301.052 60.7755 298.619 60.7755C294.592 60.7755 291.749 59.6113 290.092 57.283C288.687 55.3322 287.984 52.0494 287.984 47.4346C287.984 45.7146 287.995 44.2462 288.016 43.0296C288.016 42.3164 288.016 41.834 288.016 41.5823C288.016 39.7783 287.848 38.4568 287.512 37.6178C287.197 36.7577 286.61 36.0865 285.75 35.604C284.932 35.1845 284.408 34.8489 284.177 34.5972C283.967 34.3455 283.862 33.9993 283.862 33.5588C283.862 31.9647 285.068 30.9054 287.481 30.3809C291.592 29.479 295.703 29.028 299.815 29.028C301.052 29.028 301.671 29.5524 301.671 30.6012Z" stroke="#56A0D1" stroke-width="32" mask="url(#path-1-outside-1_168_20)"/>
<path d="M343.361 29.028C344.557 29.028 345.155 29.8775 345.155 31.5766C345.155 31.5976 345.155 31.7759 345.155 32.1115C345.134 32.4471 345.123 32.7198 345.123 32.9296C345.123 34.0623 345.459 34.6286 346.13 34.6286C346.487 34.6286 347.043 34.1776 347.798 33.2757C348.931 31.9751 350.357 30.9473 352.077 30.1922C353.797 29.416 355.559 29.028 357.363 29.028C360.866 29.028 363.299 30.3075 364.663 32.8666C365.187 33.8106 365.617 34.2825 365.953 34.2825C366.184 34.2825 366.729 33.863 367.589 33.024C370.316 30.36 373.41 29.028 376.871 29.028C379.577 29.028 381.79 29.7726 383.51 31.2619C385.314 32.8142 386.216 35.1426 386.216 38.247C386.216 38.9183 386.195 40.051 386.153 41.6452C386.111 42.1906 386.09 43.8372 386.09 46.5851C386.09 48.3471 386.079 49.5847 386.059 50.2979C386.038 50.7384 386.027 51.053 386.027 51.2418C386.027 52.5843 386.447 53.759 387.286 54.7658C387.789 55.3741 388.093 55.7832 388.198 55.9929C388.324 56.1817 388.387 56.4439 388.387 56.7796C388.387 59.4645 385.23 60.807 378.916 60.807C376.126 60.807 373.871 60.4714 372.151 59.8001C370.452 59.1289 369.603 58.2479 369.603 57.1571C369.603 56.7376 369.655 56.423 369.76 56.2132C369.886 55.9825 370.295 55.3951 370.987 54.4512C371.637 53.5912 371.962 50.7279 371.962 45.8614C371.962 43.0296 371.763 41.0579 371.365 39.9461C370.903 38.6246 369.98 37.9639 368.596 37.9639C367.904 37.9639 367.285 38.1841 366.739 38.6246C366.215 39.0441 365.869 39.579 365.701 40.2293C365.512 40.9844 365.407 42.9982 365.386 46.2705C365.449 49.7945 365.554 51.934 365.701 52.6892C365.869 53.4443 366.404 54.4931 367.306 55.8356C367.516 56.1503 367.62 56.5488 367.62 57.0313C367.62 59.5274 364.359 60.7755 357.835 60.7755C353.912 60.7755 351.269 60.4819 349.906 59.8945C348.815 59.433 348.27 58.615 348.27 57.4403C348.27 56.9159 348.333 56.5488 348.459 56.3391C348.605 56.1293 349.077 55.6468 349.874 54.8917C350.336 54.4512 350.63 54.0422 350.755 53.6646C350.902 53.266 351.007 52.5528 351.07 51.525C351.217 49.2176 351.29 46.8893 351.29 44.5399C351.29 40.4286 350.242 38.3729 348.144 38.3729C346.571 38.3729 345.637 39.2539 345.344 41.0159C345.092 42.673 344.966 45.0433 344.966 48.1269C344.966 50.4342 345.008 51.9445 345.092 52.6577C345.197 53.3709 345.459 54.1156 345.879 54.8917C346.382 55.7937 346.634 56.5278 346.634 57.0942C346.634 58.4577 345.679 59.4016 343.77 59.926C341.694 60.4923 339.407 60.7755 336.911 60.7755C333.681 60.7755 331.311 60.5238 329.8 60.0204C328.29 59.496 327.535 58.6779 327.535 57.5662C327.535 57.1466 327.629 56.79 327.818 56.4964C328.028 56.2027 328.489 55.7412 329.202 55.1119C330.146 54.2519 330.692 53.0668 330.839 51.5565C331.069 48.9554 331.185 46.26 331.185 43.4701C331.185 41.4774 331.08 40.0929 330.87 39.3168C330.681 38.5197 330.262 37.88 329.611 37.3975C328.982 36.915 328.573 36.548 328.384 36.2962C328.217 36.0445 328.133 35.6984 328.133 35.2579C328.133 33.8525 329.234 32.7408 331.436 31.9227C336.743 30.0139 340.718 29.049 343.361 29.028Z" stroke="#56A0D1" stroke-width="32" mask="url(#path-1-outside-1_168_20)"/>
<path d="M418.97 28.8077C420.019 28.8077 421.729 29.0385 424.099 29.4999C424.581 29.5838 424.98 29.6258 425.295 29.6258C425.651 29.6258 426.343 29.437 427.371 29.0594C427.854 28.8707 428.263 28.7763 428.598 28.7763C429.563 28.7763 430.539 29.3951 431.525 30.6327C432.322 31.6185 432.972 32.6988 433.475 33.8735C433.979 35.0482 434.23 36.0655 434.23 36.9255C434.23 37.7646 433.937 38.4673 433.349 39.0336C432.762 39.579 432.028 39.8517 431.147 39.8517C430.413 39.8517 429.752 39.6734 429.165 39.3168C428.598 38.9602 427.675 38.1736 426.396 36.957C425.053 35.6565 423.942 35.0062 423.061 35.0062C422.473 35.0062 421.959 35.2265 421.519 35.667C421.099 36.0865 420.89 36.5899 420.89 37.1772C420.89 38.2051 421.875 39.17 423.847 40.072C427.392 41.6662 430.109 43.4072 431.996 45.2951C433.591 46.8893 434.388 48.84 434.388 51.1474C434.388 54.0631 433.108 56.4964 430.549 58.4472C428.347 60.1462 425.651 60.9958 422.463 60.9958C421.645 60.9958 420.155 60.8594 417.995 60.5867C415.96 60.356 414.817 60.2406 414.565 60.2406C414.293 60.2406 413.978 60.2721 413.621 60.335C413.013 60.4189 412.572 60.4609 412.3 60.4609C411.314 60.4609 410.538 60.2092 409.971 59.7057C409.111 58.9296 408.314 57.713 407.58 56.0559C406.846 54.3778 406.479 52.9409 406.479 51.7453C406.479 49.8154 407.234 48.8505 408.744 48.8505C409.332 48.8505 409.867 49.0498 410.349 49.4484C410.852 49.8259 411.891 50.8538 413.464 52.5319C414.324 53.4548 415.037 54.0946 415.604 54.4512C416.17 54.7868 416.778 54.9546 417.428 54.9546C418.121 54.9546 418.677 54.7763 419.096 54.4197C419.516 54.0422 419.725 53.5492 419.725 52.9409C419.725 51.997 418.918 51.1369 417.303 50.3608C413.925 48.7037 411.482 46.9941 409.971 45.2321C408.482 43.4701 407.737 41.4354 407.737 39.128C407.737 36.6319 408.503 34.4818 410.034 32.6778C412.216 30.0978 415.195 28.8077 418.97 28.8077Z" stroke="#56A0D1" stroke-width="32" mask="url(#path-1-outside-1_168_20)"/>
<path d="M456.57 28.7763C460.409 28.7763 463.776 29.7726 466.67 31.7654C468.747 33.1918 470.414 35.0482 471.673 37.3346C472.974 39.7259 473.624 42.222 473.624 44.8231C473.624 49.3749 471.537 53.2451 467.362 56.4334C463.377 59.475 458.815 60.9958 453.675 60.9958C448.662 60.9958 444.603 59.5694 441.499 56.7166C438.478 53.9478 436.968 50.3398 436.968 45.8929C436.968 40.9425 438.814 36.8941 442.506 33.7476C446.365 30.4334 451.053 28.7763 456.57 28.7763ZM454.053 36.0445C453.13 36.0445 452.385 36.3906 451.819 37.0829C451.274 37.7541 451.001 38.6561 451.001 39.7888C451.001 41.0474 451.232 42.7674 451.693 44.9489C452.176 47.1095 452.742 49.0288 453.392 50.7069C454.043 52.427 455.102 53.287 456.57 53.287C458.437 53.287 459.371 52.1018 459.371 49.7315C459.371 47.9695 459.129 45.9663 458.647 43.7218C458.185 41.4774 457.619 39.6524 456.948 38.247C456.256 36.8207 455.291 36.0865 454.053 36.0445Z" stroke="#56A0D1" stroke-width="32" mask="url(#path-1-outside-1_168_20)"/>
<path d="M495.397 28.7763C499.236 28.7763 502.603 29.7726 505.497 31.7654C507.574 33.1918 509.242 35.0482 510.5 37.3346C511.801 39.7259 512.451 42.222 512.451 44.8231C512.451 49.3749 510.364 53.2451 506.19 56.4334C502.204 59.475 497.642 60.9958 492.503 60.9958C487.489 60.9958 483.43 59.5694 480.326 56.7166C477.305 53.9478 475.795 50.3398 475.795 45.8929C475.795 40.9425 477.641 36.8941 481.333 33.7476C485.192 30.4334 489.88 28.7763 495.397 28.7763ZM492.88 36.0445C491.957 36.0445 491.212 36.3906 490.646 37.0829C490.101 37.7541 489.828 38.6561 489.828 39.7888C489.828 41.0474 490.059 42.7674 490.52 44.9489C491.003 47.1095 491.569 49.0288 492.219 50.7069C492.87 52.427 493.929 53.287 495.397 53.287C497.264 53.287 498.198 52.1018 498.198 49.7315C498.198 47.9695 497.956 45.9663 497.474 43.7218C497.012 41.4774 496.446 39.6524 495.775 38.247C495.083 36.8207 494.118 36.0865 492.88 36.0445Z" stroke="#56A0D1" stroke-width="32" mask="url(#path-1-outside-1_168_20)"/>
<path d="M552.914 40.4181L553.355 51.4935C553.397 52.3326 553.522 52.9514 553.732 53.3499C553.963 53.7485 554.613 54.5141 555.683 55.6468C555.998 55.9825 556.155 56.4544 556.155 57.0627C556.155 58.4472 555.326 59.4121 553.669 59.9575C552.012 60.5028 549.054 60.7755 544.796 60.7755C541.902 60.7755 539.856 60.5238 538.661 60.0204C537.423 59.496 536.804 58.6464 536.804 57.4718C536.804 57.0522 536.867 56.7481 536.993 56.5593C537.119 56.3495 537.539 55.8566 538.252 55.0805C539.091 54.1995 539.51 51.2628 539.51 46.2705C539.51 43.3757 539.175 41.2362 538.503 39.8517C537.958 38.74 536.951 38.1841 535.483 38.1841C534.077 38.1841 533.113 38.6351 532.588 39.5371C532.064 40.4391 531.802 42.0752 531.802 44.4455V50.6755C531.802 51.9131 531.875 52.7626 532.022 53.2241C532.19 53.6856 532.714 54.577 533.595 55.8986C533.826 56.2761 533.941 56.7061 533.941 57.1886C533.941 58.4262 533.081 59.3387 531.361 59.926C529.641 60.5133 526.956 60.807 523.306 60.807C517.475 60.807 514.559 59.6009 514.559 57.1886C514.559 56.6852 514.643 56.3076 514.811 56.0559C515 55.7832 515.43 55.4056 516.101 54.9232C516.646 54.5246 516.992 54.0736 517.139 53.5702C517.286 53.0458 517.422 51.7767 517.548 49.763C517.695 47.3717 517.768 44.865 517.768 42.243C517.768 40.7957 517.653 39.8517 517.422 39.4112C517.213 38.9497 516.583 38.3939 515.534 37.7436C514.632 37.1772 514.181 36.485 514.181 35.667C514.181 34.8279 514.549 34.1462 515.283 33.6218C516.017 33.0764 517.527 32.3947 519.814 31.5766C521.827 30.8634 523.768 30.2656 525.634 29.7831C527.501 29.2797 528.781 29.028 529.473 29.028C530.102 29.028 530.627 29.2587 531.046 29.7202C531.487 30.1817 531.707 30.7271 531.707 31.3563C531.707 31.4193 531.697 31.6815 531.676 32.1429C531.655 32.3108 531.644 32.4576 531.644 32.5835C531.644 33.5903 532.064 34.0937 532.903 34.0937C533.406 34.0937 533.941 33.6952 534.507 32.8981C536.311 30.297 538.933 28.9965 542.374 28.9965C545.017 28.9965 547.282 29.6887 549.17 31.0732C550.491 32.059 551.414 33.2232 551.939 34.5657C552.463 35.8872 552.788 37.838 552.914 40.4181Z" stroke="#56A0D1" stroke-width="32" mask="url(#path-1-outside-1_168_20)"/>
<path d="M566.884 47.3717C568.709 47.3717 570.272 48.0534 571.572 49.4169C572.873 50.7594 573.523 52.3326 573.523 54.1365C573.523 56.0034 572.852 57.6186 571.51 58.9821C570.167 60.3245 568.562 60.9958 566.695 60.9958C564.871 60.9958 563.308 60.377 562.007 59.1394C560.602 57.7969 559.899 56.1398 559.899 54.168C559.899 52.3431 560.518 50.8013 561.756 49.5427C563.14 48.0954 564.85 47.3717 566.884 47.3717ZM566.727 17.6379C568.594 17.6379 570.178 18.3091 571.478 19.6516C573.219 21.4136 574.09 23.9098 574.09 27.1401C574.09 29.2797 573.712 31.5871 572.957 34.0623C572.223 36.5165 571.237 38.7085 569.999 40.6383C568.594 42.8199 567.461 43.9106 566.601 43.9106C565.762 43.9106 564.577 42.5157 563.046 39.7259C561.913 37.6702 561.011 35.4677 560.34 33.1183C559.689 30.769 559.364 28.6189 559.364 26.6681C559.364 24.2769 559.899 22.2736 560.969 20.6585C562.29 18.6447 564.21 17.6379 566.727 17.6379Z" stroke="#56A0D1" stroke-width="32" mask="url(#path-1-outside-1_168_20)"/>
</svg>
