<?xml version="1.0" encoding="UTF-8"?>
<svg id="Calque_2" data-name="Calque 2" xmlns="http://www.w3.org/2000/svg" viewBox="0 0 225.89 315.9">
  <defs>
    <style>
      .cls-1 {
        fill: #1e1e1e;
      }

      .cls-2 {
        fill: #1b1d1e;
      }

      .cls-2, .cls-3, .cls-4, .cls-5 {
        stroke-width: 2px;
      }

      .cls-2, .cls-3, .cls-4, .cls-5, .cls-6 {
        stroke: #1e1e1e;
      }

      .cls-2, .cls-4, .cls-5, .cls-6 {
        stroke-linecap: round;
        stroke-linejoin: round;
      }

      .cls-3 {
        stroke-miterlimit: 10;
      }

      .cls-3, .cls-4, .cls-6 {
        fill: none;
      }

      .cls-7 {
        fill: #3b779f;
      }

      .cls-8 {
        fill: #77b6dd;
      }

      .cls-5 {
        fill: #b3b4b3;
      }
    </style>
  </defs>
  <g id="Calque_1-2" data-name="Calque 1">
    <g>
      <g>
        <path class="cls-5" d="M15.36,121.14s31.48-33.93,60.59-32.36,59.61,22.24,64.33,43.28,4.16,46.82-18.78,47.41c0,0-1.31-15.62-2.46-27.05"/>
        <path class="cls-2" d="M119.04,152.43c4.64,3.18,13.34-41.83-31.48-48.21s-51.56,1.46-49.19,1.46,4.74,2.73,4.74,2.73c0,0-10.93,1.46-26.97,12.21s-15.13,16.22-15.13,16.22c0,0,6.2-1.28,4.47,0s-4.65,8.38-4.46,9.66,8.93-2.37,8.93-2.37c0,0,47.81-33.72,109.1,8.31Z"/>
      </g>
      <g>
        <path class="cls-7" d="M113.28,138.88c9.22,19.43,9.18,61.37,8.55,95.18,19.87-.57,38.64-.93,54.92-.56h.03c2.85.06,5.62.15,8.31.27h.12c8.9.16,22.64-.05,30.71-2.33,4-1.14,6.56-3.25,6.55-6.93-.01-6.08-9.36-7.64-13.88-8.03v.02s-.03-.02-.03-.02h.03l1.14-2.16c12.76-26.91,11.98-55.5-1.84-71.81-3.08-3.63-10.79-11.37-22.9-16.44-1.89-.79-11.68-4.78-24.74-4.86-24.04-.17-41,12.09-47.19,17.21.08.15.15.3.22.46Z"/>
        <g>
          <path class="cls-4" d="M112.89,138.56c6.05-5.03,23.1-17.51,47.36-17.35,13.06.09,22.84,4.07,24.73,4.87,12.11,5.07,19.83,12.81,22.9,16.44,13.82,16.31,14.6,44.9,1.85,71.81l-1.15,2.18"/>
          <path class="cls-4" d="M162.57,215.2l43.63,1.13s16.26.15,16.27,8.17c0,3.68-2.55,5.79-6.55,6.93-12.67,3.58-39.29,2.06-39.29,2.06"/>
          <path class="cls-4" d="M145.69,215.2h-23.62"/>
          <path class="cls-6" d="M183.69,207.36s29.1-14.71,6.93-44.75"/>
          <path class="cls-6" d="M181.34,154.98s-27.38-19.82-50.3,6.6"/>
          <path class="cls-6" d="M171.65,170.03s11.38,24.09-14.29,29.97c-23.22,5.33-23.62-13.48-23.62-13.48"/>
          <path class="cls-6" d="M154.78,182.37s-7,2.8-9.58-3.33,0-9.01,0-9.01c0,0,3.09-5.21,10.99-4.93"/>
        </g>
      </g>
      <g>
        <path class="cls-8" d="M3.44,227.72c1,13,1,27,2,40,2,11,4,22,12,30s18,12,29,13c48,4,95,6,143,2,8-1,16-3,22-9,7-6,12-14,13-23,3-19-6-39-24-46-26-5-53.09-.1-78.66-.66.21-6.22.29-67.75-5.2-85.13-1.97-6.22-4.87-12.17-8.89-17.35-.42-.55-.83-1.18-1.3-1.72-.7-18.04-3.43-93.39-.55-93.28,3.26.12,13.41-8.86,10.72-21.34-2.68-12.48-11.66-12.94-17.25-14.11-5.6-1.16-19.94,5.48-19.24,17.38.7,11.89,9.19,18.15,9.19,18.15v82.4c-17.38-4.25-35.69-6.5-52.72.39.04.12.08.24.12.36l-1.08.02c.33-.11.64-.25.96-.38-.96-2.98-2.45-6.13-4.78-8.46-5.69-5.69-8.21-5.89-8.42-5.9,4.75-2.38,13.41-7.7,11.75-14.24,0,0,10.86-5.95,10.59-18.28-.27-12.32-7.96-16.96-15.85-18.15-9.86-1.48-21.89,6.13-20.49,18.57,1.4,12.43,11.04,17.86,11.04,17.86,3.44,2.68-8.46,5.37-11.91,8.58-4.47,4.16-8.41,15.06,4.03,17.43,5,.95,7.39,3.14,8.46,5.41.86,1.84.86,3.73.69,5.07-.15,1.13-.43,1.87-.43,1.87l-.06-1.53c-6.73,5.06-8.76,12.13-11.72,19.04-4,9-4,19-5,29-1,17-2,35-1,52Z"/>
        <path class="cls-4" d="M21.16,127.68c-6.73,5.06-8.76,12.13-11.72,19.04-4,9-4,19-5,29-1,17-2,35-1,52,1,13,1,27,2,40,2,11,4,22,12,30s18,12,29,13c48,4,95,6,143,2,8-1,16-3,22-9,7-6,12-14,13-23,3-19-9.12-44.79-28.37-46.31-19.86-1.56-45.94-1.17-74.29-.35"/>
        <path class="cls-4" d="M106.5,130.11c17.42,11.91,15.98,73,15.12,114.52"/>
        <path class="cls-4" d="M21.22,129.21s3.71-9.99-8.72-12.36-8.49-13.27-4.03-17.42c3.45-3.21,15.35-5.91,11.91-8.58,0,0-9.63-5.43-11.03-17.86s10.63-20.05,20.49-18.56c7.89,1.19,15.58,5.82,15.85,18.15s-10.59,18.28-10.59,18.28c2.28,8.93-14.71,15.59-14.71,15.59"/>
        <path class="cls-4" d="M36.55,119.45c17.02-6.89,35.33-4.65,52.72-.39"/>
        <path class="cls-4" d="M38.24,128.33s-.53-11.38-6.48-17.34c-5.95-5.95-8.43-5.9-8.43-5.9"/>
        <path class="cls-4" d="M89.26,129.38V36.66s-8.49-6.26-9.19-18.16C79.37,6.61,93.71-.03,99.31,1.13s14.58,1.63,17.26,14.11-7.46,21.45-10.73,21.34c-3.26-.12.7,97.13.7,97.13"/>
      </g>
      <path class="cls-3" d="M76.64,154.54s-1.93,8.83-9.15,14.93c-7.23,6.1-24.24,1.12-21.52-19.59"/>
      <path class="cls-1" d="M100.28,14.99h0c-2.35,0-4.25,1.9-4.25,4.25s1.9,4.25,4.25,4.25h0c2.35,0,4.25-1.9,4.25-4.25s-1.9-4.25-4.25-4.25h0Z"/>
      <path class="cls-1" d="M28.13,69.07h0c-2.35,0-4.25,1.9-4.25,4.25h0c0,2.35,1.9,4.25,4.25,4.25h0c2.35,0,4.25-1.9,4.25-4.25h0c0-2.35-1.9-4.25-4.25-4.25h0Z"/>
    </g>
  </g>
</svg>