<?xml version="1.0" encoding="UTF-8"?>
<svg id="Calque_2" data-name="Calque 2" xmlns="http://www.w3.org/2000/svg" viewBox="0 0 223.87 316.69">
  <defs>
    <style>
      .cls-1 {
        fill: #d7a0a4;
      }

      .cls-2 {
        fill: #1e1e1e;
      }

      .cls-3 {
        stroke-miterlimit: 10;
      }

      .cls-3, .cls-4 {
        stroke-width: 2px;
      }

      .cls-3, .cls-4, .cls-5 {
        fill: none;
        stroke: #1e1e1e;
      }

      .cls-6 {
        fill: #fef6ba;
      }

      .cls-4, .cls-5 {
        stroke-linecap: round;
        stroke-linejoin: round;
      }
    </style>
  </defs>
  <g id="Calque_1-2" data-name="Calque 1">
    <g>
      <g>
        <path class="cls-1" d="M112.61,139.67c-9.22,19.43-9.18,61.37-8.55,95.18-19.87-.57-38.64-.93-54.92-.56h-.03c-2.85.06-5.62.15-8.31.27h-.12c-8.9.16-22.64-.05-30.71-2.33-4-1.14-6.56-3.25-6.55-6.93.01-6.08,9.36-7.64,13.88-8.03v.02s.03-.02.03-.02h-.03l-1.14-2.16c-12.76-26.91-11.98-55.5,1.84-71.81,3.08-3.63,10.79-11.37,22.9-16.44,1.89-.79,11.68-4.78,24.74-4.86,24.04-.17,41,12.09,47.19,17.21-.08.15-.15.3-.22.46Z"/>
        <g>
          <path class="cls-4" d="M113.01,139.34c-6.05-5.03-23.1-17.51-47.36-17.35-13.06.09-22.84,4.07-24.73,4.87-12.11,5.07-19.83,12.81-22.9,16.44-13.82,16.31-14.6,44.9-1.85,71.81l1.15,2.18"/>
          <path class="cls-4" d="M63.33,215.99l-43.63,1.13s-16.26.15-16.27,8.17c0,3.68,2.55,5.79,6.55,6.93,12.67,3.58,39.29,2.06,39.29,2.06"/>
          <path class="cls-4" d="M80.2,215.99h23.62"/>
          <path class="cls-5" d="M42.2,208.15s-29.1-14.71-6.93-44.75"/>
          <path class="cls-5" d="M44.55,155.77s27.38-19.82,50.3,6.6"/>
          <path class="cls-5" d="M54.24,170.82s-11.38,24.09,14.29,29.97c23.22,5.33,23.62-13.48,23.62-13.48"/>
          <path class="cls-5" d="M71.11,183.16s7,2.8,9.58-3.33,0-9.01,0-9.01c0,0-3.09-5.21-10.99-4.93"/>
        </g>
      </g>
      <g>
        <path class="cls-6" d="M222.18,228.26c-1,13-1,27-2,40-2,11-4,22-12,30s-18,12-29,13c-48,4-95,6-143,2-7.5-.94-15-2.75-20.85-7.92-.13-.11-.25-.22-.37-.34-.17-.16-.34-.32-.51-.49-.05-.04-.09-.08-.14-.13-.83-.7-1.62-1.45-2.39-2.21-5.66-5.68-9.6-12.79-10.47-20.66-3-19,9.12-44.8,28.38-46.31,8.52-.68,18.18-.98,28.67-1.06h.3c11.83.13,24.95.41,36.44.47,2.91.07,5.85.15,8.82.24-.11-5.75-.2-11.73-.23-17.8v-.02c.19-16.21.87-39.81,2.89-55.54h0c.78-5.14,1.76-9.87,3-14.04,1.93-5.49,4.63-10.71,8.21-15.33.05-.06.09-.13.14-.19.37-.5.74-1.05,1.16-1.53.06-1.48.13-3.34.21-5.52-1.15-2.13-3.55-4.13-8.27-5.03-12.43-2.36-8.49-13.27-4.03-17.42,3.46-3.21,15.36-5.91,11.91-8.58,0,0-9.63-5.43-11.03-17.87-1.06-9.37,5.52-16,13.05-18.06,2.45-.68,5.01-.86,7.44-.5,2.55.39,5.08,1.13,7.34,2.38,4.74,2.61,8.33,7.42,8.51,15.77.2,9.63-6.38,15.37-9.27,17.42-.81.57-1.33.86-1.33.86,1.65,6.47-6.81,11.74-11.6,14.16.9.22,3.55,1.25,8.28,5.98,1.79,1.78,3.09,4.06,4.03,6.37l-.02.66c.08-.02.17-.04.25-.06,16.33-3.98,33.62-6.38,49.76-.87.97.33,1.93.68,2.88,1.07-.01.02.03.01.09-.02V36.66s-8.49-6.27-9.19-18.16c-.7-11.89,13.64-18.54,19.24-17.37,5.6,1.16,14.57,1.63,17.26,14.11,2.68,12.47-7.47,21.45-10.73,21.33-.92-.03-1.27,7.68-1.29,18.76-.04,20.39,1.01,52.2,1.61,68.3-.53,1.57-.5,3.11-.36,4.25.15,1.13.43,1.87.43,1.87l.06-1.53s.03.02.04.03c.51.38.99.78,1.44,1.19.14.12.28.25.42.37,5.25,4.9,7.16,11.24,9.82,17.45,4,9,4,19,5,29,1,17,2,35,1,52Z"/>
        <path class="cls-4" d="M204.73,128.47c6.73,5.06,8.76,12.13,11.72,19.04,4,9,4,19,5,29,1,17,2,35,1,52-1,13-1,27-2,40-2,11-4,22-12,30s-18,12-29,13c-48,4-95,6-143,2-8-1-16-3-22-9-7-6-12-14-13-23-3-19,9.12-44.79,28.37-46.31,19.86-1.56,45.94-1.17,74.29-.35"/>
        <path class="cls-4" d="M119.39,130.9c-17.42,11.91-15.98,73-15.12,114.52"/>
        <path class="cls-4" d="M119.89,132.21s3.71-9.99-8.72-12.36-8.49-13.27-4.03-17.42c3.45-3.21,15.35-5.91,11.91-8.58,0,0-9.63-5.43-11.03-17.86s10.63-20.05,20.49-18.56c7.89,1.19,15.58,5.82,15.85,18.15s-10.59,18.28-10.59,18.28c2.28,8.93-14.71,15.59-14.71,15.59"/>
        <path class="cls-4" d="M187.34,121.17c-17.02-6.89-35.33-4.65-52.72-.39"/>
        <path class="cls-4" d="M136.92,131.33s-.53-11.38-6.48-17.34c-5.95-5.95-8.43-5.9-8.43-5.9"/>
        <path class="cls-4" d="M187.43,129.38V36.66s-8.49-6.26-9.19-18.16c-.7-11.89,13.64-18.54,19.24-17.37s14.58,1.63,17.26,14.11-7.46,21.45-10.73,21.34.7,97.13.7,97.13"/>
      </g>
      <path class="cls-3" d="M149.25,155.33s1.93,8.83,9.15,14.93c7.23,6.1,24.24,1.12,21.52-19.59"/>
      <path class="cls-2" d="M198.45,14.99c-2.35,0-4.25,1.9-4.25,4.25s1.9,4.25,4.25,4.25,4.25-1.9,4.25-4.25-1.9-4.25-4.25-4.25h0Z"/>
      <path class="cls-2" d="M126.81,72.07c-2.35,0-4.25,1.9-4.25,4.25h0c0,2.35,1.9,4.25,4.25,4.25s4.25-1.9,4.25-4.25h0c0-2.35-1.9-4.25-4.25-4.25h0Z"/>
    </g>
  </g>
</svg>